{"accessors":[{"bufferView":0,"componentType":5126,"count":7,"max":[12.65,10.49,-43.57],"min":[-9.94,-5.66,-51.39],"type":"VEC3"},{"bufferView":1,"componentType":5126,"count":7,"max":[9.5,11.29,-49.89],"min":[-12.46,-6.66,-56.1],"type":"VEC3"},{"bufferView":2,"componentType":5126,"count":34,"max":[1.0,1.0,1.0],"min":[-1.0,-1.0,-1.0],"type":"VEC3"},{"bufferView":3,"componentType":5126,"count":34,"type":"VEC3"},{"bufferView":4,"componentType":5123,"count":192,"type":"SCALAR"},{"bufferView":5,"componentType":5126,"count":153,"max":[1.0,1.0,1.0],"min":[-1.0,-1.0,-1.0],"type":"VEC3"},{"bufferView":6,"componentType":5126,"count":153,"type":"VEC3"},{"bufferView":7,"componentType":5123,"count":768,"type":"SCALAR"}],"asset":{"generator":"rnaview_vrml_gltf vrml-gltf-v1","version":"2.0"},"bufferViews":[{"buffer":0,"byteLength":84,"byteOffset":0,"target":34962},{"buffer":1,"byteLength":84,"byteOffset":0,"target":34962},{"buffer":2,"byteLength":408,"byteOffset":0,"target":34962},{"buffer":2,"byteLength":408,"byteOffset":408,"target":34962},{"buffer":2,"byteLength":384,"byteOffset":816,"target":34963},{"buffer":3,"byteLength":1836,"byteOffset":0,"target":34962},{"buffer":3,"byteLength":1836,"byteOffset":1836,"target":34962},{"buffer":3,"byteLength":1536,"byteOffset":3672,"target":34963}],"buffers":[{"byteLength":84,"uri":"data:application/octet-stream;base64,"},{"byteLength":84,"uri":"data:application/octet-stream;base64,"},{"byteLength":1200,"uri":"data:application/octet-stream;base64,"},{"byteLength":5208,"uri":"data:application/octet-stream;base64,"}],"materials":[{"alphaMode":"BLEND","pbrMetallicRoughness":{"baseColorFactor":[0.71,0.34,0.88,0.0],"metallicFactor":0.0,"roughnessFactor":1.0}},{"alphaMode":"BLEND","pbrMetallicRoughness":{"baseColorFactor":[1.0,1.0,0.5,0.0],"metallicFactor":0.0,"roughnessFactor":1.0}},{"pbrMetallicRoughness":{"baseColorFactor":[1.0,0.0,0.0,1.0],"metallicFactor":0.0,"roughnessFactor":1.0}},{"alphaMode":"BLEND","pbrMetallicRoughness":{"baseColorFactor":[1.0,0.0,0.0,0.4],"metallicFactor":0.0,"roughnessFactor":1.0}}],"meshes":[{"primitives":[{"attributes":{"POSITION":0},"material":0,"mode":3}]},{"primitives":[{"attributes":{"POSITION":1},"material":1,"mode":3}]},{"primitives":[{"attributes":{"NORMAL":3,"POSITION":2},"indices":4,"material":2}]},{"primitives":[{"attributes":{"NORMAL":3,"POSITION":2},"indices":4,"material":3}]},{"primitives":[{"attributes":{"NORMAL":6,"POSITION":5},"indices":7,"material":2}]}],"nodes":[{"children":[1,2,3,4,5,6,7,8,9,10,11,12,13,14,15,16,17,18,19,20,21,22,23,24],"extras":{"renderer_version":"vrml-gltf-v1","source":"vrml"}},{"extras":{"kind":"IndexedLineSet"},"mesh":0},{"extras":{"kind":"IndexedLineSet"},"mesh":1},{"extras":{"color":[0.0,1.0,1.0,1.0],"kind":"Label","text":"  U"},"translation":[-8.83,10.49,-51.39]},{"extras":{"color":[1.0,0.0,0.0,1.0],"kind":"Label","text":"  A"},"translation":[-9.94,6.41,-47.16]},{"extras":{"color":[0.0,1.0,0.0,1.0],"kind":"Label","text":"  G"},"translation":[-7.97,1.53,-44.36]},{"extras":{"color":[0.0,0.0,1.0,1.0],"kind":"Label","text":"  C"},"translation":[-4.15,-3.22,-43.57]},{"extras":{"color":[0.0,1.0,1.0,1.0],"kind":"Label","text":"  U"},"translation":[1.33,-5.49,-44.27]},{"extras":{"color":[0.0,0.0,1.0,1.0],"kind":"Label","text":"  C"},"translation":[7.38,-5.66,-45.83]},{"extras":{"color":[0.0,0.0,1.0,1.0],"kind":"Label","text":"  C"},"translation":[12.65,-2.52,-46.1]},{"extras":{"color":[0.0,1.0,0.0,1.0],"kind":"Label","text":"  G"},"translation":[7.61,11.29,-49.89]},{"extras":{"color":[0.0,1.0,0.0,1.0],"kind":"Label","text":"  G"},"translation":[9.5,6.78,-53.61]},{"extras":{"color":[0.0,1.0,0.0,1.0],"kind":"Label","text":"  G"},"translation":[8.37,0.83,-55.45]},{"extras":{"color":[0.0,1.0,0.0,1.0],"kind":"Label","text":"  G"},"translation":[4.31,-3.54,-56.1]},{"extras":{"color":[0.0,0.0,1.0,1.0],"kind":"Label","text":"  C"},"translation":[-0.88,-6.17,-55.11]},{"extras":{"color":[0.0,1.0,1.0,1.0],"kind":"Label","text":"  U"},"translation":[-6.92,-6.66,-53.5]},{"extras":{"color":[1.0,0.0,0.0,1.0],"kind":"Label","text":"  A"},"translation":[-12.46,-4.05,-53.67]},{"extras":{"kind":"Cyl"},"mesh":2,"rotation":[-0.523866,0.0,0.840162,0.140332],"scale":[0.22,6.89,0.22],"translation":[-10.65,3.22,-52.53]},{"extras":{"kind":"Cyl"},"mesh":2,"rotation":[-0.875184,0.0,-0.418143,0.243329],"scale":[0.21,6.75,0.21],"translation":[-8.43,-0.13,-50.33]},{"extras":{"kind":"Cyl"},"mesh":2,"rotation":[-0.725142,0.0,-0.480516,0.493228],"scale":[0.21,6.82,0.21],"translation":[-4.42,-2.32,-49.74]},{"extras":{"kind":"Cyl"},"mesh":2,"rotation":[-0.591768,0.0,-0.399265,0.700285],"scale":[0.22,6.87,0.22],"translation":[0.08,-3.38,-49.83]},{"extras":{"kind":"Cyl"},"mesh":3,"rotation":[-0.450743,0.0,-0.281051,0.847255],"scale":[0.18,6.66,0.18],"translation":[4.85,-2.33,-49.86]},{"extras":{"kind":"Sphere"},"mesh":4,"scale":[0.98,0.98,0.98],"translation":[4.85,-2.33,-49.86]},{"extras":{"kind":"Cyl"},"mesh":2,"rotation":[-0.271381,0.0,-0.073499,0.959662],"scale":[0.21,6.74,0.21],"translation":[8.44,0.56,-49.72]},{"extras":{"kind":"Cyl"},"mesh":2,"rotation":[-0.128008,0.0,0.170678,0.976976],"scale":[0.22,6.9,0.22],"translation":[10.13,4.39,-48.0]}],"scene":0,"scenes":[{"nodes":[0]}]}
