{"accessors":[{"bufferView":0,"componentType":5126,"count":10,"max":[11.43,20.76,-42.98],"min":[-2.94,-12.91,-53.73],"type":"VEC3"},{"bufferView":1,"componentType":5126,"count":10,"max":[11.91,4.32,-44.52],"min":[-17.49,-8.13,-58.49],"type":"VEC3"},{"bufferView":2,"componentType":5126,"count":34,"max":[1.0,1.0,1.0],"min":[-1.0,-1.0,-1.0],"type":"VEC3"},{"bufferView":3,"componentType":5126,"count":34,"type":"VEC3"},{"bufferView":4,"componentType":5123,"count":192,"type":"SCALAR"}],"asset":{"generator":"rnaview_vrml_gltf vrml-gltf-v1","version":"2.0"},"bufferViews":[{"buffer":0,"byteLength":120,"byteOffset":0,"target":34962},{"buffer":1,"byteLength":120,"byteOffset":0,"target":34962},{"buffer":2,"byteLength":408,"byteOffset":0,"target":34962},{"buffer":2,"byteLength":408,"byteOffset":408,"target":34962},{"buffer":2,"byteLength":384,"byteOffset":816,"target":34963}],"buffers":[{"byteLength":120,"uri":"data:application/octet-stream;base64,"},{"byteLength":120,"uri":"data:application/octet-stream;base64,"},{"byteLength":1200,"uri":"data:application/octet-stream;base64,"}],"materials":[{"alphaMode":"BLEND","pbrMetallicRoughness":{"baseColorFactor":[0.71,0.34,0.88,0.0],"metallicFactor":0.0,"roughnessFactor":1.0}},{"alphaMode":"BLEND","pbrMetallicRoughness":{"baseColorFactor":[1.0,1.0,0.5,0.0],"metallicFactor":0.0,"roughnessFactor":1.0}},{"pbrMetallicRoughness":{"baseColorFactor":[1.0,0.0,0.0,1.0],"metallicFactor":0.0,"roughnessFactor":1.0}}],"meshes":[{"primitives":[{"attributes":{"POSITION":0},"material":0,"mode":3}]},{"primitives":[{"attributes":{"POSITION":1},"material":1,"mode":3}]},{"primitives":[{"attributes":{"NORMAL":3,"POSITION":2},"indices":4,"material":2}]}],"nodes":[{"children":[1,2,3,4,5,6,7,8,9,10,11,12,13,14,15,16,17,18,19,20,21,22,23,24,25,26,27,28],"extras":{"renderer_version":"vrml-gltf-v1","source":"vrml"}},{"extras":{"kind":"IndexedLineSet"},"mesh":0},{"extras":{"kind":"IndexedLineSet"},"mesh":1},{"extras":{"color":[0.537,0.0,0.537,1.0],"kind":"Label","text":"  T"},"translation":[11.43,-12.91,-53.73]},{"extras":{"color":[0.0,0.0,1.0,1.0],"kind":"Label","text":"  C"},"translation":[8.05,-12.32,-48.91]},{"extras":{"color":[0.0,1.0,0.0,1.0],"kind":"Label","text":"  G"},"translation":[5.12,-10.41,-45.22]},{"extras":{"color":[0.0,1.0,0.0,1.0],"kind":"Label","text":"  G"},"translation":[3.89,-5.55,-42.98]},{"extras":{"color":[0.537,0.0,0.537,1.0],"kind":"Label","text":"  T"},"translation":[1.67,-0.51,-45.06]},{"extras":{"color":[1.0,0.0,0.0,1.0],"kind":"Label","text":"  A"},"translation":[0.14,3.62,-48.66]},{"extras":{"color":[0.0,0.0,1.0,1.0],"kind":"Label","text":"  C"},"translation":[-2.94,9.17,-49.34]},{"extras":{"color":[0.0,0.0,1.0,1.0],"kind":"Label","text":"  C"},"translation":[-0.83,14.98,-50.59]},{"extras":{"color":[0.0,1.0,0.0,1.0],"kind":"Label","text":"  G"},"translation":[2.74,18.87,-51.26]},{"extras":{"color":[1.0,0.0,0.0,1.0],"kind":"Label","text":"  A"},"translation":[7.47,20.76,-49.21]},{"extras":{"color":[0.537,0.0,0.537,1.0],"kind":"Label","text":"  T"},"translation":[-17.49,4.32,-46.74]},{"extras":{"color":[0.0,0.0,1.0,1.0],"kind":"Label","text":"  C"},"translation":[-16.04,-1.41,-47.42]},{"extras":{"color":[0.0,1.0,0.0,1.0],"kind":"Label","text":"  G"},"translation":[-13.95,-5.81,-48.83]},{"extras":{"color":[0.0,1.0,0.0,1.0],"kind":"Label","text":"  G"},"translation":[-11.53,-8.13,-53.13]},{"extras":{"color":[0.537,0.0,0.537,1.0],"kind":"Label","text":"  T"},"translation":[-7.04,-6.67,-56.76]},{"extras":{"color":[1.0,0.0,0.0,1.0],"kind":"Label","text":"  A"},"translation":[-2.12,-3.77,-58.49]},{"extras":{"color":[0.0,0.0,1.0,1.0],"kind":"Label","text":"  C"},"translation":[2.84,-2.76,-57.0]},{"extras":{"color":[0.0,0.0,1.0,1.0],"kind":"Label","text":"  C"},"translation":[6.5,0.04,-52.99]},{"extras":{"color":[0.0,1.0,0.0,1.0],"kind":"Label","text":"  G"},"translation":[10.19,0.62,-49.18]},{"extras":{"color":[1.0,0.0,0.0,1.0],"kind":"Label","text":"  A"},"translation":[11.91,-2.12,-44.52]},{"extras":{"kind":"Cyl"},"mesh":2,"rotation":[0.347157,0.0,-0.017358,0.937646],"scale":[0.2,6.45,0.2],"translation":[11.67,-7.52,-49.12]},{"extras":{"kind":"Cyl"},"mesh":2,"rotation":[-0.009616,0.0,-0.079334,0.996802],"scale":[0.19,5.97,0.19],"translation":[9.12,-5.85,-49.05]},{"extras":{"kind":"Cyl"},"mesh":2,"rotation":[-0.31461,0.0,-0.054575,0.947651],"scale":[0.19,5.95,0.19],"translation":[5.81,-5.19,-49.1]},{"extras":{"kind":"Cyl"},"mesh":2,"rotation":[-0.631129,0.0,0.044179,0.774419],"scale":[0.2,6.52,0.2],"translation":[3.36,-4.16,-49.99]},{"extras":{"kind":"Cyl"},"mesh":2,"rotation":[-0.75407,0.0,0.212082,0.62161],"scale":[0.2,6.51,0.2],"translation":[-0.23,-2.14,-51.78]},{"extras":{"kind":"Cyl"},"mesh":2,"rotation":[-0.689747,0.0,0.606977,0.394751],"scale":[0.21,6.79,0.21],"translation":[-3.45,-1.52,-52.71]}],"scene":0,"scenes":[{"nodes":[0]}]}
