{"accessors":[{"bufferView":0,"componentType":5126,"count":26,"max":[13.74,12.21,-40.99],"min":[-14.34,-18.1,-59.92],"type":"VEC3"},{"bufferView":1,"componentType":5126,"count":34,"max":[1.0,1.0,1.0],"min":[-1.0,-1.0,-1.0],"type":"VEC3"},{"bufferView":2,"componentType":5126,"count":34,"type":"VEC3"},{"bufferView":3,"componentType":5123,"count":192,"type":"SCALAR"},{"bufferView":4,"componentType":5126,"count":153,"max":[1.0,1.0,1.0],"min":[-1.0,-1.0,-1.0],"type":"VEC3"},{"bufferView":5,"componentType":5126,"count":153,"type":"VEC3"},{"bufferView":6,"componentType":5123,"count":768,"type":"SCALAR"},{"bufferView":7,"componentType":5126,"count":18,"max":[1.0,1.0,1.0],"min":[-1.0,-1.0,-1.0],"type":"VEC3"},{"bufferView":8,"componentType":5126,"count":18,"type":"VEC3"},{"bufferView":9,"componentType":5123,"count":96,"type":"SCALAR"},{"bufferView":10,"componentType":5126,"count":24,"max":[1.0,1.0,1.0],"min":[-1.0,-1.0,-1.0],"type":"VEC3"},{"bufferView":11,"componentType":5126,"count":24,"type":"VEC3"},{"bufferView":12,"componentType":5123,"count":36,"type":"SCALAR"}],"asset":{"generator":"rnaview_vrml_gltf vrml-gltf-v1","version":"2.0"},"bufferViews":[{"buffer":0,"byteLength":312,"byteOffset":0,"target":34962},{"buffer":1,"byteLength":408,"byteOffset":0,"target":34962},{"buffer":1,"byteLength":408,"byteOffset":408,"target":34962},{"buffer":1,"byteLength":384,"byteOffset":816,"target":34963},{"buffer":2,"byteLength":1836,"byteOffset":0,"target":34962},{"buffer":2,"byteLength":1836,"byteOffset":1836,"target":34962},{"buffer":2,"byteLength":1536,"byteOffset":3672,"target":34963},{"buffer":3,"byteLength":216,"byteOffset":0,"target":34962},{"buffer":3,"byteLength":216,"byteOffset":216,"target":34962},{"buffer":3,"byteLength":192,"byteOffset":432,"target":34963},{"buffer":4,"byteLength":288,"byteOffset":0,"target":34962},{"buffer":4,"byteLength":288,"byteOffset":288,"target":34962},{"buffer":4,"byteLength":72,"byteOffset":576,"target":34963}],"buffers":[{"byteLength":312,"uri":"data:application/octet-stream;base64,"},{"byteLength":1200,"uri":"data:application/octet-stream;base64,"},{"byteLength":5208,"uri":"data:application/octet-stream;base64,"},{"byteLength":624,"uri":"data:application/octet-stream;base64,"},{"byteLength":648,"uri":"data:application/octet-stream;base64,"}],"materials":[{"alphaMode":"BLEND","pbrMetallicRoughness":{"baseColorFactor":[0.71,0.34,0.88,0.0],"metallicFactor":0.0,"roughnessFactor":1.0}},{"pbrMetallicRoughness":{"baseColorFactor":[1.0,0.0,0.0,1.0],"metallicFactor":0.0,"roughnessFactor":1.0}},{"alphaMode":"BLEND","pbrMetallicRoughness":{"baseColorFactor":[1.0,0.0,0.0,0.4],"metallicFactor":0.0,"roughnessFactor":1.0}},{"alphaMode":"BLEND","pbrMetallicRoughness":{"baseColorFactor":[1.0,1.0,0.0,0.4],"metallicFactor":0.0,"roughnessFactor":1.0}}],"meshes":[{"primitives":[{"attributes":{"POSITION":0},"material":0,"mode":3}]},{"primitives":[{"attributes":{"NORMAL":2,"POSITION":1},"indices":3,"material":1}]},{"primitives":[{"attributes":{"NORMAL":2,"POSITION":1},"indices":3,"material":2}]},{"primitives":[{"attributes":{"NORMAL":5,"POSITION":4},"indices":6,"material":1}]},{"primitives":[{"attributes":{"NORMAL":8,"POSITION":7},"indices":9,"material":1}]},{"primitives":[{"attributes":{"NORMAL":5,"POSITION":4},"indices":6,"material":3}]},{"primitives":[{"attributes":{"NORMAL":11,"POSITION":10},"indices":12,"material":1}]}],"nodes":[{"children":[1,2,3,4,5,6,7,8,9,10,11,12,13,14,15,16,17,18,19,20,21,22,23,24,25,26,27,28,29,30,31,32,33,34,35,36,37,38,39,40,41,42,43,44,45,46],"extras":{"renderer_version":"vrml-gltf-v1","source":"vrml"}},{"extras":{"kind":"IndexedLineSet"},"mesh":0},{"extras":{"color":[0.0,0.0,1.0,1.0],"kind":"Label","text":"  C"},"translation":[-1.45,-18.1,-46.57]},{"extras":{"color":[1.0,0.0,0.0,1.0],"kind":"Label","text":"  A"},"translation":[-1.92,-16.32,-52.56]},{"extras":{"color":[0.0,0.0,1.0,1.0],"kind":"Label","text":"  C"},"translation":[-4.17,-11.83,-56.35]},{"extras":{"color":[0.0,1.0,0.0,1.0],"kind":"Label","text":"  G"},"translation":[-6.5,-6.32,-57.59]},{"extras":{"color":[0.537,0.0,0.537,1.0],"kind":"Label","text":"  T"},"translation":[-6.97,-0.89,-55.05]},{"extras":{"color":[0.0,1.0,0.0,1.0],"kind":"Label","text":"  G"},"translation":[-4.2,5.04,-54.06]},{"extras":{"color":[0.537,0.0,0.537,1.0],"kind":"Label","text":"  T"},"translation":[-3.23,10.93,-52.74]},{"extras":{"color":[0.537,0.0,0.537,1.0],"kind":"Label","text":"  T"},"translation":[-4.13,12.21,-48.53]},{"extras":{"color":[0.0,1.0,0.0,1.0],"kind":"Label","text":"  G"},"translation":[-5.57,8.16,-49.76]},{"extras":{"color":[0.537,0.0,0.537,1.0],"kind":"Label","text":"  T"},"translation":[-3.54,1.78,-48.49]},{"extras":{"color":[0.0,0.0,1.0,1.0],"kind":"Label","text":"  C"},"translation":[-0.31,3.63,-42.44]},{"extras":{"color":[0.537,0.0,0.537,1.0],"kind":"Label","text":"  T"},"translation":[3.85,7.87,-44.46]},{"extras":{"color":[0.0,0.0,1.0,1.0],"kind":"Label","text":"  C"},"translation":[8.82,10.57,-46.44]},{"extras":{"color":[0.537,0.0,0.537,1.0],"kind":"Label","text":"  T"},"translation":[11.8,11.42,-51.84]},{"extras":{"color":[0.0,0.0,1.0,1.0],"kind":"Label","text":"  C"},"translation":[8.38,8.45,-56.23]},{"extras":{"color":[0.537,0.0,0.537,1.0],"kind":"Label","text":"  T"},"translation":[7.54,4.07,-59.92]},{"extras":{"color":[0.0,1.0,0.0,1.0],"kind":"Label","text":"  G"},"translation":[10.85,1.53,-58.27]},{"extras":{"color":[0.537,0.0,0.537,1.0],"kind":"Label","text":"  T"},"translation":[12.42,0.15,-52.2]},{"extras":{"color":[0.0,1.0,0.0,1.0],"kind":"Label","text":"  G"},"translation":[13.74,-0.45,-46.37]},{"extras":{"color":[0.537,0.0,0.537,1.0],"kind":"Label","text":"  T"},"translation":[10.79,-1.87,-40.99]},{"extras":{"color":[0.0,0.0,1.0,1.0],"kind":"Label","text":"  C"},"translation":[4.56,-2.14,-41.72]},{"extras":{"color":[0.537,0.0,0.537,1.0],"kind":"Label","text":"  T"},"translation":[-1.79,-1.03,-42.21]},{"extras":{"color":[0.0,0.0,1.0,1.0],"kind":"Label","text":"  C"},"translation":[-7.98,-1.15,-43.73]},{"extras":{"color":[0.0,1.0,0.0,1.0],"kind":"Label","text":"  G"},"translation":[-12.51,-3.49,-47.21]},{"extras":{"color":[0.537,0.0,0.537,1.0],"kind":"Label","text":"  T"},"translation":[-14.34,-8.08,-51.12]},{"extras":{"color":[0.0,1.0,0.0,1.0],"kind":"Label","text":"  G"},"translation":[-14.13,-14.12,-53.14]},{"extras":{"kind":"Cyl"},"mesh":1,"rotation":[-0.277872,0.0,0.537622,0.796084],"scale":[0.21,6.74,0.21],"translation":[-7.79,-16.11,-49.85]},{"extras":{"kind":"Cyl"},"mesh":1,"rotation":[0.057161,-0.0,0.47158,0.879969],"scale":[0.21,6.81,0.21],"translation":[-8.13,-12.2,-51.84]},{"extras":{"kind":"Cyl"},"mesh":1,"rotation":[0.348874,-0.0,0.315873,0.882333],"scale":[0.21,6.78,0.21],"translation":[-8.34,-7.66,-51.78]},{"extras":{"kind":"Cyl"},"mesh":1,"rotation":[0.569364,-0.0,0.063263,0.819648],"scale":[0.21,6.76,0.21],"translation":[-7.24,-3.73,-50.66]},{"extras":{"kind":"Cyl"},"mesh":2,"rotation":[0.660035,0.0,-0.262594,0.703845],"scale":[0.17,6.29,0.17],"translation":[-4.38,-0.96,-48.63]},{"extras":{"kind":"Sphere"},"mesh":3,"scale":[0.92,0.92,0.92],"translation":[-4.38,-0.96,-48.63]},{"extras":{"kind":"Cyl"},"mesh":2,"rotation":[0.701081,-0.0,0.550215,0.453596],"scale":[0.06,2.14,0.06],"translation":[-4.4,9.55,-51.25]},{"extras":{"kind":"Cone"},"mesh":4,"rotation":[0.701081,-0.0,0.550215,0.453596],"scale":[0.31,0.31,0.31],"translation":[-4.4,9.55,-51.25]},{"extras":{"kind":"Cyl"},"mesh":2,"rotation":[-0.223798,0.0,-0.74085,0.63329],"scale":[0.15,5.62,0.15],"translation":[2.58,9.69,-54.49]},{"extras":{"kind":"Sphere"},"mesh":5,"scale":[0.82,0.82,0.82],"translation":[2.58,9.69,-54.49]},{"extras":{"kind":"Cyl"},"mesh":1,"rotation":[-0.293222,0.0,-0.635314,0.714421],"scale":[0.22,6.99,0.22],"translation":[1.4,8.3,-53.0]},{"extras":{"kind":"Cyl"},"mesh":2,"rotation":[0.537324,0.0,-0.28698,0.793048],"scale":[0.09,3.23,0.09],"translation":[-1.92,2.7,-45.47]},{"extras":{"kind":"Cone"},"mesh":4,"rotation":[0.537324,0.0,-0.28698,0.793048],"scale":[0.47,0.47,0.47],"translation":[-2.73,2.24,-46.98]},{"extras":{"kind":"Box"},"mesh":6,"rotation":[0.537324,0.0,-0.28698,0.793048],"scale":[0.39,0.39,0.39],"translation":[-1.11,3.17,-43.95]},{"extras":{"kind":"Cyl"},"mesh":1,"rotation":[-0.215406,0.0,-0.765887,0.60582],"scale":[0.22,6.88,0.22],"translation":[6.72,1.59,-44.41]},{"extras":{"kind":"Cyl"},"mesh":2,"rotation":[-0.19322,0.0,-0.485662,0.852525],"scale":[0.07,2.72,0.07],"translation":[6.33,9.22,-45.45]},{"extras":{"kind":"Cone"},"mesh":4,"rotation":[-0.19322,0.0,-0.485662,0.852525],"scale":[0.4,0.4,0.4],"translation":[5.09,8.55,-44.96]},{"extras":{"kind":"Box"},"mesh":6,"rotation":[-0.19322,0.0,-0.485662,0.852525],"scale":[0.33,0.33,0.33],"translation":[7.58,9.9,-45.95]},{"extras":{"kind":"Cyl"},"mesh":1,"rotation":[-0.882778,0.0,-0.151588,0.444662],"scale":[0.21,6.83,0.21],"translation":[9.84,6.05,-52.36]}],"scene":0,"scenes":[{"nodes":[0]}]}
