#VRML V2.0 utf8

PROTO Label [
  field SFVec3f p 0 0 0
  field SFFloat sz 1.5
  field MFString c []
  field SFVec3f o 0 0 0
  field SFColor dc 0 0 0
  field SFColor ec 0 0 0
  field SFColor sc 0.0 0.0 0.0
  field SFFloat sh 1.0
  field SFFloat tr 0
]
{
  Transform {
    translation IS p
    children [
      Billboard {
        axisOfRotation 0 0 0
        children [
          Transform {
            translation IS o
            children [
              Shape {
                appearance Appearance {
                  material Material {
                    diffuseColor IS dc
                    emissiveColor IS ec
                    specularColor IS sc
                    shininess IS sh
                    transparency IS tr
                  }
                }
                geometry Text {
                  string IS c
                  fontStyle FontStyle {
                    style "BOLD"
                    justify "MIDDLE"
                    size IS sz
                  }
                }
              }
            ]
          }
        ]
      }
    ]
  }
}
PROTO Sphere [
  exposedField SFVec3f p 0 0 0
  field SFFloat rad 1.0
  field SFColor dc 1 0 0 
  field SFColor ec 0 0 0
  field SFColor sc 0 0 0
  field SFFloat sh 1
  field SFFloat tr 0
]
{
  Transform {
    translation IS p
    children [
      Shape {
        appearance Appearance {
          material Material {
            diffuseColor IS dc
            emissiveColor IS ec
            specularColor IS sc
            shininess IS sh
            transparency IS tr
          }
        }
        geometry Sphere {
          radius IS rad
        }
      }
    ]
  }
}
PROTO Box [
  exposedField SFVec3f p 0 0 0
  exposedField SFRotation r 0 0 1 0
  exposedField SFVec3f s 1 1 1
  field SFColor dc 1 0 0 
  field SFColor ec 0 0 0
  field SFColor sc 0 0 0
  field SFFloat sh 1
  field SFFloat tr 0
]
{
  Transform {
    translation IS p
    rotation IS r
    scale IS s
    children [
      Shape {
        appearance Appearance {
          material Material {
            diffuseColor IS dc
            emissiveColor IS ec
            specularColor IS sc
            shininess IS sh
            transparency IS tr
          }
        }
        geometry Box { }
      }
    ]
  }
}
PROTO Cyl [
  exposedField SFVec3f p 0 0 0
  exposedField SFRotation r 0 0 1 0
  exposedField SFVec3f s 1 1 1
  field SFColor dc 1 0 0
  field SFColor ec 0 0 0
  field SFColor sc 0 0 0
  field SFFloat sh 1
  field SFFloat tr 0
]
{
  Transform {
    translation IS p
    rotation IS r
    scale IS s
    children [
      Shape {
        appearance Appearance {
          material Material {
            diffuseColor IS dc
            emissiveColor IS ec
            specularColor IS sc
            shininess IS sh
            transparency IS tr
          }
        }
        geometry Cylinder { }
      }
    ]
  }
}
PROTO Cone [
  exposedField SFVec3f p 0 0 0
  exposedField SFRotation r 0 0 1 0
  exposedField SFVec3f s 1 1 1
  field SFColor dc 1 0 0 
  field SFColor ec 0 0 0
  field SFColor sc 0 0 0
  field SFFloat sh 1
  field SFFloat tr 0
]
{
  Transform {
    translation IS p
    rotation IS r
    scale IS s
    children [
      Shape {
        appearance Appearance {
          material Material {
            diffuseColor IS dc
            emissiveColor IS ec
            specularColor IS sc
            shininess IS sh
            transparency IS tr
          }
        }
        geometry Cone {
        }
      }
    ]
  }
}
Collision {
  collide FALSE
  children [
    
    Shape {
      appearance Appearance {
        material Material {
          diffuseColor 0.71 0.34 0.88
          transparency 1
        }
      }
      geometry IndexedLineSet {
        coord Coordinate {
          point [
            -1.45 -18.10 -46.57, -1.92 -16.32 -52.56, -4.17 -11.83 -56.35
            -6.50 -6.32 -57.59, -6.97 -0.89 -55.05, -4.20 5.04 -54.06, -3.23 10.93 -52.74
            -4.13 12.21 -48.53, -5.57 8.16 -49.76, -3.54 1.78 -48.49, -0.31 3.63 -42.44
            3.85 7.87 -44.46, 8.82 10.57 -46.44, 11.80 11.42 -51.84, 8.38 8.45 -56.23
            7.54 4.07 -59.92, 10.85 1.53 -58.27, 12.42 0.15 -52.20, 13.74 -0.45 -46.37
            10.79 -1.87 -40.99, 4.56 -2.14 -41.72, -1.79 -1.03 -42.21, -7.98 -1.15 -43.73
            -12.51 -3.49 -47.21, -14.34 -8.08 -51.12, -14.13 -14.12 -53.14
          ]
        }
        coordIndex [
          0 1 2 3 4 5 6 7 8 9 10 11 12 13 14 15 16 17 18 19 20 21 22 23
          24 25 -1
        ]
        colorPerVertex FALSE
        color Color {
          color [
            0.71 0.34 0.88
          ]
        }
        colorIndex [
          0
        ]
      }
    }
Label { p  -1.45 -18.10 -46.57 c "  C" dc  0.000, 0.000, 1.000}
Label { p  -1.92 -16.32 -52.56 c "  A" dc  1.000, 0.000, 0.000}
Label { p  -4.17 -11.83 -56.35 c "  C" dc  0.000, 0.000, 1.000}
Label { p  -6.50 -6.32 -57.59 c "  G" dc  0.000, 1.000, 0.000}
Label { p  -6.97 -0.89 -55.05 c "  T" dc  0.537, 0.000, 0.537}
Label { p  -4.20 5.04 -54.06 c "  G" dc  0.000, 1.000, 0.000}
Label { p  -3.23 10.93 -52.74 c "  T" dc  0.537, 0.000, 0.537}
Label { p  -4.13 12.21 -48.53 c "  T" dc  0.537, 0.000, 0.537}
Label { p  -5.57 8.16 -49.76 c "  G" dc  0.000, 1.000, 0.000}
Label { p  -3.54 1.78 -48.49 c "  T" dc  0.537, 0.000, 0.537}
Label { p  -0.31 3.63 -42.44 c "  C" dc  0.000, 0.000, 1.000}
Label { p  3.85 7.87 -44.46 c "  T" dc  0.537, 0.000, 0.537}
Label { p  8.82 10.57 -46.44 c "  C" dc  0.000, 0.000, 1.000}
Label { p  11.80 11.42 -51.84 c "  T" dc  0.537, 0.000, 0.537}
Label { p  8.38 8.45 -56.23 c "  C" dc  0.000, 0.000, 1.000}
Label { p  7.54 4.07 -59.92 c "  T" dc  0.537, 0.000, 0.537}
Label { p  10.85 1.53 -58.27 c "  G" dc  0.000, 1.000, 0.000}
Label { p  12.42 0.15 -52.20 c "  T" dc  0.537, 0.000, 0.537}
Label { p  13.74 -0.45 -46.37 c "  G" dc  0.000, 1.000, 0.000}
Label { p  10.79 -1.87 -40.99 c "  T" dc  0.537, 0.000, 0.537}
Label { p  4.56 -2.14 -41.72 c "  C" dc  0.000, 0.000, 1.000}
Label { p  -1.79 -1.03 -42.21 c "  T" dc  0.537, 0.000, 0.537}
Label { p  -7.98 -1.15 -43.73 c "  C" dc  0.000, 0.000, 1.000}
Label { p  -12.51 -3.49 -47.21 c "  G" dc  0.000, 1.000, 0.000}
Label { p  -14.34 -8.08 -51.12 c "  T" dc  0.537, 0.000, 0.537}
Label { p  -14.13 -14.12 -53.14 c "  G" dc  0.000, 1.000, 0.000}
Cyl {p -7.79 -16.11 -49.85  r  -0.46 0.00 0.89 1.30  s  0.21 6.74 0.21  tr  0.00}
 Cyl {p -8.13 -12.20 -51.84  r  0.12 -0.00 0.99 0.99  s  0.21 6.81 0.21  tr  0.00}
 Cyl {p -8.34 -7.66 -51.78  r  0.74 -0.00 0.67 0.98  s  0.21 6.78 0.21  tr  0.00}
 Cyl {p -7.24 -3.73 -50.66  r  0.99 -0.00 0.11 1.22  s  0.21 6.76 0.21  tr  0.00}
 Cyl {p -4.38 -0.96 -48.63  r  0.93 0.00 -0.37 1.58  s  0.17 6.29 0.17  tr  0.60}
 Sphere {p -4.38 -0.96 -48.63  rad  0.92   dc 1 0 0  tr  0.00}
 Cyl {p -4.40 9.55 -51.25  r  0.79 -0.00 0.62 2.20  s  0.06 2.14 0.06  tr  0.60}
 Cone {p -4.40 9.55 -51.25  r  0.79 -0.00 0.62 2.20  s  0.31 0.31 0.31   dc 1 0 0  tr  0.00}
 Cyl {p 2.58 9.69 -54.49  r  -0.29 0.00 -0.96 1.77  s  0.15 5.62 0.15  tr  0.60}
 Sphere {p 2.58 9.69 -54.49  rad  0.82   dc 1 1 0  tr  0.60}
 Cyl {p 1.40 8.30 -53.00  r  -0.42 0.00 -0.91 1.55  s  0.22 6.99 0.22  tr  0.00}
 Cyl {p -1.92 2.70 -45.47  r  0.88 0.00 -0.47 1.31  s  0.09 3.23 0.09  tr  0.60}
 Cone {p -2.73 2.24 -46.98  r  0.88 0.00 -0.47 1.31  s  0.47 0.47 0.47   dc 1 0 0  tr  0.00}
 Box {p -1.11 3.17 -43.95  r  0.88 0.00 -0.47 1.31  s  0.39 0.39 0.39   dc 1 0 0  tr  0.00}
 Cyl {p 6.72 1.59 -44.41  r  -0.27 0.00 -0.96 1.84  s  0.22 6.88 0.22  tr  0.00}
 Cyl {p 6.33 9.22 -45.45  r  -0.37 0.00 -0.93 1.10  s  0.07 2.72 0.07  tr  0.60}
 Cone {p 5.09 8.55 -44.96  r  -0.37 0.00 -0.93 1.10  s  0.40 0.40 0.40   dc 1 0 0  tr  0.00}
 Box {p 7.58 9.90 -45.95  r  -0.37 0.00 -0.93 1.10  s  0.33 0.33 0.33   dc 1 0 0  tr  0.00}
 Cyl {p 9.84 6.05 -52.36  r  -0.99 0.00 -0.17 2.22  s  0.21 6.83 0.21  tr  0.00}
 
  ]
}
NavigationInfo {
  speed 4
  type [
    "EXAMINE" "FLY"
  ]
}
