{"accessors":[{"bufferView":0,"componentType":5126,"count":158,"max":[35.02,47.86,-12.88],"min":[-44.35,-19.01,-76.21],"type":"VEC3"},{"bufferView":1,"componentType":5126,"count":158,"max":[47.83,15.54,-19.58],"min":[-38.51,-42.25,-83.03],"type":"VEC3"},{"bufferView":2,"componentType":5126,"count":34,"max":[1.0,1.0,1.0],"min":[-1.0,-1.0,-1.0],"type":"VEC3"},{"bufferView":3,"componentType":5126,"count":34,"type":"VEC3"},{"bufferView":4,"componentType":5123,"count":192,"type":"SCALAR"},{"bufferView":5,"componentType":5126,"count":24,"max":[1.0,1.0,1.0],"min":[-1.0,-1.0,-1.0],"type":"VEC3"},{"bufferView":6,"componentType":5126,"count":24,"type":"VEC3"},{"bufferView":7,"componentType":5123,"count":36,"type":"SCALAR"},{"bufferView":8,"componentType":5126,"count":153,"max":[1.0,1.0,1.0],"min":[-1.0,-1.0,-1.0],"type":"VEC3"},{"bufferView":9,"componentType":5126,"count":153,"type":"VEC3"},{"bufferView":10,"componentType":5123,"count":768,"type":"SCALAR"},{"bufferView":11,"componentType":5126,"count":18,"max":[1.0,1.0,1.0],"min":[-1.0,-1.0,-1.0],"type":"VEC3"},{"bufferView":12,"componentType":5126,"count":18,"type":"VEC3"},{"bufferView":13,"componentType":5123,"count":96,"type":"SCALAR"}],"asset":{"generator":"rnaview_vrml_gltf vrml-gltf-v1","version":"2.0"},"bufferViews":[{"buffer":0,"byteLength":1896,"byteOffset":0,"target":34962},{"buffer":1,"byteLength":1896,"byteOffset":0,"target":34962},{"buffer":2,"byteLength":408,"byteOffset":0,"target":34962},{"buffer":2,"byteLength":408,"byteOffset":408,"target":34962},{"buffer":2,"byteLength":384,"byteOffset":816,"target":34963},{"buffer":3,"byteLength":288,"byteOffset":0,"target":34962},{"buffer":3,"byteLength":288,"byteOffset":288,"target":34962},{"buffer":3,"byteLength":72,"byteOffset":576,"target":34963},{"buffer":4,"byteLength":1836,"byteOffset":0,"target":34962},{"buffer":4,"byteLength":1836,"byteOffset":1836,"target":34962},{"buffer":4,"byteLength":1536,"byteOffset":3672,"target":34963},{"buffer":5,"byteLength":216,"byteOffset":0,"target":34962},{"buffer":5,"byteLength":216,"byteOffset":216,"target":34962},{"buffer":5,"byteLength":192,"byteOffset":432,"target":34963}],"buffers":[{"byteLength":1896,"uri":"data:application/octet-stream;base64,"},{"byteLength":1896,"uri":"data:application/octet-stream;base64,"},{"byteLength":1200,"uri":"data:application/octet-stream;base64,"},{"byteLength":648,"uri":"data:application/octet-stream;base64,"},{"byteLength":5208,"uri":"data:application/octet-stream;base64,"},{"byteLength":624,"uri":"data:application/octet-stream;base64,"}],"materials":[{"alphaMode":"BLEND","pbrMetallicRoughness":{"baseColorFactor":[0.71,0.34,0.88,0.0],"metallicFactor":0.0,"roughnessFactor":1.0}},{"alphaMode":"BLEND","pbrMetallicRoughness":{"baseColorFactor":[1.0,1.0,0.5,0.0],"metallicFactor":0.0,"roughnessFactor":1.0}},{"pbrMetallicRoughness":{"baseColorFactor":[1.0,0.0,0.0,1.0],"metallicFactor":0.0,"roughnessFactor":1.0}},{"alphaMode":"BLEND","pbrMetallicRoughness":{"baseColorFactor":[1.0,0.0,0.0,0.4],"metallicFactor":0.0,"roughnessFactor":1.0}},{"alphaMode":"BLEND","pbrMetallicRoughness":{"baseColorFactor":[1.0,1.0,0.0,0.4],"metallicFactor":0.0,"roughnessFactor":1.0}}],"meshes":[{"primitives":[{"attributes":{"POSITION":0},"material":0,"mode":3}]},{"primitives":[{"attributes":{"POSITION":1},"material":1,"mode":3}]},{"primitives":[{"attributes":{"NORMAL":3,"POSITION":2},"indices":4,"material":2}]},{"primitives":[{"attributes":{"NORMAL":3,"POSITION":2},"indices":4,"material":3}]},{"primitives":[{"attributes":{"NORMAL":6,"POSITION":5},"indices":7,"material":2}]},{"primitives":[{"attributes":{"NORMAL":9,"POSITION":8},"indices":10,"material":2}]},{"primitives":[{"attributes":{"NORMAL":12,"POSITION":11},"indices":13,"material":4}]},{"primitives":[{"attributes":{"NORMAL":6,"POSITION":5},"indices":7,"material":4}]},{"primitives":[{"attributes":{"NORMAL":9,"POSITION":8},"indices":10,"material":4}]},{"primitives":[{"attributes":{"NORMAL":12,"POSITION":11},"indices":13,"material":2}]}],"nodes":[{"children":[1,2,3,4,5,6,7,8,9,10,11,12,13,14,15,16,17,18,19,20,21,22,23,24,25,26,27,28,29,30,31,32,33,34,35,36,37,38,39,40,41,42,43,44,45,46,47,48,49,50,51,52,53,54,55,56,57,58,59,60,61,62,63,64,65,66,67,68,69,70,71,72,73,74,75,76,77,78,79,80,81,82,83,84,85,86,87,88,89,90,91,92,93,94,95,96,97,98,99,100,101,102,103,104,105,106,107,108,109,110,111,112,113,114,115,116,117,118,119,120,121,122,123,124,125,126,127,128,129,130,131,132,133,134,135,136,137,138,139,140,141,142,143,144,145,146,147,148,149,150,151,152,153,154,155,156,157,158,159,160,161,162,163,164,165,166,167,168,169,170,171,172,173,174,175,176,177,178,179,180,181,182,183,184,185,186,187,188,189,190,191,192,193,194,195,196,197,198,199,200,201,202,203,204,205,206,207,208,209,210,211,212,213,214,215,216,217,218,219,220,221,222,223,224,225,226,227,228,229,230,231,232,233,234,235,236,237,238,239,240,241,242,243,244,245,246,247,248,249,250,251,252,253,254,255,256,257,258,259,260,261,262,263,264,265,266,267,268,269,270,271,272,273,274,275,276,277,278,279,280,281,282,283,284,285,286,287,288,289,290,291,292,293,294,295,296,297,298,299,300,301,302,303,304,305,306,307,308,309,310,311,312,313,314,315,316,317,318,319,320,321,322,323,324,325,326,327,328,329,330,331,332,333,334,335,336,337,338,339,340,341,342,343,344,345,346,347,348,349,350,351,352,353,354,355,356,357,358,359,360,361,362,363,364,365,366,367,368,369,370,371,372,373,374,375,376,377,378,379,380,381,382,383,384,385,386,387,388,389,390,391,392,393,394,395,396,397,398,399,400,401,402,403,404,405,406,407,408,409,410,411,412,413,414,415,416,417,418,419,420,421,422,423,424,425,426,427,428,429,430,431,432,433,434,435,436,437,438,439,440,441,442,443,444,445,446,447,448,449,450,451,452,453,454,455,456,457,458,459,460,461,462,463,464,465,466,467,468,469,470,471,472,473,474,475,476,477,478,479,480,481,482,483,484,485,486,487,488,489,490,491,492,493,494,495,496,497,498,499,500,501,502,503,504,505,506,507,508,509,510,511,512,513,514,515,516,517,518,519,520,521,522,523,524,525,526,527,528,529,530,531,532,533,534,535,536,537,538,539,540,541,542,543,544,545,546,547,548,549,550,551,552,553,554,555,556,557,558,559,560,561,562,563,564,565,566,567,568,569,570,571,572,573,574,575,576],"extras":{"renderer_version":"vrml-gltf-v1","source":"vrml"}},{"extras":{"kind":"IndexedLineSet"},"mesh":0},{"extras":{"kind":"IndexedLineSet"},"mesh":1},{"extras":{"color":[0.0,1.0,0.0,1.0],"kind":"Label","text":"  G"},"translation":[6.43,10.03,-36.45]},{"extras":{"color":[1.0,0.0,0.0,1.0],"kind":"Label","text":"  A"},"translation":[4.86,14.24,-32.85]},{"extras":{"color":[1.0,0.0,0.0,1.0],"kind":"Label","text":"  A"},"translation":[0.4,16.23,-29.13]},{"extras":{"color":[0.0,1.0,1.0,1.0],"kind":"Label","text":"  U"},"translation":[-4.71,17.67,-26.52]},{"extras":{"color":[0.0,1.0,1.0,1.0],"kind":"Label","text":"  U"},"translation":[-10.31,18.88,-30.58]},{"extras":{"color":[0.0,1.0,0.0,1.0],"kind":"Label","text":"  G"},"translation":[-15.47,17.23,-33.37]},{"extras":{"color":[0.0,0.0,1.0,1.0],"kind":"Label","text":"  C"},"translation":[-18.85,12.32,-35.43]},{"extras":{"color":[0.0,1.0,0.0,1.0],"kind":"Label","text":"  G"},"translation":[-20.26,7.07,-37.96]},{"extras":{"color":[0.0,1.0,0.0,1.0],"kind":"Label","text":"  G"},"translation":[-20.37,1.12,-37.98]},{"extras":{"color":[0.0,1.0,0.0,1.0],"kind":"Label","text":"  G"},"translation":[-19.84,-4.1,-34.84]},{"extras":{"color":[1.0,0.0,0.0,1.0],"kind":"Label","text":"  A"},"translation":[-19.37,-5.96,-29.38]},{"extras":{"color":[1.0,0.0,0.0,1.0],"kind":"Label","text":"  A"},"translation":[-18.5,-8.17,-23.49]},{"extras":{"color":[1.0,0.0,0.0,1.0],"kind":"Label","text":"  A"},"translation":[-20.55,-7.84,-17.48]},{"extras":{"color":[0.0,1.0,0.0,1.0],"kind":"Label","text":"  G"},"translation":[-24.64,-6.27,-13.84]},{"extras":{"color":[0.0,1.0,0.0,1.0],"kind":"Label","text":"  G"},"translation":[-29.42,-2.95,-12.88]},{"extras":{"color":[0.0,1.0,0.0,1.0],"kind":"Label","text":"  G"},"translation":[-34.68,-0.96,-15.09]},{"extras":{"color":[0.0,1.0,0.0,1.0],"kind":"Label","text":"  G"},"translation":[-38.73,-0.7,-19.65]},{"extras":{"color":[0.0,1.0,1.0,1.0],"kind":"Label","text":"  U"},"translation":[-41.14,-3.8,-23.99]},{"extras":{"color":[0.0,0.0,1.0,1.0],"kind":"Label","text":"  C"},"translation":[-41.95,-9.21,-27.84]},{"extras":{"color":[1.0,0.0,0.0,1.0],"kind":"Label","text":"  A"},"translation":[-43.73,-14.69,-26.83]},{"extras":{"color":[1.0,0.0,0.0,1.0],"kind":"Label","text":"  A"},"translation":[-44.35,-15.13,-31.44]},{"extras":{"color":[0.0,0.0,1.0,1.0],"kind":"Label","text":"  C"},"translation":[-43.39,-8.93,-33.52]},{"extras":{"color":[1.0,0.0,0.0,1.0],"kind":"Label","text":"  A"},"translation":[-43.19,-2.75,-37.2]},{"extras":{"color":[0.0,1.0,0.0,1.0],"kind":"Label","text":"  G"},"translation":[-36.9,-2.27,-34.3]},{"extras":{"color":[0.0,0.0,1.0,1.0],"kind":"Label","text":"  C"},"translation":[-31.76,-5.32,-34.9]},{"extras":{"color":[0.0,0.0,1.0,1.0],"kind":"Label","text":"  C"},"translation":[-28.96,-9.65,-38.61]},{"extras":{"color":[0.0,1.0,0.0,1.0],"kind":"Label","text":"  G"},"translation":[-28.74,-12.32,-43.84]},{"extras":{"color":[0.0,1.0,1.0,1.0],"kind":"Label","text":"  U"},"translation":[-27.15,-12.4,-50.19]},{"extras":{"color":[0.0,1.0,1.0,1.0],"kind":"Label","text":"  U"},"translation":[-32.5,-12.91,-53.27]},{"extras":{"color":[0.0,0.0,1.0,1.0],"kind":"Label","text":"  C"},"translation":[-35.97,-9.44,-56.29]},{"extras":{"color":[1.0,0.0,0.0,1.0],"kind":"Label","text":"  A"},"translation":[-39.76,-4.32,-57.15]},{"extras":{"color":[0.0,1.0,0.0,1.0],"kind":"Label","text":"  G"},"translation":[-40.61,1.52,-56.11]},{"extras":{"color":[0.0,1.0,1.0,1.0],"kind":"Label","text":"  U"},"translation":[-39.1,7.34,-54.57]},{"extras":{"color":[1.0,0.0,0.0,1.0],"kind":"Label","text":"  A"},"translation":[-34.79,11.51,-53.47]},{"extras":{"color":[0.0,0.0,1.0,1.0],"kind":"Label","text":"  C"},"translation":[-28.91,12.59,-53.54]},{"extras":{"color":[0.0,0.0,1.0,1.0],"kind":"Label","text":"  C"},"translation":[-23.13,10.96,-55.03]},{"extras":{"color":[1.0,0.0,0.0,1.0],"kind":"Label","text":"  A"},"translation":[-19.58,13.47,-53.08]},{"extras":{"color":[1.0,0.0,0.0,1.0],"kind":"Label","text":"  A"},"translation":[-13.96,13.58,-50.65]},{"extras":{"color":[0.0,1.0,0.0,1.0],"kind":"Label","text":"  G"},"translation":[-8.55,11.87,-52.11]},{"extras":{"color":[0.0,1.0,1.0,1.0],"kind":"Label","text":"  U"},"translation":[-5.15,11.02,-57.17]},{"extras":{"color":[0.0,0.0,1.0,1.0],"kind":"Label","text":"  C"},"translation":[-4.12,12.1,-62.96]},{"extras":{"color":[0.0,1.0,1.0,1.0],"kind":"Label","text":"  U"},"translation":[-4.94,15.05,-68.17]},{"extras":{"color":[0.0,0.0,1.0,1.0],"kind":"Label","text":"  C"},"translation":[-6.61,20.17,-70.87]},{"extras":{"color":[1.0,0.0,0.0,1.0],"kind":"Label","text":"  A"},"translation":[-8.62,25.94,-70.71]},{"extras":{"color":[0.0,1.0,0.0,1.0],"kind":"Label","text":"  G"},"translation":[-9.14,31.36,-67.56]},{"extras":{"color":[0.0,1.0,0.0,1.0],"kind":"Label","text":"  G"},"translation":[-7.52,34.66,-62.54]},{"extras":{"color":[0.0,1.0,0.0,1.0],"kind":"Label","text":"  G"},"translation":[-3.3,35.38,-58.14]},{"extras":{"color":[0.0,1.0,0.0,1.0],"kind":"Label","text":"  G"},"translation":[2.7,34.37,-57.01]},{"extras":{"color":[1.0,0.0,0.0,1.0],"kind":"Label","text":"  A"},"translation":[7.83,33.97,-61.38]},{"extras":{"color":[1.0,0.0,0.0,1.0],"kind":"Label","text":"  A"},"translation":[8.06,28.08,-61.81]},{"extras":{"color":[1.0,0.0,0.0,1.0],"kind":"Label","text":"  A"},"translation":[7.32,22.87,-58.82]},{"extras":{"color":[0.0,0.0,1.0,1.0],"kind":"Label","text":"  C"},"translation":[2.77,21.87,-55.52]},{"extras":{"color":[0.0,1.0,1.0,1.0],"kind":"Label","text":"  U"},"translation":[-2.14,24.31,-53.61]},{"extras":{"color":[0.0,1.0,1.0,1.0],"kind":"Label","text":"  U"},"translation":[-7.66,26.86,-53.86]},{"extras":{"color":[0.0,1.0,1.0,1.0],"kind":"Label","text":"  U"},"translation":[-13.27,27.17,-56.8]},{"extras":{"color":[0.0,1.0,0.0,1.0],"kind":"Label","text":"  G"},"translation":[-16.74,25.23,-61.11]},{"extras":{"color":[1.0,0.0,0.0,1.0],"kind":"Label","text":"  A"},"translation":[-18.17,21.66,-65.88]},{"extras":{"color":[0.0,1.0,0.0,1.0],"kind":"Label","text":"  G"},"translation":[-17.44,16.29,-68.64]},{"extras":{"color":[1.0,0.0,0.0,1.0],"kind":"Label","text":"  A"},"translation":[-15.03,10.84,-68.13]},{"extras":{"color":[0.0,1.0,1.0,1.0],"kind":"Label","text":"  U"},"translation":[-12.23,6.61,-64.89]},{"extras":{"color":[0.0,1.0,0.0,1.0],"kind":"Label","text":"  G"},"translation":[-12.23,4.42,-59.7]},{"extras":{"color":[0.0,1.0,0.0,1.0],"kind":"Label","text":"  G"},"translation":[-15.12,3.01,-54.37]},{"extras":{"color":[0.0,0.0,1.0,1.0],"kind":"Label","text":"  C"},"translation":[-19.41,-1.62,-53.06]},{"extras":{"color":[0.0,0.0,1.0,1.0],"kind":"Label","text":"  C"},"translation":[-18.37,-7.5,-51.88]},{"extras":{"color":[0.0,1.0,1.0,1.0],"kind":"Label","text":"  U"},"translation":[-14.66,-6.3,-47.61]},{"extras":{"color":[0.0,1.0,1.0,1.0],"kind":"Label","text":"  U"},"translation":[-13.87,-3.86,-43.21]},{"extras":{"color":[0.0,1.0,0.0,1.0],"kind":"Label","text":"  G"},"translation":[-9.88,-3.33,-40.98]},{"extras":{"color":[0.0,0.0,1.0,1.0],"kind":"Label","text":"  C"},"translation":[-7.37,0.12,-45.42]},{"extras":{"color":[1.0,0.0,0.0,1.0],"kind":"Label","text":"  A"},"translation":[-7.05,-0.54,-51.63]},{"extras":{"color":[1.0,0.0,0.0,1.0],"kind":"Label","text":"  A"},"translation":[-2.49,-1.31,-56.58]},{"extras":{"color":[1.0,0.0,0.0,1.0],"kind":"Label","text":"  A"},"translation":[-3.43,-6.02,-60.44]},{"extras":{"color":[0.0,1.0,0.0,1.0],"kind":"Label","text":"  G"},"translation":[-7.66,-9.93,-62.19]},{"extras":{"color":[0.0,1.0,0.0,1.0],"kind":"Label","text":"  G"},"translation":[-13.65,-10.72,-63.19]},{"extras":{"color":[0.0,1.0,0.0,1.0],"kind":"Label","text":"  G"},"translation":[-18.47,-6.97,-62.58]},{"extras":{"color":[0.0,1.0,1.0,1.0],"kind":"Label","text":"  U"},"translation":[-20.45,-1.3,-62.88]},{"extras":{"color":[1.0,0.0,0.0,1.0],"kind":"Label","text":"  A"},"translation":[-25.13,0.51,-64.43]},{"extras":{"color":[0.0,1.0,1.0,1.0],"kind":"Label","text":"  U"},"translation":[-29.0,-2.33,-63.81]},{"extras":{"color":[0.0,1.0,0.0,1.0],"kind":"Label","text":"  G"},"translation":[-23.68,-2.72,-61.12]},{"extras":{"color":[0.0,1.0,0.0,1.0],"kind":"Label","text":"  G"},"translation":[-22.47,-0.45,-55.4]},{"extras":{"color":[0.0,1.0,1.0,1.0],"kind":"Label","text":"  U"},"translation":[-22.19,3.58,-50.74]},{"extras":{"color":[1.0,0.0,0.0,1.0],"kind":"Label","text":"  A"},"translation":[-22.12,4.58,-44.17]},{"extras":{"color":[1.0,0.0,0.0,1.0],"kind":"Label","text":"  A"},"translation":[-19.44,9.38,-41.03]},{"extras":{"color":[0.0,1.0,1.0,1.0],"kind":"Label","text":"  U"},"translation":[-20.13,12.73,-45.56]},{"extras":{"color":[1.0,0.0,0.0,1.0],"kind":"Label","text":"  A"},"translation":[-23.12,10.62,-51.12]},{"extras":{"color":[1.0,0.0,0.0,1.0],"kind":"Label","text":"  A"},"translation":[-28.75,7.96,-47.61]},{"extras":{"color":[0.0,1.0,0.0,1.0],"kind":"Label","text":"  G"},"translation":[-27.5,3.72,-44.88]},{"extras":{"color":[0.0,0.0,1.0,1.0],"kind":"Label","text":"  C"},"translation":[-32.62,4.52,-43.99]},{"extras":{"color":[0.0,1.0,1.0,1.0],"kind":"Label","text":"  U"},"translation":[-38.64,3.81,-44.93]},{"extras":{"color":[0.0,1.0,0.0,1.0],"kind":"Label","text":"  G"},"translation":[-42.56,-0.19,-46.05]},{"extras":{"color":[1.0,0.0,0.0,1.0],"kind":"Label","text":"  A"},"translation":[-44.05,-6.04,-47.6]},{"extras":{"color":[0.0,0.0,1.0,1.0],"kind":"Label","text":"  C"},"translation":[-43.05,-11.73,-48.22]},{"extras":{"color":[0.0,1.0,0.0,1.0],"kind":"Label","text":"  G"},"translation":[-39.83,-16.23,-46.12]},{"extras":{"color":[0.0,1.0,0.0,1.0],"kind":"Label","text":"  G"},"translation":[-35.97,-18.17,-41.66]},{"extras":{"color":[1.0,0.0,0.0,1.0],"kind":"Label","text":"  A"},"translation":[-32.76,-18.19,-36.16]},{"extras":{"color":[0.0,0.0,1.0,1.0],"kind":"Label","text":"  C"},"translation":[-33.04,-17.93,-30.04]},{"extras":{"color":[1.0,0.0,0.0,1.0],"kind":"Label","text":"  A"},"translation":[-32.59,-19.01,-23.86]},{"extras":{"color":[0.0,1.0,1.0,1.0],"kind":"Label","text":"  U"},"translation":[-28.63,-18.24,-20.37]},{"extras":{"color":[0.0,1.0,0.0,1.0],"kind":"Label","text":"  G"},"translation":[-29.22,-15.78,-25.18]},{"extras":{"color":[0.0,1.0,0.0,1.0],"kind":"Label","text":"  G"},"translation":[-31.21,-12.28,-30.02]},{"extras":{"color":[0.0,1.0,1.0,1.0],"kind":"Label","text":"  U"},"translation":[-32.43,-6.8,-31.28]},{"extras":{"color":[0.0,0.0,1.0,1.0],"kind":"Label","text":"  C"},"translation":[-32.77,-0.6,-29.83]},{"extras":{"color":[0.0,0.0,1.0,1.0],"kind":"Label","text":"  C"},"translation":[-31.06,3.83,-26.18]},{"extras":{"color":[0.0,1.0,1.0,1.0],"kind":"Label","text":"  U"},"translation":[-26.83,5.66,-22.35]},{"extras":{"color":[1.0,0.0,0.0,1.0],"kind":"Label","text":"  A"},"translation":[-20.64,3.87,-21.93]},{"extras":{"color":[1.0,0.0,0.0,1.0],"kind":"Label","text":"  A"},"translation":[-15.48,2.65,-20.57]},{"extras":{"color":[0.0,0.0,1.0,1.0],"kind":"Label","text":"  C"},"translation":[-11.38,-0.89,-23.06]},{"extras":{"color":[0.0,0.0,1.0,1.0],"kind":"Label","text":"  C"},"translation":[-8.8,-2.64,-28.5]},{"extras":{"color":[1.0,0.0,0.0,1.0],"kind":"Label","text":"  A"},"translation":[-4.54,-2.19,-32.9]},{"extras":{"color":[0.0,0.0,1.0,1.0],"kind":"Label","text":"  C"},"translation":[-8.74,-2.06,-35.82]},{"extras":{"color":[0.0,1.0,0.0,1.0],"kind":"Label","text":"  G"},"translation":[-10.08,1.58,-40.35]},{"extras":{"color":[0.0,0.0,1.0,1.0],"kind":"Label","text":"  C"},"translation":[-12.31,6.72,-43.39]},{"extras":{"color":[1.0,0.0,0.0,1.0],"kind":"Label","text":"  A"},"translation":[-11.94,12.7,-43.76]},{"extras":{"color":[0.0,1.0,0.0,1.0],"kind":"Label","text":"  G"},"translation":[-10.16,18.07,-42.24]},{"extras":{"color":[0.0,0.0,1.0,1.0],"kind":"Label","text":"  C"},"translation":[-5.67,21.89,-39.43]},{"extras":{"color":[0.0,0.0,1.0,1.0],"kind":"Label","text":"  C"},"translation":[-0.18,23.13,-37.54]},{"extras":{"color":[1.0,0.0,0.0,1.0],"kind":"Label","text":"  A"},"translation":[5.84,21.34,-38.48]},{"extras":{"color":[1.0,0.0,0.0,1.0],"kind":"Label","text":"  A"},"translation":[11.03,19.43,-36.84]},{"extras":{"color":[0.0,1.0,0.0,1.0],"kind":"Label","text":"  G"},"translation":[14.03,15.08,-40.06]},{"extras":{"color":[0.0,1.0,1.0,1.0],"kind":"Label","text":"  U"},"translation":[13.87,13.0,-45.6]},{"extras":{"color":[0.0,0.0,1.0,1.0],"kind":"Label","text":"  C"},"translation":[12.48,13.86,-51.41]},{"extras":{"color":[0.0,0.0,1.0,1.0],"kind":"Label","text":"  C"},"translation":[10.48,17.55,-56.05]},{"extras":{"color":[0.0,1.0,1.0,1.0],"kind":"Label","text":"  U"},"translation":[10.85,23.23,-58.48]},{"extras":{"color":[1.0,0.0,0.0,1.0],"kind":"Label","text":"  A"},"translation":[13.72,28.25,-58.42]},{"extras":{"color":[1.0,0.0,0.0,1.0],"kind":"Label","text":"  A"},"translation":[13.21,34.15,-59.51]},{"extras":{"color":[0.0,1.0,0.0,1.0],"kind":"Label","text":"  G"},"translation":[16.24,37.9,-55.71]},{"extras":{"color":[0.0,1.0,1.0,1.0],"kind":"Label","text":"  U"},"translation":[21.54,37.44,-52.54]},{"extras":{"color":[0.0,0.0,1.0,1.0],"kind":"Label","text":"  C"},"translation":[27.2,35.19,-52.24]},{"extras":{"color":[1.0,0.0,0.0,1.0],"kind":"Label","text":"  A"},"translation":[31.52,32.02,-54.96]},{"extras":{"color":[1.0,0.0,0.0,1.0],"kind":"Label","text":"  A"},"translation":[34.2,29.09,-59.6]},{"extras":{"color":[0.0,0.0,1.0,1.0],"kind":"Label","text":"  C"},"translation":[35.02,29.14,-65.69]},{"extras":{"color":[1.0,0.0,0.0,1.0],"kind":"Label","text":"  A"},"translation":[33.49,31.1,-71.09]},{"extras":{"color":[0.0,1.0,0.0,1.0],"kind":"Label","text":"  G"},"translation":[31.0,34.51,-75.05]},{"extras":{"color":[1.0,0.0,0.0,1.0],"kind":"Label","text":"  A"},"translation":[29.88,40.29,-76.21]},{"extras":{"color":[0.0,1.0,1.0,1.0],"kind":"Label","text":"  U"},"translation":[30.0,46.31,-74.69]},{"extras":{"color":[0.0,0.0,1.0,1.0],"kind":"Label","text":"  C"},"translation":[31.21,47.42,-67.78]},{"extras":{"color":[0.0,1.0,1.0,1.0],"kind":"Label","text":"  U"},"translation":[33.07,47.86,-61.15]},{"extras":{"color":[0.0,1.0,1.0,1.0],"kind":"Label","text":"  U"},"translation":[28.37,46.41,-62.95]},{"extras":{"color":[0.0,0.0,1.0,1.0],"kind":"Label","text":"  C"},"translation":[23.43,43.79,-65.47]},{"extras":{"color":[0.0,1.0,1.0,1.0],"kind":"Label","text":"  U"},"translation":[21.41,39.16,-69.04]},{"extras":{"color":[0.0,1.0,0.0,1.0],"kind":"Label","text":"  G"},"translation":[21.44,33.44,-70.12]},{"extras":{"color":[0.0,1.0,1.0,1.0],"kind":"Label","text":"  U"},"translation":[23.08,27.49,-69.19]},{"extras":{"color":[0.0,1.0,1.0,1.0],"kind":"Label","text":"  U"},"translation":[24.74,23.73,-65.2]},{"extras":{"color":[0.0,1.0,0.0,1.0],"kind":"Label","text":"  G"},"translation":[25.56,22.1,-59.47]},{"extras":{"color":[1.0,0.0,0.0,1.0],"kind":"Label","text":"  A"},"translation":[24.77,22.79,-53.48]},{"extras":{"color":[0.0,1.0,1.0,1.0],"kind":"Label","text":"  U"},"translation":[21.08,25.67,-49.34]},{"extras":{"color":[1.0,0.0,0.0,1.0],"kind":"Label","text":"  A"},"translation":[15.65,28.0,-46.73]},{"extras":{"color":[0.0,1.0,1.0,1.0],"kind":"Label","text":"  U"},"translation":[11.82,31.85,-44.62]},{"extras":{"color":[0.0,1.0,0.0,1.0],"kind":"Label","text":"  G"},"translation":[7.36,30.83,-49.43]},{"extras":{"color":[0.0,1.0,0.0,1.0],"kind":"Label","text":"  G"},"translation":[3.81,25.78,-50.74]},{"extras":{"color":[1.0,0.0,0.0,1.0],"kind":"Label","text":"  A"},"translation":[2.04,19.98,-51.44]},{"extras":{"color":[0.0,1.0,1.0,1.0],"kind":"Label","text":"  U"},"translation":[2.1,14.86,-48.54]},{"extras":{"color":[0.0,1.0,0.0,1.0],"kind":"Label","text":"  G"},"translation":[-1.58,10.31,-48.2]},{"extras":{"color":[0.0,0.0,1.0,1.0],"kind":"Label","text":"  C"},"translation":[-1.75,4.51,-46.33]},{"extras":{"color":[1.0,0.0,0.0,1.0],"kind":"Label","text":"  A"},"translation":[0.5,1.8,-41.26]},{"extras":{"color":[0.0,1.0,0.0,1.0],"kind":"Label","text":"  G"},"translation":[1.84,3.56,-35.9]},{"extras":{"color":[0.0,1.0,1.0,1.0],"kind":"Label","text":"  U"},"translation":[0.66,7.37,-30.53]},{"extras":{"color":[0.0,1.0,1.0,1.0],"kind":"Label","text":"  U"},"translation":[-3.06,11.86,-28.38]},{"extras":{"color":[0.0,0.0,1.0,1.0],"kind":"Label","text":"  C"},"translation":[-8.39,14.06,-27.26]},{"extras":{"color":[0.0,1.0,0.0,1.0],"kind":"Label","text":"  G"},"translation":[-4.0,-12.97,-40.98]},{"extras":{"color":[1.0,0.0,0.0,1.0],"kind":"Label","text":"  A"},"translation":[-2.02,-18.29,-39.24]},{"extras":{"color":[1.0,0.0,0.0,1.0],"kind":"Label","text":"  A"},"translation":[2.6,-22.34,-37.16]},{"extras":{"color":[0.0,1.0,1.0,1.0],"kind":"Label","text":"  U"},"translation":[8.41,-24.11,-35.57]},{"extras":{"color":[0.0,1.0,1.0,1.0],"kind":"Label","text":"  U"},"translation":[12.58,-23.76,-41.08]},{"extras":{"color":[0.0,1.0,0.0,1.0],"kind":"Label","text":"  G"},"translation":[17.4,-21.27,-44.06]},{"extras":{"color":[0.0,0.0,1.0,1.0],"kind":"Label","text":"  C"},"translation":[20.61,-15.86,-44.54]},{"extras":{"color":[0.0,1.0,0.0,1.0],"kind":"Label","text":"  G"},"translation":[21.82,-10.01,-45.15]},{"extras":{"color":[0.0,1.0,0.0,1.0],"kind":"Label","text":"  G"},"translation":[22.15,-4.52,-42.86]},{"extras":{"color":[0.0,1.0,0.0,1.0],"kind":"Label","text":"  G"},"translation":[22.27,-0.91,-37.94]},{"extras":{"color":[1.0,0.0,0.0,1.0],"kind":"Label","text":"  A"},"translation":[22.92,-1.5,-31.9]},{"extras":{"color":[1.0,0.0,0.0,1.0],"kind":"Label","text":"  A"},"translation":[23.85,-1.51,-25.8]},{"extras":{"color":[1.0,0.0,0.0,1.0],"kind":"Label","text":"  A"},"translation":[26.68,-3.66,-20.99]},{"extras":{"color":[0.0,1.0,0.0,1.0],"kind":"Label","text":"  G"},"translation":[30.07,-8.28,-19.58]},{"extras":{"color":[0.0,1.0,0.0,1.0],"kind":"Label","text":"  G"},"translation":[34.11,-12.76,-20.88]},{"extras":{"color":[0.0,1.0,0.0,1.0],"kind":"Label","text":"  G"},"translation":[38.29,-14.43,-24.91]},{"extras":{"color":[0.0,1.0,0.0,1.0],"kind":"Label","text":"  G"},"translation":[42.23,-12.24,-29.7]},{"extras":{"color":[0.0,1.0,1.0,1.0],"kind":"Label","text":"  U"},"translation":[44.39,-7.98,-32.67]},{"extras":{"color":[0.0,0.0,1.0,1.0],"kind":"Label","text":"  C"},"translation":[45.79,-1.99,-33.84]},{"extras":{"color":[1.0,0.0,0.0,1.0],"kind":"Label","text":"  A"},"translation":[47.59,4.11,-32.13]},{"extras":{"color":[1.0,0.0,0.0,1.0],"kind":"Label","text":"  A"},"translation":[47.83,4.25,-36.09]},{"extras":{"color":[0.0,0.0,1.0,1.0],"kind":"Label","text":"  C"},"translation":[45.89,0.73,-39.26]},{"extras":{"color":[1.0,0.0,0.0,1.0],"kind":"Label","text":"  A"},"translation":[44.08,-4.04,-43.76]},{"extras":{"color":[0.0,1.0,0.0,1.0],"kind":"Label","text":"  G"},"translation":[38.49,-4.11,-41.41]},{"extras":{"color":[0.0,0.0,1.0,1.0],"kind":"Label","text":"  C"},"translation":[34.14,-0.3,-39.48]},{"extras":{"color":[0.0,0.0,1.0,1.0],"kind":"Label","text":"  C"},"translation":[31.71,5.32,-40.34]},{"extras":{"color":[0.0,1.0,0.0,1.0],"kind":"Label","text":"  G"},"translation":[30.74,9.97,-44.53]},{"extras":{"color":[0.0,1.0,1.0,1.0],"kind":"Label","text":"  U"},"translation":[27.96,14.31,-48.72]},{"extras":{"color":[0.0,1.0,1.0,1.0],"kind":"Label","text":"  U"},"translation":[33.21,14.66,-52.22]},{"extras":{"color":[0.0,0.0,1.0,1.0],"kind":"Label","text":"  C"},"translation":[36.09,13.06,-57.25]},{"extras":{"color":[1.0,0.0,0.0,1.0],"kind":"Label","text":"  A"},"translation":[38.54,8.87,-60.72]},{"extras":{"color":[0.0,1.0,0.0,1.0],"kind":"Label","text":"  G"},"translation":[38.91,3.27,-62.92]},{"extras":{"color":[0.0,1.0,1.0,1.0],"kind":"Label","text":"  U"},"translation":[37.44,-2.59,-63.63]},{"extras":{"color":[1.0,0.0,0.0,1.0],"kind":"Label","text":"  A"},"translation":[33.4,-7.21,-63.47]},{"extras":{"color":[0.0,0.0,1.0,1.0],"kind":"Label","text":"  C"},"translation":[27.66,-8.69,-62.85]},{"extras":{"color":[0.0,0.0,1.0,1.0],"kind":"Label","text":"  C"},"translation":[21.65,-7.03,-62.61]},{"extras":{"color":[1.0,0.0,0.0,1.0],"kind":"Label","text":"  A"},"translation":[18.46,-10.31,-61.13]},{"extras":{"color":[1.0,0.0,0.0,1.0],"kind":"Label","text":"  A"},"translation":[13.39,-11.72,-57.98]},{"extras":{"color":[0.0,1.0,0.0,1.0],"kind":"Label","text":"  G"},"translation":[7.65,-9.83,-57.76]},{"extras":{"color":[0.0,1.0,1.0,1.0],"kind":"Label","text":"  U"},"translation":[3.42,-7.27,-61.35]},{"extras":{"color":[0.0,0.0,1.0,1.0],"kind":"Label","text":"  C"},"translation":[1.27,-6.05,-66.75]},{"extras":{"color":[0.0,1.0,1.0,1.0],"kind":"Label","text":"  U"},"translation":[1.01,-6.63,-72.81]},{"extras":{"color":[0.0,0.0,1.0,1.0],"kind":"Label","text":"  C"},"translation":[2.01,-10.15,-77.55]},{"extras":{"color":[1.0,0.0,0.0,1.0],"kind":"Label","text":"  A"},"translation":[3.88,-15.39,-80.06]},{"extras":{"color":[0.0,1.0,0.0,1.0],"kind":"Label","text":"  G"},"translation":[4.83,-21.59,-79.47]},{"extras":{"color":[0.0,1.0,0.0,1.0],"kind":"Label","text":"  G"},"translation":[4.1,-26.67,-75.96]},{"extras":{"color":[0.0,1.0,0.0,1.0],"kind":"Label","text":"  G"},"translation":[0.66,-28.94,-71.48]},{"extras":{"color":[0.0,1.0,0.0,1.0],"kind":"Label","text":"  G"},"translation":[-4.96,-28.75,-68.94]},{"extras":{"color":[1.0,0.0,0.0,1.0],"kind":"Label","text":"  A"},"translation":[-10.86,-27.05,-71.78]},{"extras":{"color":[1.0,0.0,0.0,1.0],"kind":"Label","text":"  A"},"translation":[-11.02,-21.42,-69.92]},{"extras":{"color":[1.0,0.0,0.0,1.0],"kind":"Label","text":"  A"},"translation":[-9.57,-17.66,-65.42]},{"extras":{"color":[0.0,0.0,1.0,1.0],"kind":"Label","text":"  C"},"translation":[-4.47,-17.7,-62.91]},{"extras":{"color":[0.0,1.0,1.0,1.0],"kind":"Label","text":"  U"},"translation":[0.76,-20.88,-62.87]},{"extras":{"color":[0.0,1.0,1.0,1.0],"kind":"Label","text":"  U"},"translation":[6.1,-22.84,-65.07]},{"extras":{"color":[0.0,1.0,1.0,1.0],"kind":"Label","text":"  U"},"translation":[11.02,-21.74,-68.86]},{"extras":{"color":[0.0,1.0,0.0,1.0],"kind":"Label","text":"  G"},"translation":[13.66,-18.09,-72.64]},{"extras":{"color":[1.0,0.0,0.0,1.0],"kind":"Label","text":"  A"},"translation":[14.28,-12.83,-75.76]},{"extras":{"color":[0.0,1.0,0.0,1.0],"kind":"Label","text":"  G"},"translation":[13.14,-6.89,-75.99]},{"extras":{"color":[1.0,0.0,0.0,1.0],"kind":"Label","text":"  A"},"translation":[10.99,-2.22,-72.94]},{"extras":{"color":[0.0,1.0,1.0,1.0],"kind":"Label","text":"  U"},"translation":[8.92,0.27,-67.84]},{"extras":{"color":[0.0,1.0,0.0,1.0],"kind":"Label","text":"  G"},"translation":[10.01,0.12,-62.14]},{"extras":{"color":[0.0,1.0,0.0,1.0],"kind":"Label","text":"  G"},"translation":[13.91,-0.46,-57.33]},{"extras":{"color":[0.0,0.0,1.0,1.0],"kind":"Label","text":"  C"},"translation":[18.39,3.66,-55.26]},{"extras":{"color":[0.0,0.0,1.0,1.0],"kind":"Label","text":"  C"},"translation":[17.9,8.72,-51.88]},{"extras":{"color":[0.0,1.0,1.0,1.0],"kind":"Label","text":"  U"},"translation":[15.18,5.93,-47.57]},{"extras":{"color":[0.0,1.0,1.0,1.0],"kind":"Label","text":"  U"},"translation":[15.25,2.13,-44.22]},{"extras":{"color":[0.0,1.0,0.0,1.0],"kind":"Label","text":"  G"},"translation":[11.81,0.82,-41.5]},{"extras":{"color":[0.0,0.0,1.0,1.0],"kind":"Label","text":"  C"},"translation":[8.21,-0.99,-46.11]},{"extras":{"color":[1.0,0.0,0.0,1.0],"kind":"Label","text":"  A"},"translation":[6.54,1.78,-51.48]},{"extras":{"color":[1.0,0.0,0.0,1.0],"kind":"Label","text":"  A"},"translation":[1.1,4.06,-54.67]},{"extras":{"color":[1.0,0.0,0.0,1.0],"kind":"Label","text":"  A"},"translation":[1.35,9.89,-56.76]},{"extras":{"color":[0.0,1.0,0.0,1.0],"kind":"Label","text":"  G"},"translation":[5.28,14.34,-57.97]},{"extras":{"color":[0.0,1.0,0.0,1.0],"kind":"Label","text":"  G"},"translation":[10.95,15.54,-59.96]},{"extras":{"color":[0.0,1.0,0.0,1.0],"kind":"Label","text":"  G"},"translation":[15.61,12.0,-61.78]},{"extras":{"color":[0.0,1.0,1.0,1.0],"kind":"Label","text":"  U"},"translation":[17.16,6.86,-64.5]},{"extras":{"color":[1.0,0.0,0.0,1.0],"kind":"Label","text":"  A"},"translation":[21.52,6.24,-68.04]},{"extras":{"color":[0.0,1.0,1.0,1.0],"kind":"Label","text":"  U"},"translation":[25.71,8.97,-66.67]},{"extras":{"color":[0.0,1.0,0.0,1.0],"kind":"Label","text":"  G"},"translation":[21.0,7.97,-63.15]},{"extras":{"color":[0.0,1.0,0.0,1.0],"kind":"Label","text":"  G"},"translation":[21.0,3.64,-58.56]},{"extras":{"color":[0.0,1.0,1.0,1.0],"kind":"Label","text":"  U"},"translation":[21.59,-1.8,-55.81]},{"extras":{"color":[1.0,0.0,0.0,1.0],"kind":"Label","text":"  A"},"translation":[22.72,-5.25,-50.17]},{"extras":{"color":[1.0,0.0,0.0,1.0],"kind":"Label","text":"  A"},"translation":[20.45,-10.93,-48.64]},{"extras":{"color":[0.0,1.0,1.0,1.0],"kind":"Label","text":"  U"},"translation":[20.26,-12.33,-54.11]},{"extras":{"color":[1.0,0.0,0.0,1.0],"kind":"Label","text":"  A"},"translation":[22.38,-8.2,-58.9]},{"extras":{"color":[1.0,0.0,0.0,1.0],"kind":"Label","text":"  A"},"translation":[28.56,-6.82,-55.65]},{"extras":{"color":[0.0,1.0,0.0,1.0],"kind":"Label","text":"  G"},"translation":[27.9,-3.98,-51.4]},{"extras":{"color":[0.0,0.0,1.0,1.0],"kind":"Label","text":"  C"},"translation":[32.92,-4.87,-51.97]},{"extras":{"color":[0.0,1.0,1.0,1.0],"kind":"Label","text":"  U"},"translation":[38.99,-3.96,-53.39]},{"extras":{"color":[0.0,1.0,0.0,1.0],"kind":"Label","text":"  G"},"translation":[43.25,0.29,-53.37]},{"extras":{"color":[1.0,0.0,0.0,1.0],"kind":"Label","text":"  A"},"translation":[44.77,5.92,-52.66]},{"extras":{"color":[0.0,0.0,1.0,1.0],"kind":"Label","text":"  C"},"translation":[44.16,11.51,-50.52]},{"extras":{"color":[0.0,1.0,0.0,1.0],"kind":"Label","text":"  G"},"translation":[41.97,14.35,-45.71]},{"extras":{"color":[0.0,1.0,0.0,1.0],"kind":"Label","text":"  G"},"translation":[39.13,13.64,-40.23]},{"extras":{"color":[1.0,0.0,0.0,1.0],"kind":"Label","text":"  A"},"translation":[37.1,11.26,-34.92]},{"extras":{"color":[0.0,0.0,1.0,1.0],"kind":"Label","text":"  C"},"translation":[37.92,7.88,-29.95]},{"extras":{"color":[1.0,0.0,0.0,1.0],"kind":"Label","text":"  A"},"translation":[38.56,6.38,-24.07]},{"extras":{"color":[0.0,1.0,1.0,1.0],"kind":"Label","text":"  U"},"translation":[35.44,4.66,-19.71]},{"extras":{"color":[0.0,1.0,0.0,1.0],"kind":"Label","text":"  G"},"translation":[34.88,4.21,-25.49]},{"extras":{"color":[0.0,1.0,0.0,1.0],"kind":"Label","text":"  G"},"translation":[35.33,3.42,-31.57]},{"extras":{"color":[0.0,1.0,1.0,1.0],"kind":"Label","text":"  U"},"translation":[35.56,-0.9,-35.7]},{"extras":{"color":[0.0,0.0,1.0,1.0],"kind":"Label","text":"  C"},"translation":[35.04,-6.86,-37.44]},{"extras":{"color":[0.0,0.0,1.0,1.0],"kind":"Label","text":"  C"},"translation":[33.08,-12.57,-36.03]},{"extras":{"color":[0.0,1.0,1.0,1.0],"kind":"Label","text":"  U"},"translation":[29.6,-15.54,-32.28]},{"extras":{"color":[1.0,0.0,0.0,1.0],"kind":"Label","text":"  A"},"translation":[24.26,-14.23,-29.63]},{"extras":{"color":[1.0,0.0,0.0,1.0],"kind":"Label","text":"  A"},"translation":[19.14,-13.16,-27.07]},{"extras":{"color":[0.0,0.0,1.0,1.0],"kind":"Label","text":"  C"},"translation":[15.27,-9.17,-27.32]},{"extras":{"color":[0.0,0.0,1.0,1.0],"kind":"Label","text":"  C"},"translation":[12.54,-4.64,-31.27]},{"extras":{"color":[1.0,0.0,0.0,1.0],"kind":"Label","text":"  A"},"translation":[6.93,-4.96,-33.81]},{"extras":{"color":[0.0,0.0,1.0,1.0],"kind":"Label","text":"  C"},"translation":[10.84,-2.47,-38.09]},{"extras":{"color":[0.0,1.0,0.0,1.0],"kind":"Label","text":"  G"},"translation":[11.57,-4.26,-43.77]},{"extras":{"color":[0.0,0.0,1.0,1.0],"kind":"Label","text":"  C"},"translation":[13.18,-7.86,-48.81]},{"extras":{"color":[1.0,0.0,0.0,1.0],"kind":"Label","text":"  A"},"translation":[12.59,-13.26,-51.37]},{"extras":{"color":[0.0,1.0,0.0,1.0],"kind":"Label","text":"  G"},"translation":[10.7,-19.1,-51.82]},{"extras":{"color":[0.0,0.0,1.0,1.0],"kind":"Label","text":"  C"},"translation":[6.92,-23.63,-49.53]},{"extras":{"color":[0.0,0.0,1.0,1.0],"kind":"Label","text":"  C"},"translation":[1.77,-24.83,-47.15]},{"extras":{"color":[1.0,0.0,0.0,1.0],"kind":"Label","text":"  A"},"translation":[-3.83,-23.22,-46.69]},{"extras":{"color":[1.0,0.0,0.0,1.0],"kind":"Label","text":"  A"},"translation":[-8.5,-22.4,-43.45]},{"extras":{"color":[0.0,1.0,0.0,1.0],"kind":"Label","text":"  G"},"translation":[-12.13,-17.46,-44.2]},{"extras":{"color":[0.0,1.0,1.0,1.0],"kind":"Label","text":"  U"},"translation":[-13.23,-13.61,-48.57]},{"extras":{"color":[0.0,0.0,1.0,1.0],"kind":"Label","text":"  C"},"translation":[-13.16,-12.25,-54.45]},{"extras":{"color":[0.0,0.0,1.0,1.0],"kind":"Label","text":"  C"},"translation":[-12.27,-13.99,-60.4]},{"extras":{"color":[0.0,1.0,1.0,1.0],"kind":"Label","text":"  U"},"translation":[-13.13,-18.44,-64.57]},{"extras":{"color":[1.0,0.0,0.0,1.0],"kind":"Label","text":"  A"},"translation":[-15.97,-23.36,-65.71]},{"extras":{"color":[1.0,0.0,0.0,1.0],"kind":"Label","text":"  A"},"translation":[-15.69,-28.44,-68.89]},{"extras":{"color":[0.0,1.0,0.0,1.0],"kind":"Label","text":"  G"},"translation":[-17.84,-33.52,-66.17]},{"extras":{"color":[0.0,1.0,1.0,1.0],"kind":"Label","text":"  U"},"translation":[-22.31,-34.59,-62.03]},{"extras":{"color":[0.0,0.0,1.0,1.0],"kind":"Label","text":"  C"},"translation":[-27.69,-33.01,-59.66]},{"extras":{"color":[1.0,0.0,0.0,1.0],"kind":"Label","text":"  A"},"translation":[-32.49,-29.42,-60.01]},{"extras":{"color":[1.0,0.0,0.0,1.0],"kind":"Label","text":"  A"},"translation":[-36.16,-25.22,-62.43]},{"extras":{"color":[0.0,0.0,1.0,1.0],"kind":"Label","text":"  C"},"translation":[-38.51,-23.24,-67.74]},{"extras":{"color":[1.0,0.0,0.0,1.0],"kind":"Label","text":"  A"},"translation":[-38.46,-23.14,-73.67]},{"extras":{"color":[0.0,1.0,0.0,1.0],"kind":"Label","text":"  G"},"translation":[-37.2,-24.84,-79.07]},{"extras":{"color":[1.0,0.0,0.0,1.0],"kind":"Label","text":"  A"},"translation":[-36.56,-29.82,-82.36]},{"extras":{"color":[0.0,1.0,1.0,1.0],"kind":"Label","text":"  U"},"translation":[-36.4,-35.93,-83.03]},{"extras":{"color":[0.0,0.0,1.0,1.0],"kind":"Label","text":"  C"},"translation":[-35.82,-39.44,-76.9]},{"extras":{"color":[0.0,1.0,1.0,1.0],"kind":"Label","text":"  U"},"translation":[-35.91,-42.25,-70.6]},{"extras":{"color":[0.0,1.0,1.0,1.0],"kind":"Label","text":"  U"},"translation":[-31.81,-39.97,-72.89]},{"extras":{"color":[0.0,0.0,1.0,1.0],"kind":"Label","text":"  C"},"translation":[-27.63,-36.3,-75.5]},{"extras":{"color":[0.0,1.0,1.0,1.0],"kind":"Label","text":"  U"},"translation":[-26.47,-30.59,-77.61]},{"extras":{"color":[0.0,1.0,0.0,1.0],"kind":"Label","text":"  G"},"translation":[-26.64,-24.86,-76.59]},{"extras":{"color":[0.0,1.0,1.0,1.0],"kind":"Label","text":"  U"},"translation":[-27.82,-19.7,-73.32]},{"extras":{"color":[0.0,1.0,1.0,1.0],"kind":"Label","text":"  U"},"translation":[-28.34,-17.65,-67.99]},{"extras":{"color":[0.0,1.0,0.0,1.0],"kind":"Label","text":"  G"},"translation":[-27.6,-18.13,-62.02]},{"extras":{"color":[1.0,0.0,0.0,1.0],"kind":"Label","text":"  A"},"translation":[-25.4,-20.77,-57.06]},{"extras":{"color":[0.0,1.0,1.0,1.0],"kind":"Label","text":"  U"},"translation":[-21.12,-24.72,-54.97]},{"extras":{"color":[1.0,0.0,0.0,1.0],"kind":"Label","text":"  A"},"translation":[-15.22,-27.34,-54.56]},{"extras":{"color":[0.0,1.0,1.0,1.0],"kind":"Label","text":"  U"},"translation":[-11.01,-31.43,-54.79]},{"extras":{"color":[0.0,1.0,0.0,1.0],"kind":"Label","text":"  G"},"translation":[-7.73,-28.46,-59.75]},{"extras":{"color":[0.0,1.0,0.0,1.0],"kind":"Label","text":"  G"},"translation":[-4.6,-22.97,-59.89]},{"extras":{"color":[1.0,0.0,0.0,1.0],"kind":"Label","text":"  A"},"translation":[-3.01,-17.17,-58.85]},{"extras":{"color":[0.0,1.0,1.0,1.0],"kind":"Label","text":"  U"},"translation":[-2.39,-13.35,-54.37]},{"extras":{"color":[0.0,1.0,0.0,1.0],"kind":"Label","text":"  G"},"translation":[1.3,-8.98,-53.27]},{"extras":{"color":[0.0,0.0,1.0,1.0],"kind":"Label","text":"  C"},"translation":[1.89,-4.16,-49.52]},{"extras":{"color":[1.0,0.0,0.0,1.0],"kind":"Label","text":"  A"},"translation":[1.15,-3.52,-43.87]},{"extras":{"color":[0.0,1.0,0.0,1.0],"kind":"Label","text":"  G"},"translation":[1.04,-7.06,-39.25]},{"extras":{"color":[0.0,1.0,1.0,1.0],"kind":"Label","text":"  U"},"translation":[2.86,-12.47,-35.7]},{"extras":{"color":[0.0,1.0,1.0,1.0],"kind":"Label","text":"  U"},"translation":[6.27,-17.45,-34.89]},{"extras":{"color":[0.0,0.0,1.0,1.0],"kind":"Label","text":"  C"},"translation":[11.82,-20.38,-35.75]},{"extras":{"kind":"Cyl"},"mesh":2,"rotation":[-0.037149,0.0,0.22986,0.972514],"scale":[0.21,6.69,0.21],"translation":[3.12,16.58,-37.0]},{"extras":{"kind":"Cyl"},"mesh":3,"rotation":[-0.584489,0.0,0.723653,0.367013],"scale":[0.14,5.1,0.14],"translation":[3.47,5.91,-38.85]},{"extras":{"kind":"Box"},"mesh":4,"rotation":[-0.584489,0.0,0.723653,0.367013],"scale":[0.62,0.62,0.62],"translation":[4.95,7.97,-37.65]},{"extras":{"kind":"Sphere"},"mesh":5,"scale":[0.75,0.75,0.75],"translation":[1.99,3.86,-40.06]},{"extras":{"kind":"Cyl"},"mesh":3,"rotation":[-0.258295,0.0,0.414247,0.872745],"scale":[0.18,6.63,0.18],"translation":[-0.4,18.06,-36.14]},{"extras":{"kind":"Sphere"},"mesh":5,"scale":[0.97,0.97,0.97],"translation":[-0.4,18.06,-36.14]},{"extras":{"kind":"Cyl"},"mesh":3,"rotation":[-0.699182,0.0,0.689334,0.189641],"scale":[0.14,5.23,0.14],"translation":[3.35,8.9,-34.37]},{"extras":{"kind":"Box"},"mesh":4,"rotation":[-0.699182,0.0,0.689334,0.189641],"scale":[0.64,0.64,0.64],"translation":[4.11,11.57,-33.61]},{"extras":{"kind":"Sphere"},"mesh":5,"scale":[0.77,0.77,0.77],"translation":[2.59,6.23,-35.13]},{"extras":{"kind":"Cyl"},"mesh":3,"rotation":[-0.518785,0.0,0.419019,0.745174],"scale":[0.21,7.7,0.21],"translation":[-4.88,17.15,-35.68]},{"extras":{"kind":"Sphere"},"mesh":5,"scale":[1.13,1.13,1.13],"translation":[-4.88,17.15,-35.68]},{"extras":{"kind":"Cyl"},"mesh":3,"rotation":[-0.980339,0.0,-0.180062,0.080708],"scale":[0.11,4.08,0.11],"translation":[0.53,11.8,-29.83]},{"extras":{"kind":"Box"},"mesh":4,"rotation":[-0.980339,0.0,-0.180062,0.080708],"scale":[0.5,0.5,0.5],"translation":[0.47,14.01,-29.48]},{"extras":{"kind":"Sphere"},"mesh":5,"scale":[0.6,0.6,0.6],"translation":[0.6,9.58,-30.18]},{"extras":{"kind":"Cyl"},"mesh":2,"rotation":[-0.838028,0.0,0.101579,0.536088],"scale":[0.21,6.66,0.21],"translation":[-11.13,15.79,-37.17]},{"extras":{"kind":"Cyl"},"mesh":3,"rotation":[0.265118,0.0,-0.877633,0.39934],"scale":[0.13,4.69,0.13],"translation":[-6.68,15.37,-29.48]},{"extras":{"kind":"Box"},"mesh":4,"rotation":[0.265118,0.0,-0.877633,0.39934],"scale":[0.57,0.57,0.57],"translation":[-8.5,17.13,-30.03]},{"extras":{"kind":"Sphere"},"mesh":5,"scale":[0.69,0.69,0.69],"translation":[-4.87,13.62,-28.93]},{"extras":{"kind":"Cyl"},"mesh":2,"rotation":[-0.881688,0.0,-0.278428,0.380925],"scale":[0.21,6.76,0.21],"translation":[-13.89,11.97,-38.38]},{"extras":{"kind":"Cyl"},"mesh":3,"rotation":[0.528694,0.0,-0.618165,0.581683],"scale":[0.12,4.49,0.12],"translation":[-11.93,15.65,-30.32]},{"extras":{"kind":"Box"},"mesh":4,"rotation":[0.528694,0.0,-0.618165,0.581683],"scale":[0.55,0.55,0.55],"translation":[-13.7,16.44,-31.84]},{"extras":{"kind":"Sphere"},"mesh":5,"scale":[0.66,0.66,0.66],"translation":[-10.16,14.86,-28.79]},{"extras":{"kind":"Cyl"},"mesh":2,"rotation":[-0.456491,0.0,-0.810504,0.367013],"scale":[0.21,6.69,0.21],"translation":[-14.47,6.95,-37.89]},{"extras":{"kind":"Cyl"},"mesh":2,"rotation":[0.162209,0.0,-0.883138,0.440177],"scale":[0.21,6.76,0.21],"translation":[-14.5,2.51,-36.89]},{"extras":{"kind":"Cyl"},"mesh":2,"rotation":[0.499944,0.0,-0.611042,0.613746],"scale":[0.22,7.01,0.22],"translation":[-14.59,-0.76,-33.24]},{"extras":{"kind":"Cyl"},"mesh":2,"rotation":[0.508076,0.0,-0.363807,0.780707],"scale":[0.21,6.75,0.21],"translation":[-15.61,-2.5,-28.95]},{"extras":{"kind":"Cyl"},"mesh":3,"rotation":[0.37329,0.0,-0.164083,0.913089],"scale":[0.16,5.87,0.16],"translation":[-17.43,-1.65,-24.97]},{"extras":{"kind":"Cone"},"mesh":6,"rotation":[0.37329,0.0,-0.164083,0.913089],"scale":[0.86,0.86,0.86],"translation":[-18.4,-3.81,-27.18]},{"extras":{"kind":"Box"},"mesh":7,"rotation":[0.37329,0.0,-0.164083,0.913089],"scale":[0.72,0.72,0.72],"translation":[-16.45,0.5,-22.77]},{"extras":{"kind":"Cyl"},"mesh":3,"rotation":[0.064634,-0.0,0.088734,0.993956],"scale":[0.15,5.6,0.15],"translation":[-19.57,-2.15,-22.71]},{"extras":{"kind":"Box"},"mesh":7,"rotation":[0.064634,-0.0,0.088734,0.993956],"scale":[0.68,0.68,0.68],"translation":[-19.03,-5.16,-23.1]},{"extras":{"kind":"Cone"},"mesh":6,"rotation":[0.064634,-0.0,0.088734,0.993956],"scale":[0.82,0.82,0.82],"translation":[-20.11,0.86,-22.32]},{"extras":{"kind":"Cyl"},"mesh":3,"rotation":[-0.304612,0.0,0.078508,0.949235],"scale":[0.19,6.73,0.19],"translation":[-25.74,-0.31,-18.09]},{"extras":{"kind":"Sphere"},"mesh":5,"scale":[0.99,0.99,0.99],"translation":[-25.74,-0.31,-18.09]},{"extras":{"kind":"Cyl"},"mesh":2,"rotation":[-0.518889,0.0,0.062896,0.852525],"scale":[0.21,6.82,0.21],"translation":[-30.24,0.44,-19.53]},{"extras":{"kind":"Cyl"},"mesh":2,"rotation":[-0.69376,0.0,-0.0911,0.714421],"scale":[0.21,6.76,0.21],"translation":[-33.73,-0.78,-22.46]},{"extras":{"kind":"Cyl"},"mesh":3,"rotation":[-0.738724,0.0,-0.40294,0.540302],"scale":[0.18,6.62,0.18],"translation":[-35.58,-3.75,-25.46]},{"extras":{"kind":"Sphere"},"mesh":5,"scale":[0.97,0.97,0.97],"translation":[-35.58,-3.75,-25.46]},{"extras":{"kind":"Cyl"},"mesh":3,"rotation":[-0.465082,0.0,-0.76023,0.453596],"scale":[0.18,6.54,0.18],"translation":[-36.17,-8.04,-27.0]},{"extras":{"kind":"Sphere"},"mesh":5,"scale":[0.96,0.96,0.96],"translation":[-36.17,-8.04,-27.0]},{"extras":{"kind":"Cyl"},"mesh":2,"rotation":[0.170388,0.0,-0.834899,0.523366],"scale":[0.21,6.62,0.21],"translation":[-35.59,-12.5,-26.51]},{"extras":{"kind":"Cyl"},"mesh":3,"rotation":[0.430228,0.0,-0.669243,0.60582],"scale":[0.18,6.6,0.18],"translation":[-38.47,-17.07,-27.65]},{"extras":{"kind":"Sphere"},"mesh":8,"scale":[0.97,0.97,0.97],"translation":[-41.41,-16.1,-29.54]},{"extras":{"kind":"Box"},"mesh":7,"rotation":[0.430228,0.0,-0.669243,0.60582],"scale":[0.81,0.81,0.81],"translation":[-35.53,-18.04,-25.75]},{"extras":{"kind":"Cyl"},"mesh":3,"rotation":[0.221918,0.0,-0.76086,0.609791],"scale":[0.16,5.96,0.16],"translation":[-37.3,-10.6,-31.77]},{"extras":{"kind":"Sphere"},"mesh":8,"scale":[0.87,0.87,0.87],"translation":[-40.34,-9.76,-32.65]},{"extras":{"kind":"Cone"},"mesh":6,"rotation":[0.221918,0.0,-0.76086,0.609791],"scale":[0.87,0.87,0.87],"translation":[-34.25,-11.44,-30.89]},{"extras":{"kind":"Cyl"},"mesh":3,"rotation":[-0.406716,0.0,-0.902712,0.140332],"scale":[0.21,7.52,0.21],"translation":[-34.83,-10.23,-35.23]},{"extras":{"kind":"Sphere"},"mesh":5,"scale":[1.1,1.1,1.1],"translation":[-34.83,-10.23,-35.23]},{"extras":{"kind":"Cyl"},"mesh":3,"rotation":[-0.81649,0.0,0.509106,0.272313],"scale":[0.19,6.87,0.19],"translation":[-33.86,-11.75,-38.28]},{"extras":{"kind":"Sphere"},"mesh":5,"scale":[1.01,1.01,1.01],"translation":[-33.86,-11.75,-38.28]},{"extras":{"kind":"Cyl"},"mesh":3,"rotation":[-0.781377,0.0,0.621095,0.060759],"scale":[0.16,5.89,0.16],"translation":[-32.26,-11.75,-35.53]},{"extras":{"kind":"Sphere"},"mesh":5,"scale":[0.86,0.86,0.86],"translation":[-32.26,-11.75,-35.53]},{"extras":{"kind":"Cyl"},"mesh":2,"rotation":[-0.484859,0.0,0.697516,0.52762],"scale":[0.21,6.71,0.21],"translation":[-34.39,-12.94,-42.37]},{"extras":{"kind":"Cyl"},"mesh":2,"rotation":[-0.200266,0.0,0.662949,0.721382],"scale":[0.21,6.8,0.21],"translation":[-35.9,-12.03,-46.03]},{"extras":{"kind":"Cyl"},"mesh":2,"rotation":[0.225814,-0.0,0.461892,0.857709],"scale":[0.21,6.63,0.21],"translation":[-38.28,-9.48,-50.44]},{"extras":{"kind":"Cyl"},"mesh":2,"rotation":[0.37344,-0.0,0.240068,0.896052],"scale":[0.22,6.95,0.22],"translation":[-39.26,-4.82,-51.17]},{"extras":{"kind":"Cyl"},"mesh":2,"rotation":[0.473119,0.0,-0.042581,0.879969],"scale":[0.21,6.69,0.21],"translation":[-39.2,-0.25,-51.04]},{"extras":{"kind":"Cyl"},"mesh":2,"rotation":[0.527391,0.0,-0.349476,0.774419],"scale":[0.21,6.74,0.21],"translation":[-36.62,3.02,-50.05]},{"extras":{"kind":"Cyl"},"mesh":3,"rotation":[0.385315,0.0,-0.571091,0.724836],"scale":[0.16,5.68,0.16],"translation":[-33.93,7.65,-51.09]},{"extras":{"kind":"Sphere"},"mesh":5,"scale":[0.83,0.83,0.83],"translation":[-36.52,7.49,-52.83]},{"extras":{"kind":"Box"},"mesh":4,"rotation":[0.385315,0.0,-0.571091,0.724836],"scale":[0.69,0.69,0.69],"translation":[-31.34,7.81,-49.35]},{"extras":{"kind":"Cyl"},"mesh":2,"rotation":[0.182784,0.0,-0.852991,0.488872],"scale":[0.22,6.88,0.22],"translation":[-28.49,7.55,-52.11]},{"extras":{"kind":"Cyl"},"mesh":2,"rotation":[-0.272252,0.0,-0.933435,0.233617],"scale":[0.21,6.67,0.21],"translation":[-25.69,6.07,-54.47]},{"extras":{"kind":"Cyl"},"mesh":2,"rotation":[-0.973928,0.0,0.087654,0.209239],"scale":[0.21,6.81,0.21],"translation":[-23.4,4.12,-58.08]},{"extras":{"kind":"Cyl"},"mesh":3,"rotation":[-0.273802,0.0,-0.93875,0.209239],"scale":[0.14,5.2,0.14],"translation":[-17.35,8.24,-53.73]},{"extras":{"kind":"Box"},"mesh":7,"rotation":[-0.273802,0.0,-0.93875,0.209239],"scale":[0.64,0.64,0.64],"translation":[-18.46,10.85,-53.4]},{"extras":{"kind":"Cone"},"mesh":6,"rotation":[-0.273802,0.0,-0.93875,0.209239],"scale":[0.76,0.76,0.76],"translation":[-16.24,5.62,-54.05]},{"extras":{"kind":"Cyl"},"mesh":3,"rotation":[-0.905823,0.0,-0.175619,0.385543],"scale":[0.16,5.91,0.16],"translation":[-13.09,9.0,-55.18]},{"extras":{"kind":"Box"},"mesh":7,"rotation":[-0.905823,0.0,-0.175619,0.385543],"scale":[0.72,0.72,0.72],"translation":[-13.53,11.29,-52.91]},{"extras":{"kind":"Cone"},"mesh":6,"rotation":[-0.905823,0.0,-0.175619,0.385543],"scale":[0.87,0.87,0.87],"translation":[-12.66,6.71,-57.44]},{"extras":{"kind":"Cyl"},"mesh":3,"rotation":[-0.794594,0.0,0.231757,0.561168],"scale":[0.18,6.5,0.18],"translation":[-10.39,9.24,-58.5]},{"extras":{"kind":"Sphere"},"mesh":5,"scale":[0.95,0.95,0.95],"translation":[-10.39,9.24,-58.5]},{"extras":{"kind":"Cyl"},"mesh":2,"rotation":[-0.526584,0.0,0.476772,0.703845],"scale":[0.21,6.71,0.21],"translation":[-10.09,10.93,-62.65]},{"extras":{"kind":"Cyl"},"mesh":2,"rotation":[-0.234643,0.0,0.553518,0.7991],"scale":[0.22,6.85,0.22],"translation":[-10.78,14.2,-65.8]},{"extras":{"kind":"Cyl"},"mesh":2,"rotation":[0.08918,-0.0,0.519342,0.8499],"scale":[0.21,6.8,0.21],"translation":[-11.56,18.35,-67.03]},{"extras":{"kind":"Cyl"},"mesh":2,"rotation":[0.399201,-0.0,0.416557,0.816773],"scale":[0.21,6.79,0.21],"translation":[-11.68,22.7,-65.99]},{"extras":{"kind":"Cyl"},"mesh":2,"rotation":[0.642501,-0.0,0.216421,0.735088],"scale":[0.21,6.69,0.21],"translation":[-10.94,26.56,-63.75]},{"extras":{"kind":"Cyl"},"mesh":3,"rotation":[0.80554,0.0,-0.089504,0.585743],"scale":[0.18,6.59,0.18],"translation":[-8.4,29.11,-60.71]},{"extras":{"kind":"Sphere"},"mesh":5,"scale":[0.97,0.97,0.97],"translation":[-8.4,29.11,-60.71]},{"extras":{"kind":"Cyl"},"mesh":3,"rotation":[0.789575,0.0,-0.477418,0.385543],"scale":[0.18,6.68,0.18],"translation":[-4.83,29.49,-58.08]},{"extras":{"kind":"Sphere"},"mesh":5,"scale":[0.98,0.98,0.98],"translation":[-4.83,29.49,-58.08]},{"extras":{"kind":"Cyl"},"mesh":2,"rotation":[0.388605,0.0,-0.893791,0.223883],"scale":[0.21,6.84,0.21],"translation":[-0.26,28.62,-56.83]},{"extras":{"kind":"Cyl"},"mesh":3,"rotation":[-0.353377,0.0,-0.91289,0.204347],"scale":[0.16,5.69,0.16],"translation":[5.01,28.62,-57.92]},{"extras":{"kind":"Cone"},"mesh":6,"rotation":[-0.353377,0.0,-0.91289,0.204347],"scale":[0.83,0.83,0.83],"translation":[3.86,31.5,-57.47]},{"extras":{"kind":"Box"},"mesh":7,"rotation":[-0.353377,0.0,-0.91289,0.204347],"scale":[0.7,0.7,0.7],"translation":[6.17,25.75,-58.37]},{"extras":{"kind":"Cyl"},"mesh":3,"rotation":[0.722589,0.0,-0.385928,0.57352],"scale":[0.22,8.02,0.22],"translation":[11.74,30.98,-54.05]},{"extras":{"kind":"Sphere"},"mesh":8,"scale":[1.18,1.18,1.18],"translation":[11.74,30.98,-54.05]},{"extras":{"kind":"Cyl"},"mesh":3,"rotation":[0.42141,0.0,-0.0,0.90687],"scale":[0.15,5.6,0.15],"translation":[7.34,26.85,-54.13]},{"extras":{"kind":"Cone"},"mesh":6,"rotation":[0.42141,0.0,-0.0,0.90687],"scale":[0.82,0.82,0.82],"translation":[7.34,26.85,-54.13]},{"extras":{"kind":"Cyl"},"mesh":2,"rotation":[-0.782357,0.0,-0.440638,0.440177],"scale":[0.21,6.72,0.21],"translation":[-16.53,-6.17,-58.12]},{"extras":{"kind":"Cyl"},"mesh":2,"rotation":[-0.526606,0.0,-0.549502,0.64864],"scale":[0.22,6.85,0.22],"translation":[-13.01,-8.71,-57.03]},{"extras":{"kind":"Cyl"},"mesh":3,"rotation":[-0.06135,0.0,0.506136,0.860269],"scale":[0.2,7.13,0.2],"translation":[-20.68,-0.07,-44.05]},{"extras":{"kind":"Box"},"mesh":7,"rotation":[-0.06135,0.0,0.506136,0.860269],"scale":[0.87,0.87,0.87],"translation":[-17.28,-1.96,-43.63]},{"extras":{"kind":"Sphere"},"mesh":8,"scale":[1.05,1.05,1.05],"translation":[-24.09,1.83,-44.46]},{"extras":{"kind":"Cyl"},"mesh":2,"rotation":[-0.428459,0.0,-0.588224,0.685868],"scale":[0.21,6.62,0.21],"translation":[-3.99,-3.74,-45.25]},{"extras":{"kind":"Cyl"},"mesh":2,"rotation":[-0.602656,0.0,-0.66562,0.440177],"scale":[0.21,6.73,0.21],"translation":[-3.03,-4.43,-49.35]},{"extras":{"kind":"Cyl"},"mesh":3,"rotation":[0.181871,-0.0,0.027556,0.982936],"scale":[0.15,5.4,0.15],"translation":[-22.79,5.09,-53.26]},{"extras":{"kind":"Cone"},"mesh":6,"rotation":[0.181871,-0.0,0.027556,0.982936],"scale":[0.79,0.79,0.79],"translation":[-22.79,5.09,-53.26]},{"extras":{"kind":"Cyl"},"mesh":3,"rotation":[0.063154,0.0,-0.902204,0.42666],"scale":[0.15,5.55,0.15],"translation":[-14.76,5.48,-40.69]},{"extras":{"kind":"Cone"},"mesh":6,"rotation":[0.063154,0.0,-0.902204,0.42666],"scale":[0.81,0.81,0.81],"translation":[-14.76,5.48,-40.69]},{"extras":{"kind":"Cyl"},"mesh":3,"rotation":[0.457079,0.0,-0.35872,0.813878],"scale":[0.08,2.97,0.08],"translation":[-31.13,-16.86,-27.61]},{"extras":{"kind":"Cyl"},"mesh":3,"rotation":[0.245818,0.0,-0.778423,0.577609],"scale":[0.07,2.62,0.07],"translation":[8.44,20.39,-37.66]},{"extras":{"kind":"Cone"},"mesh":9,"rotation":[0.245818,0.0,-0.778423,0.577609],"scale":[0.38,0.38,0.38],"translation":[7.14,20.86,-38.07]},{"extras":{"kind":"Box"},"mesh":4,"rotation":[0.245818,0.0,-0.778423,0.577609],"scale":[0.32,0.32,0.32],"translation":[9.73,19.91,-37.25]},{"extras":{"kind":"Cyl"},"mesh":3,"rotation":[-0.415602,0.0,0.58041,0.700285],"scale":[0.18,6.65,0.18],"translation":[8.07,14.97,-44.3]},{"extras":{"kind":"Sphere"},"mesh":5,"scale":[0.98,0.98,0.98],"translation":[8.07,14.97,-44.3]},{"extras":{"kind":"Cyl"},"mesh":2,"rotation":[-0.225814,0.0,0.461892,0.857709],"scale":[0.21,6.79,0.21],"translation":[7.96,16.49,-48.52]},{"extras":{"kind":"Cyl"},"mesh":2,"rotation":[0.024706,-0.0,0.30883,0.950796],"scale":[0.21,6.71,0.21],"translation":[8.14,19.82,-51.07]},{"extras":{"kind":"Cyl"},"mesh":2,"rotation":[0.223234,-0.0,0.106656,0.968912],"scale":[0.22,6.89,0.22],"translation":[8.92,24.19,-52.74]},{"extras":{"kind":"Cyl"},"mesh":3,"rotation":[0.526506,0.0,-0.215132,0.822502],"scale":[0.17,6.16,0.17],"translation":[13.25,25.62,-52.6]},{"extras":{"kind":"Sphere"},"mesh":8,"scale":[0.9,0.9,0.9],"translation":[12.05,24.42,-55.54]},{"extras":{"kind":"Box"},"mesh":7,"rotation":[0.526506,0.0,-0.215132,0.822502],"scale":[0.75,0.75,0.75],"translation":[14.45,26.81,-49.67]},{"extras":{"kind":"Cyl"},"mesh":3,"rotation":[-0.090645,0.0,0.041836,0.995004],"scale":[0.08,2.74,0.08],"translation":[13.46,31.2,-58.96]},{"extras":{"kind":"Cone"},"mesh":9,"rotation":[-0.090645,0.0,0.041836,0.995004],"scale":[0.4,0.4,0.4],"translation":[13.59,29.72,-58.69]},{"extras":{"kind":"Box"},"mesh":4,"rotation":[-0.090645,0.0,0.041836,0.995004],"scale":[0.33,0.33,0.33],"translation":[13.33,32.67,-59.24]},{"extras":{"kind":"Cyl"},"mesh":3,"rotation":[0.754792,-0.0,0.067931,0.652437],"scale":[0.19,6.88,0.19],"translation":[12.51,33.0,-52.06]},{"extras":{"kind":"Sphere"},"mesh":5,"scale":[1.01,1.01,1.01],"translation":[12.51,33.0,-52.06]},{"extras":{"kind":"Cyl"},"mesh":3,"rotation":[0.766413,0.0,-0.57481,0.286715],"scale":[0.18,6.64,0.18],"translation":[18.66,31.78,-52.53]},{"extras":{"kind":"Sphere"},"mesh":5,"scale":[0.97,0.97,0.97],"translation":[18.66,31.78,-52.53]},{"extras":{"kind":"Cyl"},"mesh":2,"rotation":[-0.278283,0.0,-0.954114,0.11057],"scale":[0.21,6.83,0.21],"translation":[23.15,30.11,-53.01]},{"extras":{"kind":"Cyl"},"mesh":2,"rotation":[-0.943969,0.0,0.211911,0.253016],"scale":[0.21,6.84,0.21],"translation":[26.38,28.65,-55.85]},{"extras":{"kind":"Cyl"},"mesh":2,"rotation":[-0.735193,0.0,0.487176,0.471328],"scale":[0.21,6.74,0.21],"translation":[28.13,27.88,-60.08]},{"extras":{"kind":"Cyl"},"mesh":2,"rotation":[-0.483994,0.0,0.5659,0.667463],"scale":[0.21,6.71,0.21],"translation":[28.64,28.29,-64.4]},{"extras":{"kind":"Cyl"},"mesh":2,"rotation":[-0.18526,0.0,0.567733,0.802096],"scale":[0.21,6.78,0.21],"translation":[28.23,31.29,-67.91]},{"extras":{"kind":"Cyl"},"mesh":2,"rotation":[0.080394,-0.0,0.468179,0.879969],"scale":[0.21,6.66,0.21],"translation":[27.45,35.13,-70.07]},{"extras":{"kind":"Cyl"},"mesh":2,"rotation":[0.347533,-0.0,0.276244,0.896052],"scale":[0.22,6.97,0.22],"translation":[27.21,39.15,-70.26]},{"extras":{"kind":"Cyl"},"mesh":2,"rotation":[0.536332,-0.0,0.059592,0.841901],"scale":[0.21,6.68,0.21],"translation":[29.13,43.35,-69.58]},{"extras":{"kind":"Cyl"},"mesh":2,"rotation":[0.196039,0.0,-0.914848,0.353019],"scale":[0.22,6.86,0.22],"translation":[3.31,4.66,-47.16]},{"extras":{"kind":"Cyl"},"mesh":2,"rotation":[0.268539,0.0,-0.742431,0.613746],"scale":[0.21,6.76,0.21],"translation":[5.03,2.66,-43.92]},{"extras":{"kind":"Cyl"},"mesh":2,"rotation":[-0.696665,0.0,-0.648948,0.305817],"scale":[0.21,6.62,0.21],"translation":[-1.12,-18.9,-44.07]},{"extras":{"kind":"Cyl"},"mesh":3,"rotation":[-0.135618,0.0,-0.240791,0.961055],"scale":[0.14,5.07,0.14],"translation":[-1.42,-8.25,-42.43]},{"extras":{"kind":"Box"},"mesh":4,"rotation":[-0.135618,0.0,-0.240791,0.961055],"scale":[0.62,0.62,0.62],"translation":[-2.71,-10.61,-41.71]},{"extras":{"kind":"Sphere"},"mesh":5,"scale":[0.74,0.74,0.74],"translation":[-0.13,-5.88,-43.15]},{"extras":{"kind":"Cyl"},"mesh":3,"rotation":[-0.622816,0.0,-0.540867,0.5653],"scale":[0.18,6.65,0.18],"translation":[2.45,-20.96,-44.38]},{"extras":{"kind":"Sphere"},"mesh":5,"scale":[0.98,0.98,0.98],"translation":[2.45,-20.96,-44.38]},{"extras":{"kind":"Cyl"},"mesh":3,"rotation":[-0.0,0.0,-0.13459,0.990901],"scale":[0.15,5.29,0.15],"translation":[-0.49,-12.68,-39.24]},{"extras":{"kind":"Box"},"mesh":4,"rotation":[-0.0,0.0,-0.13459,0.990901],"scale":[0.65,0.65,0.65],"translation":[-1.25,-15.48,-39.24]},{"extras":{"kind":"Sphere"},"mesh":5,"scale":[0.78,0.78,0.78],"translation":[0.28,-9.87,-39.25]},{"extras":{"kind":"Cyl"},"mesh":3,"rotation":[-0.558813,0.0,-0.304807,0.771246],"scale":[0.21,7.75,0.21],"translation":[6.65,-20.72,-44.49]},{"extras":{"kind":"Sphere"},"mesh":5,"scale":[1.14,1.14,1.14],"translation":[6.65,-20.72,-44.49]},{"extras":{"kind":"Cyl"},"mesh":3,"rotation":[0.073849,0.0,-0.012681,0.997189],"scale":[0.12,4.54,0.12],"translation":[2.73,-17.41,-36.43]},{"extras":{"kind":"Box"},"mesh":4,"rotation":[0.073849,0.0,-0.012681,0.997189],"scale":[0.55,0.55,0.55],"translation":[2.67,-19.87,-36.8]},{"extras":{"kind":"Sphere"},"mesh":5,"scale":[0.67,0.67,0.67],"translation":[2.8,-14.94,-36.07]},{"extras":{"kind":"Cyl"},"mesh":2,"rotation":[-0.380188,0.0,-0.0,0.924909],"scale":[0.21,6.68,0.21],"translation":[12.58,-18.51,-46.22]},{"extras":{"kind":"Cyl"},"mesh":3,"rotation":[0.321086,-0.0,0.325672,0.889293],"scale":[0.14,4.93,0.14],"translation":[9.43,-20.6,-37.98]},{"extras":{"kind":"Box"},"mesh":4,"rotation":[0.321086,-0.0,0.325672,0.889293],"scale":[0.6,0.6,0.6],"translation":[11.0,-22.18,-39.53]},{"extras":{"kind":"Sphere"},"mesh":5,"scale":[0.72,0.72,0.72],"translation":[7.85,-19.03,-36.44]},{"extras":{"kind":"Cyl"},"mesh":2,"rotation":[-0.163828,0.0,0.144169,0.975897],"scale":[0.21,6.74,0.21],"translation":[15.29,-14.56,-46.43]},{"extras":{"kind":"Cyl"},"mesh":3,"rotation":[0.558961,-0.0,0.37713,0.738469],"scale":[0.13,4.57,0.13],"translation":[14.61,-20.82,-39.91]},{"extras":{"kind":"Box"},"mesh":4,"rotation":[0.558961,-0.0,0.37713,0.738469],"scale":[0.56,0.56,0.56],"translation":[16.0,-21.04,-41.99]},{"extras":{"kind":"Sphere"},"mesh":5,"scale":[0.67,0.67,0.67],"translation":[13.21,-20.6,-37.83]},{"extras":{"kind":"Cyl"},"mesh":2,"rotation":[0.025841,-0.0,0.323011,0.946042],"scale":[0.21,6.69,0.21],"translation":[16.09,-10.06,-44.16]},{"extras":{"kind":"Cyl"},"mesh":2,"rotation":[0.271035,-0.0,0.42161,0.865324],"scale":[0.22,6.85,0.22],"translation":[16.33,-6.24,-41.62]},{"extras":{"kind":"Cyl"},"mesh":2,"rotation":[0.54629,-0.0,0.454059,0.703845],"scale":[0.22,6.84,0.22],"translation":[17.34,-4.58,-37.07]},{"extras":{"kind":"Cyl"},"mesh":2,"rotation":[0.733219,-0.0,0.485868,0.475732],"scale":[0.22,6.89,0.22],"translation":[18.77,-5.04,-32.63]},{"extras":{"kind":"Cyl"},"mesh":3,"rotation":[0.763967,-0.0,0.599569,0.238476],"scale":[0.16,5.99,0.16],"translation":[21.03,-7.33,-29.48]},{"extras":{"kind":"Cone"},"mesh":6,"rotation":[0.763967,-0.0,0.599569,0.238476],"scale":[0.88,0.88,0.88],"translation":[21.98,-4.41,-30.69]},{"extras":{"kind":"Box"},"mesh":7,"rotation":[0.763967,-0.0,0.599569,0.238476],"scale":[0.73,0.73,0.73],"translation":[20.09,-10.24,-28.27]},{"extras":{"kind":"Cyl"},"mesh":3,"rotation":[-0.983339,0.0,-0.10926,0.14528],"scale":[0.17,6.04,0.17],"translation":[24.06,-7.87,-27.71]},{"extras":{"kind":"Box"},"mesh":7,"rotation":[-0.983339,0.0,-0.10926,0.14528],"scale":[0.74,0.74,0.74],"translation":[23.95,-4.69,-26.76]},{"extras":{"kind":"Cone"},"mesh":6,"rotation":[-0.983339,0.0,-0.10926,0.14528],"scale":[0.89,0.89,0.89],"translation":[24.16,-11.05,-28.67]},{"extras":{"kind":"Cyl"},"mesh":3,"rotation":[-0.864233,0.0,0.034569,0.501902],"scale":[0.18,6.66,0.18],"translation":[29.84,-11.91,-25.93]},{"extras":{"kind":"Sphere"},"mesh":5,"scale":[0.98,0.98,0.98],"translation":[29.84,-11.91,-25.93]},{"extras":{"kind":"Cyl"},"mesh":2,"rotation":[-0.701563,0.0,0.049109,0.710914],"scale":[0.22,6.9,0.22],"translation":[33.59,-12.67,-28.45]},{"extras":{"kind":"Cyl"},"mesh":2,"rotation":[-0.481156,0.0,0.124009,0.867819],"scale":[0.21,6.82,0.21],"translation":[36.67,-10.64,-31.18]},{"extras":{"kind":"Cyl"},"mesh":3,"rotation":[-0.220662,0.0,0.243716,0.94441],"scale":[0.18,6.57,0.18],"translation":[38.9,-6.57,-32.7]},{"extras":{"kind":"Sphere"},"mesh":5,"scale":[0.96,0.96,0.96],"translation":[38.9,-6.57,-32.7]},{"extras":{"kind":"Cyl"},"mesh":3,"rotation":[0.040129,-0.0,0.331064,0.942755],"scale":[0.18,6.64,0.18],"translation":[39.86,-2.28,-32.12]},{"extras":{"kind":"Sphere"},"mesh":5,"scale":[0.97,0.97,0.97],"translation":[39.86,-2.28,-32.12]},{"extras":{"kind":"Cyl"},"mesh":2,"rotation":[0.332371,-0.0,0.430448,0.839192],"scale":[0.22,6.85,0.22],"translation":[40.34,1.11,-29.66]},{"extras":{"kind":"Cyl"},"mesh":3,"rotation":[0.518925,-0.0,0.400689,0.755093],"scale":[0.19,6.97,0.19],"translation":[43.2,5.32,-30.08]},{"extras":{"kind":"Sphere"},"mesh":8,"scale":[1.02,1.02,1.02],"translation":[45.52,4.79,-33.09]},{"extras":{"kind":"Box"},"mesh":7,"rotation":[0.518925,-0.0,0.400689,0.755093],"scale":[0.85,0.85,0.85],"translation":[40.88,5.85,-27.07]},{"extras":{"kind":"Cyl"},"mesh":3,"rotation":[0.37761,-0.0,0.322956,0.867819],"scale":[0.18,6.45,0.18],"translation":[41.91,4.3,-34.61]},{"extras":{"kind":"Box"},"mesh":7,"rotation":[0.37761,-0.0,0.322956,0.867819],"scale":[0.79,0.79,0.79],"translation":[43.9,2.52,-36.94]},{"extras":{"kind":"Sphere"},"mesh":8,"scale":[0.95,0.95,0.95],"translation":[39.91,6.09,-32.28]},{"extras":{"kind":"Cyl"},"mesh":3,"rotation":[0.372496,-0.0,0.511392,0.774419],"scale":[0.17,6.07,0.17],"translation":[40.61,2.07,-35.42]},{"extras":{"kind":"Sphere"},"mesh":8,"scale":[0.89,0.89,0.89],"translation":[43.25,1.4,-37.34]},{"extras":{"kind":"Cone"},"mesh":6,"rotation":[0.372496,-0.0,0.511392,0.774419],"scale":[0.89,0.89,0.89],"translation":[37.97,2.75,-33.49]},{"extras":{"kind":"Cyl"},"mesh":3,"rotation":[0.199048,-0.0,0.042653,0.979061],"scale":[0.21,7.61,0.21],"translation":[37.79,3.58,-38.16]},{"extras":{"kind":"Sphere"},"mesh":5,"scale":[1.12,1.12,1.12],"translation":[37.79,3.58,-38.16]},{"extras":{"kind":"Cyl"},"mesh":2,"rotation":[-0.026082,0.0,-0.172143,0.984727],"scale":[0.21,6.74,0.21],"translation":[36.63,6.67,-39.86]},{"extras":{"kind":"Cyl"},"mesh":2,"rotation":[-0.20178,0.0,-0.3904,0.898261],"scale":[0.21,6.67,0.21],"translation":[36.84,9.84,-43.03]},{"extras":{"kind":"Cyl"},"mesh":3,"rotation":[-0.393397,0.0,-0.684511,0.613746],"scale":[0.21,7.59,0.21],"translation":[37.75,7.95,-48.6]},{"extras":{"kind":"Sphere"},"mesh":5,"scale":[1.11,1.11,1.11],"translation":[37.75,7.95,-48.6]},{"extras":{"kind":"Cyl"},"mesh":2,"rotation":[-0.275465,0.0,-0.611397,0.741831],"scale":[0.21,6.72,0.21],"translation":[37.45,10.74,-47.53]},{"extras":{"kind":"Cyl"},"mesh":2,"rotation":[-0.035799,0.0,-0.894983,0.444662],"scale":[0.21,6.59,0.21],"translation":[38.99,10.29,-52.44]},{"extras":{"kind":"Cyl"},"mesh":2,"rotation":[0.459429,0.0,-0.842286,0.281922],"scale":[0.22,6.88,0.22],"translation":[39.67,6.67,-55.31]},{"extras":{"kind":"Cyl"},"mesh":2,"rotation":[0.964451,0.0,-0.057867,0.25785],"scale":[0.21,6.72,0.21],"translation":[38.76,2.45,-57.06]},{"extras":{"kind":"Cyl"},"mesh":2,"rotation":[0.772188,-0.0,0.421194,0.475732],"scale":[0.21,6.77,0.21],"translation":[35.92,-0.8,-57.45]},{"extras":{"kind":"Cyl"},"mesh":3,"rotation":[0.54789,-0.0,0.605132,0.577609],"scale":[0.16,5.76,0.16],"translation":[33.0,-4.7,-59.64]},{"extras":{"kind":"Sphere"},"mesh":5,"scale":[0.84,0.84,0.84],"translation":[35.22,-3.65,-61.64]},{"extras":{"kind":"Box"},"mesh":4,"rotation":[0.54789,-0.0,0.605132,0.577609],"scale":[0.7,0.7,0.7],"translation":[30.78,-5.76,-57.64]},{"extras":{"kind":"Cyl"},"mesh":2,"rotation":[0.305335,-0.0,0.474965,0.825336],"scale":[0.22,6.85,0.22],"translation":[27.49,-4.51,-59.64]},{"extras":{"kind":"Cyl"},"mesh":2,"rotation":[0.152038,-0.0,0.236504,0.959662],"scale":[0.21,6.66,0.21],"translation":[24.33,-2.53,-60.71]},{"extras":{"kind":"Cyl"},"mesh":2,"rotation":[-0.019173,0.0,0.023068,0.99955],"scale":[0.21,6.83,0.21],"translation":[21.32,0.47,-62.88]},{"extras":{"kind":"Cyl"},"mesh":3,"rotation":[0.170495,-0.0,0.205127,0.963771],"scale":[0.14,5.23,0.14],"translation":[16.19,-5.38,-59.23]},{"extras":{"kind":"Box"},"mesh":7,"rotation":[0.170495,-0.0,0.205127,0.963771],"scale":[0.64,0.64,0.64],"translation":[17.32,-7.84,-60.18]},{"extras":{"kind":"Cone"},"mesh":6,"rotation":[0.170495,-0.0,0.205127,0.963771],"scale":[0.77,0.77,0.77],"translation":[15.05,-2.92,-58.28]},{"extras":{"kind":"Cyl"},"mesh":3,"rotation":[-0.165972,0.0,0.134054,0.976976],"scale":[0.16,5.91,0.16],"translation":[11.7,-5.8,-60.06]},{"extras":{"kind":"Box"},"mesh":7,"rotation":[-0.165972,0.0,0.134054,0.976976],"scale":[0.72,0.72,0.72],"translation":[12.54,-8.76,-59.02]},{"extras":{"kind":"Cone"},"mesh":6,"rotation":[-0.165972,0.0,0.134054,0.976976],"scale":[0.87,0.87,0.87],"translation":[10.86,-2.84,-61.1]},{"extras":{"kind":"Cyl"},"mesh":3,"rotation":[-0.382012,0.0,-0.046304,0.922997],"scale":[0.18,6.51,0.18],"translation":[8.29,-4.78,-62.8]},{"extras":{"kind":"Sphere"},"mesh":5,"scale":[0.96,0.96,0.96],"translation":[8.29,-4.78,-62.8]},{"extras":{"kind":"Cyl"},"mesh":2,"rotation":[-0.479272,0.0,-0.313809,0.819648],"scale":[0.21,6.7,0.21],"translation":[7.2,-4.74,-67.15]},{"extras":{"kind":"Cyl"},"mesh":2,"rotation":[-0.444758,0.0,-0.575999,0.685868],"scale":[0.22,6.85,0.22],"translation":[7.21,-6.47,-71.37]},{"extras":{"kind":"Cyl"},"mesh":2,"rotation":[-0.184314,0.0,-0.821037,0.540302],"scale":[0.21,6.79,0.21],"translation":[7.64,-9.73,-74.28]},{"extras":{"kind":"Cyl"},"mesh":2,"rotation":[0.341424,0.0,-0.80541,0.484504],"scale":[0.21,6.79,0.21],"translation":[7.84,-14.12,-75.1]},{"extras":{"kind":"Cyl"},"mesh":2,"rotation":[0.712337,0.0,-0.457931,0.531861],"scale":[0.21,6.69,0.21],"translation":[7.45,-18.56,-74.46]},{"extras":{"kind":"Cyl"},"mesh":3,"rotation":[0.734961,0.0,-0.066146,0.674876],"scale":[0.18,6.6,0.18],"translation":[5.47,-22.21,-72.27]},{"extras":{"kind":"Sphere"},"mesh":5,"scale":[0.97,0.97,0.97],"translation":[5.47,-22.21,-72.27]},{"extras":{"kind":"Cyl"},"mesh":3,"rotation":[0.534725,-0.0,0.137816,0.833712],"scale":[0.18,6.68,0.18],"translation":[2.43,-23.78,-69.41]},{"extras":{"kind":"Sphere"},"mesh":5,"scale":[0.98,0.98,0.98],"translation":[2.43,-23.78,-69.41]},{"extras":{"kind":"Cyl"},"mesh":2,"rotation":[0.307022,-0.0,0.182071,0.934124],"scale":[0.21,6.84,0.21],"translation":[-1.9,-23.32,-67.2]},{"extras":{"kind":"Cyl"},"mesh":3,"rotation":[0.144129,-0.0,0.189022,0.971338],"scale":[0.16,5.69,0.16],"translation":[-7.26,-23.21,-67.18]},{"extras":{"kind":"Cone"},"mesh":6,"rotation":[0.144129,-0.0,0.189022,0.971338],"scale":[0.83,0.83,0.83],"translation":[-6.11,-25.98,-68.06]},{"extras":{"kind":"Box"},"mesh":7,"rotation":[0.144129,-0.0,0.189022,0.971338],"scale":[0.7,0.7,0.7],"translation":[-8.42,-20.43,-66.3]},{"extras":{"kind":"Cyl"},"mesh":3,"rotation":[0.691274,-0.0,0.178163,0.700285],"scale":[0.22,8.08,0.22],"translation":[-13.04,-27.19,-63.17]},{"extras":{"kind":"Sphere"},"mesh":8,"scale":[1.18,1.18,1.18],"translation":[-13.04,-27.19,-63.17]},{"extras":{"kind":"Cyl"},"mesh":3,"rotation":[0.920924,0.0,-0.300512,0.248175],"scale":[0.15,5.6,0.15],"translation":[-8.65,-23.06,-62.59]},{"extras":{"kind":"Cone"},"mesh":6,"rotation":[0.920924,0.0,-0.300512,0.248175],"scale":[0.82,0.82,0.82],"translation":[-8.65,-23.06,-62.59]},{"extras":{"kind":"Cyl"},"mesh":2,"rotation":[-0.166438,0.0,0.266928,0.949235],"scale":[0.21,6.73,0.21],"translation":[14.67,9.6,-57.61]},{"extras":{"kind":"Cyl"},"mesh":2,"rotation":[-0.241636,0.0,0.505749,0.828148],"scale":[0.22,6.86,0.22],"translation":[11.59,11.53,-54.93]},{"extras":{"kind":"Cyl"},"mesh":3,"rotation":[-0.408917,0.0,-0.726037,0.552863],"scale":[0.2,7.17,0.2],"translation":[21.57,-0.93,-47.81]},{"extras":{"kind":"Box"},"mesh":7,"rotation":[-0.408917,0.0,-0.726037,0.552863],"scale":[0.88,0.88,0.88],"translation":[18.41,0.6,-46.02]},{"extras":{"kind":"Sphere"},"mesh":8,"scale":[1.05,1.05,1.05],"translation":[24.74,-2.46,-49.61]},{"extras":{"kind":"Cyl"},"mesh":3,"rotation":[-0.239736,0.0,-0.968935,0.060759],"scale":[0.15,5.42,0.15],"translation":[21.69,-2.28,-58.73]},{"extras":{"kind":"Cone"},"mesh":6,"rotation":[-0.239736,0.0,-0.968935,0.060759],"scale":[0.79,0.79,0.79],"translation":[21.69,-2.28,-58.73]},{"extras":{"kind":"Cyl"},"mesh":3,"rotation":[0.22747,-0.0,0.417028,0.879969],"scale":[0.15,5.51,0.15],"translation":[16.01,-7.6,-46.21]},{"extras":{"kind":"Cone"},"mesh":6,"rotation":[0.22747,-0.0,0.417028,0.879969],"scale":[0.81,0.81,0.81],"translation":[16.01,-7.6,-46.21]},{"extras":{"kind":"Cyl"},"mesh":3,"rotation":[0.733056,-0.0,0.494592,0.466913],"scale":[0.08,2.97,0.08],"translation":[36.4,6.05,-27.72]},{"extras":{"kind":"Cyl"},"mesh":3,"rotation":[0.374207,-0.0,0.538334,0.755093],"scale":[0.07,2.61,0.07],"translation":[-6.16,-22.81,-45.07]},{"extras":{"kind":"Cone"},"mesh":9,"rotation":[0.374207,-0.0,0.538334,0.755093],"scale":[0.38,0.38,0.38],"translation":[-4.99,-23.01,-45.88]},{"extras":{"kind":"Box"},"mesh":4,"rotation":[0.374207,-0.0,0.538334,0.755093],"scale":[0.32,0.32,0.32],"translation":[-7.33,-22.6,-44.26]},{"extras":{"kind":"Cyl"},"mesh":3,"rotation":[-0.434058,0.0,-0.415972,0.7991],"scale":[0.18,6.67,0.18],"translation":[-7.26,-15.41,-49.28]},{"extras":{"kind":"Sphere"},"mesh":5,"scale":[0.98,0.98,0.98],"translation":[-7.26,-15.41,-49.28]},{"extras":{"kind":"Cyl"},"mesh":2,"rotation":[-0.556087,0.0,-0.556087,0.617686],"scale":[0.21,6.79,0.21],"translation":[-8.12,-15.39,-53.71]},{"extras":{"kind":"Cyl"},"mesh":2,"rotation":[-0.502023,0.0,-0.780924,0.37166],"scale":[0.21,6.71,0.21],"translation":[-8.88,-17.61,-57.17]},{"extras":{"kind":"Cyl"},"mesh":2,"rotation":[0.138432,0.0,-0.978912,0.150225],"scale":[0.22,6.9,0.22],"translation":[-10.0,-21.22,-60.08]},{"extras":{"kind":"Cyl"},"mesh":3,"rotation":[0.892317,-0.0,0.182106,0.413046],"scale":[0.17,6.16,0.17],"translation":[-14.17,-22.89,-59.56]},{"extras":{"kind":"Sphere"},"mesh":8,"scale":[0.9,0.9,0.9],"translation":[-13.65,-20.66,-62.07]},{"extras":{"kind":"Box"},"mesh":7,"rotation":[0.892317,-0.0,0.182106,0.413046],"scale":[0.75,0.75,0.75],"translation":[-14.7,-25.11,-57.06]},{"extras":{"kind":"Cyl"},"mesh":3,"rotation":[-0.956967,0.0,-0.086127,0.277121],"scale":[0.08,2.73,0.08],"translation":[-15.83,-25.9,-67.3]},{"extras":{"kind":"Cone"},"mesh":9,"rotation":[-0.956967,0.0,-0.086127,0.277121],"scale":[0.4,0.4,0.4],"translation":[-15.9,-24.63,-66.51]},{"extras":{"kind":"Box"},"mesh":4,"rotation":[-0.956967,0.0,-0.086127,0.277121],"scale":[0.33,0.33,0.33],"translation":[-15.76,-27.17,-68.1]},{"extras":{"kind":"Cyl"},"mesh":3,"rotation":[0.733425,0.0,-0.247048,0.63329],"scale":[0.19,6.89,0.19],"translation":[-13.35,-29.94,-61.84]},{"extras":{"kind":"Sphere"},"mesh":5,"scale":[1.01,1.01,1.01],"translation":[-13.35,-29.94,-61.84]},{"extras":{"kind":"Cyl"},"mesh":3,"rotation":[0.42619,-0.0,0.124305,0.896052],"scale":[0.18,6.64,0.18],"translation":[-19.48,-29.12,-60.57]},{"extras":{"kind":"Sphere"},"mesh":5,"scale":[0.97,0.97,0.97],"translation":[-19.48,-29.12,-60.57]},{"extras":{"kind":"Cyl"},"mesh":2,"rotation":[0.168583,-0.0,0.105116,0.980067],"scale":[0.21,6.83,0.21],"translation":[-23.86,-27.68,-59.54]},{"extras":{"kind":"Cyl"},"mesh":2,"rotation":[-0.079851,0.0,-0.003194,0.996802],"scale":[0.22,6.85,0.22],"translation":[-27.64,-25.57,-60.84]},{"extras":{"kind":"Cyl"},"mesh":2,"rotation":[-0.283661,0.0,-0.146611,0.947651],"scale":[0.21,6.73,0.21],"translation":[-30.41,-23.54,-64.0]},{"extras":{"kind":"Cyl"},"mesh":2,"rotation":[-0.443646,0.0,-0.342562,0.828148],"scale":[0.21,6.72,0.21],"translation":[-31.99,-22.46,-67.87]},{"extras":{"kind":"Cyl"},"mesh":2,"rotation":[-0.446786,0.0,-0.595714,0.667463],"scale":[0.21,6.77,0.21],"translation":[-32.58,-24.05,-72.17]},{"extras":{"kind":"Cyl"},"mesh":2,"rotation":[-0.26909,0.0,-0.82463,0.497571],"scale":[0.21,6.67,0.21],"translation":[-32.47,-26.86,-75.64]},{"extras":{"kind":"Cyl"},"mesh":2,"rotation":[0.325851,0.0,-0.875144,0.357693],"scale":[0.22,6.98,0.22],"translation":[-32.42,-30.57,-77.28]},{"extras":{"kind":"Cyl"},"mesh":2,"rotation":[0.82169,0.0,-0.415461,0.390152],"scale":[0.21,6.67,0.21],"translation":[-34.19,-34.9,-77.62]}],"scene":0,"scenes":[{"nodes":[0]}]}
