#VRML V2.0 utf8

PROTO Label [
  field SFVec3f p 0 0 0
  field SFFloat sz 1.5
  field MFString c []
  field SFVec3f o 0 0 0
  field SFColor dc 0 0 0
  field SFColor ec 0 0 0
  field SFColor sc 0.0 0.0 0.0
  field SFFloat sh 1.0
  field SFFloat tr 0
]
{
  Transform {
    translation IS p
    children [
      Billboard {
        axisOfRotation 0 0 0
        children [
          Transform {
            translation IS o
            children [
              Shape {
                appearance Appearance {
                  material Material {
                    diffuseColor IS dc
                    emissiveColor IS ec
                    specularColor IS sc
                    shininess IS sh
                    transparency IS tr
                  }
                }
                geometry Text {
                  string IS c
                  fontStyle FontStyle {
                    style "BOLD"
                    justify "MIDDLE"
                    size IS sz
                  }
                }
              }
            ]
          }
        ]
      }
    ]
  }
}
PROTO Sphere [
  exposedField SFVec3f p 0 0 0
  field SFFloat rad 1.0
  field SFColor dc 1 0 0 
  field SFColor ec 0 0 0
  field SFColor sc 0 0 0
  field SFFloat sh 1
  field SFFloat tr 0
]
{
  Transform {
    translation IS p
    children [
      Shape {
        appearance Appearance {
          material Material {
            diffuseColor IS dc
            emissiveColor IS ec
            specularColor IS sc
            shininess IS sh
            transparency IS tr
          }
        }
        geometry Sphere {
          radius IS rad
        }
      }
    ]
  }
}
PROTO Box [
  exposedField SFVec3f p 0 0 0
  exposedField SFRotation r 0 0 1 0
  exposedField SFVec3f s 1 1 1
  field SFColor dc 1 0 0 
  field SFColor ec 0 0 0
  field SFColor sc 0 0 0
  field SFFloat sh 1
  field SFFloat tr 0
]
{
  Transform {
    translation IS p
    rotation IS r
    scale IS s
    children [
      Shape {
        appearance Appearance {
          material Material {
            diffuseColor IS dc
            emissiveColor IS ec
            specularColor IS sc
            shininess IS sh
            transparency IS tr
          }
        }
        geometry Box { }
      }
    ]
  }
}
PROTO Cyl [
  exposedField SFVec3f p 0 0 0
  exposedField SFRotation r 0 0 1 0
  exposedField SFVec3f s 1 1 1
  field SFColor dc 1 0 0
  field SFColor ec 0 0 0
  field SFColor sc 0 0 0
  field SFFloat sh 1
  field SFFloat tr 0
]
{
  Transform {
    translation IS p
    rotation IS r
    scale IS s
    children [
      Shape {
        appearance Appearance {
          material Material {
            diffuseColor IS dc
            emissiveColor IS ec
            specularColor IS sc
            shininess IS sh
            transparency IS tr
          }
        }
        geometry Cylinder { }
      }
    ]
  }
}
PROTO Cone [
  exposedField SFVec3f p 0 0 0
  exposedField SFRotation r 0 0 1 0
  exposedField SFVec3f s 1 1 1
  field SFColor dc 1 0 0 
  field SFColor ec 0 0 0
  field SFColor sc 0 0 0
  field SFFloat sh 1
  field SFFloat tr 0
]
{
  Transform {
    translation IS p
    rotation IS r
    scale IS s
    children [
      Shape {
        appearance Appearance {
          material Material {
            diffuseColor IS dc
            emissiveColor IS ec
            specularColor IS sc
            shininess IS sh
            transparency IS tr
          }
        }
        geometry Cone {
        }
      }
    ]
  }
}
Collision {
  collide FALSE
  children [
    
    Shape {
      appearance Appearance {
        material Material {
          diffuseColor 0.71 0.34 0.88
          transparency 1
        }
      }
      geometry IndexedLineSet {
        coord Coordinate {
          point [
            6.43 10.03 -36.45, 4.86 14.24 -32.85, 0.40 16.23 -29.13, -4.71 17.67 -26.52
            -10.31 18.88 -30.58, -15.47 17.23 -33.37, -18.85 12.32 -35.43
            -20.26 7.07 -37.96, -20.37 1.12 -37.98, -19.84 -4.10 -34.84
            -19.37 -5.96 -29.38, -18.50 -8.17 -23.49, -20.55 -7.84 -17.48
            -24.64 -6.27 -13.84, -29.42 -2.95 -12.88, -34.68 -0.96 -15.09
            -38.73 -0.70 -19.65, -41.14 -3.80 -23.99, -41.95 -9.21 -27.84
            -43.73 -14.69 -26.83, -44.35 -15.13 -31.44, -43.39 -8.93 -33.52
            -43.19 -2.75 -37.20, -36.90 -2.27 -34.30, -31.76 -5.32 -34.90
            -28.96 -9.65 -38.61, -28.74 -12.32 -43.84, -27.15 -12.40 -50.19
            -32.50 -12.91 -53.27, -35.97 -9.44 -56.29, -39.76 -4.32 -57.15
            -40.61 1.52 -56.11, -39.10 7.34 -54.57, -34.79 11.51 -53.47
            -28.91 12.59 -53.54, -23.13 10.96 -55.03, -19.58 13.47 -53.08
            -13.96 13.58 -50.65, -8.55 11.87 -52.11, -5.15 11.02 -57.17
            -4.12 12.10 -62.96, -4.94 15.05 -68.17, -6.61 20.17 -70.87
            -8.62 25.94 -70.71, -9.14 31.36 -67.56, -7.52 34.66 -62.54
            -3.30 35.38 -58.14, 2.70 34.37 -57.01, 7.83 33.97 -61.38, 8.06 28.08 -61.81
            7.32 22.87 -58.82, 2.77 21.87 -55.52, -2.14 24.31 -53.61, -7.66 26.86 -53.86
            -13.27 27.17 -56.80, -16.74 25.23 -61.11, -18.17 21.66 -65.88
            -17.44 16.29 -68.64, -15.03 10.84 -68.13, -12.23 6.61 -64.89
            -12.23 4.42 -59.70, -15.12 3.01 -54.37, -19.41 -1.62 -53.06
            -18.37 -7.50 -51.88, -14.66 -6.30 -47.61, -13.87 -3.86 -43.21
            -9.88 -3.33 -40.98, -7.37 0.12 -45.42, -7.05 -0.54 -51.63, -2.49 -1.31 -56.58
            -3.43 -6.02 -60.44, -7.66 -9.93 -62.19, -13.65 -10.72 -63.19
            -18.47 -6.97 -62.58, -20.45 -1.30 -62.88, -25.13 0.51 -64.43
            -29.00 -2.33 -63.81, -23.68 -2.72 -61.12, -22.47 -0.45 -55.40
            -22.19 3.58 -50.74, -22.12 4.58 -44.17, -19.44 9.38 -41.03
            -20.13 12.73 -45.56, -23.12 10.62 -51.12, -28.75 7.96 -47.61
            -27.50 3.72 -44.88, -32.62 4.52 -43.99, -38.64 3.81 -44.93
            -42.56 -0.19 -46.05, -44.05 -6.04 -47.60, -43.05 -11.73 -48.22
            -39.83 -16.23 -46.12, -35.97 -18.17 -41.66, -32.76 -18.19 -36.16
            -33.04 -17.93 -30.04, -32.59 -19.01 -23.86, -28.63 -18.24 -20.37
            -29.22 -15.78 -25.18, -31.21 -12.28 -30.02, -32.43 -6.80 -31.28
            -32.77 -0.60 -29.83, -31.06 3.83 -26.18, -26.83 5.66 -22.35
            -20.64 3.87 -21.93, -15.48 2.65 -20.57, -11.38 -0.89 -23.06
            -8.80 -2.64 -28.50, -4.54 -2.19 -32.90, -8.74 -2.06 -35.82
            -10.08 1.58 -40.35, -12.31 6.72 -43.39, -11.94 12.70 -43.76
            -10.16 18.07 -42.24, -5.67 21.89 -39.43, -0.18 23.13 -37.54
            5.84 21.34 -38.48, 11.03 19.43 -36.84, 14.03 15.08 -40.06, 13.87 13.00 -45.60
            12.48 13.86 -51.41, 10.48 17.55 -56.05, 10.85 23.23 -58.48
            13.72 28.25 -58.42, 13.21 34.15 -59.51, 16.24 37.90 -55.71
            21.54 37.44 -52.54, 27.20 35.19 -52.24, 31.52 32.02 -54.96
            34.20 29.09 -59.60, 35.02 29.14 -65.69, 33.49 31.10 -71.09
            31.00 34.51 -75.05, 29.88 40.29 -76.21, 30.00 46.31 -74.69
            31.21 47.42 -67.78, 33.07 47.86 -61.15, 28.37 46.41 -62.95
            23.43 43.79 -65.47, 21.41 39.16 -69.04, 21.44 33.44 -70.12
            23.08 27.49 -69.19, 24.74 23.73 -65.20, 25.56 22.10 -59.47
            24.77 22.79 -53.48, 21.08 25.67 -49.34, 15.65 28.00 -46.73
            11.82 31.85 -44.62, 7.36 30.83 -49.43, 3.81 25.78 -50.74, 2.04 19.98 -51.44
            2.10 14.86 -48.54, -1.58 10.31 -48.20, -1.75 4.51 -46.33, 0.50 1.80 -41.26
            1.84 3.56 -35.90, 0.66 7.37 -30.53, -3.06 11.86 -28.38, -8.39 14.06 -27.26
          ]
        }
        coordIndex [
          0 1 2 3 4 5 6 7 8 9 10 11 12 13 14 15 16 17 18 19 20 21 22 23
          24 25 26 27 28 29 30 31 32 33 34 35 36 37 38 39 40 41 42 43 44
          45 46 47 48 49 50 51 52 53 54 55 56 57 58 59 60 61 62 63 64 65
          66 67 68 69 70 71 72 73 74 75 76 77 78 79 80 81 82 83 84 85 86
          87 88 89 90 91 92 93 94 95 96 97 98 99 100 101 102 103 104 105
          106 107 108 109 110 111 112 113 114 115 116 117 118 119 120 121
          122 123 124 125 126 127 128 129 130 131 132 133 134 135 136 137
          138 139 140 141 142 143 144 145 146 147 148 149 150 151 152 153
          154 155 156 157 -1
        ]
        colorPerVertex FALSE
        color Color {
          color [
            0.71 0.34 0.88
          ]
        }
        colorIndex [
          0
        ]
      }
    }
Label { p  6.43 10.03 -36.45 c "  G" dc  0.000, 1.000, 0.000}
Label { p  4.86 14.24 -32.85 c "  A" dc  1.000, 0.000, 0.000}
Label { p  0.40 16.23 -29.13 c "  A" dc  1.000, 0.000, 0.000}
Label { p  -4.71 17.67 -26.52 c "  U" dc  0.000, 1.000, 1.000}
Label { p  -10.31 18.88 -30.58 c "  U" dc  0.000, 1.000, 1.000}
Label { p  -15.47 17.23 -33.37 c "  G" dc  0.000, 1.000, 0.000}
Label { p  -18.85 12.32 -35.43 c "  C" dc  0.000, 0.000, 1.000}
Label { p  -20.26 7.07 -37.96 c "  G" dc  0.000, 1.000, 0.000}
Label { p  -20.37 1.12 -37.98 c "  G" dc  0.000, 1.000, 0.000}
Label { p  -19.84 -4.10 -34.84 c "  G" dc  0.000, 1.000, 0.000}
Label { p  -19.37 -5.96 -29.38 c "  A" dc  1.000, 0.000, 0.000}
Label { p  -18.50 -8.17 -23.49 c "  A" dc  1.000, 0.000, 0.000}
Label { p  -20.55 -7.84 -17.48 c "  A" dc  1.000, 0.000, 0.000}
Label { p  -24.64 -6.27 -13.84 c "  G" dc  0.000, 1.000, 0.000}
Label { p  -29.42 -2.95 -12.88 c "  G" dc  0.000, 1.000, 0.000}
Label { p  -34.68 -0.96 -15.09 c "  G" dc  0.000, 1.000, 0.000}
Label { p  -38.73 -0.70 -19.65 c "  G" dc  0.000, 1.000, 0.000}
Label { p  -41.14 -3.80 -23.99 c "  U" dc  0.000, 1.000, 1.000}
Label { p  -41.95 -9.21 -27.84 c "  C" dc  0.000, 0.000, 1.000}
Label { p  -43.73 -14.69 -26.83 c "  A" dc  1.000, 0.000, 0.000}
Label { p  -44.35 -15.13 -31.44 c "  A" dc  1.000, 0.000, 0.000}
Label { p  -43.39 -8.93 -33.52 c "  C" dc  0.000, 0.000, 1.000}
Label { p  -43.19 -2.75 -37.20 c "  A" dc  1.000, 0.000, 0.000}
Label { p  -36.90 -2.27 -34.30 c "  G" dc  0.000, 1.000, 0.000}
Label { p  -31.76 -5.32 -34.90 c "  C" dc  0.000, 0.000, 1.000}
Label { p  -28.96 -9.65 -38.61 c "  C" dc  0.000, 0.000, 1.000}
Label { p  -28.74 -12.32 -43.84 c "  G" dc  0.000, 1.000, 0.000}
Label { p  -27.15 -12.40 -50.19 c "  U" dc  0.000, 1.000, 1.000}
Label { p  -32.50 -12.91 -53.27 c "  U" dc  0.000, 1.000, 1.000}
Label { p  -35.97 -9.44 -56.29 c "  C" dc  0.000, 0.000, 1.000}
Label { p  -39.76 -4.32 -57.15 c "  A" dc  1.000, 0.000, 0.000}
Label { p  -40.61 1.52 -56.11 c "  G" dc  0.000, 1.000, 0.000}
Label { p  -39.10 7.34 -54.57 c "  U" dc  0.000, 1.000, 1.000}
Label { p  -34.79 11.51 -53.47 c "  A" dc  1.000, 0.000, 0.000}
Label { p  -28.91 12.59 -53.54 c "  C" dc  0.000, 0.000, 1.000}
Label { p  -23.13 10.96 -55.03 c "  C" dc  0.000, 0.000, 1.000}
Label { p  -19.58 13.47 -53.08 c "  A" dc  1.000, 0.000, 0.000}
Label { p  -13.96 13.58 -50.65 c "  A" dc  1.000, 0.000, 0.000}
Label { p  -8.55 11.87 -52.11 c "  G" dc  0.000, 1.000, 0.000}
Label { p  -5.15 11.02 -57.17 c "  U" dc  0.000, 1.000, 1.000}
Label { p  -4.12 12.10 -62.96 c "  C" dc  0.000, 0.000, 1.000}
Label { p  -4.94 15.05 -68.17 c "  U" dc  0.000, 1.000, 1.000}
Label { p  -6.61 20.17 -70.87 c "  C" dc  0.000, 0.000, 1.000}
Label { p  -8.62 25.94 -70.71 c "  A" dc  1.000, 0.000, 0.000}
Label { p  -9.14 31.36 -67.56 c "  G" dc  0.000, 1.000, 0.000}
Label { p  -7.52 34.66 -62.54 c "  G" dc  0.000, 1.000, 0.000}
Label { p  -3.30 35.38 -58.14 c "  G" dc  0.000, 1.000, 0.000}
Label { p  2.70 34.37 -57.01 c "  G" dc  0.000, 1.000, 0.000}
Label { p  7.83 33.97 -61.38 c "  A" dc  1.000, 0.000, 0.000}
Label { p  8.06 28.08 -61.81 c "  A" dc  1.000, 0.000, 0.000}
Label { p  7.32 22.87 -58.82 c "  A" dc  1.000, 0.000, 0.000}
Label { p  2.77 21.87 -55.52 c "  C" dc  0.000, 0.000, 1.000}
Label { p  -2.14 24.31 -53.61 c "  U" dc  0.000, 1.000, 1.000}
Label { p  -7.66 26.86 -53.86 c "  U" dc  0.000, 1.000, 1.000}
Label { p  -13.27 27.17 -56.80 c "  U" dc  0.000, 1.000, 1.000}
Label { p  -16.74 25.23 -61.11 c "  G" dc  0.000, 1.000, 0.000}
Label { p  -18.17 21.66 -65.88 c "  A" dc  1.000, 0.000, 0.000}
Label { p  -17.44 16.29 -68.64 c "  G" dc  0.000, 1.000, 0.000}
Label { p  -15.03 10.84 -68.13 c "  A" dc  1.000, 0.000, 0.000}
Label { p  -12.23 6.61 -64.89 c "  U" dc  0.000, 1.000, 1.000}
Label { p  -12.23 4.42 -59.70 c "  G" dc  0.000, 1.000, 0.000}
Label { p  -15.12 3.01 -54.37 c "  G" dc  0.000, 1.000, 0.000}
Label { p  -19.41 -1.62 -53.06 c "  C" dc  0.000, 0.000, 1.000}
Label { p  -18.37 -7.50 -51.88 c "  C" dc  0.000, 0.000, 1.000}
Label { p  -14.66 -6.30 -47.61 c "  U" dc  0.000, 1.000, 1.000}
Label { p  -13.87 -3.86 -43.21 c "  U" dc  0.000, 1.000, 1.000}
Label { p  -9.88 -3.33 -40.98 c "  G" dc  0.000, 1.000, 0.000}
Label { p  -7.37 0.12 -45.42 c "  C" dc  0.000, 0.000, 1.000}
Label { p  -7.05 -0.54 -51.63 c "  A" dc  1.000, 0.000, 0.000}
Label { p  -2.49 -1.31 -56.58 c "  A" dc  1.000, 0.000, 0.000}
Label { p  -3.43 -6.02 -60.44 c "  A" dc  1.000, 0.000, 0.000}
Label { p  -7.66 -9.93 -62.19 c "  G" dc  0.000, 1.000, 0.000}
Label { p  -13.65 -10.72 -63.19 c "  G" dc  0.000, 1.000, 0.000}
Label { p  -18.47 -6.97 -62.58 c "  G" dc  0.000, 1.000, 0.000}
Label { p  -20.45 -1.30 -62.88 c "  U" dc  0.000, 1.000, 1.000}
Label { p  -25.13 0.51 -64.43 c "  A" dc  1.000, 0.000, 0.000}
Label { p  -29.00 -2.33 -63.81 c "  U" dc  0.000, 1.000, 1.000}
Label { p  -23.68 -2.72 -61.12 c "  G" dc  0.000, 1.000, 0.000}
Label { p  -22.47 -0.45 -55.40 c "  G" dc  0.000, 1.000, 0.000}
Label { p  -22.19 3.58 -50.74 c "  U" dc  0.000, 1.000, 1.000}
Label { p  -22.12 4.58 -44.17 c "  A" dc  1.000, 0.000, 0.000}
Label { p  -19.44 9.38 -41.03 c "  A" dc  1.000, 0.000, 0.000}
Label { p  -20.13 12.73 -45.56 c "  U" dc  0.000, 1.000, 1.000}
Label { p  -23.12 10.62 -51.12 c "  A" dc  1.000, 0.000, 0.000}
Label { p  -28.75 7.96 -47.61 c "  A" dc  1.000, 0.000, 0.000}
Label { p  -27.50 3.72 -44.88 c "  G" dc  0.000, 1.000, 0.000}
Label { p  -32.62 4.52 -43.99 c "  C" dc  0.000, 0.000, 1.000}
Label { p  -38.64 3.81 -44.93 c "  U" dc  0.000, 1.000, 1.000}
Label { p  -42.56 -0.19 -46.05 c "  G" dc  0.000, 1.000, 0.000}
Label { p  -44.05 -6.04 -47.60 c "  A" dc  1.000, 0.000, 0.000}
Label { p  -43.05 -11.73 -48.22 c "  C" dc  0.000, 0.000, 1.000}
Label { p  -39.83 -16.23 -46.12 c "  G" dc  0.000, 1.000, 0.000}
Label { p  -35.97 -18.17 -41.66 c "  G" dc  0.000, 1.000, 0.000}
Label { p  -32.76 -18.19 -36.16 c "  A" dc  1.000, 0.000, 0.000}
Label { p  -33.04 -17.93 -30.04 c "  C" dc  0.000, 0.000, 1.000}
Label { p  -32.59 -19.01 -23.86 c "  A" dc  1.000, 0.000, 0.000}
Label { p  -28.63 -18.24 -20.37 c "  U" dc  0.000, 1.000, 1.000}
Label { p  -29.22 -15.78 -25.18 c "  G" dc  0.000, 1.000, 0.000}
Label { p  -31.21 -12.28 -30.02 c "  G" dc  0.000, 1.000, 0.000}
Label { p  -32.43 -6.80 -31.28 c "  U" dc  0.000, 1.000, 1.000}
Label { p  -32.77 -0.60 -29.83 c "  C" dc  0.000, 0.000, 1.000}
Label { p  -31.06 3.83 -26.18 c "  C" dc  0.000, 0.000, 1.000}
Label { p  -26.83 5.66 -22.35 c "  U" dc  0.000, 1.000, 1.000}
Label { p  -20.64 3.87 -21.93 c "  A" dc  1.000, 0.000, 0.000}
Label { p  -15.48 2.65 -20.57 c "  A" dc  1.000, 0.000, 0.000}
Label { p  -11.38 -0.89 -23.06 c "  C" dc  0.000, 0.000, 1.000}
Label { p  -8.80 -2.64 -28.50 c "  C" dc  0.000, 0.000, 1.000}
Label { p  -4.54 -2.19 -32.90 c "  A" dc  1.000, 0.000, 0.000}
Label { p  -8.74 -2.06 -35.82 c "  C" dc  0.000, 0.000, 1.000}
Label { p  -10.08 1.58 -40.35 c "  G" dc  0.000, 1.000, 0.000}
Label { p  -12.31 6.72 -43.39 c "  C" dc  0.000, 0.000, 1.000}
Label { p  -11.94 12.70 -43.76 c "  A" dc  1.000, 0.000, 0.000}
Label { p  -10.16 18.07 -42.24 c "  G" dc  0.000, 1.000, 0.000}
Label { p  -5.67 21.89 -39.43 c "  C" dc  0.000, 0.000, 1.000}
Label { p  -0.18 23.13 -37.54 c "  C" dc  0.000, 0.000, 1.000}
Label { p  5.84 21.34 -38.48 c "  A" dc  1.000, 0.000, 0.000}
Label { p  11.03 19.43 -36.84 c "  A" dc  1.000, 0.000, 0.000}
Label { p  14.03 15.08 -40.06 c "  G" dc  0.000, 1.000, 0.000}
Label { p  13.87 13.00 -45.60 c "  U" dc  0.000, 1.000, 1.000}
Label { p  12.48 13.86 -51.41 c "  C" dc  0.000, 0.000, 1.000}
Label { p  10.48 17.55 -56.05 c "  C" dc  0.000, 0.000, 1.000}
Label { p  10.85 23.23 -58.48 c "  U" dc  0.000, 1.000, 1.000}
Label { p  13.72 28.25 -58.42 c "  A" dc  1.000, 0.000, 0.000}
Label { p  13.21 34.15 -59.51 c "  A" dc  1.000, 0.000, 0.000}
Label { p  16.24 37.90 -55.71 c "  G" dc  0.000, 1.000, 0.000}
Label { p  21.54 37.44 -52.54 c "  U" dc  0.000, 1.000, 1.000}
Label { p  27.20 35.19 -52.24 c "  C" dc  0.000, 0.000, 1.000}
Label { p  31.52 32.02 -54.96 c "  A" dc  1.000, 0.000, 0.000}
Label { p  34.20 29.09 -59.60 c "  A" dc  1.000, 0.000, 0.000}
Label { p  35.02 29.14 -65.69 c "  C" dc  0.000, 0.000, 1.000}
Label { p  33.49 31.10 -71.09 c "  A" dc  1.000, 0.000, 0.000}
Label { p  31.00 34.51 -75.05 c "  G" dc  0.000, 1.000, 0.000}
Label { p  29.88 40.29 -76.21 c "  A" dc  1.000, 0.000, 0.000}
Label { p  30.00 46.31 -74.69 c "  U" dc  0.000, 1.000, 1.000}
Label { p  31.21 47.42 -67.78 c "  C" dc  0.000, 0.000, 1.000}
Label { p  33.07 47.86 -61.15 c "  U" dc  0.000, 1.000, 1.000}
Label { p  28.37 46.41 -62.95 c "  U" dc  0.000, 1.000, 1.000}
Label { p  23.43 43.79 -65.47 c "  C" dc  0.000, 0.000, 1.000}
Label { p  21.41 39.16 -69.04 c "  U" dc  0.000, 1.000, 1.000}
Label { p  21.44 33.44 -70.12 c "  G" dc  0.000, 1.000, 0.000}
Label { p  23.08 27.49 -69.19 c "  U" dc  0.000, 1.000, 1.000}
Label { p  24.74 23.73 -65.20 c "  U" dc  0.000, 1.000, 1.000}
Label { p  25.56 22.10 -59.47 c "  G" dc  0.000, 1.000, 0.000}
Label { p  24.77 22.79 -53.48 c "  A" dc  1.000, 0.000, 0.000}
Label { p  21.08 25.67 -49.34 c "  U" dc  0.000, 1.000, 1.000}
Label { p  15.65 28.00 -46.73 c "  A" dc  1.000, 0.000, 0.000}
Label { p  11.82 31.85 -44.62 c "  U" dc  0.000, 1.000, 1.000}
Label { p  7.36 30.83 -49.43 c "  G" dc  0.000, 1.000, 0.000}
Label { p  3.81 25.78 -50.74 c "  G" dc  0.000, 1.000, 0.000}
Label { p  2.04 19.98 -51.44 c "  A" dc  1.000, 0.000, 0.000}
Label { p  2.10 14.86 -48.54 c "  U" dc  0.000, 1.000, 1.000}
Label { p  -1.58 10.31 -48.20 c "  G" dc  0.000, 1.000, 0.000}
Label { p  -1.75 4.51 -46.33 c "  C" dc  0.000, 0.000, 1.000}
Label { p  0.50 1.80 -41.26 c "  A" dc  1.000, 0.000, 0.000}
Label { p  1.84 3.56 -35.90 c "  G" dc  0.000, 1.000, 0.000}
Label { p  0.66 7.37 -30.53 c "  U" dc  0.000, 1.000, 1.000}
Label { p  -3.06 11.86 -28.38 c "  U" dc  0.000, 1.000, 1.000}
Label { p  -8.39 14.06 -27.26 c "  C" dc  0.000, 0.000, 1.000}

    Shape {
      appearance Appearance {
        material Material {
          diffuseColor 1 1 0.5
          transparency 1
        }
      }
      geometry IndexedLineSet {
        coord Coordinate {
          point [
            -4.00 -12.97 -40.98, -2.02 -18.29 -39.24, 2.60 -22.34 -37.16
            8.41 -24.11 -35.57, 12.58 -23.76 -41.08, 17.40 -21.27 -44.06
            20.61 -15.86 -44.54, 21.82 -10.01 -45.15, 22.15 -4.52 -42.86
            22.27 -0.91 -37.94, 22.92 -1.50 -31.90, 23.85 -1.51 -25.80
            26.68 -3.66 -20.99, 30.07 -8.28 -19.58, 34.11 -12.76 -20.88
            38.29 -14.43 -24.91, 42.23 -12.24 -29.70, 44.39 -7.98 -32.67
            45.79 -1.99 -33.84, 47.59 4.11 -32.13, 47.83 4.25 -36.09, 45.89 0.73 -39.26
            44.08 -4.04 -43.76, 38.49 -4.11 -41.41, 34.14 -0.30 -39.48
            31.71 5.32 -40.34, 30.74 9.97 -44.53, 27.96 14.31 -48.72, 33.21 14.66 -52.22
            36.09 13.06 -57.25, 38.54 8.87 -60.72, 38.91 3.27 -62.92, 37.44 -2.59 -63.63
            33.40 -7.21 -63.47, 27.66 -8.69 -62.85, 21.65 -7.03 -62.61
            18.46 -10.31 -61.13, 13.39 -11.72 -57.98, 7.65 -9.83 -57.76
            3.42 -7.27 -61.35, 1.27 -6.05 -66.75, 1.01 -6.63 -72.81, 2.01 -10.15 -77.55
            3.88 -15.39 -80.06, 4.83 -21.59 -79.47, 4.10 -26.67 -75.96
            0.66 -28.94 -71.48, -4.96 -28.75 -68.94, -10.86 -27.05 -71.78
            -11.02 -21.42 -69.92, -9.57 -17.66 -65.42, -4.47 -17.70 -62.91
            0.76 -20.88 -62.87, 6.10 -22.84 -65.07, 11.02 -21.74 -68.86
            13.66 -18.09 -72.64, 14.28 -12.83 -75.76, 13.14 -6.89 -75.99
            10.99 -2.22 -72.94, 8.92 0.27 -67.84, 10.01 0.12 -62.14, 13.91 -0.46 -57.33
            18.39 3.66 -55.26, 17.90 8.72 -51.88, 15.18 5.93 -47.57, 15.25 2.13 -44.22
            11.81 0.82 -41.50, 8.21 -0.99 -46.11, 6.54 1.78 -51.48, 1.10 4.06 -54.67
            1.35 9.89 -56.76, 5.28 14.34 -57.97, 10.95 15.54 -59.96, 15.61 12.00 -61.78
            17.16 6.86 -64.50, 21.52 6.24 -68.04, 25.71 8.97 -66.67, 21.00 7.97 -63.15
            21.00 3.64 -58.56, 21.59 -1.80 -55.81, 22.72 -5.25 -50.17, 20.45 -10.93 -48.64
            20.26 -12.33 -54.11, 22.38 -8.20 -58.90, 28.56 -6.82 -55.65
            27.90 -3.98 -51.40, 32.92 -4.87 -51.97, 38.99 -3.96 -53.39
            43.25 0.29 -53.37, 44.77 5.92 -52.66, 44.16 11.51 -50.52, 41.97 14.35 -45.71
            39.13 13.64 -40.23, 37.10 11.26 -34.92, 37.92 7.88 -29.95, 38.56 6.38 -24.07
            35.44 4.66 -19.71, 34.88 4.21 -25.49, 35.33 3.42 -31.57, 35.56 -0.90 -35.70
            35.04 -6.86 -37.44, 33.08 -12.57 -36.03, 29.60 -15.54 -32.28
            24.26 -14.23 -29.63, 19.14 -13.16 -27.07, 15.27 -9.17 -27.32
            12.54 -4.64 -31.27, 6.93 -4.96 -33.81, 10.84 -2.47 -38.09, 11.57 -4.26 -43.77
            13.18 -7.86 -48.81, 12.59 -13.26 -51.37, 10.70 -19.10 -51.82
            6.92 -23.63 -49.53, 1.77 -24.83 -47.15, -3.83 -23.22 -46.69
            -8.50 -22.40 -43.45, -12.13 -17.46 -44.20, -13.23 -13.61 -48.57
            -13.16 -12.25 -54.45, -12.27 -13.99 -60.40, -13.13 -18.44 -64.57
            -15.97 -23.36 -65.71, -15.69 -28.44 -68.89, -17.84 -33.52 -66.17
            -22.31 -34.59 -62.03, -27.69 -33.01 -59.66, -32.49 -29.42 -60.01
            -36.16 -25.22 -62.43, -38.51 -23.24 -67.74, -38.46 -23.14 -73.67
            -37.20 -24.84 -79.07, -36.56 -29.82 -82.36, -36.40 -35.93 -83.03
            -35.82 -39.44 -76.90, -35.91 -42.25 -70.60, -31.81 -39.97 -72.89
            -27.63 -36.30 -75.50, -26.47 -30.59 -77.61, -26.64 -24.86 -76.59
            -27.82 -19.70 -73.32, -28.34 -17.65 -67.99, -27.60 -18.13 -62.02
            -25.40 -20.77 -57.06, -21.12 -24.72 -54.97, -15.22 -27.34 -54.56
            -11.01 -31.43 -54.79, -7.73 -28.46 -59.75, -4.60 -22.97 -59.89
            -3.01 -17.17 -58.85, -2.39 -13.35 -54.37, 1.30 -8.98 -53.27
            1.89 -4.16 -49.52, 1.15 -3.52 -43.87, 1.04 -7.06 -39.25, 2.86 -12.47 -35.70
            6.27 -17.45 -34.89, 11.82 -20.38 -35.75
          ]
        }
        coordIndex [
          0 1 2 3 4 5 6 7 8 9 10 11 12 13 14 15 16 17 18 19 20 21 22 23
          24 25 26 27 28 29 30 31 32 33 34 35 36 37 38 39 40 41 42 43 44
          45 46 47 48 49 50 51 52 53 54 55 56 57 58 59 60 61 62 63 64 65
          66 67 68 69 70 71 72 73 74 75 76 77 78 79 80 81 82 83 84 85 86
          87 88 89 90 91 92 93 94 95 96 97 98 99 100 101 102 103 104 105
          106 107 108 109 110 111 112 113 114 115 116 117 118 119 120 121
          122 123 124 125 126 127 128 129 130 131 132 133 134 135 136 137
          138 139 140 141 142 143 144 145 146 147 148 149 150 151 152 153
          154 155 156 157 -1
        ]
        colorPerVertex FALSE
        color Color {
          color [
            1 1 0.5
          ]
        }
        colorIndex [
          0
        ]
      }
    }
Label { p  -4.00 -12.97 -40.98 c "  G" dc  0.000, 1.000, 0.000}
Label { p  -2.02 -18.29 -39.24 c "  A" dc  1.000, 0.000, 0.000}
Label { p  2.60 -22.34 -37.16 c "  A" dc  1.000, 0.000, 0.000}
Label { p  8.41 -24.11 -35.57 c "  U" dc  0.000, 1.000, 1.000}
Label { p  12.58 -23.76 -41.08 c "  U" dc  0.000, 1.000, 1.000}
Label { p  17.40 -21.27 -44.06 c "  G" dc  0.000, 1.000, 0.000}
Label { p  20.61 -15.86 -44.54 c "  C" dc  0.000, 0.000, 1.000}
Label { p  21.82 -10.01 -45.15 c "  G" dc  0.000, 1.000, 0.000}
Label { p  22.15 -4.52 -42.86 c "  G" dc  0.000, 1.000, 0.000}
Label { p  22.27 -0.91 -37.94 c "  G" dc  0.000, 1.000, 0.000}
Label { p  22.92 -1.50 -31.90 c "  A" dc  1.000, 0.000, 0.000}
Label { p  23.85 -1.51 -25.80 c "  A" dc  1.000, 0.000, 0.000}
Label { p  26.68 -3.66 -20.99 c "  A" dc  1.000, 0.000, 0.000}
Label { p  30.07 -8.28 -19.58 c "  G" dc  0.000, 1.000, 0.000}
Label { p  34.11 -12.76 -20.88 c "  G" dc  0.000, 1.000, 0.000}
Label { p  38.29 -14.43 -24.91 c "  G" dc  0.000, 1.000, 0.000}
Label { p  42.23 -12.24 -29.70 c "  G" dc  0.000, 1.000, 0.000}
Label { p  44.39 -7.98 -32.67 c "  U" dc  0.000, 1.000, 1.000}
Label { p  45.79 -1.99 -33.84 c "  C" dc  0.000, 0.000, 1.000}
Label { p  47.59 4.11 -32.13 c "  A" dc  1.000, 0.000, 0.000}
Label { p  47.83 4.25 -36.09 c "  A" dc  1.000, 0.000, 0.000}
Label { p  45.89 0.73 -39.26 c "  C" dc  0.000, 0.000, 1.000}
Label { p  44.08 -4.04 -43.76 c "  A" dc  1.000, 0.000, 0.000}
Label { p  38.49 -4.11 -41.41 c "  G" dc  0.000, 1.000, 0.000}
Label { p  34.14 -0.30 -39.48 c "  C" dc  0.000, 0.000, 1.000}
Label { p  31.71 5.32 -40.34 c "  C" dc  0.000, 0.000, 1.000}
Label { p  30.74 9.97 -44.53 c "  G" dc  0.000, 1.000, 0.000}
Label { p  27.96 14.31 -48.72 c "  U" dc  0.000, 1.000, 1.000}
Label { p  33.21 14.66 -52.22 c "  U" dc  0.000, 1.000, 1.000}
Label { p  36.09 13.06 -57.25 c "  C" dc  0.000, 0.000, 1.000}
Label { p  38.54 8.87 -60.72 c "  A" dc  1.000, 0.000, 0.000}
Label { p  38.91 3.27 -62.92 c "  G" dc  0.000, 1.000, 0.000}
Label { p  37.44 -2.59 -63.63 c "  U" dc  0.000, 1.000, 1.000}
Label { p  33.40 -7.21 -63.47 c "  A" dc  1.000, 0.000, 0.000}
Label { p  27.66 -8.69 -62.85 c "  C" dc  0.000, 0.000, 1.000}
Label { p  21.65 -7.03 -62.61 c "  C" dc  0.000, 0.000, 1.000}
Label { p  18.46 -10.31 -61.13 c "  A" dc  1.000, 0.000, 0.000}
Label { p  13.39 -11.72 -57.98 c "  A" dc  1.000, 0.000, 0.000}
Label { p  7.65 -9.83 -57.76 c "  G" dc  0.000, 1.000, 0.000}
Label { p  3.42 -7.27 -61.35 c "  U" dc  0.000, 1.000, 1.000}
Label { p  1.27 -6.05 -66.75 c "  C" dc  0.000, 0.000, 1.000}
Label { p  1.01 -6.63 -72.81 c "  U" dc  0.000, 1.000, 1.000}
Label { p  2.01 -10.15 -77.55 c "  C" dc  0.000, 0.000, 1.000}
Label { p  3.88 -15.39 -80.06 c "  A" dc  1.000, 0.000, 0.000}
Label { p  4.83 -21.59 -79.47 c "  G" dc  0.000, 1.000, 0.000}
Label { p  4.10 -26.67 -75.96 c "  G" dc  0.000, 1.000, 0.000}
Label { p  0.66 -28.94 -71.48 c "  G" dc  0.000, 1.000, 0.000}
Label { p  -4.96 -28.75 -68.94 c "  G" dc  0.000, 1.000, 0.000}
Label { p  -10.86 -27.05 -71.78 c "  A" dc  1.000, 0.000, 0.000}
Label { p  -11.02 -21.42 -69.92 c "  A" dc  1.000, 0.000, 0.000}
Label { p  -9.57 -17.66 -65.42 c "  A" dc  1.000, 0.000, 0.000}
Label { p  -4.47 -17.70 -62.91 c "  C" dc  0.000, 0.000, 1.000}
Label { p  0.76 -20.88 -62.87 c "  U" dc  0.000, 1.000, 1.000}
Label { p  6.10 -22.84 -65.07 c "  U" dc  0.000, 1.000, 1.000}
Label { p  11.02 -21.74 -68.86 c "  U" dc  0.000, 1.000, 1.000}
Label { p  13.66 -18.09 -72.64 c "  G" dc  0.000, 1.000, 0.000}
Label { p  14.28 -12.83 -75.76 c "  A" dc  1.000, 0.000, 0.000}
Label { p  13.14 -6.89 -75.99 c "  G" dc  0.000, 1.000, 0.000}
Label { p  10.99 -2.22 -72.94 c "  A" dc  1.000, 0.000, 0.000}
Label { p  8.92 0.27 -67.84 c "  U" dc  0.000, 1.000, 1.000}
Label { p  10.01 0.12 -62.14 c "  G" dc  0.000, 1.000, 0.000}
Label { p  13.91 -0.46 -57.33 c "  G" dc  0.000, 1.000, 0.000}
Label { p  18.39 3.66 -55.26 c "  C" dc  0.000, 0.000, 1.000}
Label { p  17.90 8.72 -51.88 c "  C" dc  0.000, 0.000, 1.000}
Label { p  15.18 5.93 -47.57 c "  U" dc  0.000, 1.000, 1.000}
Label { p  15.25 2.13 -44.22 c "  U" dc  0.000, 1.000, 1.000}
Label { p  11.81 0.82 -41.50 c "  G" dc  0.000, 1.000, 0.000}
Label { p  8.21 -0.99 -46.11 c "  C" dc  0.000, 0.000, 1.000}
Label { p  6.54 1.78 -51.48 c "  A" dc  1.000, 0.000, 0.000}
Label { p  1.10 4.06 -54.67 c "  A" dc  1.000, 0.000, 0.000}
Label { p  1.35 9.89 -56.76 c "  A" dc  1.000, 0.000, 0.000}
Label { p  5.28 14.34 -57.97 c "  G" dc  0.000, 1.000, 0.000}
Label { p  10.95 15.54 -59.96 c "  G" dc  0.000, 1.000, 0.000}
Label { p  15.61 12.00 -61.78 c "  G" dc  0.000, 1.000, 0.000}
Label { p  17.16 6.86 -64.50 c "  U" dc  0.000, 1.000, 1.000}
Label { p  21.52 6.24 -68.04 c "  A" dc  1.000, 0.000, 0.000}
Label { p  25.71 8.97 -66.67 c "  U" dc  0.000, 1.000, 1.000}
Label { p  21.00 7.97 -63.15 c "  G" dc  0.000, 1.000, 0.000}
Label { p  21.00 3.64 -58.56 c "  G" dc  0.000, 1.000, 0.000}
Label { p  21.59 -1.80 -55.81 c "  U" dc  0.000, 1.000, 1.000}
Label { p  22.72 -5.25 -50.17 c "  A" dc  1.000, 0.000, 0.000}
Label { p  20.45 -10.93 -48.64 c "  A" dc  1.000, 0.000, 0.000}
Label { p  20.26 -12.33 -54.11 c "  U" dc  0.000, 1.000, 1.000}
Label { p  22.38 -8.20 -58.90 c "  A" dc  1.000, 0.000, 0.000}
Label { p  28.56 -6.82 -55.65 c "  A" dc  1.000, 0.000, 0.000}
Label { p  27.90 -3.98 -51.40 c "  G" dc  0.000, 1.000, 0.000}
Label { p  32.92 -4.87 -51.97 c "  C" dc  0.000, 0.000, 1.000}
Label { p  38.99 -3.96 -53.39 c "  U" dc  0.000, 1.000, 1.000}
Label { p  43.25 0.29 -53.37 c "  G" dc  0.000, 1.000, 0.000}
Label { p  44.77 5.92 -52.66 c "  A" dc  1.000, 0.000, 0.000}
Label { p  44.16 11.51 -50.52 c "  C" dc  0.000, 0.000, 1.000}
Label { p  41.97 14.35 -45.71 c "  G" dc  0.000, 1.000, 0.000}
Label { p  39.13 13.64 -40.23 c "  G" dc  0.000, 1.000, 0.000}
Label { p  37.10 11.26 -34.92 c "  A" dc  1.000, 0.000, 0.000}
Label { p  37.92 7.88 -29.95 c "  C" dc  0.000, 0.000, 1.000}
Label { p  38.56 6.38 -24.07 c "  A" dc  1.000, 0.000, 0.000}
Label { p  35.44 4.66 -19.71 c "  U" dc  0.000, 1.000, 1.000}
Label { p  34.88 4.21 -25.49 c "  G" dc  0.000, 1.000, 0.000}
Label { p  35.33 3.42 -31.57 c "  G" dc  0.000, 1.000, 0.000}
Label { p  35.56 -0.90 -35.70 c "  U" dc  0.000, 1.000, 1.000}
Label { p  35.04 -6.86 -37.44 c "  C" dc  0.000, 0.000, 1.000}
Label { p  33.08 -12.57 -36.03 c "  C" dc  0.000, 0.000, 1.000}
Label { p  29.60 -15.54 -32.28 c "  U" dc  0.000, 1.000, 1.000}
Label { p  24.26 -14.23 -29.63 c "  A" dc  1.000, 0.000, 0.000}
Label { p  19.14 -13.16 -27.07 c "  A" dc  1.000, 0.000, 0.000}
Label { p  15.27 -9.17 -27.32 c "  C" dc  0.000, 0.000, 1.000}
Label { p  12.54 -4.64 -31.27 c "  C" dc  0.000, 0.000, 1.000}
Label { p  6.93 -4.96 -33.81 c "  A" dc  1.000, 0.000, 0.000}
Label { p  10.84 -2.47 -38.09 c "  C" dc  0.000, 0.000, 1.000}
Label { p  11.57 -4.26 -43.77 c "  G" dc  0.000, 1.000, 0.000}
Label { p  13.18 -7.86 -48.81 c "  C" dc  0.000, 0.000, 1.000}
Label { p  12.59 -13.26 -51.37 c "  A" dc  1.000, 0.000, 0.000}
Label { p  10.70 -19.10 -51.82 c "  G" dc  0.000, 1.000, 0.000}
Label { p  6.92 -23.63 -49.53 c "  C" dc  0.000, 0.000, 1.000}
Label { p  1.77 -24.83 -47.15 c "  C" dc  0.000, 0.000, 1.000}
Label { p  -3.83 -23.22 -46.69 c "  A" dc  1.000, 0.000, 0.000}
Label { p  -8.50 -22.40 -43.45 c "  A" dc  1.000, 0.000, 0.000}
Label { p  -12.13 -17.46 -44.20 c "  G" dc  0.000, 1.000, 0.000}
Label { p  -13.23 -13.61 -48.57 c "  U" dc  0.000, 1.000, 1.000}
Label { p  -13.16 -12.25 -54.45 c "  C" dc  0.000, 0.000, 1.000}
Label { p  -12.27 -13.99 -60.40 c "  C" dc  0.000, 0.000, 1.000}
Label { p  -13.13 -18.44 -64.57 c "  U" dc  0.000, 1.000, 1.000}
Label { p  -15.97 -23.36 -65.71 c "  A" dc  1.000, 0.000, 0.000}
Label { p  -15.69 -28.44 -68.89 c "  A" dc  1.000, 0.000, 0.000}
Label { p  -17.84 -33.52 -66.17 c "  G" dc  0.000, 1.000, 0.000}
Label { p  -22.31 -34.59 -62.03 c "  U" dc  0.000, 1.000, 1.000}
Label { p  -27.69 -33.01 -59.66 c "  C" dc  0.000, 0.000, 1.000}
Label { p  -32.49 -29.42 -60.01 c "  A" dc  1.000, 0.000, 0.000}
Label { p  -36.16 -25.22 -62.43 c "  A" dc  1.000, 0.000, 0.000}
Label { p  -38.51 -23.24 -67.74 c "  C" dc  0.000, 0.000, 1.000}
Label { p  -38.46 -23.14 -73.67 c "  A" dc  1.000, 0.000, 0.000}
Label { p  -37.20 -24.84 -79.07 c "  G" dc  0.000, 1.000, 0.000}
Label { p  -36.56 -29.82 -82.36 c "  A" dc  1.000, 0.000, 0.000}
Label { p  -36.40 -35.93 -83.03 c "  U" dc  0.000, 1.000, 1.000}
Label { p  -35.82 -39.44 -76.90 c "  C" dc  0.000, 0.000, 1.000}
Label { p  -35.91 -42.25 -70.60 c "  U" dc  0.000, 1.000, 1.000}
Label { p  -31.81 -39.97 -72.89 c "  U" dc  0.000, 1.000, 1.000}
Label { p  -27.63 -36.30 -75.50 c "  C" dc  0.000, 0.000, 1.000}
Label { p  -26.47 -30.59 -77.61 c "  U" dc  0.000, 1.000, 1.000}
Label { p  -26.64 -24.86 -76.59 c "  G" dc  0.000, 1.000, 0.000}
Label { p  -27.82 -19.70 -73.32 c "  U" dc  0.000, 1.000, 1.000}
Label { p  -28.34 -17.65 -67.99 c "  U" dc  0.000, 1.000, 1.000}
Label { p  -27.60 -18.13 -62.02 c "  G" dc  0.000, 1.000, 0.000}
Label { p  -25.40 -20.77 -57.06 c "  A" dc  1.000, 0.000, 0.000}
Label { p  -21.12 -24.72 -54.97 c "  U" dc  0.000, 1.000, 1.000}
Label { p  -15.22 -27.34 -54.56 c "  A" dc  1.000, 0.000, 0.000}
Label { p  -11.01 -31.43 -54.79 c "  U" dc  0.000, 1.000, 1.000}
Label { p  -7.73 -28.46 -59.75 c "  G" dc  0.000, 1.000, 0.000}
Label { p  -4.60 -22.97 -59.89 c "  G" dc  0.000, 1.000, 0.000}
Label { p  -3.01 -17.17 -58.85 c "  A" dc  1.000, 0.000, 0.000}
Label { p  -2.39 -13.35 -54.37 c "  U" dc  0.000, 1.000, 1.000}
Label { p  1.30 -8.98 -53.27 c "  G" dc  0.000, 1.000, 0.000}
Label { p  1.89 -4.16 -49.52 c "  C" dc  0.000, 0.000, 1.000}
Label { p  1.15 -3.52 -43.87 c "  A" dc  1.000, 0.000, 0.000}
Label { p  1.04 -7.06 -39.25 c "  G" dc  0.000, 1.000, 0.000}
Label { p  2.86 -12.47 -35.70 c "  U" dc  0.000, 1.000, 1.000}
Label { p  6.27 -17.45 -34.89 c "  U" dc  0.000, 1.000, 1.000}
Label { p  11.82 -20.38 -35.75 c "  C" dc  0.000, 0.000, 1.000}
Cyl {p 3.12 16.58 -37.00  r  -0.16 0.00 0.99 0.47  s  0.21 6.69 0.21  tr  0.00}
 Cyl {p 3.47 5.91 -38.85  r  -0.63 0.00 0.78 2.39  s  0.14 5.10 0.14  tr  0.60}
 Box {p 4.95 7.97 -37.65  r  -0.63 0.00 0.78 2.39  s  0.62 0.62 0.62   dc 1 0 0  tr  0.00}
 Sphere {p 1.99 3.86 -40.06  rad  0.75   dc 1 0 0  tr  0.00}
 Cyl {p -0.40 18.06 -36.14  r  -0.53 0.00 0.85 1.02  s  0.18 6.63 0.18  tr  0.60}
 Sphere {p -0.40 18.06 -36.14  rad  0.97   dc 1 0 0  tr  0.00}
 Cyl {p 3.35 8.90 -34.37  r  -0.71 0.00 0.70 2.76  s  0.14 5.23 0.14  tr  0.60}
 Box {p 4.11 11.57 -33.61  r  -0.71 0.00 0.70 2.76  s  0.64 0.64 0.64   dc 1 0 0  tr  0.00}
 Sphere {p 2.59 6.23 -35.13  rad  0.77   dc 1 0 0  tr  0.00}
 Cyl {p -4.88 17.15 -35.68  r  -0.78 0.00 0.63 1.46  s  0.21 7.70 0.21  tr  0.60}
 Sphere {p -4.88 17.15 -35.68  rad  1.13   dc 1 0 0  tr  0.00}
 Cyl {p 0.53 11.80 -29.83  r  -0.98 0.00 -0.18 2.98  s  0.11 4.08 0.11  tr  0.60}
 Box {p 0.47 14.01 -29.48  r  -0.98 0.00 -0.18 2.98  s  0.50 0.50 0.50   dc 1 0 0  tr  0.00}
 Sphere {p 0.60 9.58 -30.18  rad  0.60   dc 1 0 0  tr  0.00}
 Cyl {p -11.13 15.79 -37.17  r  -0.99 0.00 0.12 2.01  s  0.21 6.66 0.21  tr  0.00}
 Cyl {p -6.68 15.37 -29.48  r  0.29 0.00 -0.96 2.32  s  0.13 4.69 0.13  tr  0.60}
 Box {p -8.50 17.13 -30.03  r  0.29 0.00 -0.96 2.32  s  0.57 0.57 0.57   dc 1 0 0  tr  0.00}
 Sphere {p -4.87 13.62 -28.93  rad  0.69   dc 1 0 0  tr  0.00}
 Cyl {p -13.89 11.97 -38.38  r  -0.95 0.00 -0.30 2.36  s  0.21 6.76 0.21  tr  0.00}
 Cyl {p -11.93 15.65 -30.32  r  0.65 0.00 -0.76 1.90  s  0.12 4.49 0.12  tr  0.60}
 Box {p -13.70 16.44 -31.84  r  0.65 0.00 -0.76 1.90  s  0.55 0.55 0.55   dc 1 0 0  tr  0.00}
 Sphere {p -10.16 14.86 -28.79  rad  0.66   dc 1 0 0  tr  0.00}
 Cyl {p -14.47 6.95 -37.89  r  -0.49 0.00 -0.87 2.39  s  0.21 6.69 0.21  tr  0.00}
 Cyl {p -14.50 2.51 -36.89  r  0.18 0.00 -0.98 2.23  s  0.21 6.76 0.21  tr  0.00}
 Cyl {p -14.59 -0.76 -33.24  r  0.63 0.00 -0.77 1.82  s  0.22 7.01 0.22  tr  0.00}
 Cyl {p -15.61 -2.50 -28.95  r  0.81 0.00 -0.58 1.35  s  0.21 6.75 0.21  tr  0.00}
 Cyl {p -17.43 -1.65 -24.97  r  0.91 0.00 -0.40 0.84  s  0.16 5.87 0.16  tr  0.60}
 Cone {p -18.40 -3.81 -27.18  r  0.91 0.00 -0.40 0.84  s  0.86 0.86 0.86   dc 1 1 0  tr  0.60}
 Box {p -16.45 0.50 -22.77  r  0.91 0.00 -0.40 0.84  s  0.72 0.72 0.72   dc 1 1 0  tr  0.60}
 Cyl {p -19.57 -2.15 -22.71  r  0.59 -0.00 0.81 0.22  s  0.15 5.60 0.15  tr  0.60}
 Box {p -19.03 -5.16 -23.10  r  0.59 -0.00 0.81 0.22  s  0.68 0.68 0.68   dc 1 1 0  tr  0.60}
 Cone {p -20.11 0.86 -22.32  r  0.59 -0.00 0.81 0.22  s  0.82 0.82 0.82   dc 1 1 0  tr  0.60}
 Cyl {p -25.74 -0.31 -18.09  r  -0.97 0.00 0.25 0.64  s  0.19 6.73 0.19  tr  0.60}
 Sphere {p -25.74 -0.31 -18.09  rad  0.99   dc 1 0 0  tr  0.00}
 Cyl {p -30.24 0.44 -19.53  r  -0.99 0.00 0.12 1.10  s  0.21 6.82 0.21  tr  0.00}
 Cyl {p -33.73 -0.78 -22.46  r  -0.99 0.00 -0.13 1.55  s  0.21 6.76 0.21  tr  0.00}
 Cyl {p -35.58 -3.75 -25.46  r  -0.88 0.00 -0.48 2.00  s  0.18 6.62 0.18  tr  0.60}
 Sphere {p -35.58 -3.75 -25.46  rad  0.97   dc 1 0 0  tr  0.00}
 Cyl {p -36.17 -8.04 -27.00  r  -0.52 0.00 -0.85 2.20  s  0.18 6.54 0.18  tr  0.60}
 Sphere {p -36.17 -8.04 -27.00  rad  0.96   dc 1 0 0  tr  0.00}
 Cyl {p -35.59 -12.50 -26.51  r  0.20 0.00 -0.98 2.04  s  0.21 6.62 0.21  tr  0.00}
 Cyl {p -38.47 -17.07 -27.65  r  0.54 0.00 -0.84 1.84  s  0.18 6.60 0.18  tr  0.60}
 Sphere {p -41.41 -16.10 -29.54  rad  0.97   dc 1 1 0  tr  0.60}
 Box {p -35.53 -18.04 -25.75  r  0.54 0.00 -0.84 1.84  s  0.81 0.81 0.81   dc 1 1 0  tr  0.60}
 Cyl {p -37.30 -10.60 -31.77  r  0.28 0.00 -0.96 1.83  s  0.16 5.96 0.16  tr  0.60}
 Sphere {p -40.34 -9.76 -32.65  rad  0.87   dc 1 1 0  tr  0.60}
 Cone {p -34.25 -11.44 -30.89  r  0.28 0.00 -0.96 1.83  s  0.87 0.87 0.87   dc 1 1 0  tr  0.60}
 Cyl {p -34.83 -10.23 -35.23  r  -0.41 0.00 -0.91 2.86  s  0.21 7.52 0.21  tr  0.60}
 Sphere {p -34.83 -10.23 -35.23  rad  1.10   dc 1 0 0  tr  0.00}
 Cyl {p -33.86 -11.75 -38.28  r  -0.85 0.00 0.53 2.59  s  0.19 6.87 0.19  tr  0.60}
 Sphere {p -33.86 -11.75 -38.28  rad  1.01   dc 1 0 0  tr  0.00}
 Cyl {p -32.26 -11.75 -35.53  r  -0.78 0.00 0.62 3.02  s  0.16 5.89 0.16  tr  0.60}
 Sphere {p -32.26 -11.75 -35.53  rad  0.86   dc 1 0 0  tr  0.00}
 Cyl {p -34.39 -12.94 -42.37  r  -0.57 0.00 0.82 2.03  s  0.21 6.71 0.21  tr  0.00}
 Cyl {p -35.90 -12.03 -46.03  r  -0.29 0.00 0.96 1.53  s  0.21 6.80 0.21  tr  0.00}
 Cyl {p -38.28 -9.48 -50.44  r  0.44 -0.00 0.90 1.08  s  0.21 6.63 0.21  tr  0.00}
 Cyl {p -39.26 -4.82 -51.17  r  0.84 -0.00 0.54 0.92  s  0.22 6.95 0.22  tr  0.00}
 Cyl {p -39.20 -0.25 -51.04  r  1.00 0.00 -0.09 0.99  s  0.21 6.69 0.21  tr  0.00}
 Cyl {p -36.62 3.02 -50.05  r  0.83 0.00 -0.55 1.37  s  0.21 6.74 0.21  tr  0.00}
 Cyl {p -33.93 7.65 -51.09  r  0.56 0.00 -0.83 1.52  s  0.16 5.68 0.16  tr  0.60}
 Sphere {p -36.52 7.49 -52.83  rad  0.83   dc 1 0 0  tr  0.00}
 Box {p -31.34 7.81 -49.35  r  0.56 0.00 -0.83 1.52  s  0.69 0.69 0.69   dc 1 0 0  tr  0.00}
 Cyl {p -28.49 7.55 -52.11  r  0.21 0.00 -0.98 2.12  s  0.22 6.88 0.22  tr  0.00}
 Cyl {p -25.69 6.07 -54.47  r  -0.28 0.00 -0.96 2.67  s  0.21 6.67 0.21  tr  0.00}
 Cyl {p -23.40 4.12 -58.08  r  -1.00 0.00 0.09 2.72  s  0.21 6.81 0.21  tr  0.00}
 Cyl {p -17.35 8.24 -53.73  r  -0.28 0.00 -0.96 2.72  s  0.14 5.20 0.14  tr  0.60}
 Box {p -18.46 10.85 -53.40  r  -0.28 0.00 -0.96 2.72  s  0.64 0.64 0.64   dc 1 1 0  tr  0.60}
 Cone {p -16.24 5.62 -54.05  r  -0.28 0.00 -0.96 2.72  s  0.76 0.76 0.76   dc 1 1 0  tr  0.60}
 Cyl {p -13.09 9.00 -55.18  r  -0.98 0.00 -0.19 2.35  s  0.16 5.91 0.16  tr  0.60}
 Box {p -13.53 11.29 -52.91  r  -0.98 0.00 -0.19 2.35  s  0.72 0.72 0.72   dc 1 1 0  tr  0.60}
 Cone {p -12.66 6.71 -57.44  r  -0.98 0.00 -0.19 2.35  s  0.87 0.87 0.87   dc 1 1 0  tr  0.60}
 Cyl {p -10.39 9.24 -58.50  r  -0.96 0.00 0.28 1.95  s  0.18 6.50 0.18  tr  0.60}
 Sphere {p -10.39 9.24 -58.50  rad  0.95   dc 1 0 0  tr  0.00}
 Cyl {p -10.09 10.93 -62.65  r  -0.74 0.00 0.67 1.58  s  0.21 6.71 0.21  tr  0.00}
 Cyl {p -10.78 14.20 -65.80  r  -0.39 0.00 0.92 1.29  s  0.22 6.85 0.22  tr  0.00}
 Cyl {p -11.56 18.35 -67.03  r  0.17 -0.00 0.99 1.11  s  0.21 6.80 0.21  tr  0.00}
 Cyl {p -11.68 22.70 -65.99  r  0.69 -0.00 0.72 1.23  s  0.21 6.79 0.21  tr  0.00}
 Cyl {p -10.94 26.56 -63.75  r  0.95 -0.00 0.32 1.49  s  0.21 6.69 0.21  tr  0.00}
 Cyl {p -8.40 29.11 -60.71  r  0.99 0.00 -0.11 1.89  s  0.18 6.59 0.18  tr  0.60}
 Sphere {p -8.40 29.11 -60.71  rad  0.97   dc 1 0 0  tr  0.00}
 Cyl {p -4.83 29.49 -58.08  r  0.86 0.00 -0.52 2.35  s  0.18 6.68 0.18  tr  0.60}
 Sphere {p -4.83 29.49 -58.08  rad  0.98   dc 1 0 0  tr  0.00}
 Cyl {p -0.26 28.62 -56.83  r  0.40 0.00 -0.92 2.69  s  0.21 6.84 0.21  tr  0.00}
 Cyl {p 5.01 28.62 -57.92  r  -0.36 0.00 -0.93 2.73  s  0.16 5.69 0.16  tr  0.60}
 Cone {p 3.86 31.50 -57.47  r  -0.36 0.00 -0.93 2.73  s  0.83 0.83 0.83   dc 1 1 0  tr  0.60}
 Box {p 6.17 25.75 -58.37  r  -0.36 0.00 -0.93 2.73  s  0.70 0.70 0.70   dc 1 1 0  tr  0.60}
 Cyl {p 11.74 30.98 -54.05  r  0.88 0.00 -0.47 1.92  s  0.22 8.02 0.22  tr  0.60}
 Sphere {p 11.74 30.98 -54.05  rad  1.18   dc 1 1 0  tr  0.60}
 Cyl {p 7.34 26.85 -54.13  r  1.00 0.00 -0.00 0.87  s  0.15 5.60 0.15  tr  0.60}
 Cone {p 7.34 26.85 -54.13  r  1.00 0.00 -0.00 0.87  s  0.82 0.82 0.82   dc 1 1 0  tr  0.60}
 Cyl {p -16.53 -6.17 -58.12  r  -0.87 0.00 -0.49 2.23  s  0.21 6.72 0.21  tr  0.00}
 Cyl {p -13.01 -8.71 -57.03  r  -0.69 0.00 -0.72 1.73  s  0.22 6.85 0.22  tr  0.00}
 Cyl {p -20.68 -0.07 -44.05  r  -0.12 0.00 0.99 1.07  s  0.20 7.13 0.20  tr  0.60}
 Box {p -17.28 -1.96 -43.63  r  -0.12 0.00 0.99 1.07  s  0.87 0.87 0.87   dc 1 1 0  tr  0.60}
 Sphere {p -24.09 1.83 -44.46  rad  1.05   dc 1 1 0  tr  0.60}
 Cyl {p -3.99 -3.74 -45.25  r  -0.59 0.00 -0.81 1.63  s  0.21 6.62 0.21  tr  0.00}
 Cyl {p -3.03 -4.43 -49.35  r  -0.67 0.00 -0.74 2.23  s  0.21 6.73 0.21  tr  0.00}
 Cyl {p -22.79 5.09 -53.26  r  0.99 -0.00 0.15 0.37  s  0.15 5.40 0.15  tr  0.60}
 Cone {p -22.79 5.09 -53.26  r  0.99 -0.00 0.15 0.37  s  0.79 0.79 0.79   dc 1 1 0  tr  0.60}
 Cyl {p -14.76 5.48 -40.69  r  0.07 0.00 -1.00 2.26  s  0.15 5.55 0.15  tr  0.60}
 Cone {p -14.76 5.48 -40.69  r  0.07 0.00 -1.00 2.26  s  0.81 0.81 0.81   dc 1 1 0  tr  0.60}
 Cyl {p -31.13 -16.86 -27.61  r  0.79 0.00 -0.62 1.24  s  0.08 2.97 0.08  tr  0.60}
 Cyl {p 8.44 20.39 -37.66  r  0.30 0.00 -0.95 1.91  s  0.07 2.62 0.07  tr  0.60}
 Cone {p 7.14 20.86 -38.07  r  0.30 0.00 -0.95 1.91  s  0.38 0.38 0.38   dc 1 0 0  tr  0.00}
 Box {p 9.73 19.91 -37.25  r  0.30 0.00 -0.95 1.91  s  0.32 0.32 0.32   dc 1 0 0  tr  0.00}
 Cyl {p 8.07 14.97 -44.30  r  -0.58 0.00 0.81 1.59  s  0.18 6.65 0.18  tr  0.60}
 Sphere {p 8.07 14.97 -44.30  rad  0.98   dc 1 0 0  tr  0.00}
 Cyl {p 7.96 16.49 -48.52  r  -0.44 0.00 0.90 1.08  s  0.21 6.79 0.21  tr  0.00}
 Cyl {p 8.14 19.82 -51.07  r  0.08 -0.00 1.00 0.63  s  0.21 6.71 0.21  tr  0.00}
 Cyl {p 8.92 24.19 -52.74  r  0.90 -0.00 0.43 0.50  s  0.22 6.89 0.22  tr  0.00}
 Cyl {p 13.25 25.62 -52.60  r  0.93 0.00 -0.38 1.21  s  0.17 6.16 0.17  tr  0.60}
 Sphere {p 12.05 24.42 -55.54  rad  0.90   dc 1 1 0  tr  0.60}
 Box {p 14.45 26.81 -49.67  r  0.93 0.00 -0.38 1.21  s  0.75 0.75 0.75   dc 1 1 0  tr  0.60}
 Cyl {p 13.46 31.20 -58.96  r  -0.91 0.00 0.42 0.20  s  0.08 2.74 0.08  tr  0.60}
 Cone {p 13.59 29.72 -58.69  r  -0.91 0.00 0.42 0.20  s  0.40 0.40 0.40   dc 1 0 0  tr  0.00}
 Box {p 13.33 32.67 -59.24  r  -0.91 0.00 0.42 0.20  s  0.33 0.33 0.33   dc 1 0 0  tr  0.00}
 Cyl {p 12.51 33.00 -52.06  r  1.00 -0.00 0.09 1.72  s  0.19 6.88 0.19  tr  0.60}
 Sphere {p 12.51 33.00 -52.06  rad  1.01   dc 1 0 0  tr  0.00}
 Cyl {p 18.66 31.78 -52.53  r  0.80 0.00 -0.60 2.56  s  0.18 6.64 0.18  tr  0.60}
 Sphere {p 18.66 31.78 -52.53  rad  0.97   dc 1 0 0  tr  0.00}
 Cyl {p 23.15 30.11 -53.01  r  -0.28 0.00 -0.96 2.92  s  0.21 6.83 0.21  tr  0.00}
 Cyl {p 26.38 28.65 -55.85  r  -0.98 0.00 0.22 2.63  s  0.21 6.84 0.21  tr  0.00}
 Cyl {p 28.13 27.88 -60.08  r  -0.83 0.00 0.55 2.16  s  0.21 6.74 0.21  tr  0.00}
 Cyl {p 28.64 28.29 -64.40  r  -0.65 0.00 0.76 1.68  s  0.21 6.71 0.21  tr  0.00}
 Cyl {p 28.23 31.29 -67.91  r  -0.31 0.00 0.95 1.28  s  0.21 6.78 0.21  tr  0.00}
 Cyl {p 27.45 35.13 -70.07  r  0.17 -0.00 0.99 0.99  s  0.21 6.66 0.21  tr  0.00}
 Cyl {p 27.21 39.15 -70.26  r  0.78 -0.00 0.62 0.92  s  0.22 6.97 0.22  tr  0.00}
 Cyl {p 29.13 43.35 -69.58  r  0.99 -0.00 0.11 1.14  s  0.21 6.68 0.21  tr  0.00}
 Cyl {p 3.31 4.66 -47.16  r  0.21 0.00 -0.98 2.42  s  0.22 6.86 0.22  tr  0.00}
 Cyl {p 5.03 2.66 -43.92  r  0.34 0.00 -0.94 1.82  s  0.21 6.76 0.21  tr  0.00}
 Cyl {p -1.12 -18.90 -44.07  r  -0.73 0.00 -0.68 2.52  s  0.21 6.62 0.21  tr  0.00}
 Cyl {p -1.42 -8.25 -42.43  r  -0.49 0.00 -0.87 0.56  s  0.14 5.07 0.14  tr  0.60}
 Box {p -2.71 -10.61 -41.71  r  -0.49 0.00 -0.87 0.56  s  0.62 0.62 0.62   dc 1 0 0  tr  0.00}
 Sphere {p -0.13 -5.88 -43.15  rad  0.74   dc 1 0 0  tr  0.00}
 Cyl {p 2.45 -20.96 -44.38  r  -0.76 0.00 -0.66 1.94  s  0.18 6.65 0.18  tr  0.60}
 Sphere {p 2.45 -20.96 -44.38  rad  0.98   dc 1 0 0  tr  0.00}
 Cyl {p -0.49 -12.68 -39.24  r  -0.00 0.00 -1.00 0.27  s  0.15 5.29 0.15  tr  0.60}
 Box {p -1.25 -15.48 -39.24  r  -0.00 0.00 -1.00 0.27  s  0.65 0.65 0.65   dc 1 0 0  tr  0.00}
 Sphere {p 0.28 -9.87 -39.25  rad  0.78   dc 1 0 0  tr  0.00}
 Cyl {p 6.65 -20.72 -44.49  r  -0.88 0.00 -0.48 1.38  s  0.21 7.75 0.21  tr  0.60}
 Sphere {p 6.65 -20.72 -44.49  rad  1.14   dc 1 0 0  tr  0.00}
 Cyl {p 2.73 -17.41 -36.43  r  0.99 0.00 -0.17 0.15  s  0.12 4.54 0.12  tr  0.60}
 Box {p 2.67 -19.87 -36.80  r  0.99 0.00 -0.17 0.15  s  0.55 0.55 0.55   dc 1 0 0  tr  0.00}
 Sphere {p 2.80 -14.94 -36.07  rad  0.67   dc 1 0 0  tr  0.00}
 Cyl {p 12.58 -18.51 -46.22  r  -1.00 0.00 -0.00 0.78  s  0.21 6.68 0.21  tr  0.00}
 Cyl {p 9.43 -20.60 -37.98  r  0.70 -0.00 0.71 0.95  s  0.14 4.93 0.14  tr  0.60}
 Box {p 11.00 -22.18 -39.53  r  0.70 -0.00 0.71 0.95  s  0.60 0.60 0.60   dc 1 0 0  tr  0.00}
 Sphere {p 7.85 -19.03 -36.44  rad  0.72   dc 1 0 0  tr  0.00}
 Cyl {p 15.29 -14.56 -46.43  r  -0.75 0.00 0.66 0.44  s  0.21 6.74 0.21  tr  0.00}
 Cyl {p 14.61 -20.82 -39.91  r  0.83 -0.00 0.56 1.48  s  0.13 4.57 0.13  tr  0.60}
 Box {p 16.00 -21.04 -41.99  r  0.83 -0.00 0.56 1.48  s  0.56 0.56 0.56   dc 1 0 0  tr  0.00}
 Sphere {p 13.21 -20.60 -37.83  rad  0.67   dc 1 0 0  tr  0.00}
 Cyl {p 16.09 -10.06 -44.16  r  0.08 -0.00 1.00 0.66  s  0.21 6.69 0.21  tr  0.00}
 Cyl {p 16.33 -6.24 -41.62  r  0.54 -0.00 0.84 1.05  s  0.22 6.85 0.22  tr  0.00}
 Cyl {p 17.34 -4.58 -37.07  r  0.77 -0.00 0.64 1.58  s  0.22 6.84 0.22  tr  0.00}
 Cyl {p 18.77 -5.04 -32.63  r  0.83 -0.00 0.55 2.15  s  0.22 6.89 0.22  tr  0.00}
 Cyl {p 21.03 -7.33 -29.48  r  0.79 -0.00 0.62 2.66  s  0.16 5.99 0.16  tr  0.60}
 Cone {p 21.98 -4.41 -30.69  r  0.79 -0.00 0.62 2.66  s  0.88 0.88 0.88   dc 1 1 0  tr  0.60}
 Box {p 20.09 -10.24 -28.27  r  0.79 -0.00 0.62 2.66  s  0.73 0.73 0.73   dc 1 1 0  tr  0.60}
 Cyl {p 24.06 -7.87 -27.71  r  -0.99 0.00 -0.11 2.85  s  0.17 6.04 0.17  tr  0.60}
 Box {p 23.95 -4.69 -26.76  r  -0.99 0.00 -0.11 2.85  s  0.74 0.74 0.74   dc 1 1 0  tr  0.60}
 Cone {p 24.16 -11.05 -28.67  r  -0.99 0.00 -0.11 2.85  s  0.89 0.89 0.89   dc 1 1 0  tr  0.60}
 Cyl {p 29.84 -11.91 -25.93  r  -1.00 0.00 0.04 2.09  s  0.18 6.66 0.18  tr  0.60}
 Sphere {p 29.84 -11.91 -25.93  rad  0.98   dc 1 0 0  tr  0.00}
 Cyl {p 33.59 -12.67 -28.45  r  -1.00 0.00 0.07 1.56  s  0.22 6.90 0.22  tr  0.00}
 Cyl {p 36.67 -10.64 -31.18  r  -0.97 0.00 0.25 1.04  s  0.21 6.82 0.21  tr  0.00}
 Cyl {p 38.90 -6.57 -32.70  r  -0.67 0.00 0.74 0.67  s  0.18 6.57 0.18  tr  0.60}
 Sphere {p 38.90 -6.57 -32.70  rad  0.96   dc 1 0 0  tr  0.00}
 Cyl {p 39.86 -2.28 -32.12  r  0.12 -0.00 0.99 0.68  s  0.18 6.64 0.18  tr  0.60}
 Sphere {p 39.86 -2.28 -32.12  rad  0.97   dc 1 0 0  tr  0.00}
 Cyl {p 40.34 1.11 -29.66  r  0.61 -0.00 0.79 1.15  s  0.22 6.85 0.22  tr  0.00}
 Cyl {p 43.20 5.32 -30.08  r  0.79 -0.00 0.61 1.43  s  0.19 6.97 0.19  tr  0.60}
 Sphere {p 45.52 4.79 -33.09  rad  1.02   dc 1 1 0  tr  0.60}
 Box {p 40.88 5.85 -27.07  r  0.79 -0.00 0.61 1.43  s  0.85 0.85 0.85   dc 1 1 0  tr  0.60}
 Cyl {p 41.91 4.30 -34.61  r  0.76 -0.00 0.65 1.04  s  0.18 6.45 0.18  tr  0.60}
 Box {p 43.90 2.52 -36.94  r  0.76 -0.00 0.65 1.04  s  0.79 0.79 0.79   dc 1 1 0  tr  0.60}
 Sphere {p 39.91 6.09 -32.28  rad  0.95   dc 1 1 0  tr  0.60}
 Cyl {p 40.61 2.07 -35.42  r  0.59 -0.00 0.81 1.37  s  0.17 6.07 0.17  tr  0.60}
 Sphere {p 43.25 1.40 -37.34  rad  0.89   dc 1 1 0  tr  0.60}
 Cone {p 37.97 2.75 -33.49  r  0.59 -0.00 0.81 1.37  s  0.89 0.89 0.89   dc 1 1 0  tr  0.60}
 Cyl {p 37.79 3.58 -38.16  r  0.98 -0.00 0.21 0.41  s  0.21 7.61 0.21  tr  0.60}
 Sphere {p 37.79 3.58 -38.16  rad  1.12   dc 1 0 0  tr  0.00}
 Cyl {p 36.63 6.67 -39.86  r  -0.15 0.00 -0.99 0.35  s  0.21 6.74 0.21  tr  0.00}
 Cyl {p 36.84 9.84 -43.03  r  -0.46 0.00 -0.89 0.91  s  0.21 6.67 0.21  tr  0.00}
 Cyl {p 37.75 7.95 -48.60  r  -0.50 0.00 -0.87 1.82  s  0.21 7.59 0.21  tr  0.60}
 Sphere {p 37.75 7.95 -48.60  rad  1.11   dc 1 0 0  tr  0.00}
 Cyl {p 37.45 10.74 -47.53  r  -0.41 0.00 -0.91 1.47  s  0.21 6.72 0.21  tr  0.00}
 Cyl {p 38.99 10.29 -52.44  r  -0.04 0.00 -1.00 2.22  s  0.21 6.59 0.21  tr  0.00}
 Cyl {p 39.67 6.67 -55.31  r  0.48 0.00 -0.88 2.57  s  0.22 6.88 0.22  tr  0.00}
 Cyl {p 38.76 2.45 -57.06  r  1.00 0.00 -0.06 2.62  s  0.21 6.72 0.21  tr  0.00}
 Cyl {p 35.92 -0.80 -57.45  r  0.88 -0.00 0.48 2.15  s  0.21 6.77 0.21  tr  0.00}
 Cyl {p 33.00 -4.70 -59.64  r  0.67 -0.00 0.74 1.91  s  0.16 5.76 0.16  tr  0.60}
 Sphere {p 35.22 -3.65 -61.64  rad  0.84   dc 1 0 0  tr  0.00}
 Box {p 30.78 -5.76 -57.64  r  0.67 -0.00 0.74 1.91  s  0.70 0.70 0.70   dc 1 0 0  tr  0.00}
 Cyl {p 27.49 -4.51 -59.64  r  0.54 -0.00 0.84 1.20  s  0.22 6.85 0.22  tr  0.00}
 Cyl {p 24.33 -2.53 -60.71  r  0.54 -0.00 0.84 0.57  s  0.21 6.66 0.21  tr  0.00}
 Cyl {p 21.32 0.47 -62.88  r  -0.64 0.00 0.77 0.06  s  0.21 6.83 0.21  tr  0.00}
 Cyl {p 16.19 -5.38 -59.23  r  0.64 -0.00 0.77 0.54  s  0.14 5.23 0.14  tr  0.60}
 Box {p 17.32 -7.84 -60.18  r  0.64 -0.00 0.77 0.54  s  0.64 0.64 0.64   dc 1 1 0  tr  0.60}
 Cone {p 15.05 -2.92 -58.28  r  0.64 -0.00 0.77 0.54  s  0.77 0.77 0.77   dc 1 1 0  tr  0.60}
 Cyl {p 11.70 -5.80 -60.06  r  -0.78 0.00 0.63 0.43  s  0.16 5.91 0.16  tr  0.60}
 Box {p 12.54 -8.76 -59.02  r  -0.78 0.00 0.63 0.43  s  0.72 0.72 0.72   dc 1 1 0  tr  0.60}
 Cone {p 10.86 -2.84 -61.10  r  -0.78 0.00 0.63 0.43  s  0.87 0.87 0.87   dc 1 1 0  tr  0.60}
 Cyl {p 8.29 -4.78 -62.80  r  -0.99 0.00 -0.12 0.79  s  0.18 6.51 0.18  tr  0.60}
 Sphere {p 8.29 -4.78 -62.80  rad  0.96   dc 1 0 0  tr  0.00}
 Cyl {p 7.20 -4.74 -67.15  r  -0.84 0.00 -0.55 1.22  s  0.21 6.70 0.21  tr  0.00}
 Cyl {p 7.21 -6.47 -71.37  r  -0.61 0.00 -0.79 1.63  s  0.22 6.85 0.22  tr  0.00}
 Cyl {p 7.64 -9.73 -74.28  r  -0.22 0.00 -0.98 2.00  s  0.21 6.79 0.21  tr  0.00}
 Cyl {p 7.84 -14.12 -75.10  r  0.39 0.00 -0.92 2.13  s  0.21 6.79 0.21  tr  0.00}
 Cyl {p 7.45 -18.56 -74.46  r  0.84 0.00 -0.54 2.02  s  0.21 6.69 0.21  tr  0.00}
 Cyl {p 5.47 -22.21 -72.27  r  1.00 0.00 -0.09 1.66  s  0.18 6.60 0.18  tr  0.60}
 Sphere {p 5.47 -22.21 -72.27  rad  0.97   dc 1 0 0  tr  0.00}
 Cyl {p 2.43 -23.78 -69.41  r  0.97 -0.00 0.25 1.17  s  0.18 6.68 0.18  tr  0.60}
 Sphere {p 2.43 -23.78 -69.41  rad  0.98   dc 1 0 0  tr  0.00}
 Cyl {p -1.90 -23.32 -67.20  r  0.86 -0.00 0.51 0.73  s  0.21 6.84 0.21  tr  0.00}
 Cyl {p -7.26 -23.21 -67.18  r  0.61 -0.00 0.80 0.48  s  0.16 5.69 0.16  tr  0.60}
 Cone {p -6.11 -25.98 -68.06  r  0.61 -0.00 0.80 0.48  s  0.83 0.83 0.83   dc 1 1 0  tr  0.60}
 Box {p -8.42 -20.43 -66.30  r  0.61 -0.00 0.80 0.48  s  0.70 0.70 0.70   dc 1 1 0  tr  0.60}
 Cyl {p -13.04 -27.19 -63.17  r  0.97 -0.00 0.25 1.59  s  0.22 8.08 0.22  tr  0.60}
 Sphere {p -13.04 -27.19 -63.17  rad  1.18   dc 1 1 0  tr  0.60}
 Cyl {p -8.65 -23.06 -62.59  r  0.95 0.00 -0.31 2.64  s  0.15 5.60 0.15  tr  0.60}
 Cone {p -8.65 -23.06 -62.59  r  0.95 0.00 -0.31 2.64  s  0.82 0.82 0.82   dc 1 1 0  tr  0.60}
 Cyl {p 14.67 9.60 -57.61  r  -0.53 0.00 0.85 0.64  s  0.21 6.73 0.21  tr  0.00}
 Cyl {p 11.59 11.53 -54.93  r  -0.43 0.00 0.90 1.19  s  0.22 6.86 0.22  tr  0.00}
 Cyl {p 21.57 -0.93 -47.81  r  -0.49 0.00 -0.87 1.97  s  0.20 7.17 0.20  tr  0.60}
 Box {p 18.41 0.60 -46.02  r  -0.49 0.00 -0.87 1.97  s  0.88 0.88 0.88   dc 1 1 0  tr  0.60}
 Sphere {p 24.74 -2.46 -49.61  rad  1.05   dc 1 1 0  tr  0.60}
 Cyl {p 21.69 -2.28 -58.73  r  -0.24 0.00 -0.97 3.02  s  0.15 5.42 0.15  tr  0.60}
 Cone {p 21.69 -2.28 -58.73  r  -0.24 0.00 -0.97 3.02  s  0.79 0.79 0.79   dc 1 1 0  tr  0.60}
 Cyl {p 16.01 -7.60 -46.21  r  0.48 -0.00 0.88 0.99  s  0.15 5.51 0.15  tr  0.60}
 Cone {p 16.01 -7.60 -46.21  r  0.48 -0.00 0.88 0.99  s  0.81 0.81 0.81   dc 1 1 0  tr  0.60}
 Cyl {p 36.40 6.05 -27.72  r  0.83 -0.00 0.56 2.17  s  0.08 2.97 0.08  tr  0.60}
 Cyl {p -6.16 -22.81 -45.07  r  0.57 -0.00 0.82 1.43  s  0.07 2.61 0.07  tr  0.60}
 Cone {p -4.99 -23.01 -45.88  r  0.57 -0.00 0.82 1.43  s  0.38 0.38 0.38   dc 1 0 0  tr  0.00}
 Box {p -7.33 -22.60 -44.26  r  0.57 -0.00 0.82 1.43  s  0.32 0.32 0.32   dc 1 0 0  tr  0.00}
 Cyl {p -7.26 -15.41 -49.28  r  -0.72 0.00 -0.69 1.29  s  0.18 6.67 0.18  tr  0.60}
 Sphere {p -7.26 -15.41 -49.28  rad  0.98   dc 1 0 0  tr  0.00}
 Cyl {p -8.12 -15.39 -53.71  r  -0.71 0.00 -0.71 1.81  s  0.21 6.79 0.21  tr  0.00}
 Cyl {p -8.88 -17.61 -57.17  r  -0.54 0.00 -0.84 2.38  s  0.21 6.71 0.21  tr  0.00}
 Cyl {p -10.00 -21.22 -60.08  r  0.14 0.00 -0.99 2.84  s  0.22 6.90 0.22  tr  0.00}
 Cyl {p -14.17 -22.89 -59.56  r  0.98 -0.00 0.20 2.29  s  0.17 6.16 0.17  tr  0.60}
 Sphere {p -13.65 -20.66 -62.07  rad  0.90   dc 1 1 0  tr  0.60}
 Box {p -14.70 -25.11 -57.06  r  0.98 -0.00 0.20 2.29  s  0.75 0.75 0.75   dc 1 1 0  tr  0.60}
 Cyl {p -15.83 -25.90 -67.30  r  -1.00 0.00 -0.09 2.58  s  0.08 2.73 0.08  tr  0.60}
 Cone {p -15.90 -24.63 -66.51  r  -1.00 0.00 -0.09 2.58  s  0.40 0.40 0.40   dc 1 0 0  tr  0.00}
 Box {p -15.76 -27.17 -68.10  r  -1.00 0.00 -0.09 2.58  s  0.33 0.33 0.33   dc 1 0 0  tr  0.00}
 Cyl {p -13.35 -29.94 -61.84  r  0.95 0.00 -0.32 1.77  s  0.19 6.89 0.19  tr  0.60}
 Sphere {p -13.35 -29.94 -61.84  rad  1.01   dc 1 0 0  tr  0.00}
 Cyl {p -19.48 -29.12 -60.57  r  0.96 -0.00 0.28 0.92  s  0.18 6.64 0.18  tr  0.60}
 Sphere {p -19.48 -29.12 -60.57  rad  0.97   dc 1 0 0  tr  0.00}
 Cyl {p -23.86 -27.68 -59.54  r  0.85 -0.00 0.53 0.40  s  0.21 6.83 0.21  tr  0.00}
 Cyl {p -27.64 -25.57 -60.84  r  -1.00 0.00 -0.04 0.16  s  0.22 6.85 0.22  tr  0.00}
 Cyl {p -30.41 -23.54 -64.00  r  -0.89 0.00 -0.46 0.65  s  0.21 6.73 0.21  tr  0.00}
 Cyl {p -31.99 -22.46 -67.87  r  -0.79 0.00 -0.61 1.19  s  0.21 6.72 0.21  tr  0.00}
 Cyl {p -32.58 -24.05 -72.17  r  -0.60 0.00 -0.80 1.68  s  0.21 6.77 0.21  tr  0.00}
 Cyl {p -32.47 -26.86 -75.64  r  -0.31 0.00 -0.95 2.10  s  0.21 6.67 0.21  tr  0.00}
 Cyl {p -32.42 -30.57 -77.28  r  0.35 0.00 -0.94 2.41  s  0.22 6.98 0.22  tr  0.00}
 Cyl {p -34.19 -34.90 -77.62  r  0.89 0.00 -0.45 2.34  s  0.21 6.67 0.21  tr  0.00}
 
  ]
}
NavigationInfo {
  speed 4
  type [
    "EXAMINE" "FLY"
  ]
}
