{"accessors":[{"bufferView":0,"componentType":5126,"count":76,"max":[28.33,27.61,-37.32],"min":[-42.61,-32.64,-61.66],"type":"VEC3"},{"bufferView":1,"componentType":5126,"count":34,"max":[1.0,1.0,1.0],"min":[-1.0,-1.0,-1.0],"type":"VEC3"},{"bufferView":2,"componentType":5126,"count":34,"type":"VEC3"},{"bufferView":3,"componentType":5123,"count":192,"type":"SCALAR"},{"bufferView":4,"componentType":5126,"count":153,"max":[1.0,1.0,1.0],"min":[-1.0,-1.0,-1.0],"type":"VEC3"},{"bufferView":5,"componentType":5126,"count":153,"type":"VEC3"},{"bufferView":6,"componentType":5123,"count":768,"type":"SCALAR"},{"bufferView":7,"componentType":5126,"count":24,"max":[1.0,1.0,1.0],"min":[-1.0,-1.0,-1.0],"type":"VEC3"},{"bufferView":8,"componentType":5126,"count":24,"type":"VEC3"},{"bufferView":9,"componentType":5123,"count":36,"type":"SCALAR"},{"bufferView":10,"componentType":5126,"count":18,"max":[1.0,1.0,1.0],"min":[-1.0,-1.0,-1.0],"type":"VEC3"},{"bufferView":11,"componentType":5126,"count":18,"type":"VEC3"},{"bufferView":12,"componentType":5123,"count":96,"type":"SCALAR"}],"asset":{"generator":"rnaview_vrml_gltf vrml-gltf-v1","version":"2.0"},"bufferViews":[{"buffer":0,"byteLength":912,"byteOffset":0,"target":34962},{"buffer":1,"byteLength":408,"byteOffset":0,"target":34962},{"buffer":1,"byteLength":408,"byteOffset":408,"target":34962},{"buffer":1,"byteLength":384,"byteOffset":816,"target":34963},{"buffer":2,"byteLength":1836,"byteOffset":0,"target":34962},{"buffer":2,"byteLength":1836,"byteOffset":1836,"target":34962},{"buffer":2,"byteLength":1536,"byteOffset":3672,"target":34963},{"buffer":3,"byteLength":288,"byteOffset":0,"target":34962},{"buffer":3,"byteLength":288,"byteOffset":288,"target":34962},{"buffer":3,"byteLength":72,"byteOffset":576,"target":34963},{"buffer":4,"byteLength":216,"byteOffset":0,"target":34962},{"buffer":4,"byteLength":216,"byteOffset":216,"target":34962},{"buffer":4,"byteLength":192,"byteOffset":432,"target":34963}],"buffers":[{"byteLength":912,"uri":"data:application/octet-stream;base64,"},{"byteLength":1200,"uri":"data:application/octet-stream;base64,"},{"byteLength":5208,"uri":"data:application/octet-stream;base64,"},{"byteLength":648,"uri":"data:application/octet-stream;base64,"},{"byteLength":624,"uri":"data:application/octet-stream;base64,"}],"materials":[{"alphaMode":"BLEND","pbrMetallicRoughness":{"baseColorFactor":[0.71,0.34,0.88,0.0],"metallicFactor":0.0,"roughnessFactor":1.0}},{"pbrMetallicRoughness":{"baseColorFactor":[1.0,0.0,0.0,1.0],"metallicFactor":0.0,"roughnessFactor":1.0}},{"alphaMode":"BLEND","pbrMetallicRoughness":{"baseColorFactor":[1.0,0.0,0.0,0.4],"metallicFactor":0.0,"roughnessFactor":1.0}},{"alphaMode":"BLEND","pbrMetallicRoughness":{"baseColorFactor":[1.0,1.0,0.0,0.4],"metallicFactor":0.0,"roughnessFactor":1.0}}],"meshes":[{"primitives":[{"attributes":{"POSITION":0},"material":0,"mode":3}]},{"primitives":[{"attributes":{"NORMAL":2,"POSITION":1},"indices":3,"material":1}]},{"primitives":[{"attributes":{"NORMAL":2,"POSITION":1},"indices":3,"material":2}]},{"primitives":[{"attributes":{"NORMAL":5,"POSITION":4},"indices":6,"material":1}]},{"primitives":[{"attributes":{"NORMAL":5,"POSITION":4},"indices":6,"material":3}]},{"primitives":[{"attributes":{"NORMAL":8,"POSITION":7},"indices":9,"material":3}]},{"primitives":[{"attributes":{"NORMAL":11,"POSITION":10},"indices":12,"material":3}]}],"nodes":[{"children":[1,2,3,4,5,6,7,8,9,10,11,12,13,14,15,16,17,18,19,20,21,22,23,24,25,26,27,28,29,30,31,32,33,34,35,36,37,38,39,40,41,42,43,44,45,46,47,48,49,50,51,52,53,54,55,56,57,58,59,60,61,62,63,64,65,66,67,68,69,70,71,72,73,74,75,76,77,78,79,80,81,82,83,84,85,86,87,88,89,90,91,92,93,94,95,96,97,98,99,100,101,102,103,104,105,106,107,108,109,110,111,112,113,114,115,116,117,118,119,120,121,122],"extras":{"renderer_version":"vrml-gltf-v1","source":"vrml"}},{"extras":{"kind":"IndexedLineSet"},"mesh":0},{"extras":{"color":[0.0,1.0,0.0,1.0],"kind":"Label","text":"  G"},"translation":[-28.89,7.79,-54.38]},{"extras":{"color":[0.0,0.0,1.0,1.0],"kind":"Label","text":"  C"},"translation":[-27.55,9.56,-48.56]},{"extras":{"color":[0.0,1.0,0.0,1.0],"kind":"Label","text":"  G"},"translation":[-23.65,9.25,-43.54]},{"extras":{"color":[0.0,1.0,0.0,1.0],"kind":"Label","text":"  G"},"translation":[-18.7,6.81,-40.84]},{"extras":{"color":[1.0,0.0,0.0,1.0],"kind":"Label","text":"  A"},"translation":[-13.94,2.7,-40.91]},{"extras":{"color":[0.0,1.0,1.0,1.0],"kind":"Label","text":"  U"},"translation":[-9.7,0.64,-44.6]},{"extras":{"color":[0.0,1.0,1.0,1.0],"kind":"Label","text":"  U"},"translation":[-6.41,0.33,-49.83]},{"extras":{"color":[0.0,1.0,1.0,1.0],"kind":"Label","text":"  U"},"translation":[-0.43,2.17,-51.91]},{"extras":{"color":[1.0,0.0,0.0,1.0],"kind":"Label","text":"  A"},"translation":[4.08,-1.79,-55.33]},{"extras":{"color":[0.0,1.0,0.0,1.0],"kind":"Label","text":"2MG"},"translation":[1.77,-7.68,-58.41]},{"extras":{"color":[0.0,0.0,1.0,1.0],"kind":"Label","text":"  C"},"translation":[-1.46,-10.68,-53.81]},{"extras":{"color":[0.0,1.0,1.0,1.0],"kind":"Label","text":"  U"},"translation":[-2.97,-10.16,-47.94]},{"extras":{"color":[0.0,0.0,1.0,1.0],"kind":"Label","text":"  C"},"translation":[-2.27,-5.42,-43.97]},{"extras":{"color":[1.0,0.0,0.0,1.0],"kind":"Label","text":"  A"},"translation":[0.64,-1.44,-40.5]},{"extras":{"color":[0.0,1.0,0.0,1.0],"kind":"Label","text":"  G"},"translation":[2.94,3.88,-39.47]},{"extras":{"color":[0.0,1.0,1.0,1.0],"kind":"Label","text":"H2U"},"translation":[4.24,8.73,-39.39]},{"extras":{"color":[0.0,1.0,1.0,1.0],"kind":"Label","text":"H2U"},"translation":[4.98,14.01,-37.32]},{"extras":{"color":[0.0,1.0,0.0,1.0],"kind":"Label","text":"  G"},"translation":[4.13,15.45,-42.45]},{"extras":{"color":[0.0,1.0,0.0,1.0],"kind":"Label","text":"  G"},"translation":[9.45,15.11,-45.82]},{"extras":{"color":[0.0,1.0,0.0,1.0],"kind":"Label","text":"  G"},"translation":[14.38,10.56,-46.77]},{"extras":{"color":[1.0,0.0,0.0,1.0],"kind":"Label","text":"  A"},"translation":[11.13,6.61,-49.27]},{"extras":{"color":[0.0,1.0,0.0,1.0],"kind":"Label","text":"  G"},"translation":[11.2,0.92,-46.26]},{"extras":{"color":[1.0,0.0,0.0,1.0],"kind":"Label","text":"  A"},"translation":[10.63,-4.39,-43.31]},{"extras":{"color":[0.0,1.0,0.0,1.0],"kind":"Label","text":"  G"},"translation":[8.93,-10.19,-42.95]},{"extras":{"color":[0.0,0.0,1.0,1.0],"kind":"Label","text":"  C"},"translation":[7.3,-14.81,-46.56]},{"extras":{"color":[0.0,1.0,0.0,1.0],"kind":"Label","text":"M2G"},"translation":[7.04,-16.04,-52.5]},{"extras":{"color":[0.0,0.0,1.0,1.0],"kind":"Label","text":"  C"},"translation":[10.11,-15.43,-57.71]},{"extras":{"color":[0.0,0.0,1.0,1.0],"kind":"Label","text":"  C"},"translation":[15.99,-14.66,-60.22]},{"extras":{"color":[1.0,0.0,0.0,1.0],"kind":"Label","text":"  A"},"translation":[21.96,-14.72,-58.51]},{"extras":{"color":[0.0,1.0,0.0,1.0],"kind":"Label","text":"  G"},"translation":[26.38,-15.01,-54.33]},{"extras":{"color":[1.0,0.0,0.0,1.0],"kind":"Label","text":"  A"},"translation":[28.23,-17.49,-49.03]},{"extras":{"color":[0.0,0.0,1.0,1.0],"kind":"Label","text":"OMC"},"translation":[27.64,-22.69,-46.16]},{"extras":{"color":[0.0,1.0,1.0,1.0],"kind":"Label","text":"  U"},"translation":[26.23,-28.82,-46.95]},{"extras":{"color":[0.0,1.0,0.0,1.0],"kind":"Label","text":"OMG"},"translation":[28.33,-32.64,-52.09]},{"extras":{"color":[1.0,0.0,0.0,1.0],"kind":"Label","text":"  A"},"translation":[23.26,-31.12,-54.75]},{"extras":{"color":[1.0,0.0,0.0,1.0],"kind":"Label","text":"  A"},"translation":[18.47,-28.8,-52.74]},{"extras":{"color":[0.0,1.0,0.0,1.0],"kind":"Label","text":" YG"},"translation":[14.14,-26.66,-49.24]},{"extras":{"color":[1.0,0.0,0.0,1.0],"kind":"Label","text":"  A"},"translation":[13.42,-24.05,-43.72]},{"extras":{"color":[0.0,1.0,1.0,1.0],"kind":"Label","text":"PSU"},"translation":[16.21,-19.96,-40.53]},{"extras":{"color":[0.0,0.0,1.0,1.0],"kind":"Label","text":"5MC"},"translation":[20.13,-15.18,-40.8]},{"extras":{"color":[0.0,1.0,1.0,1.0],"kind":"Label","text":"  U"},"translation":[22.94,-10.71,-44.2]},{"extras":{"color":[0.0,1.0,0.0,1.0],"kind":"Label","text":"  G"},"translation":[22.8,-7.12,-48.94]},{"extras":{"color":[0.0,1.0,0.0,1.0],"kind":"Label","text":"  G"},"translation":[20.85,-5.08,-54.38]},{"extras":{"color":[1.0,0.0,0.0,1.0],"kind":"Label","text":"  A"},"translation":[16.94,-3.91,-58.66]},{"extras":{"color":[0.0,1.0,0.0,1.0],"kind":"Label","text":"  G"},"translation":[10.92,-3.45,-59.54]},{"extras":{"color":[0.0,1.0,0.0,1.0],"kind":"Label","text":"7MG"},"translation":[5.7,0.38,-58.02]},{"extras":{"color":[0.0,1.0,1.0,1.0],"kind":"Label","text":"  U"},"translation":[2.59,5.89,-59.91]},{"extras":{"color":[0.0,0.0,1.0,1.0],"kind":"Label","text":"  C"},"translation":[0.33,5.82,-53.9]},{"extras":{"color":[0.0,0.0,1.0,1.0],"kind":"Label","text":"5MC"},"translation":[-4.36,4.69,-55.72]},{"extras":{"color":[0.0,1.0,1.0,1.0],"kind":"Label","text":"  U"},"translation":[-5.24,9.04,-60.07]},{"extras":{"color":[0.0,1.0,0.0,1.0],"kind":"Label","text":"  G"},"translation":[-5.94,14.81,-61.66]},{"extras":{"color":[0.0,1.0,1.0,1.0],"kind":"Label","text":"  U"},"translation":[-6.14,20.6,-60.32]},{"extras":{"color":[0.0,1.0,0.0,1.0],"kind":"Label","text":"  G"},"translation":[-5.52,24.64,-55.93]},{"extras":{"color":[0.0,1.0,1.0,1.0],"kind":"Label","text":"5MU"},"translation":[-3.58,26.66,-50.28]},{"extras":{"color":[0.0,1.0,1.0,1.0],"kind":"Label","text":"PSU"},"translation":[1.7,26.65,-47.33]},{"extras":{"color":[0.0,0.0,1.0,1.0],"kind":"Label","text":"  C"},"translation":[7.89,27.61,-50.11]},{"extras":{"color":[0.0,1.0,0.0,1.0],"kind":"Label","text":"  G"},"translation":[7.67,21.6,-51.28]},{"extras":{"color":[1.0,0.0,0.0,1.0],"kind":"Label","text":"1MA"},"translation":[4.49,16.01,-50.23]},{"extras":{"color":[0.0,1.0,1.0,1.0],"kind":"Label","text":"  U"},"translation":[1.16,10.3,-50.43]},{"extras":{"color":[0.0,0.0,1.0,1.0],"kind":"Label","text":"  C"},"translation":[-2.27,12.18,-45.58]},{"extras":{"color":[0.0,0.0,1.0,1.0],"kind":"Label","text":"  C"},"translation":[-4.85,17.28,-42.85]},{"extras":{"color":[1.0,0.0,0.0,1.0],"kind":"Label","text":"  A"},"translation":[-9.58,20.28,-45.62]},{"extras":{"color":[0.0,0.0,1.0,1.0],"kind":"Label","text":"  C"},"translation":[-13.79,20.43,-49.98]},{"extras":{"color":[1.0,0.0,0.0,1.0],"kind":"Label","text":"  A"},"translation":[-16.3,17.95,-55.0]},{"extras":{"color":[0.0,1.0,0.0,1.0],"kind":"Label","text":"  G"},"translation":[-16.64,13.05,-58.17]},{"extras":{"color":[1.0,0.0,0.0,1.0],"kind":"Label","text":"  A"},"translation":[-15.35,7.22,-59.68]},{"extras":{"color":[1.0,0.0,0.0,1.0],"kind":"Label","text":"  A"},"translation":[-14.52,1.42,-58.42]},{"extras":{"color":[0.0,1.0,1.0,1.0],"kind":"Label","text":"  U"},"translation":[-14.27,-3.25,-54.45]},{"extras":{"color":[0.0,1.0,1.0,1.0],"kind":"Label","text":"  U"},"translation":[-16.46,-5.33,-49.15]},{"extras":{"color":[0.0,0.0,1.0,1.0],"kind":"Label","text":"  C"},"translation":[-20.26,-5.68,-44.29]},{"extras":{"color":[0.0,1.0,0.0,1.0],"kind":"Label","text":"  G"},"translation":[-25.22,-3.74,-41.34]},{"extras":{"color":[0.0,0.0,1.0,1.0],"kind":"Label","text":"  C"},"translation":[-30.42,-0.29,-41.81]},{"extras":{"color":[1.0,0.0,0.0,1.0],"kind":"Label","text":"  A"},"translation":[-34.37,2.52,-45.51]},{"extras":{"color":[0.0,0.0,1.0,1.0],"kind":"Label","text":"  C"},"translation":[-37.11,2.15,-51.18]},{"extras":{"color":[0.0,0.0,1.0,1.0],"kind":"Label","text":"  C"},"translation":[-38.48,-2.48,-54.64]},{"extras":{"color":[1.0,0.0,0.0,1.0],"kind":"Label","text":"  A"},"translation":[-42.61,-2.83,-58.03]},{"extras":{"kind":"Cyl"},"mesh":1,"rotation":[0.870827,-0.0,0.105555,0.480124],"scale":[0.21,6.83,0.21],"translation":[-29.65,3.75,-48.09]},{"extras":{"kind":"Cyl"},"mesh":1,"rotation":[0.918519,0.0,-0.299727,0.25785],"scale":[0.22,6.96,0.22],"translation":[-26.38,2.91,-44.95]},{"extras":{"kind":"Cyl"},"mesh":1,"rotation":[-0.217571,0.0,-0.969182,0.115538],"scale":[0.22,6.97,0.22],"translation":[-21.95,1.78,-43.91]},{"extras":{"kind":"Cyl"},"mesh":2,"rotation":[-0.919627,0.0,-0.246498,0.305817],"scale":[0.19,6.76,0.19],"translation":[-17.58,0.74,-45.0]},{"extras":{"kind":"Sphere"},"mesh":3,"scale":[0.99,0.99,0.99],"translation":[-17.58,0.74,-45.0]},{"extras":{"kind":"Cyl"},"mesh":1,"rotation":[-0.835859,0.0,0.016717,0.54869],"scale":[0.21,6.72,0.21],"translation":[-14.1,-0.27,-47.68]},{"extras":{"kind":"Cyl"},"mesh":1,"rotation":[-0.650028,0.0,0.228201,0.724836],"scale":[0.21,6.66,0.21],"translation":[-12.11,1.03,-51.51]},{"extras":{"kind":"Cyl"},"mesh":1,"rotation":[-0.384303,0.0,0.34795,0.855127],"scale":[0.21,6.81,0.21],"translation":[-10.88,3.77,-54.76]},{"extras":{"kind":"Cyl"},"mesh":2,"rotation":[0.804307,0.0,-0.072388,0.589788],"scale":[0.15,5.46,0.15],"translation":[0.1,0.37,-46.2]},{"extras":{"kind":"Sphere"},"mesh":4,"scale":[0.8,0.8,0.8],"translation":[-0.16,1.27,-49.06]},{"extras":{"kind":"Box"},"mesh":5,"rotation":[0.804307,0.0,-0.072388,0.589788],"scale":[0.67,0.67,0.67],"translation":[0.37,-0.54,-43.35]},{"extras":{"kind":"Cyl"},"mesh":2,"rotation":[0.676628,0.0,-0.36907,0.637151],"scale":[0.17,6.33,0.17],"translation":[7.35,-3.09,-49.32]},{"extras":{"kind":"Box"},"mesh":5,"rotation":[0.676628,0.0,-0.36907,0.637151],"scale":[0.77,0.77,0.77],"translation":[7.35,-3.09,-49.32]},{"extras":{"kind":"Cyl"},"mesh":1,"rotation":[0.78072,0.0,-0.360332,0.510526],"scale":[0.21,6.77,0.21],"translation":[4.54,-11.25,-52.49]},{"extras":{"kind":"Cyl"},"mesh":1,"rotation":[0.502601,0.0,-0.48166,0.717911],"scale":[0.21,6.84,0.21],"translation":[3.73,-10.44,-48.38]},{"extras":{"kind":"Cyl"},"mesh":1,"rotation":[0.178925,0.0,-0.531184,0.828148],"scale":[0.22,7.04,0.22],"translation":[3.83,-7.28,-45.63]},{"extras":{"kind":"Cyl"},"mesh":1,"rotation":[-0.091327,0.0,-0.531848,0.841901],"scale":[0.22,6.85,0.22],"translation":[4.46,-2.25,-45.12]},{"extras":{"kind":"Cyl"},"mesh":2,"rotation":[-0.648536,0.0,0.119119,0.751806],"scale":[0.18,6.73,0.18],"translation":[1.63,4.85,-46.69]},{"extras":{"kind":"Sphere"},"mesh":4,"scale":[0.99,0.99,0.99],"translation":[1.63,4.85,-46.69]},{"extras":{"kind":"Cyl"},"mesh":2,"rotation":[-0.631131,0.0,0.177506,0.755093],"scale":[0.14,5.26,0.14],"translation":[2.7,9.51,-44.91]},{"extras":{"kind":"Cone"},"mesh":6,"rotation":[-0.631131,0.0,0.177506,0.755093],"scale":[0.77,0.77,0.77],"translation":[3.47,9.12,-42.15]},{"extras":{"kind":"Sphere"},"mesh":4,"scale":[0.77,0.77,0.77],"translation":[1.93,9.91,-47.67]},{"extras":{"kind":"Cyl"},"mesh":2,"rotation":[-0.200435,0.0,0.097991,0.974794],"scale":[0.16,5.66,0.16],"translation":[2.92,21.05,-44.89]},{"extras":{"kind":"Sphere"},"mesh":4,"scale":[0.83,0.83,0.83],"translation":[3.52,18.25,-43.67]},{"extras":{"kind":"Cone"},"mesh":6,"rotation":[-0.200435,0.0,0.097991,0.974794],"scale":[0.83,0.83,0.83],"translation":[2.31,23.85,-46.11]},{"extras":{"kind":"Cyl"},"mesh":1,"rotation":[-0.163727,0.0,0.05922,0.984727],"scale":[0.19,6.05,0.19],"translation":[8.67,21.36,-47.96]},{"extras":{"kind":"Cyl"},"mesh":2,"rotation":[-0.654485,0.0,0.30207,0.693111],"scale":[0.16,5.9,0.16],"translation":[8.45,0.65,-52.14]},{"extras":{"kind":"Box"},"mesh":5,"rotation":[-0.654485,0.0,0.30207,0.693111],"scale":[0.72,0.72,0.72],"translation":[9.82,0.78,-49.2]},{"extras":{"kind":"Sphere"},"mesh":4,"scale":[0.87,0.87,0.87],"translation":[7.07,0.51,-55.08]},{"extras":{"kind":"Cyl"},"mesh":2,"rotation":[-0.198709,0.0,-0.318684,0.926798],"scale":[0.21,7.65,0.21],"translation":[11.99,-9.97,-55.58]},{"extras":{"kind":"Sphere"},"mesh":3,"scale":[1.12,1.12,1.12],"translation":[11.99,-9.97,-55.58]},{"extras":{"kind":"Cyl"},"mesh":1,"rotation":[0.121413,0.0,-0.384475,0.915116],"scale":[0.22,6.95,0.22],"translation":[15.48,-10.26,-56.05]},{"extras":{"kind":"Cyl"},"mesh":1,"rotation":[0.428904,0.0,-0.259337,0.865324],"scale":[0.22,6.9,0.22],"translation":[19.39,-10.89,-54.58]},{"extras":{"kind":"Cyl"},"mesh":1,"rotation":[0.603709,0.0,-0.04226,0.796084],"scale":[0.21,6.77,0.21],"translation":[22.45,-12.71,-51.36]},{"extras":{"kind":"Cyl"},"mesh":1,"rotation":[0.644972,-0.0,0.297679,0.703845],"scale":[0.21,6.78,0.21],"translation":[23.26,-15.1,-47.56]},{"extras":{"kind":"Cyl"},"mesh":2,"rotation":[0.441373,-0.0,0.62401,0.644827],"scale":[0.19,6.78,0.19],"translation":[22.22,-18.73,-44.78]},{"extras":{"kind":"Sphere"},"mesh":3,"scale":[0.99,0.99,0.99],"translation":[22.22,-18.73,-44.78]},{"extras":{"kind":"Cyl"},"mesh":1,"rotation":[-0.094106,0.0,0.461121,0.882333],"scale":[0.22,6.84,0.22],"translation":[-10.5,8.87,-56.95]},{"extras":{"kind":"Cyl"},"mesh":1,"rotation":[0.189786,-0.0,0.411202,0.891568],"scale":[0.22,6.86,0.22],"translation":[-10.77,13.49,-57.53]},{"extras":{"kind":"Cyl"},"mesh":1,"rotation":[0.464642,-0.0,0.313493,0.828148],"scale":[0.22,6.89,0.22],"translation":[-9.87,17.62,-55.82]},{"extras":{"kind":"Cyl"},"mesh":1,"rotation":[0.694604,-0.0,0.1647,0.700285],"scale":[0.22,6.86,0.22],"translation":[-7.86,20.44,-52.97]},{"extras":{"kind":"Cyl"},"mesh":1,"rotation":[0.861328,0.0,-0.043066,0.50622],"scale":[0.21,6.83,0.21],"translation":[-5.18,20.96,-49.39]},{"extras":{"kind":"Cyl"},"mesh":2,"rotation":[0.009473,0.0,-0.947349,0.320063],"scale":[0.17,6.07,0.17],"translation":[0.45,21.34,-50.25]},{"extras":{"kind":"Sphere"},"mesh":4,"scale":[0.89,0.89,0.89],"translation":[-1.57,24.0,-50.27]},{"extras":{"kind":"Box"},"mesh":5,"rotation":[0.009473,0.0,-0.947349,0.320063],"scale":[0.74,0.74,0.74],"translation":[2.47,18.67,-50.24]}],"scene":0,"scenes":[{"nodes":[0]}]}
