<?xml version="1.0" encoding="UTF-8"?>
<svg xmlns="http://www.w3.org/2000/svg" version="1.1" viewBox="0 0 226.00 101.00">
  <text x="206.33" y="24.45" fill="#000000" font-family="Times-Bold" font-size="13.00" text-anchor="middle" dominant-baseline="middle">C</text>
  <text x="177.25" y="26.67" fill="#000000" font-family="Times-Bold" font-size="13.00" text-anchor="middle" dominant-baseline="middle">A</text>
  <text x="148.16" y="28.89" fill="#000000" font-family="Times-Bold" font-size="13.00" text-anchor="middle" dominant-baseline="middle">C</text>
  <text x="119.08" y="31.11" fill="#000000" font-family="Times-Bold" font-size="13.00" text-anchor="middle" dominant-baseline="middle">G</text>
  <text x="90.00" y="33.33" fill="#000000" font-family="Times-Bold" font-size="13.00" text-anchor="middle" dominant-baseline="middle">T</text>
  <text x="142.25" y="85.00" fill="#000000" font-family="Times-Bold" font-size="13.00" text-anchor="middle" dominant-baseline="middle">G</text>
  <text x="142.25" y="85.00" fill="#000000" font-family="Times-Bold" font-size="13.00" text-anchor="middle" dominant-baseline="middle">T</text>
  <text x="142.25" y="85.00" fill="#000000" font-family="Times-Bold" font-size="13.00" text-anchor="middle" dominant-baseline="middle">T</text>
  <text x="142.25" y="85.00" fill="#000000" font-family="Times-Bold" font-size="13.00" text-anchor="middle" dominant-baseline="middle">G</text>
  <text x="142.25" y="85.00" fill="#000000" font-family="Times-Bold" font-size="13.00" text-anchor="middle" dominant-baseline="middle">T</text>
  <text x="142.25" y="85.00" fill="#000000" font-family="Times-Bold" font-size="13.00" text-anchor="middle" dominant-baseline="middle">C</text>
  <text x="142.25" y="85.00" fill="#000000" font-family="Times-Bold" font-size="13.00" text-anchor="middle" dominant-baseline="middle">T</text>
  <text x="142.25" y="85.00" fill="#000000" font-family="Times-Bold" font-size="13.00" text-anchor="middle" dominant-baseline="middle">C</text>
  <text x="142.25" y="85.00" fill="#000000" font-family="Times-Bold" font-size="13.00" text-anchor="middle" dominant-baseline="middle">T</text>
  <text x="142.25" y="85.00" fill="#000000" font-family="Times-Bold" font-size="13.00" text-anchor="middle" dominant-baseline="middle">C</text>
  <text x="142.25" y="85.00" fill="#000000" font-family="Times-Bold" font-size="13.00" text-anchor="middle" dominant-baseline="middle">T</text>
  <text x="142.25" y="85.00" fill="#000000" font-family="Times-Bold" font-size="13.00" text-anchor="middle" dominant-baseline="middle">G</text>
  <text x="142.25" y="85.00" fill="#000000" font-family="Times-Bold" font-size="13.00" text-anchor="middle" dominant-baseline="middle">T</text>
  <text x="142.25" y="85.00" fill="#000000" font-family="Times-Bold" font-size="13.00" text-anchor="middle" dominant-baseline="middle">G</text>
  <text x="142.25" y="85.00" fill="#000000" font-family="Times-Bold" font-size="13.00" text-anchor="middle" dominant-baseline="middle">T</text>
  <text x="142.25" y="85.00" fill="#000000" font-family="Times-Bold" font-size="13.00" text-anchor="middle" dominant-baseline="middle">C</text>
  <text x="20.00" y="33.33" fill="#000000" font-family="Times-Bold" font-size="13.00" text-anchor="middle" dominant-baseline="middle">T</text>
  <text x="49.08" y="31.11" fill="#000000" font-family="Times-Bold" font-size="13.00" text-anchor="middle" dominant-baseline="middle">C</text>
  <text x="78.16" y="28.89" fill="#000000" font-family="Times-Bold" font-size="13.00" text-anchor="middle" dominant-baseline="middle">G</text>
  <text x="107.25" y="26.67" fill="#000000" font-family="Times-Bold" font-size="13.00" text-anchor="middle" dominant-baseline="middle">T</text>
  <text x="136.33" y="24.45" fill="#000000" font-family="Times-Bold" font-size="13.00" text-anchor="middle" dominant-baseline="middle">G</text>
  <text x="216.30" y="23.69" fill="#ff0000" font-family="Times" font-size="11.00" text-anchor="middle" dominant-baseline="middle">5&apos;</text>
  <text x="146.30" y="23.69" fill="#ff0000" font-family="Times" font-size="11.00" text-anchor="middle" dominant-baseline="middle">3&apos;</text>
  <line x1="206.33" y1="20.45" x2="177.25" y2="22.67" stroke="#009100" stroke-width="0.005" fill="none" stroke-linecap="round" stroke-linejoin="round" />
  <line x1="177.25" y1="22.67" x2="148.16" y2="24.89" stroke="#009100" stroke-width="0.005" fill="none" stroke-linecap="round" stroke-linejoin="round" />
  <line x1="148.16" y1="24.89" x2="119.08" y2="27.11" stroke="#009100" stroke-width="0.005" fill="none" stroke-linecap="round" stroke-linejoin="round" />
  <line x1="119.08" y1="27.11" x2="90.00" y2="29.33" stroke="#009100" stroke-width="0.005" fill="none" stroke-linecap="round" stroke-linejoin="round" />
  <line x1="90.00" y1="29.33" x2="142.25" y2="81.00" stroke="#009100" stroke-width="0.005" fill="none" stroke-linecap="round" stroke-linejoin="round" />
  <line x1="142.25" y1="81.00" x2="142.25" y2="81.00" stroke="#009100" stroke-width="0.005" fill="none" stroke-linecap="round" stroke-linejoin="round" />
  <line x1="142.25" y1="81.00" x2="142.25" y2="81.00" stroke="#009100" stroke-width="0.005" fill="none" stroke-linecap="round" stroke-linejoin="round" />
  <line x1="142.25" y1="81.00" x2="142.25" y2="81.00" stroke="#009100" stroke-width="0.005" fill="none" stroke-linecap="round" stroke-linejoin="round" />
  <line x1="142.25" y1="81.00" x2="142.25" y2="81.00" stroke="#009100" stroke-width="0.005" fill="none" stroke-linecap="round" stroke-linejoin="round" />
  <line x1="142.25" y1="81.00" x2="142.25" y2="81.00" stroke="#009100" stroke-width="0.005" fill="none" stroke-linecap="round" stroke-linejoin="round" />
  <line x1="142.25" y1="81.00" x2="142.25" y2="81.00" stroke="#009100" stroke-width="0.005" fill="none" stroke-linecap="round" stroke-linejoin="round" />
  <line x1="142.25" y1="81.00" x2="142.25" y2="81.00" stroke="#009100" stroke-width="0.005" fill="none" stroke-linecap="round" stroke-linejoin="round" />
  <line x1="142.25" y1="81.00" x2="142.25" y2="81.00" stroke="#009100" stroke-width="0.005" fill="none" stroke-linecap="round" stroke-linejoin="round" />
  <line x1="142.25" y1="81.00" x2="142.25" y2="81.00" stroke="#009100" stroke-width="0.005" fill="none" stroke-linecap="round" stroke-linejoin="round" />
  <line x1="142.25" y1="81.00" x2="142.25" y2="81.00" stroke="#009100" stroke-width="0.005" fill="none" stroke-linecap="round" stroke-linejoin="round" />
  <line x1="142.25" y1="81.00" x2="142.25" y2="81.00" stroke="#009100" stroke-width="0.005" fill="none" stroke-linecap="round" stroke-linejoin="round" />
  <line x1="142.25" y1="81.00" x2="142.25" y2="81.00" stroke="#009100" stroke-width="0.005" fill="none" stroke-linecap="round" stroke-linejoin="round" />
  <line x1="142.25" y1="81.00" x2="142.25" y2="81.00" stroke="#009100" stroke-width="0.005" fill="none" stroke-linecap="round" stroke-linejoin="round" />
  <line x1="142.25" y1="81.00" x2="142.25" y2="81.00" stroke="#009100" stroke-width="0.005" fill="none" stroke-linecap="round" stroke-linejoin="round" />
  <line x1="142.25" y1="81.00" x2="142.25" y2="81.00" stroke="#009100" stroke-width="0.005" fill="none" stroke-linecap="round" stroke-linejoin="round" />
  <line x1="142.25" y1="81.00" x2="20.00" y2="29.33" stroke="#009100" stroke-width="0.005" fill="none" stroke-linecap="round" stroke-linejoin="round" />
  <line x1="20.00" y1="29.33" x2="49.08" y2="27.11" stroke="#009100" stroke-width="0.005" fill="none" stroke-linecap="round" stroke-linejoin="round" />
  <line x1="49.08" y1="27.11" x2="78.16" y2="24.89" stroke="#009100" stroke-width="0.005" fill="none" stroke-linecap="round" stroke-linejoin="round" />
  <line x1="78.16" y1="24.89" x2="107.25" y2="22.67" stroke="#009100" stroke-width="0.005" fill="none" stroke-linecap="round" stroke-linejoin="round" />
  <line x1="107.25" y1="22.67" x2="136.33" y2="20.45" stroke="#009100" stroke-width="0.005" fill="none" stroke-linecap="round" stroke-linejoin="round" />
  <text x="96.25" y="26.67" fill="#0000ff" font-family="Times" font-size="8.00" text-anchor="middle" dominant-baseline="middle">25</text>
  <text x="99.00" y="33.33" fill="#0000ff" font-family="Times" font-size="8.00" text-anchor="middle" dominant-baseline="middle">5</text>
  <text x="142.25" y="97.00" fill="#0000ff" font-family="Times" font-size="8.00" text-anchor="middle" dominant-baseline="middle">10</text>
  <text x="142.25" y="97.00" fill="#0000ff" font-family="Times" font-size="8.00" text-anchor="middle" dominant-baseline="middle">15</text>
  <text x="142.25" y="97.00" fill="#0000ff" font-family="Times" font-size="8.00" text-anchor="middle" dominant-baseline="middle">20</text>
  <line x1="198.33" y1="22.45" x2="144.33" y2="22.45" stroke="#000000" stroke-width="1.000" fill="none" stroke-linecap="round" stroke-linejoin="round" />
  <line x1="198.33" y1="18.45" x2="144.33" y2="18.45" stroke="#000000" stroke-width="1.000" fill="none" stroke-linecap="round" stroke-linejoin="round" />
  <line x1="169.25" y1="22.67" x2="115.25" y2="22.67" stroke="#000000" stroke-width="1.000" fill="none" stroke-linecap="round" stroke-linejoin="round" />
  <line x1="140.16" y1="26.89" x2="86.16" y2="26.89" stroke="#000000" stroke-width="1.000" fill="none" stroke-linecap="round" stroke-linejoin="round" />
  <line x1="140.16" y1="22.89" x2="86.16" y2="22.89" stroke="#000000" stroke-width="1.000" fill="none" stroke-linecap="round" stroke-linejoin="round" />
  <line x1="111.08" y1="29.11" x2="57.08" y2="29.11" stroke="#000000" stroke-width="1.000" fill="none" stroke-linecap="round" stroke-linejoin="round" />
  <line x1="111.08" y1="25.11" x2="57.08" y2="25.11" stroke="#000000" stroke-width="1.000" fill="none" stroke-linecap="round" stroke-linejoin="round" />
  <line x1="82.00" y1="29.32" x2="58.00" y2="29.33" stroke="#000000" stroke-width="1.000" fill="none" stroke-linecap="round" stroke-linejoin="round" />
  <path d="M58.00,29.33 A3.00,3.00 0 1 0 52.00,29.33 A3.00,3.00 0 1 0 58.00,29.33 Z" fill="#000000" stroke="none" />
  <path d="M58.00,29.33 A3.00,3.00 0 1 0 52.00,29.33 A3.00,3.00 0 1 0 58.00,29.33 Z" fill="none" stroke="#000000" stroke-width="1.000" stroke-linecap="round" stroke-linejoin="round" />
  <line x1="52.00" y1="29.33" x2="28.00" y2="29.33" stroke="#000000" stroke-width="1.000" fill="none" stroke-linecap="round" stroke-linejoin="round" />
  <line x1="142.25" y1="81.00" x2="139.25" y2="81.00" stroke="#000000" stroke-width="1.000" fill="none" stroke-linecap="round" stroke-linejoin="round" />
  <path d="M139.25,84.00 L139.25,78.00 L145.25,81.00 Z" fill="#000000" stroke="none" />
  <path d="M139.25,84.00 L139.25,78.00 L145.25,81.00 Z" fill="none" stroke="#000000" stroke-width="1.000" stroke-linecap="round" stroke-linejoin="round" />
  <line x1="145.25" y1="81.00" x2="142.25" y2="81.00" stroke="#000000" stroke-width="1.000" fill="none" stroke-linecap="round" stroke-linejoin="round" />
  <line x1="142.25" y1="81.00" x2="139.25" y2="81.00" stroke="#000000" stroke-width="1.000" fill="none" stroke-linecap="round" stroke-linejoin="round" />
  <path d="M145.25,81.00 A3.00,3.00 0 1 0 139.25,81.00 A3.00,3.00 0 1 0 145.25,81.00 Z" fill="none" stroke="#000000" stroke-width="1.000" stroke-linecap="round" stroke-linejoin="round" />
  <line x1="145.25" y1="81.00" x2="142.25" y2="81.00" stroke="#000000" stroke-width="1.000" fill="none" stroke-linecap="round" stroke-linejoin="round" />
  <line x1="142.25" y1="83.00" x2="142.25" y2="83.00" stroke="#000000" stroke-width="1.000" fill="none" stroke-linecap="round" stroke-linejoin="round" />
  <line x1="142.25" y1="79.00" x2="142.25" y2="79.00" stroke="#000000" stroke-width="1.000" fill="none" stroke-linecap="round" stroke-linejoin="round" />
  <line x1="142.25" y1="81.00" x2="134.25" y2="81.00" stroke="#000000" stroke-width="1.000" fill="none" stroke-linecap="round" stroke-linejoin="round" />
  <path d="M139.25,84.00 L139.25,78.00 L134.25,81.00 Z" fill="#000000" stroke="none" />
  <path d="M139.25,84.00 L139.25,78.00 L134.25,81.00 Z" fill="none" stroke="#000000" stroke-width="1.000" stroke-linecap="round" stroke-linejoin="round" />
  <line x1="139.25" y1="81.00" x2="145.25" y2="81.00" stroke="#000000" stroke-width="1.000" fill="none" stroke-linecap="round" stroke-linejoin="round" />
  <path d="M145.25,84.00 L150.25,84.00 L150.25,78.00 L145.25,78.00 Z" fill="#000000" stroke="none" />
  <path d="M145.25,84.00 L150.25,84.00 L150.25,78.00 L145.25,78.00 Z" fill="none" stroke="#000000" stroke-width="1.000" stroke-linecap="round" stroke-linejoin="round" />
  <line x1="150.25" y1="81.00" x2="142.25" y2="81.00" stroke="#000000" stroke-width="1.000" fill="none" stroke-linecap="round" stroke-linejoin="round" />
  <line x1="142.25" y1="83.00" x2="142.25" y2="83.00" stroke="#000000" stroke-width="1.000" fill="none" stroke-linecap="round" stroke-linejoin="round" />
  <line x1="142.25" y1="79.00" x2="142.25" y2="79.00" stroke="#000000" stroke-width="1.000" fill="none" stroke-linecap="round" stroke-linejoin="round" />
  <line x1="142.25" y1="81.00" x2="134.25" y2="81.00" stroke="#000000" stroke-width="1.000" fill="none" stroke-linecap="round" stroke-linejoin="round" />
  <path d="M139.25,84.00 L139.25,78.00 L134.25,81.00 Z" fill="#000000" stroke="none" />
  <path d="M139.25,84.00 L139.25,78.00 L134.25,81.00 Z" fill="none" stroke="#000000" stroke-width="1.000" stroke-linecap="round" stroke-linejoin="round" />
  <line x1="139.25" y1="81.00" x2="145.25" y2="81.00" stroke="#000000" stroke-width="1.000" fill="none" stroke-linecap="round" stroke-linejoin="round" />
  <path d="M145.25,84.00 L150.25,84.00 L150.25,78.00 L145.25,78.00 Z" fill="#000000" stroke="none" />
  <path d="M145.25,84.00 L150.25,84.00 L150.25,78.00 L145.25,78.00 Z" fill="none" stroke="#000000" stroke-width="1.000" stroke-linecap="round" stroke-linejoin="round" />
  <line x1="150.25" y1="81.00" x2="142.25" y2="81.00" stroke="#000000" stroke-width="1.000" fill="none" stroke-linecap="round" stroke-linejoin="round" />
  <line x1="142.25" y1="83.00" x2="142.25" y2="83.00" stroke="#000000" stroke-width="1.000" fill="none" stroke-linecap="round" stroke-linejoin="round" />
  <line x1="142.25" y1="79.00" x2="142.25" y2="79.00" stroke="#000000" stroke-width="1.000" fill="none" stroke-linecap="round" stroke-linejoin="round" />
  <line x1="136.25" y1="81.00" x2="148.25" y2="81.00" stroke="#ff0000" stroke-width="1.500" fill="none" stroke-linecap="round" stroke-linejoin="round" stroke-dasharray="2.00 4.00" />
  <line x1="136.25" y1="81.00" x2="148.25" y2="81.00" stroke="#ff0000" stroke-width="1.500" fill="none" stroke-linecap="round" stroke-linejoin="round" stroke-dasharray="2.00 4.00" />
  <line x1="136.25" y1="81.00" x2="148.25" y2="81.00" stroke="#ff0000" stroke-width="1.500" fill="none" stroke-linecap="round" stroke-linejoin="round" stroke-dasharray="2.00 4.00" />
  <line x1="136.25" y1="81.00" x2="148.25" y2="81.00" stroke="#ff0000" stroke-width="1.500" fill="none" stroke-linecap="round" stroke-linejoin="round" stroke-dasharray="2.00 4.00" />
</svg>
