#VRML V2.0 utf8

PROTO Label [
  field SFVec3f p 0 0 0
  field SFFloat sz 1.5
  field MFString c []
  field SFVec3f o 0 0 0
  field SFColor dc 0 0 0
  field SFColor ec 0 0 0
  field SFColor sc 0.0 0.0 0.0
  field SFFloat sh 1.0
  field SFFloat tr 0
]
{
  Transform {
    translation IS p
    children [
      Billboard {
        axisOfRotation 0 0 0
        children [
          Transform {
            translation IS o
            children [
              Shape {
                appearance Appearance {
                  material Material {
                    diffuseColor IS dc
                    emissiveColor IS ec
                    specularColor IS sc
                    shininess IS sh
                    transparency IS tr
                  }
                }
                geometry Text {
                  string IS c
                  fontStyle FontStyle {
                    style "BOLD"
                    justify "MIDDLE"
                    size IS sz
                  }
                }
              }
            ]
          }
        ]
      }
    ]
  }
}
PROTO Sphere [
  exposedField SFVec3f p 0 0 0
  field SFFloat rad 1.0
  field SFColor dc 1 0 0 
  field SFColor ec 0 0 0
  field SFColor sc 0 0 0
  field SFFloat sh 1
  field SFFloat tr 0
]
{
  Transform {
    translation IS p
    children [
      Shape {
        appearance Appearance {
          material Material {
            diffuseColor IS dc
            emissiveColor IS ec
            specularColor IS sc
            shininess IS sh
            transparency IS tr
          }
        }
        geometry Sphere {
          radius IS rad
        }
      }
    ]
  }
}
PROTO Box [
  exposedField SFVec3f p 0 0 0
  exposedField SFRotation r 0 0 1 0
  exposedField SFVec3f s 1 1 1
  field SFColor dc 1 0 0 
  field SFColor ec 0 0 0
  field SFColor sc 0 0 0
  field SFFloat sh 1
  field SFFloat tr 0
]
{
  Transform {
    translation IS p
    rotation IS r
    scale IS s
    children [
      Shape {
        appearance Appearance {
          material Material {
            diffuseColor IS dc
            emissiveColor IS ec
            specularColor IS sc
            shininess IS sh
            transparency IS tr
          }
        }
        geometry Box { }
      }
    ]
  }
}
PROTO Cyl [
  exposedField SFVec3f p 0 0 0
  exposedField SFRotation r 0 0 1 0
  exposedField SFVec3f s 1 1 1
  field SFColor dc 1 0 0
  field SFColor ec 0 0 0
  field SFColor sc 0 0 0
  field SFFloat sh 1
  field SFFloat tr 0
]
{
  Transform {
    translation IS p
    rotation IS r
    scale IS s
    children [
      Shape {
        appearance Appearance {
          material Material {
            diffuseColor IS dc
            emissiveColor IS ec
            specularColor IS sc
            shininess IS sh
            transparency IS tr
          }
        }
        geometry Cylinder { }
      }
    ]
  }
}
PROTO Cone [
  exposedField SFVec3f p 0 0 0
  exposedField SFRotation r 0 0 1 0
  exposedField SFVec3f s 1 1 1
  field SFColor dc 1 0 0 
  field SFColor ec 0 0 0
  field SFColor sc 0 0 0
  field SFFloat sh 1
  field SFFloat tr 0
]
{
  Transform {
    translation IS p
    rotation IS r
    scale IS s
    children [
      Shape {
        appearance Appearance {
          material Material {
            diffuseColor IS dc
            emissiveColor IS ec
            specularColor IS sc
            shininess IS sh
            transparency IS tr
          }
        }
        geometry Cone {
        }
      }
    ]
  }
}
Collision {
  collide FALSE
  children [
    
    Shape {
      appearance Appearance {
        material Material {
          diffuseColor 0.71 0.34 0.88
          transparency 1
        }
      }
      geometry IndexedLineSet {
        coord Coordinate {
          point [
            -15.43 3.88 -40.31, -15.02 1.58 -45.06, -14.58 0.60 -51.18
            -9.91 1.98 -54.98, -5.02 4.47 -57.44, 0.59 7.02 -56.81, 5.65 6.59 -53.58
            7.42 1.03 -55.49, 6.82 -2.73 -57.17, 10.67 -1.33 -53.56, 11.90 -1.85 -47.36
            11.22 -6.60 -43.85, 10.64 -12.69 -44.44, 14.91 -16.47 -48.16
            11.26 -17.25 -52.77, 5.43 -18.74 -53.79, 1.66 -14.60 -52.25
            1.22 -9.25 -49.47, 0.53 -3.91 -47.75, 0.10 -0.79 -42.64, 1.08 4.39 -39.73
            2.06 9.94 -41.99, 0.54 13.27 -46.82, -2.83 14.96 -51.77, -8.22 14.11 -54.65
            -13.82 11.94 -54.98, -18.87 10.44 -52.00
          ]
        }
        coordIndex [
          0 1 2 3 4 5 6 7 8 9 10 11 12 13 14 15 16 17 18 19 20 21 22 23
          24 25 26 -1
        ]
        colorPerVertex FALSE
        color Color {
          color [
            0.71 0.34 0.88
          ]
        }
        colorIndex [
          0
        ]
      }
    }
Label { p  -15.43 3.88 -40.31 c "  U" dc  0.000, 1.000, 1.000}
Label { p  -15.02 1.58 -45.06 c "  G" dc  0.000, 1.000, 0.000}
Label { p  -14.58 0.60 -51.18 c "  C" dc  0.000, 0.000, 1.000}
Label { p  -9.91 1.98 -54.98 c "  U" dc  0.000, 1.000, 1.000}
Label { p  -5.02 4.47 -57.44 c "  C" dc  0.000, 0.000, 1.000}
Label { p  0.59 7.02 -56.81 c "  C" dc  0.000, 0.000, 1.000}
Label { p  5.65 6.59 -53.58 c "  U" dc  0.000, 1.000, 1.000}
Label { p  7.42 1.03 -55.49 c "  A" dc  1.000, 0.000, 0.000}
Label { p  6.82 -2.73 -57.17 c "  G" dc  0.000, 1.000, 0.000}
Label { p  10.67 -1.33 -53.56 c "6FU" dc  0.000, 1.000, 1.000}
Label { p  11.90 -1.85 -47.36 c "  A" dc  1.000, 0.000, 0.000}
Label { p  11.22 -6.60 -43.85 c "  C" dc  0.000, 0.000, 1.000}
Label { p  10.64 -12.69 -44.44 c "  G" dc  0.000, 1.000, 0.000}
Label { p  14.91 -16.47 -48.16 c "  A" dc  1.000, 0.000, 0.000}
Label { p  11.26 -17.25 -52.77 c "  G" dc  0.000, 1.000, 0.000}
Label { p  5.43 -18.74 -53.79 c "  A" dc  1.000, 0.000, 0.000}
Label { p  1.66 -14.60 -52.25 c "  G" dc  0.000, 1.000, 0.000}
Label { p  1.22 -9.25 -49.47 c "  G" dc  0.000, 1.000, 0.000}
Label { p  0.53 -3.91 -47.75 c "  A" dc  1.000, 0.000, 0.000}
Label { p  0.10 -0.79 -42.64 c "  C" dc  0.000, 0.000, 1.000}
Label { p  1.08 4.39 -39.73 c "  C" dc  0.000, 0.000, 1.000}
Label { p  2.06 9.94 -41.99 c "  G" dc  0.000, 1.000, 0.000}
Label { p  0.54 13.27 -46.82 c "  G" dc  0.000, 1.000, 0.000}
Label { p  -2.83 14.96 -51.77 c "  A" dc  1.000, 0.000, 0.000}
Label { p  -8.22 14.11 -54.65 c "  G" dc  0.000, 1.000, 0.000}
Label { p  -13.82 11.94 -54.98 c "  U" dc  0.000, 1.000, 1.000}
Label { p  -18.87 10.44 -52.00 c "  G" dc  0.000, 1.000, 0.000}
Cyl {p -14.42 6.76 -50.02  r  -0.99 0.00 -0.12 0.77  s  0.18 6.54 0.18  tr  0.60}
 Sphere {p -14.42 6.76 -50.02  rad  0.96   dc 1 0 0  tr  0.00}
 Cyl {p -11.40 7.35 -52.92  r  -0.48 0.00 -0.88 0.49  s  0.22 6.97 0.22  tr  0.00}
 Cyl {p -6.37 8.47 -53.37  r  0.41 0.00 -0.91 0.54  s  0.22 6.88 0.22  tr  0.00}
 Cyl {p -2.24 8.87 -52.13  r  0.89 0.00 -0.46 0.94  s  0.21 6.76 0.21  tr  0.00}
 Cyl {p 1.33 8.48 -49.40  r  1.00 0.00 -0.10 1.38  s  0.22 6.90 0.22  tr  0.00}
 Cyl {p 8.74 -2.03 -55.37  r  0.68 0.00 -0.73 1.31  s  0.07 2.48 0.07  tr  0.60}
 Cone {p 7.78 -2.38 -56.27  r  0.68 0.00 -0.73 1.31  s  0.36 0.36 0.36   dc 1 0 0  tr  0.00}
 Box {p 9.71 -1.68 -54.46  r  0.68 0.00 -0.73 1.31  s  0.30 0.30 0.30   dc 1 0 0  tr  0.00}
 Cyl {p 5.60 -2.62 -50.66  r  0.50 -0.00 0.87 1.79  s  0.15 5.44 0.15  tr  0.60}
 Sphere {p 8.13 -1.98 -52.11  rad  0.80   dc 1 1 0  tr  0.60}
 Box {p 3.06 -3.27 -49.20  r  0.50 -0.00 0.87 1.79  s  0.67 0.67 0.67   dc 1 1 0  tr  0.60}
 Cyl {p 6.56 -5.55 -48.41  r  -0.19 0.00 0.98 2.17  s  0.16 5.98 0.16  tr  0.60}
 Box {p 9.23 -3.70 -47.88  r  -0.19 0.00 0.98 2.17  s  0.73 0.73 0.73   dc 1 1 0  tr  0.60}
 Cone {p 3.89 -7.40 -48.94  r  -0.19 0.00 0.98 2.17  s  0.88 0.88 0.88   dc 1 1 0  tr  0.60}
 Cyl {p 6.44 -10.60 -48.05  r  -0.66 0.00 0.75 2.13  s  0.21 6.83 0.21  tr  0.00}
 Cyl {p 8.03 -15.71 -49.11  r  -0.87 0.00 0.49 2.09  s  0.15 5.59 0.15  tr  0.60}
 Cone {p 9.34 -14.20 -46.78  r  -0.87 0.00 0.49 2.09  s  0.82 0.82 0.82   dc 1 1 0  tr  0.60}
 Box {p 6.73 -17.23 -51.45  r  -0.87 0.00 0.49 2.09  s  0.68 0.68 0.68   dc 1 1 0  tr  0.60}
 
  ]
}
NavigationInfo {
  speed 4
  type [
    "EXAMINE" "FLY"
  ]
}
