{"accessors":[{"bufferView":0,"componentType":5126,"count":6,"max":[7.24,4.17,-41.88],"min":[-4.81,-8.47,-55.5],"type":"VEC3"},{"bufferView":1,"componentType":5126,"count":6,"max":[6.82,6.77,-44.09],"min":[-10.16,-2.09,-56.47],"type":"VEC3"},{"bufferView":2,"componentType":5126,"count":34,"max":[1.0,1.0,1.0],"min":[-1.0,-1.0,-1.0],"type":"VEC3"},{"bufferView":3,"componentType":5126,"count":34,"type":"VEC3"},{"bufferView":4,"componentType":5123,"count":192,"type":"SCALAR"}],"asset":{"generator":"rnaview_vrml_gltf vrml-gltf-v1","version":"2.0"},"bufferViews":[{"buffer":0,"byteLength":72,"byteOffset":0,"target":34962},{"buffer":1,"byteLength":72,"byteOffset":0,"target":34962},{"buffer":2,"byteLength":408,"byteOffset":0,"target":34962},{"buffer":2,"byteLength":408,"byteOffset":408,"target":34962},{"buffer":2,"byteLength":384,"byteOffset":816,"target":34963}],"buffers":[{"byteLength":72,"uri":"data:application/octet-stream;base64,"},{"byteLength":72,"uri":"data:application/octet-stream;base64,"},{"byteLength":1200,"uri":"data:application/octet-stream;base64,"}],"materials":[{"alphaMode":"BLEND","pbrMetallicRoughness":{"baseColorFactor":[0.71,0.34,0.88,0.0],"metallicFactor":0.0,"roughnessFactor":1.0}},{"alphaMode":"BLEND","pbrMetallicRoughness":{"baseColorFactor":[1.0,1.0,0.5,0.0],"metallicFactor":0.0,"roughnessFactor":1.0}},{"pbrMetallicRoughness":{"baseColorFactor":[1.0,0.0,0.0,1.0],"metallicFactor":0.0,"roughnessFactor":1.0}}],"meshes":[{"primitives":[{"attributes":{"POSITION":0},"material":0,"mode":3}]},{"primitives":[{"attributes":{"POSITION":1},"material":1,"mode":3}]},{"primitives":[{"attributes":{"NORMAL":3,"POSITION":2},"indices":4,"material":2}]}],"nodes":[{"children":[1,2,3,4,5,6,7,8,9,10,11,12,13,14,15,16,17,18,19,20],"extras":{"renderer_version":"vrml-gltf-v1","source":"vrml"}},{"extras":{"kind":"IndexedLineSet"},"mesh":0},{"extras":{"kind":"IndexedLineSet"},"mesh":1},{"extras":{"color":[0.0,0.0,1.0,1.0],"kind":"Label","text":"  C"},"translation":[-4.81,-7.11,-55.5]},{"extras":{"color":[0.0,1.0,0.0,1.0],"kind":"Label","text":"  G"},"translation":[-0.94,-8.47,-54.71]},{"extras":{"color":[0.0,0.0,1.0,1.0],"kind":"Label","text":"  C"},"translation":[2.36,-4.88,-50.1]},{"extras":{"color":[0.0,1.0,0.0,1.0],"kind":"Label","text":"  G"},"translation":[5.21,-4.69,-46.98]},{"extras":{"color":[0.0,0.0,1.0,1.0],"kind":"Label","text":"  C"},"translation":[6.71,1.28,-45.24]},{"extras":{"color":[0.0,1.0,0.0,1.0],"kind":"Label","text":"  G"},"translation":[7.24,4.17,-41.88]},{"extras":{"color":[0.0,0.0,1.0,1.0],"kind":"Label","text":"  C"},"translation":[6.82,5.78,-55.47]},{"extras":{"color":[0.0,1.0,0.0,1.0],"kind":"Label","text":"  G"},"translation":[2.97,6.77,-56.47]},{"extras":{"color":[0.0,0.0,1.0,1.0],"kind":"Label","text":"  C"},"translation":[-1.8,4.75,-52.05]},{"extras":{"color":[0.0,1.0,0.0,1.0],"kind":"Label","text":"  G"},"translation":[-5.57,5.1,-49.96]},{"extras":{"color":[0.0,0.0,1.0,1.0],"kind":"Label","text":"  C"},"translation":[-8.02,-0.61,-47.55]},{"extras":{"color":[0.0,1.0,0.0,1.0],"kind":"Label","text":"  G"},"translation":[-10.16,-2.09,-44.09]},{"extras":{"kind":"Cyl"},"mesh":2,"rotation":[0.508919,-0.0,0.234886,0.828148],"scale":[0.19,6.17,0.19],"translation":[-7.49,-4.6,-49.79]},{"extras":{"kind":"Cyl"},"mesh":2,"rotation":[0.312943,-0.0,0.308535,0.898261],"scale":[0.18,5.81,0.18],"translation":[-4.48,-4.54,-51.13]},{"extras":{"kind":"Cyl"},"mesh":2,"rotation":[0.006574,-0.0,0.328703,0.94441],"scale":[0.18,5.8,0.18],"translation":[-1.61,0.11,-50.03]},{"extras":{"kind":"Cyl"},"mesh":2,"rotation":[-0.212906,0.0,0.292295,0.932327],"scale":[0.18,5.82,0.18],"translation":[1.7,0.03,-49.51]},{"extras":{"kind":"Cyl"},"mesh":2,"rotation":[-0.511399,0.0,0.172261,0.841901],"scale":[0.19,5.93,0.19],"translation":[4.84,4.03,-50.86]},{"extras":{"kind":"Cyl"},"mesh":2,"rotation":[-0.662837,0.0,0.019885,0.748499],"scale":[0.2,6.22,0.2],"translation":[7.03,4.97,-48.68]}],"scene":0,"scenes":[{"nodes":[0]}]}
