{"accessors":[{"bufferView":0,"componentType":5126,"count":7,"max":[12.52,4.99,-49.53],"min":[-11.13,-6.99,-56.71],"type":"VEC3"},{"bufferView":1,"componentType":5126,"count":7,"max":[5.95,8.67,-43.59],"min":[-10.27,-13.21,-50.34],"type":"VEC3"},{"bufferView":2,"componentType":5126,"count":34,"max":[1.0,1.0,1.0],"min":[-1.0,-1.0,-1.0],"type":"VEC3"},{"bufferView":3,"componentType":5126,"count":34,"type":"VEC3"},{"bufferView":4,"componentType":5123,"count":192,"type":"SCALAR"},{"bufferView":5,"componentType":5126,"count":153,"max":[1.0,1.0,1.0],"min":[-1.0,-1.0,-1.0],"type":"VEC3"},{"bufferView":6,"componentType":5126,"count":153,"type":"VEC3"},{"bufferView":7,"componentType":5123,"count":768,"type":"SCALAR"}],"asset":{"generator":"rnaview_vrml_gltf vrml-gltf-v1","version":"2.0"},"bufferViews":[{"buffer":0,"byteLength":84,"byteOffset":0,"target":34962},{"buffer":1,"byteLength":84,"byteOffset":0,"target":34962},{"buffer":2,"byteLength":408,"byteOffset":0,"target":34962},{"buffer":2,"byteLength":408,"byteOffset":408,"target":34962},{"buffer":2,"byteLength":384,"byteOffset":816,"target":34963},{"buffer":3,"byteLength":1836,"byteOffset":0,"target":34962},{"buffer":3,"byteLength":1836,"byteOffset":1836,"target":34962},{"buffer":3,"byteLength":1536,"byteOffset":3672,"target":34963}],"buffers":[{"byteLength":84,"uri":"data:application/octet-stream;base64,"},{"byteLength":84,"uri":"data:application/octet-stream;base64,"},{"byteLength":1200,"uri":"data:application/octet-stream;base64,"},{"byteLength":5208,"uri":"data:application/octet-stream;base64,"}],"materials":[{"alphaMode":"BLEND","pbrMetallicRoughness":{"baseColorFactor":[0.71,0.34,0.88,0.0],"metallicFactor":0.0,"roughnessFactor":1.0}},{"alphaMode":"BLEND","pbrMetallicRoughness":{"baseColorFactor":[1.0,1.0,0.5,0.0],"metallicFactor":0.0,"roughnessFactor":1.0}},{"pbrMetallicRoughness":{"baseColorFactor":[1.0,0.0,0.0,1.0],"metallicFactor":0.0,"roughnessFactor":1.0}},{"alphaMode":"BLEND","pbrMetallicRoughness":{"baseColorFactor":[1.0,0.0,0.0,0.4],"metallicFactor":0.0,"roughnessFactor":1.0}}],"meshes":[{"primitives":[{"attributes":{"POSITION":0},"material":0,"mode":3}]},{"primitives":[{"attributes":{"POSITION":1},"material":1,"mode":3}]},{"primitives":[{"attributes":{"NORMAL":3,"POSITION":2},"indices":4,"material":2}]},{"primitives":[{"attributes":{"NORMAL":3,"POSITION":2},"indices":4,"material":3}]},{"primitives":[{"attributes":{"NORMAL":6,"POSITION":5},"indices":7,"material":2}]}],"nodes":[{"children":[1,2,3,4,5,6,7,8,9,10,11,12,13,14,15,16,17,18,19,20,21,22,23,24],"extras":{"renderer_version":"vrml-gltf-v1","source":"vrml"}},{"extras":{"kind":"IndexedLineSet"},"mesh":0},{"extras":{"kind":"IndexedLineSet"},"mesh":1},{"extras":{"color":[0.0,1.0,1.0,1.0],"kind":"Label","text":"  U"},"translation":[-11.13,-6.99,-49.53]},{"extras":{"color":[1.0,0.0,0.0,1.0],"kind":"Label","text":"  A"},"translation":[-10.01,-2.68,-53.72]},{"extras":{"color":[0.0,1.0,0.0,1.0],"kind":"Label","text":"  G"},"translation":[-7.16,2.23,-56.31]},{"extras":{"color":[0.0,0.0,1.0,1.0],"kind":"Label","text":"  C"},"translation":[-1.71,4.99,-56.71]},{"extras":{"color":[0.0,1.0,1.0,1.0],"kind":"Label","text":"  U"},"translation":[4.15,4.74,-55.72]},{"extras":{"color":[0.0,0.0,1.0,1.0],"kind":"Label","text":"  C"},"translation":[9.46,2.24,-53.73]},{"extras":{"color":[0.0,0.0,1.0,1.0],"kind":"Label","text":"  C"},"translation":[12.52,-2.88,-52.35]},{"extras":{"color":[0.0,1.0,0.0,1.0],"kind":"Label","text":"  G"},"translation":[1.87,-13.21,-50.34]},{"extras":{"color":[0.0,1.0,0.0,1.0],"kind":"Label","text":"  G"},"translation":[4.48,-9.57,-46.12]},{"extras":{"color":[0.0,1.0,0.0,1.0],"kind":"Label","text":"  G"},"translation":[5.95,-4.13,-43.78]},{"extras":{"color":[0.0,1.0,0.0,1.0],"kind":"Label","text":"  G"},"translation":[4.99,1.88,-43.59]},{"extras":{"color":[0.0,0.0,1.0,1.0],"kind":"Label","text":"  C"},"translation":[1.17,6.74,-44.42]},{"extras":{"color":[0.0,1.0,1.0,1.0],"kind":"Label","text":"  U"},"translation":[-4.33,8.67,-46.08]},{"extras":{"color":[1.0,0.0,0.0,1.0],"kind":"Label","text":"  A"},"translation":[-10.27,7.95,-47.62]},{"extras":{"kind":"Cyl"},"mesh":2,"rotation":[0.063769,0.0,-0.028731,0.997551],"scale":[0.22,6.86,0.22],"translation":[-10.7,0.48,-48.58]},{"extras":{"kind":"Cyl"},"mesh":2,"rotation":[0.274318,0.0,-0.205739,0.939373],"scale":[0.21,6.73,0.21],"translation":[-7.17,3.0,-49.9]},{"extras":{"kind":"Cyl"},"mesh":2,"rotation":[0.487064,0.0,-0.338569,0.805072],"scale":[0.22,6.91,0.22],"translation":[-2.99,4.48,-50.36]},{"extras":{"kind":"Cyl"},"mesh":2,"rotation":[0.690318,0.0,-0.356794,0.629412],"scale":[0.22,6.84,0.22],"translation":[1.64,3.43,-50.15]},{"extras":{"kind":"Cyl"},"mesh":3,"rotation":[0.881151,0.0,-0.133508,0.453596],"scale":[0.19,6.81,0.19],"translation":[5.05,0.31,-49.75]},{"extras":{"kind":"Sphere"},"mesh":4,"scale":[1.0,1.0,1.0],"translation":[5.05,0.31,-49.75]},{"extras":{"kind":"Cyl"},"mesh":2,"rotation":[0.792609,-0.0,0.51897,0.320063],"scale":[0.21,6.78,0.21],"translation":[6.97,-3.66,-49.93]},{"extras":{"kind":"Cyl"},"mesh":2,"rotation":[0.174876,-0.0,0.901992,0.394751],"scale":[0.21,6.81,0.21],"translation":[7.2,-8.04,-51.34]}],"scene":0,"scenes":[{"nodes":[0]}]}
