{"accessors":[{"bufferView":0,"componentType":5126,"count":27,"max":[14.91,14.96,-39.73],"min":[-18.87,-18.74,-57.44],"type":"VEC3"},{"bufferView":1,"componentType":5126,"count":34,"max":[1.0,1.0,1.0],"min":[-1.0,-1.0,-1.0],"type":"VEC3"},{"bufferView":2,"componentType":5126,"count":34,"type":"VEC3"},{"bufferView":3,"componentType":5123,"count":192,"type":"SCALAR"},{"bufferView":4,"componentType":5126,"count":153,"max":[1.0,1.0,1.0],"min":[-1.0,-1.0,-1.0],"type":"VEC3"},{"bufferView":5,"componentType":5126,"count":153,"type":"VEC3"},{"bufferView":6,"componentType":5123,"count":768,"type":"SCALAR"},{"bufferView":7,"componentType":5126,"count":18,"max":[1.0,1.0,1.0],"min":[-1.0,-1.0,-1.0],"type":"VEC3"},{"bufferView":8,"componentType":5126,"count":18,"type":"VEC3"},{"bufferView":9,"componentType":5123,"count":96,"type":"SCALAR"},{"bufferView":10,"componentType":5126,"count":24,"max":[1.0,1.0,1.0],"min":[-1.0,-1.0,-1.0],"type":"VEC3"},{"bufferView":11,"componentType":5126,"count":24,"type":"VEC3"},{"bufferView":12,"componentType":5123,"count":36,"type":"SCALAR"}],"asset":{"generator":"rnaview_vrml_gltf vrml-gltf-v1","version":"2.0"},"bufferViews":[{"buffer":0,"byteLength":324,"byteOffset":0,"target":34962},{"buffer":1,"byteLength":408,"byteOffset":0,"target":34962},{"buffer":1,"byteLength":408,"byteOffset":408,"target":34962},{"buffer":1,"byteLength":384,"byteOffset":816,"target":34963},{"buffer":2,"byteLength":1836,"byteOffset":0,"target":34962},{"buffer":2,"byteLength":1836,"byteOffset":1836,"target":34962},{"buffer":2,"byteLength":1536,"byteOffset":3672,"target":34963},{"buffer":3,"byteLength":216,"byteOffset":0,"target":34962},{"buffer":3,"byteLength":216,"byteOffset":216,"target":34962},{"buffer":3,"byteLength":192,"byteOffset":432,"target":34963},{"buffer":4,"byteLength":288,"byteOffset":0,"target":34962},{"buffer":4,"byteLength":288,"byteOffset":288,"target":34962},{"buffer":4,"byteLength":72,"byteOffset":576,"target":34963}],"buffers":[{"byteLength":324,"uri":"data:application/octet-stream;base64,"},{"byteLength":1200,"uri":"data:application/octet-stream;base64,"},{"byteLength":5208,"uri":"data:application/octet-stream;base64,"},{"byteLength":624,"uri":"data:application/octet-stream;base64,"},{"byteLength":648,"uri":"data:application/octet-stream;base64,"}],"materials":[{"alphaMode":"BLEND","pbrMetallicRoughness":{"baseColorFactor":[0.71,0.34,0.88,0.0],"metallicFactor":0.0,"roughnessFactor":1.0}},{"alphaMode":"BLEND","pbrMetallicRoughness":{"baseColorFactor":[1.0,0.0,0.0,0.4],"metallicFactor":0.0,"roughnessFactor":1.0}},{"pbrMetallicRoughness":{"baseColorFactor":[1.0,0.0,0.0,1.0],"metallicFactor":0.0,"roughnessFactor":1.0}},{"alphaMode":"BLEND","pbrMetallicRoughness":{"baseColorFactor":[1.0,1.0,0.0,0.4],"metallicFactor":0.0,"roughnessFactor":1.0}}],"meshes":[{"primitives":[{"attributes":{"POSITION":0},"material":0,"mode":3}]},{"primitives":[{"attributes":{"NORMAL":2,"POSITION":1},"indices":3,"material":1}]},{"primitives":[{"attributes":{"NORMAL":5,"POSITION":4},"indices":6,"material":2}]},{"primitives":[{"attributes":{"NORMAL":2,"POSITION":1},"indices":3,"material":2}]},{"primitives":[{"attributes":{"NORMAL":8,"POSITION":7},"indices":9,"material":2}]},{"primitives":[{"attributes":{"NORMAL":11,"POSITION":10},"indices":12,"material":2}]},{"primitives":[{"attributes":{"NORMAL":5,"POSITION":4},"indices":6,"material":3}]},{"primitives":[{"attributes":{"NORMAL":11,"POSITION":10},"indices":12,"material":3}]},{"primitives":[{"attributes":{"NORMAL":8,"POSITION":7},"indices":9,"material":3}]}],"nodes":[{"children":[1,2,3,4,5,6,7,8,9,10,11,12,13,14,15,16,17,18,19,20,21,22,23,24,25,26,27,28,29,30,31,32,33,34,35,36,37,38,39,40,41,42,43,44,45,46,47],"extras":{"renderer_version":"vrml-gltf-v1","source":"vrml"}},{"extras":{"kind":"IndexedLineSet"},"mesh":0},{"extras":{"color":[0.0,1.0,1.0,1.0],"kind":"Label","text":"  U"},"translation":[-15.43,3.88,-40.31]},{"extras":{"color":[0.0,1.0,0.0,1.0],"kind":"Label","text":"  G"},"translation":[-15.02,1.58,-45.06]},{"extras":{"color":[0.0,0.0,1.0,1.0],"kind":"Label","text":"  C"},"translation":[-14.58,0.6,-51.18]},{"extras":{"color":[0.0,1.0,1.0,1.0],"kind":"Label","text":"  U"},"translation":[-9.91,1.98,-54.98]},{"extras":{"color":[0.0,0.0,1.0,1.0],"kind":"Label","text":"  C"},"translation":[-5.02,4.47,-57.44]},{"extras":{"color":[0.0,0.0,1.0,1.0],"kind":"Label","text":"  C"},"translation":[0.59,7.02,-56.81]},{"extras":{"color":[0.0,1.0,1.0,1.0],"kind":"Label","text":"  U"},"translation":[5.65,6.59,-53.58]},{"extras":{"color":[1.0,0.0,0.0,1.0],"kind":"Label","text":"  A"},"translation":[7.42,1.03,-55.49]},{"extras":{"color":[0.0,1.0,0.0,1.0],"kind":"Label","text":"  G"},"translation":[6.82,-2.73,-57.17]},{"extras":{"color":[0.0,1.0,1.0,1.0],"kind":"Label","text":"6FU"},"translation":[10.67,-1.33,-53.56]},{"extras":{"color":[1.0,0.0,0.0,1.0],"kind":"Label","text":"  A"},"translation":[11.9,-1.85,-47.36]},{"extras":{"color":[0.0,0.0,1.0,1.0],"kind":"Label","text":"  C"},"translation":[11.22,-6.6,-43.85]},{"extras":{"color":[0.0,1.0,0.0,1.0],"kind":"Label","text":"  G"},"translation":[10.64,-12.69,-44.44]},{"extras":{"color":[1.0,0.0,0.0,1.0],"kind":"Label","text":"  A"},"translation":[14.91,-16.47,-48.16]},{"extras":{"color":[0.0,1.0,0.0,1.0],"kind":"Label","text":"  G"},"translation":[11.26,-17.25,-52.77]},{"extras":{"color":[1.0,0.0,0.0,1.0],"kind":"Label","text":"  A"},"translation":[5.43,-18.74,-53.79]},{"extras":{"color":[0.0,1.0,0.0,1.0],"kind":"Label","text":"  G"},"translation":[1.66,-14.6,-52.25]},{"extras":{"color":[0.0,1.0,0.0,1.0],"kind":"Label","text":"  G"},"translation":[1.22,-9.25,-49.47]},{"extras":{"color":[1.0,0.0,0.0,1.0],"kind":"Label","text":"  A"},"translation":[0.53,-3.91,-47.75]},{"extras":{"color":[0.0,0.0,1.0,1.0],"kind":"Label","text":"  C"},"translation":[0.1,-0.79,-42.64]},{"extras":{"color":[0.0,0.0,1.0,1.0],"kind":"Label","text":"  C"},"translation":[1.08,4.39,-39.73]},{"extras":{"color":[0.0,1.0,0.0,1.0],"kind":"Label","text":"  G"},"translation":[2.06,9.94,-41.99]},{"extras":{"color":[0.0,1.0,0.0,1.0],"kind":"Label","text":"  G"},"translation":[0.54,13.27,-46.82]},{"extras":{"color":[1.0,0.0,0.0,1.0],"kind":"Label","text":"  A"},"translation":[-2.83,14.96,-51.77]},{"extras":{"color":[0.0,1.0,0.0,1.0],"kind":"Label","text":"  G"},"translation":[-8.22,14.11,-54.65]},{"extras":{"color":[0.0,1.0,1.0,1.0],"kind":"Label","text":"  U"},"translation":[-13.82,11.94,-54.98]},{"extras":{"color":[0.0,1.0,0.0,1.0],"kind":"Label","text":"  G"},"translation":[-18.87,10.44,-52.0]},{"extras":{"kind":"Cyl"},"mesh":1,"rotation":[-0.37283,0.0,-0.045192,0.926798],"scale":[0.18,6.54,0.18],"translation":[-14.42,6.76,-50.02]},{"extras":{"kind":"Sphere"},"mesh":2,"scale":[0.96,0.96,0.96],"translation":[-14.42,6.76,-50.02]},{"extras":{"kind":"Cyl"},"mesh":3,"rotation":[-0.116149,0.0,-0.212939,0.970137],"scale":[0.22,6.97,0.22],"translation":[-11.4,7.35,-52.92]},{"extras":{"kind":"Cyl"},"mesh":3,"rotation":[0.109568,0.0,-0.243188,0.963771],"scale":[0.22,6.88,0.22],"translation":[-6.37,8.47,-53.37]},{"extras":{"kind":"Cyl"},"mesh":3,"rotation":[0.402325,0.0,-0.207943,0.891568],"scale":[0.21,6.76,0.21],"translation":[-2.24,8.87,-52.13]},{"extras":{"kind":"Cyl"},"mesh":3,"rotation":[0.633378,0.0,-0.063338,0.771246],"scale":[0.22,6.9,0.22],"translation":[1.33,8.48,-49.4]},{"extras":{"kind":"Cyl"},"mesh":1,"rotation":[0.415205,0.0,-0.445735,0.793048],"scale":[0.07,2.48,0.07],"translation":[8.74,-2.03,-55.37]},{"extras":{"kind":"Cone"},"mesh":4,"rotation":[0.415205,0.0,-0.445735,0.793048],"scale":[0.36,0.36,0.36],"translation":[7.78,-2.38,-56.27]},{"extras":{"kind":"Box"},"mesh":5,"rotation":[0.415205,0.0,-0.445735,0.793048],"scale":[0.3,0.3,0.3],"translation":[9.71,-1.68,-54.46]},{"extras":{"kind":"Cyl"},"mesh":1,"rotation":[0.388766,-0.0,0.676452,0.625519],"scale":[0.15,5.44,0.15],"translation":[5.6,-2.62,-50.66]},{"extras":{"kind":"Sphere"},"mesh":6,"scale":[0.8,0.8,0.8],"translation":[8.13,-1.98,-52.11]},{"extras":{"kind":"Box"},"mesh":7,"rotation":[0.388766,-0.0,0.676452,0.625519],"scale":[0.67,0.67,0.67],"translation":[3.06,-3.27,-49.2]},{"extras":{"kind":"Cyl"},"mesh":1,"rotation":[-0.168312,0.0,0.868138,0.466913],"scale":[0.16,5.98,0.16],"translation":[6.56,-5.55,-48.41]},{"extras":{"kind":"Box"},"mesh":7,"rotation":[-0.168312,0.0,0.868138,0.466913],"scale":[0.73,0.73,0.73],"translation":[9.23,-3.7,-47.88]},{"extras":{"kind":"Cone"},"mesh":8,"rotation":[-0.168312,0.0,0.868138,0.466913],"scale":[0.88,0.88,0.88],"translation":[3.89,-7.4,-48.94]},{"extras":{"kind":"Cyl"},"mesh":3,"rotation":[-0.57791,0.0,0.656716,0.484504],"scale":[0.21,6.83,0.21],"translation":[6.44,-10.6,-48.05]},{"extras":{"kind":"Cyl"},"mesh":1,"rotation":[-0.753616,0.0,0.42445,0.501902],"scale":[0.15,5.59,0.15],"translation":[8.03,-15.71,-49.11]},{"extras":{"kind":"Cone"},"mesh":8,"rotation":[-0.753616,0.0,0.42445,0.501902],"scale":[0.82,0.82,0.82],"translation":[9.34,-14.2,-46.78]},{"extras":{"kind":"Box"},"mesh":7,"rotation":[-0.753616,0.0,0.42445,0.501902],"scale":[0.68,0.68,0.68],"translation":[6.73,-17.23,-51.45]}],"scene":0,"scenes":[{"nodes":[0]}]}
