{"accessors":[{"bufferView":0,"componentType":5126,"count":12,"max":[17.03,15.9,-41.21],"min":[-13.1,-7.2,-57.09],"type":"VEC3"},{"bufferView":1,"componentType":5126,"count":12,"max":[13.45,7.4,-41.33],"min":[-17.0,-15.92,-57.28],"type":"VEC3"},{"bufferView":2,"componentType":5126,"count":34,"max":[1.0,1.0,1.0],"min":[-1.0,-1.0,-1.0],"type":"VEC3"},{"bufferView":3,"componentType":5126,"count":34,"type":"VEC3"},{"bufferView":4,"componentType":5123,"count":192,"type":"SCALAR"},{"bufferView":5,"componentType":5126,"count":18,"max":[1.0,1.0,1.0],"min":[-1.0,-1.0,-1.0],"type":"VEC3"},{"bufferView":6,"componentType":5126,"count":18,"type":"VEC3"},{"bufferView":7,"componentType":5123,"count":96,"type":"SCALAR"},{"bufferView":8,"componentType":5126,"count":24,"max":[1.0,1.0,1.0],"min":[-1.0,-1.0,-1.0],"type":"VEC3"},{"bufferView":9,"componentType":5126,"count":24,"type":"VEC3"},{"bufferView":10,"componentType":5123,"count":36,"type":"SCALAR"},{"bufferView":11,"componentType":5126,"count":153,"max":[1.0,1.0,1.0],"min":[-1.0,-1.0,-1.0],"type":"VEC3"},{"bufferView":12,"componentType":5126,"count":153,"type":"VEC3"},{"bufferView":13,"componentType":5123,"count":768,"type":"SCALAR"}],"asset":{"generator":"rnaview_vrml_gltf vrml-gltf-v1","version":"2.0"},"bufferViews":[{"buffer":0,"byteLength":144,"byteOffset":0,"target":34962},{"buffer":1,"byteLength":144,"byteOffset":0,"target":34962},{"buffer":2,"byteLength":408,"byteOffset":0,"target":34962},{"buffer":2,"byteLength":408,"byteOffset":408,"target":34962},{"buffer":2,"byteLength":384,"byteOffset":816,"target":34963},{"buffer":3,"byteLength":216,"byteOffset":0,"target":34962},{"buffer":3,"byteLength":216,"byteOffset":216,"target":34962},{"buffer":3,"byteLength":192,"byteOffset":432,"target":34963},{"buffer":4,"byteLength":288,"byteOffset":0,"target":34962},{"buffer":4,"byteLength":288,"byteOffset":288,"target":34962},{"buffer":4,"byteLength":72,"byteOffset":576,"target":34963},{"buffer":5,"byteLength":1836,"byteOffset":0,"target":34962},{"buffer":5,"byteLength":1836,"byteOffset":1836,"target":34962},{"buffer":5,"byteLength":1536,"byteOffset":3672,"target":34963}],"buffers":[{"byteLength":144,"uri":"data:application/octet-stream;base64,"},{"byteLength":144,"uri":"data:application/octet-stream;base64,"},{"byteLength":1200,"uri":"data:application/octet-stream;base64,"},{"byteLength":624,"uri":"data:application/octet-stream;base64,"},{"byteLength":648,"uri":"data:application/octet-stream;base64,"},{"byteLength":5208,"uri":"data:application/octet-stream;base64,"}],"materials":[{"alphaMode":"BLEND","pbrMetallicRoughness":{"baseColorFactor":[0.71,0.34,0.88,0.0],"metallicFactor":0.0,"roughnessFactor":1.0}},{"alphaMode":"BLEND","pbrMetallicRoughness":{"baseColorFactor":[1.0,1.0,0.5,0.0],"metallicFactor":0.0,"roughnessFactor":1.0}},{"pbrMetallicRoughness":{"baseColorFactor":[1.0,0.0,0.0,1.0],"metallicFactor":0.0,"roughnessFactor":1.0}},{"alphaMode":"BLEND","pbrMetallicRoughness":{"baseColorFactor":[1.0,0.0,0.0,0.4],"metallicFactor":0.0,"roughnessFactor":1.0}},{"alphaMode":"BLEND","pbrMetallicRoughness":{"baseColorFactor":[1.0,1.0,0.0,0.4],"metallicFactor":0.0,"roughnessFactor":1.0}}],"meshes":[{"primitives":[{"attributes":{"POSITION":0},"material":0,"mode":3}]},{"primitives":[{"attributes":{"POSITION":1},"material":1,"mode":3}]},{"primitives":[{"attributes":{"NORMAL":3,"POSITION":2},"indices":4,"material":2}]},{"primitives":[{"attributes":{"NORMAL":3,"POSITION":2},"indices":4,"material":3}]},{"primitives":[{"attributes":{"NORMAL":6,"POSITION":5},"indices":7,"material":4}]},{"primitives":[{"attributes":{"NORMAL":9,"POSITION":8},"indices":10,"material":4}]},{"primitives":[{"attributes":{"NORMAL":12,"POSITION":11},"indices":13,"material":4}]},{"primitives":[{"attributes":{"NORMAL":12,"POSITION":11},"indices":13,"material":2}]}],"nodes":[{"children":[1,2,3,4,5,6,7,8,9,10,11,12,13,14,15,16,17,18,19,20,21,22,23,24,25,26,27,28,29,30,31,32,33,34,35,36,37,38,39,40,41,42,43,44,45],"extras":{"renderer_version":"vrml-gltf-v1","source":"vrml"}},{"extras":{"kind":"IndexedLineSet"},"mesh":0},{"extras":{"kind":"IndexedLineSet"},"mesh":1},{"extras":{"color":[0.0,0.0,1.0,1.0],"kind":"Label","text":"  C"},"translation":[17.03,-3.43,-54.7]},{"extras":{"color":[0.0,0.0,1.0,1.0],"kind":"Label","text":"  C"},"translation":[11.6,-5.21,-57.09]},{"extras":{"color":[0.0,1.0,0.0,1.0],"kind":"Label","text":"  G"},"translation":[5.88,-6.21,-55.21]},{"extras":{"color":[1.0,0.0,0.0,1.0],"kind":"Label","text":"  A"},"translation":[0.58,-5.72,-53.35]},{"extras":{"color":[0.0,1.0,1.0,1.0],"kind":"Label","text":"  U"},"translation":[-4.79,-7.2,-50.99]},{"extras":{"color":[0.0,1.0,0.0,1.0],"kind":"Label","text":"  G"},"translation":[-7.56,-4.98,-46.0]},{"extras":{"color":[0.0,1.0,0.0,1.0],"kind":"Label","text":"  G"},"translation":[-7.65,-0.25,-42.11]},{"extras":{"color":[0.0,1.0,1.0,1.0],"kind":"Label","text":"  U"},"translation":[-6.21,5.46,-41.21]},{"extras":{"color":[1.0,0.0,0.0,1.0],"kind":"Label","text":"  A"},"translation":[-4.26,11.13,-42.95]},{"extras":{"color":[0.0,1.0,0.0,1.0],"kind":"Label","text":"  G"},"translation":[-5.03,15.01,-47.51]},{"extras":{"color":[0.0,1.0,1.0,1.0],"kind":"Label","text":"  U"},"translation":[-8.39,15.9,-52.53]},{"extras":{"color":[0.0,1.0,0.0,1.0],"kind":"Label","text":"  G"},"translation":[-13.1,15.75,-56.77]},{"extras":{"color":[0.0,1.0,0.0,1.0],"kind":"Label","text":"  G"},"translation":[-17.0,4.02,-55.07]},{"extras":{"color":[0.0,0.0,1.0,1.0],"kind":"Label","text":"  C"},"translation":[-11.36,5.03,-57.28]},{"extras":{"color":[0.0,1.0,0.0,1.0],"kind":"Label","text":"  G"},"translation":[-5.75,5.71,-55.03]},{"extras":{"color":[1.0,0.0,0.0,1.0],"kind":"Label","text":"  A"},"translation":[-0.78,5.24,-52.58]},{"extras":{"color":[0.0,1.0,0.0,1.0],"kind":"Label","text":"  G"},"translation":[4.85,7.4,-50.71]},{"extras":{"color":[1.0,0.0,0.0,1.0],"kind":"Label","text":"  A"},"translation":[7.9,5.21,-45.95]},{"extras":{"color":[0.0,1.0,0.0,1.0],"kind":"Label","text":"  G"},"translation":[7.5,0.33,-42.26]},{"extras":{"color":[0.0,1.0,1.0,1.0],"kind":"Label","text":"  U"},"translation":[5.46,-5.45,-41.33]},{"extras":{"color":[1.0,0.0,0.0,1.0],"kind":"Label","text":"  A"},"translation":[3.92,-11.22,-43.07]},{"extras":{"color":[0.0,1.0,0.0,1.0],"kind":"Label","text":"  G"},"translation":[5.11,-14.96,-47.55]},{"extras":{"color":[0.0,1.0,0.0,1.0],"kind":"Label","text":"  G"},"translation":[8.62,-15.92,-52.49]},{"extras":{"color":[0.0,0.0,1.0,1.0],"kind":"Label","text":"  C"},"translation":[13.45,-15.67,-56.25]},{"extras":{"kind":"Cyl"},"mesh":2,"rotation":[0.237998,-0.0,0.923431,0.301053],"scale":[0.22,6.92,0.22],"translation":[12.82,-9.67,-53.6]},{"extras":{"kind":"Cyl"},"mesh":2,"rotation":[0.751485,-0.0,0.507026,0.422132],"scale":[0.22,6.86,0.22],"translation":[8.35,-10.08,-52.32]},{"extras":{"kind":"Cyl"},"mesh":3,"rotation":[0.819859,-0.0,0.132502,0.557023],"scale":[0.17,6.04,0.17],"translation":[4.9,-8.71,-49.14]},{"extras":{"kind":"Cone"},"mesh":4,"rotation":[0.819859,-0.0,0.132502,0.557023],"scale":[0.89,0.89,0.89],"translation":[5.39,-7.46,-52.17]},{"extras":{"kind":"Box"},"mesh":5,"rotation":[0.819859,-0.0,0.132502,0.557023],"scale":[0.74,0.74,0.74],"translation":[4.41,-9.97,-46.1]},{"extras":{"kind":"Cyl"},"mesh":3,"rotation":[0.647731,0.0,-0.264664,0.714421],"scale":[0.16,5.9,0.16],"translation":[3.02,-5.58,-47.34]},{"extras":{"kind":"Box"},"mesh":5,"rotation":[0.647731,0.0,-0.264664,0.714421],"scale":[0.72,0.72,0.72],"translation":[1.8,-5.65,-50.34]},{"extras":{"kind":"Sphere"},"mesh":6,"scale":[0.86,0.86,0.86],"translation":[4.24,-5.52,-44.34]},{"extras":{"kind":"Cyl"},"mesh":3,"rotation":[-0.298335,0.0,-0.429183,0.852525],"scale":[0.21,7.72,0.21],"translation":[-1.4,3.57,-46.41]},{"extras":{"kind":"Sphere"},"mesh":6,"scale":[1.13,1.13,1.13],"translation":[-1.4,3.57,-46.41]},{"extras":{"kind":"Cyl"},"mesh":3,"rotation":[-0.644122,0.0,-0.307747,0.700285],"scale":[0.16,5.73,0.16],"translation":[-3.5,5.35,-46.9]},{"extras":{"kind":"Sphere"},"mesh":6,"scale":[0.84,0.84,0.84],"translation":[-4.85,5.41,-44.05]},{"extras":{"kind":"Box"},"mesh":5,"rotation":[-0.644122,0.0,-0.307747,0.700285],"scale":[0.7,0.7,0.7],"translation":[-2.14,5.3,-49.74]},{"extras":{"kind":"Cyl"},"mesh":3,"rotation":[-0.832664,0.0,0.100929,0.544503],"scale":[0.17,6.06,0.17],"translation":[-5.01,8.42,-48.99]},{"extras":{"kind":"Box"},"mesh":5,"rotation":[-0.832664,0.0,0.100929,0.544503],"scale":[0.74,0.74,0.74],"translation":[-4.64,9.77,-45.97]},{"extras":{"kind":"Cone"},"mesh":4,"rotation":[-0.832664,0.0,0.100929,0.544503],"scale":[0.89,0.89,0.89],"translation":[-5.38,7.06,-52.01]},{"extras":{"kind":"Cyl"},"mesh":2,"rotation":[-0.764323,0.0,0.49135,0.417595],"scale":[0.22,6.97,0.22],"translation":[-8.2,10.02,-52.39]},{"extras":{"kind":"Cyl"},"mesh":3,"rotation":[-0.265271,0.0,0.9095,0.320063],"scale":[0.19,6.77,0.19],"translation":[-12.69,9.96,-53.8]},{"extras":{"kind":"Sphere"},"mesh":7,"scale":[0.99,0.99,0.99],"translation":[-12.69,9.96,-53.8]}],"scene":0,"scenes":[{"nodes":[0]}]}
