{"accessors":[{"bufferView":0,"componentType":5126,"count":73,"max":[14.97,60.99,-27.76],"min":[-44.2,21.24,-76.44],"type":"VEC3"},{"bufferView":1,"componentType":5126,"count":73,"max":[36.52,-15.28,-24.26],"min":[-23.17,-58.99,-72.06],"type":"VEC3"},{"bufferView":2,"componentType":5126,"count":34,"max":[1.0,1.0,1.0],"min":[-1.0,-1.0,-1.0],"type":"VEC3"},{"bufferView":3,"componentType":5126,"count":34,"type":"VEC3"},{"bufferView":4,"componentType":5123,"count":192,"type":"SCALAR"},{"bufferView":5,"componentType":5126,"count":153,"max":[1.0,1.0,1.0],"min":[-1.0,-1.0,-1.0],"type":"VEC3"},{"bufferView":6,"componentType":5126,"count":153,"type":"VEC3"},{"bufferView":7,"componentType":5123,"count":768,"type":"SCALAR"},{"bufferView":8,"componentType":5126,"count":24,"max":[1.0,1.0,1.0],"min":[-1.0,-1.0,-1.0],"type":"VEC3"},{"bufferView":9,"componentType":5126,"count":24,"type":"VEC3"},{"bufferView":10,"componentType":5123,"count":36,"type":"SCALAR"},{"bufferView":11,"componentType":5126,"count":18,"max":[1.0,1.0,1.0],"min":[-1.0,-1.0,-1.0],"type":"VEC3"},{"bufferView":12,"componentType":5126,"count":18,"type":"VEC3"},{"bufferView":13,"componentType":5123,"count":96,"type":"SCALAR"}],"asset":{"generator":"rnaview_vrml_gltf vrml-gltf-v1","version":"2.0"},"bufferViews":[{"buffer":0,"byteLength":876,"byteOffset":0,"target":34962},{"buffer":1,"byteLength":876,"byteOffset":0,"target":34962},{"buffer":2,"byteLength":408,"byteOffset":0,"target":34962},{"buffer":2,"byteLength":408,"byteOffset":408,"target":34962},{"buffer":2,"byteLength":384,"byteOffset":816,"target":34963},{"buffer":3,"byteLength":1836,"byteOffset":0,"target":34962},{"buffer":3,"byteLength":1836,"byteOffset":1836,"target":34962},{"buffer":3,"byteLength":1536,"byteOffset":3672,"target":34963},{"buffer":4,"byteLength":288,"byteOffset":0,"target":34962},{"buffer":4,"byteLength":288,"byteOffset":288,"target":34962},{"buffer":4,"byteLength":72,"byteOffset":576,"target":34963},{"buffer":5,"byteLength":216,"byteOffset":0,"target":34962},{"buffer":5,"byteLength":216,"byteOffset":216,"target":34962},{"buffer":5,"byteLength":192,"byteOffset":432,"target":34963}],"buffers":[{"byteLength":876,"uri":"data:application/octet-stream;base64,"},{"byteLength":876,"uri":"data:application/octet-stream;base64,"},{"byteLength":1200,"uri":"data:application/octet-stream;base64,"},{"byteLength":5208,"uri":"data:application/octet-stream;base64,"},{"byteLength":648,"uri":"data:application/octet-stream;base64,"},{"byteLength":624,"uri":"data:application/octet-stream;base64,"}],"materials":[{"alphaMode":"BLEND","pbrMetallicRoughness":{"baseColorFactor":[0.71,0.34,0.88,0.0],"metallicFactor":0.0,"roughnessFactor":1.0}},{"alphaMode":"BLEND","pbrMetallicRoughness":{"baseColorFactor":[1.0,1.0,0.5,0.0],"metallicFactor":0.0,"roughnessFactor":1.0}},{"alphaMode":"BLEND","pbrMetallicRoughness":{"baseColorFactor":[1.0,0.0,0.0,0.4],"metallicFactor":0.0,"roughnessFactor":1.0}},{"pbrMetallicRoughness":{"baseColorFactor":[1.0,0.0,0.0,1.0],"metallicFactor":0.0,"roughnessFactor":1.0}},{"alphaMode":"BLEND","pbrMetallicRoughness":{"baseColorFactor":[1.0,1.0,0.0,0.4],"metallicFactor":0.0,"roughnessFactor":1.0}}],"meshes":[{"primitives":[{"attributes":{"POSITION":0},"material":0,"mode":3}]},{"primitives":[{"attributes":{"POSITION":1},"material":1,"mode":3}]},{"primitives":[{"attributes":{"NORMAL":3,"POSITION":2},"indices":4,"material":2}]},{"primitives":[{"attributes":{"NORMAL":6,"POSITION":5},"indices":7,"material":3}]},{"primitives":[{"attributes":{"NORMAL":3,"POSITION":2},"indices":4,"material":3}]},{"primitives":[{"attributes":{"NORMAL":6,"POSITION":5},"indices":7,"material":4}]},{"primitives":[{"attributes":{"NORMAL":9,"POSITION":8},"indices":10,"material":4}]},{"primitives":[{"attributes":{"NORMAL":9,"POSITION":8},"indices":10,"material":3}]},{"primitives":[{"attributes":{"NORMAL":12,"POSITION":11},"indices":13,"material":3}]},{"primitives":[{"attributes":{"NORMAL":12,"POSITION":11},"indices":13,"material":4}]}],"nodes":[{"children":[1,2,3,4,5,6,7,8,9,10,11,12,13,14,15,16,17,18,19,20,21,22,23,24,25,26,27,28,29,30,31,32,33,34,35,36,37,38,39,40,41,42,43,44,45,46,47,48,49,50,51,52,53,54,55,56,57,58,59,60,61,62,63,64,65,66,67,68,69,70,71,72,73,74,75,76,77,78,79,80,81,82,83,84,85,86,87,88,89,90,91,92,93,94,95,96,97,98,99,100,101,102,103,104,105,106,107,108,109,110,111,112,113,114,115,116,117,118,119,120,121,122,123,124,125,126,127,128,129,130,131,132,133,134,135,136,137,138,139,140,141,142,143,144,145,146,147,148,149,150,151,152,153,154,155,156,157,158,159,160,161,162,163,164,165,166,167,168,169,170,171,172,173,174,175,176,177,178,179,180,181,182,183,184,185,186,187,188,189,190,191,192,193,194,195,196,197,198,199,200,201,202,203,204,205,206,207,208,209,210,211,212,213,214,215,216,217,218,219,220,221,222,223,224,225,226,227,228,229,230,231,232,233,234,235,236,237,238,239,240,241,242,243,244,245,246,247,248,249,250,251,252,253,254,255,256,257,258,259,260,261,262,263],"extras":{"renderer_version":"vrml-gltf-v1","source":"vrml"}},{"extras":{"kind":"IndexedLineSet"},"mesh":0},{"extras":{"kind":"IndexedLineSet"},"mesh":1},{"extras":{"color":[0.0,1.0,0.0,1.0],"kind":"Label","text":"  G"},"translation":[7.18,21.24,-69.68]},{"extras":{"color":[0.0,1.0,0.0,1.0],"kind":"Label","text":"  G"},"translation":[5.37,26.19,-72.7]},{"extras":{"color":[1.0,0.0,0.0,1.0],"kind":"Label","text":"  A"},"translation":[2.76,31.33,-72.25]},{"extras":{"color":[0.0,1.0,0.0,1.0],"kind":"Label","text":"  G"},"translation":[-1.52,34.55,-70.88]},{"extras":{"color":[0.0,0.0,1.0,1.0],"kind":"Label","text":"  C"},"translation":[-5.63,35.76,-67.09]},{"extras":{"color":[0.0,1.0,0.0,1.0],"kind":"Label","text":"  G"},"translation":[-7.13,36.5,-61.3]},{"extras":{"color":[0.0,1.0,0.0,1.0],"kind":"Label","text":"  G"},"translation":[-6.24,36.68,-55.42]},{"extras":{"color":[0.0,1.0,1.0,1.0],"kind":"Label","text":"4SU"},"translation":[-5.62,40.46,-50.6]},{"extras":{"color":[1.0,0.0,0.0,1.0],"kind":"Label","text":"  A"},"translation":[-10.2,39.93,-45.54]},{"extras":{"color":[0.0,1.0,0.0,1.0],"kind":"Label","text":"  G"},"translation":[-12.08,34.51,-42.64]},{"extras":{"color":[0.0,1.0,1.0,1.0],"kind":"Label","text":"  U"},"translation":[-15.12,32.54,-48.15]},{"extras":{"color":[0.0,1.0,1.0,1.0],"kind":"Label","text":"  U"},"translation":[-16.09,34.28,-53.71]},{"extras":{"color":[0.0,0.0,1.0,1.0],"kind":"Label","text":"  C"},"translation":[-14.58,39.05,-56.71]},{"extras":{"color":[1.0,0.0,0.0,1.0],"kind":"Label","text":"  A"},"translation":[-14.14,44.96,-58.08]},{"extras":{"color":[0.0,1.0,0.0,1.0],"kind":"Label","text":"  G"},"translation":[-10.83,50.22,-57.19]},{"extras":{"color":[0.0,1.0,1.0,1.0],"kind":"Label","text":"H2U"},"translation":[-10.03,51.01,-61.92]},{"extras":{"color":[0.0,0.0,1.0,1.0],"kind":"Label","text":"  C"},"translation":[-5.08,52.11,-64.83]},{"extras":{"color":[0.0,1.0,0.0,1.0],"kind":"Label","text":"  G"},"translation":[-1.83,53.96,-60.07]},{"extras":{"color":[0.0,1.0,0.0,1.0],"kind":"Label","text":"  G"},"translation":[-2.63,57.35,-55.31]},{"extras":{"color":[0.0,1.0,1.0,1.0],"kind":"Label","text":"H2U"},"translation":[-8.02,59.08,-52.56]},{"extras":{"color":[0.0,1.0,1.0,1.0],"kind":"Label","text":"H2U"},"translation":[-7.33,57.35,-47.4]},{"extras":{"color":[1.0,0.0,0.0,1.0],"kind":"Label","text":"  A"},"translation":[-9.34,51.93,-48.51]},{"extras":{"color":[0.0,1.0,0.0,1.0],"kind":"Label","text":"  G"},"translation":[-14.82,51.24,-48.22]},{"extras":{"color":[1.0,0.0,0.0,1.0],"kind":"Label","text":"  A"},"translation":[-19.84,48.57,-50.02]},{"extras":{"color":[1.0,0.0,0.0,1.0],"kind":"Label","text":"  A"},"translation":[-23.56,44.07,-50.73]},{"extras":{"color":[0.0,1.0,1.0,1.0],"kind":"Label","text":"  U"},"translation":[-24.67,38.96,-48.23]},{"extras":{"color":[1.0,0.0,0.0,1.0],"kind":"Label","text":"  A"},"translation":[-22.7,35.36,-43.61]},{"extras":{"color":[0.0,0.0,1.0,1.0],"kind":"Label","text":"  C"},"translation":[-20.62,35.47,-37.87]},{"extras":{"color":[0.0,0.0,1.0,1.0],"kind":"Label","text":"  C"},"translation":[-20.65,38.54,-32.59]},{"extras":{"color":[0.0,1.0,1.0,1.0],"kind":"Label","text":"  U"},"translation":[-23.39,42.42,-28.84]},{"extras":{"color":[0.0,1.0,0.0,1.0],"kind":"Label","text":"  G"},"translation":[-28.23,46.22,-27.76]},{"extras":{"color":[0.0,0.0,1.0,1.0],"kind":"Label","text":"  C"},"translation":[-34.16,47.27,-28.7]},{"extras":{"color":[0.0,0.0,1.0,1.0],"kind":"Label","text":"  C"},"translation":[-39.27,45.22,-30.89]},{"extras":{"color":[0.0,1.0,1.0,1.0],"kind":"Label","text":"  U"},"translation":[-42.45,39.55,-31.97]},{"extras":{"color":[0.97,0.97,0.97,1.0],"kind":"Label","text":"QUO"},"translation":[-44.2,36.78,-37.17]},{"extras":{"color":[0.0,1.0,1.0,1.0],"kind":"Label","text":"  U"},"translation":[-40.91,36.95,-39.64]},{"extras":{"color":[0.0,0.0,1.0,1.0],"kind":"Label","text":"  C"},"translation":[-37.56,33.39,-43.21]},{"extras":{"color":[1.0,0.0,0.0,1.0],"kind":"Label","text":"2MA"},"translation":[-33.43,33.26,-46.29]},{"extras":{"color":[0.0,0.0,1.0,1.0],"kind":"Label","text":"  C"},"translation":[-35.6,37.55,-42.47]},{"extras":{"color":[0.0,1.0,0.0,1.0],"kind":"Label","text":"  G"},"translation":[-36.48,43.57,-42.82]},{"extras":{"color":[0.0,0.0,1.0,1.0],"kind":"Label","text":"  C"},"translation":[-34.39,48.82,-41.01]},{"extras":{"color":[1.0,0.0,0.0,1.0],"kind":"Label","text":"  A"},"translation":[-30.14,51.99,-38.07]},{"extras":{"color":[0.0,1.0,0.0,1.0],"kind":"Label","text":"  G"},"translation":[-24.45,52.43,-35.96]},{"extras":{"color":[0.0,1.0,0.0,1.0],"kind":"Label","text":"  G"},"translation":[-19.42,49.71,-34.07]},{"extras":{"color":[0.0,1.0,0.0,1.0],"kind":"Label","text":"  G"},"translation":[-14.28,46.3,-34.06]},{"extras":{"color":[0.0,1.0,0.0,1.0],"kind":"Label","text":"  G"},"translation":[-10.97,42.38,-37.34]},{"extras":{"color":[0.97,0.97,0.97,1.0],"kind":"Label","text":"G7M"},"translation":[-7.12,41.8,-42.44]},{"extras":{"color":[0.0,1.0,1.0,1.0],"kind":"Label","text":"  U"},"translation":[-0.53,41.55,-43.12]},{"extras":{"color":[0.0,0.0,1.0,1.0],"kind":"Label","text":"  C"},"translation":[-2.61,41.76,-49.74]},{"extras":{"color":[0.0,1.0,0.0,1.0],"kind":"Label","text":"  G"},"translation":[-0.49,37.11,-50.45]},{"extras":{"color":[0.0,0.0,1.0,1.0],"kind":"Label","text":"  C"},"translation":[5.43,37.12,-48.12]},{"extras":{"color":[0.0,1.0,0.0,1.0],"kind":"Label","text":"  G"},"translation":[11.37,38.92,-49.37]},{"extras":{"color":[0.0,1.0,0.0,1.0],"kind":"Label","text":"  G"},"translation":[14.86,42.94,-51.95]},{"extras":{"color":[0.0,1.0,0.0,1.0],"kind":"Label","text":"  G"},"translation":[14.97,46.7,-56.84]},{"extras":{"color":[0.0,1.0,1.0,1.0],"kind":"Label","text":"5MU"},"translation":[13.28,51.15,-60.84]},{"extras":{"color":[0.0,1.0,1.0,1.0],"kind":"Label","text":"PSU"},"translation":[10.75,56.4,-60.45]},{"extras":{"color":[0.0,0.0,1.0,1.0],"kind":"Label","text":"  C"},"translation":[10.32,60.99,-55.39]},{"extras":{"color":[0.0,1.0,0.0,1.0],"kind":"Label","text":"  G"},"translation":[5.61,57.94,-52.91]},{"extras":{"color":[1.0,0.0,0.0,1.0],"kind":"Label","text":"  A"},"translation":[2.22,52.43,-53.62]},{"extras":{"color":[0.0,1.0,0.0,1.0],"kind":"Label","text":"  G"},"translation":[-0.53,46.77,-52.47]},{"extras":{"color":[0.0,1.0,1.0,1.0],"kind":"Label","text":"  U"},"translation":[-1.2,46.48,-58.66]},{"extras":{"color":[0.0,0.0,1.0,1.0],"kind":"Label","text":"  C"},"translation":[2.4,47.85,-63.94]},{"extras":{"color":[0.0,0.0,1.0,1.0],"kind":"Label","text":"  C"},"translation":[7.65,45.31,-65.15]},{"extras":{"color":[0.0,0.0,1.0,1.0],"kind":"Label","text":"  C"},"translation":[11.52,40.64,-64.24]},{"extras":{"color":[0.0,1.0,0.0,1.0],"kind":"Label","text":"  G"},"translation":[13.3,35.66,-61.06]},{"extras":{"color":[0.0,1.0,1.0,1.0],"kind":"Label","text":"PSU"},"translation":[11.42,31.59,-57.43]},{"extras":{"color":[0.0,0.0,1.0,1.0],"kind":"Label","text":"  C"},"translation":[6.9,28.92,-54.37]},{"extras":{"color":[0.0,0.0,1.0,1.0],"kind":"Label","text":"  C"},"translation":[0.87,27.3,-53.57]},{"extras":{"color":[0.0,1.0,0.0,1.0],"kind":"Label","text":"  G"},"translation":[-4.62,26.87,-55.84]},{"extras":{"color":[0.0,1.0,1.0,1.0],"kind":"Label","text":"  U"},"translation":[-8.55,27.09,-60.75]},{"extras":{"color":[0.0,1.0,1.0,1.0],"kind":"Label","text":"  U"},"translation":[-10.3,26.54,-66.72]},{"extras":{"color":[0.0,0.0,1.0,1.0],"kind":"Label","text":"  C"},"translation":[-9.64,24.85,-72.89]},{"extras":{"color":[0.0,0.0,1.0,1.0],"kind":"Label","text":"  C"},"translation":[-5.93,21.69,-76.44]},{"extras":{"color":[0.0,1.0,0.0,1.0],"kind":"Label","text":"  G"},"translation":[19.01,-15.28,-31.66]},{"extras":{"color":[0.0,1.0,0.0,1.0],"kind":"Label","text":"  G"},"translation":[19.41,-20.23,-30.31]},{"extras":{"color":[1.0,0.0,0.0,1.0],"kind":"Label","text":"  A"},"translation":[18.28,-26.44,-28.43]},{"extras":{"color":[0.0,1.0,0.0,1.0],"kind":"Label","text":"  G"},"translation":[15.52,-31.65,-28.82]},{"extras":{"color":[0.0,0.0,1.0,1.0],"kind":"Label","text":"  C"},"translation":[13.03,-35.3,-32.54]},{"extras":{"color":[0.0,1.0,0.0,1.0],"kind":"Label","text":"  G"},"translation":[11.17,-35.66,-38.39]},{"extras":{"color":[0.0,1.0,0.0,1.0],"kind":"Label","text":"  G"},"translation":[11.76,-35.12,-44.45]},{"extras":{"color":[0.0,1.0,1.0,1.0],"kind":"Label","text":"4SU"},"translation":[13.43,-38.63,-49.55]},{"extras":{"color":[1.0,0.0,0.0,1.0],"kind":"Label","text":"  A"},"translation":[9.25,-40.2,-55.02]},{"extras":{"color":[0.0,1.0,0.0,1.0],"kind":"Label","text":"  G"},"translation":[4.94,-35.42,-56.97]},{"extras":{"color":[0.0,1.0,1.0,1.0],"kind":"Label","text":"  U"},"translation":[1.83,-35.07,-51.38]},{"extras":{"color":[0.0,1.0,1.0,1.0],"kind":"Label","text":"  U"},"translation":[1.19,-37.67,-45.81]},{"extras":{"color":[0.0,0.0,1.0,1.0],"kind":"Label","text":"  C"},"translation":[4.43,-41.29,-42.75]},{"extras":{"color":[1.0,0.0,0.0,1.0],"kind":"Label","text":"  A"},"translation":[7.49,-46.75,-42.01]},{"extras":{"color":[0.0,1.0,0.0,1.0],"kind":"Label","text":"  G"},"translation":[12.72,-50.02,-42.96]},{"extras":{"color":[0.0,1.0,1.0,1.0],"kind":"Label","text":"H2U"},"translation":[14.35,-50.01,-38.49]},{"extras":{"color":[0.0,0.0,1.0,1.0],"kind":"Label","text":"  C"},"translation":[19.58,-49.25,-35.63]},{"extras":{"color":[0.0,1.0,0.0,1.0],"kind":"Label","text":"  G"},"translation":[22.73,-49.76,-40.35]},{"extras":{"color":[0.0,1.0,0.0,1.0],"kind":"Label","text":"  G"},"translation":[23.28,-53.88,-45.22]},{"extras":{"color":[0.0,1.0,1.0,1.0],"kind":"Label","text":"H2U"},"translation":[19.41,-58.25,-47.4]},{"extras":{"color":[0.0,1.0,1.0,1.0],"kind":"Label","text":"H2U"},"translation":[18.28,-55.9,-52.87]},{"extras":{"color":[1.0,0.0,0.0,1.0],"kind":"Label","text":"  A"},"translation":[14.72,-50.81,-51.1]},{"extras":{"color":[0.0,1.0,0.0,1.0],"kind":"Label","text":"  G"},"translation":[9.08,-51.63,-52.64]},{"extras":{"color":[1.0,0.0,0.0,1.0],"kind":"Label","text":"  A"},"translation":[3.56,-51.7,-50.18]},{"extras":{"color":[1.0,0.0,0.0,1.0],"kind":"Label","text":"  A"},"translation":[-1.71,-48.96,-49.37]},{"extras":{"color":[0.0,1.0,1.0,1.0],"kind":"Label","text":"  U"},"translation":[-4.73,-44.45,-51.65]},{"extras":{"color":[1.0,0.0,0.0,1.0],"kind":"Label","text":"  A"},"translation":[-4.85,-40.27,-56.2]},{"extras":{"color":[0.0,0.0,1.0,1.0],"kind":"Label","text":"  C"},"translation":[-3.2,-39.67,-61.99]},{"extras":{"color":[0.0,0.0,1.0,1.0],"kind":"Label","text":"  C"},"translation":[-2.23,-42.53,-67.46]},{"extras":{"color":[0.0,1.0,1.0,1.0],"kind":"Label","text":"  U"},"translation":[-3.41,-47.46,-70.79]},{"extras":{"color":[0.0,1.0,0.0,1.0],"kind":"Label","text":"  G"},"translation":[-6.28,-53.1,-72.06]},{"extras":{"color":[0.0,0.0,1.0,1.0],"kind":"Label","text":"  C"},"translation":[-10.82,-57.02,-70.56]},{"extras":{"color":[0.0,0.0,1.0,1.0],"kind":"Label","text":"  C"},"translation":[-15.9,-56.95,-67.73]},{"extras":{"color":[0.0,1.0,1.0,1.0],"kind":"Label","text":"  U"},"translation":[-21.06,-53.61,-66.34]},{"extras":{"color":[0.97,0.97,0.97,1.0],"kind":"Label","text":"QUO"},"translation":[-23.17,-51.98,-60.66]},{"extras":{"color":[0.0,1.0,1.0,1.0],"kind":"Label","text":"  U"},"translation":[-20.37,-50.55,-58.66]},{"extras":{"color":[0.0,0.0,1.0,1.0],"kind":"Label","text":"  C"},"translation":[-18.59,-45.53,-55.62]},{"extras":{"color":[1.0,0.0,0.0,1.0],"kind":"Label","text":"2MA"},"translation":[-14.83,-43.23,-52.87]},{"extras":{"color":[0.0,0.0,1.0,1.0],"kind":"Label","text":"  C"},"translation":[-14.93,-48.22,-56.4]},{"extras":{"color":[0.0,1.0,0.0,1.0],"kind":"Label","text":"  G"},"translation":[-13.08,-53.81,-56.15]},{"extras":{"color":[0.0,0.0,1.0,1.0],"kind":"Label","text":"  C"},"translation":[-9.0,-57.92,-58.14]},{"extras":{"color":[1.0,0.0,0.0,1.0],"kind":"Label","text":"  A"},"translation":[-3.96,-58.99,-61.62]},{"extras":{"color":[0.0,1.0,0.0,1.0],"kind":"Label","text":"  G"},"translation":[0.93,-56.66,-63.91]},{"extras":{"color":[0.0,1.0,0.0,1.0],"kind":"Label","text":"  G"},"translation":[4.2,-52.0,-66.13]},{"extras":{"color":[0.0,1.0,0.0,1.0],"kind":"Label","text":"  G"},"translation":[6.9,-46.32,-66.49]},{"extras":{"color":[0.0,1.0,0.0,1.0],"kind":"Label","text":"  G"},"translation":[8.74,-42.05,-62.8]},{"extras":{"color":[0.97,0.97,0.97,1.0],"kind":"Label","text":"G7M"},"translation":[13.14,-40.18,-57.91]},{"extras":{"color":[0.0,1.0,1.0,1.0],"kind":"Label","text":"  U"},"translation":[18.55,-38.52,-56.63]},{"extras":{"color":[0.0,0.0,1.0,1.0],"kind":"Label","text":"  C"},"translation":[17.02,-38.8,-50.22]},{"extras":{"color":[0.0,1.0,0.0,1.0],"kind":"Label","text":"  G"},"translation":[17.05,-33.95,-50.19]},{"extras":{"color":[0.0,0.0,1.0,1.0],"kind":"Label","text":"  C"},"translation":[22.17,-31.16,-52.05]},{"extras":{"color":[0.0,1.0,0.0,1.0],"kind":"Label","text":"  G"},"translation":[28.39,-30.89,-51.0]},{"extras":{"color":[0.0,1.0,0.0,1.0],"kind":"Label","text":"  G"},"translation":[33.31,-32.91,-48.08]},{"extras":{"color":[0.0,1.0,0.0,1.0],"kind":"Label","text":"  G"},"translation":[35.37,-36.64,-43.94]},{"extras":{"color":[0.0,1.0,1.0,1.0],"kind":"Label","text":"5MU"},"translation":[35.48,-41.38,-40.13]},{"extras":{"color":[0.0,1.0,1.0,1.0],"kind":"Label","text":"PSU"},"translation":[34.7,-47.4,-40.48]},{"extras":{"color":[0.0,0.0,1.0,1.0],"kind":"Label","text":"  C"},"translation":[36.52,-51.38,-45.58]},{"extras":{"color":[0.0,1.0,0.0,1.0],"kind":"Label","text":"  G"},"translation":[31.06,-50.24,-47.92]},{"extras":{"color":[1.0,0.0,0.0,1.0],"kind":"Label","text":"  A"},"translation":[25.64,-46.98,-46.53]},{"extras":{"color":[0.0,1.0,0.0,1.0],"kind":"Label","text":"  G"},"translation":[20.96,-42.52,-47.89]},{"extras":{"color":[0.0,1.0,1.0,1.0],"kind":"Label","text":"  U"},"translation":[20.26,-42.99,-41.84]},{"extras":{"color":[0.0,0.0,1.0,1.0],"kind":"Label","text":"  C"},"translation":[24.35,-42.68,-36.56]},{"extras":{"color":[0.0,0.0,1.0,1.0],"kind":"Label","text":"  C"},"translation":[28.11,-38.01,-35.39]},{"extras":{"color":[0.0,0.0,1.0,1.0],"kind":"Label","text":"  C"},"translation":[29.79,-32.03,-36.37]},{"extras":{"color":[0.0,1.0,0.0,1.0],"kind":"Label","text":"  G"},"translation":[29.46,-27.14,-39.64]},{"extras":{"color":[0.0,1.0,1.0,1.0],"kind":"Label","text":"PSU"},"translation":[25.26,-23.61,-42.74]},{"extras":{"color":[0.0,0.0,1.0,1.0],"kind":"Label","text":"  C"},"translation":[20.32,-22.96,-45.93]},{"extras":{"color":[0.0,0.0,1.0,1.0],"kind":"Label","text":"  C"},"translation":[14.45,-23.82,-46.67]},{"extras":{"color":[0.0,1.0,0.0,1.0],"kind":"Label","text":"  G"},"translation":[9.66,-26.14,-43.21]},{"extras":{"color":[0.0,1.0,1.0,1.0],"kind":"Label","text":"  U"},"translation":[6.33,-27.1,-38.41]},{"extras":{"color":[0.0,1.0,1.0,1.0],"kind":"Label","text":"  U"},"translation":[4.69,-27.63,-32.42]},{"extras":{"color":[0.0,0.0,1.0,1.0],"kind":"Label","text":"  C"},"translation":[5.52,-25.58,-26.65]},{"extras":{"color":[0.0,0.0,1.0,1.0],"kind":"Label","text":"  C"},"translation":[8.33,-21.48,-24.26]},{"extras":{"kind":"Cyl"},"mesh":2,"rotation":[-0.319631,0.0,0.618417,0.717911],"scale":[0.18,6.71,0.18],"translation":[0.62,21.47,-73.06]},{"extras":{"kind":"Sphere"},"mesh":3,"scale":[0.98,0.98,0.98],"translation":[0.62,21.47,-73.06]},{"extras":{"kind":"Cyl"},"mesh":4,"rotation":[-0.007379,0.0,0.737894,0.674876],"scale":[0.22,6.85,0.22],"translation":[-2.14,25.52,-72.79]},{"extras":{"kind":"Cyl"},"mesh":4,"rotation":[0.31747,-0.0,0.748904,0.581683],"scale":[0.21,6.8,0.21],"translation":[-3.77,28.94,-69.48]},{"extras":{"kind":"Cyl"},"mesh":2,"rotation":[-0.042682,0.0,0.853648,0.519099],"scale":[0.18,6.37,0.18],"translation":[-3.44,28.09,-72.57]},{"extras":{"kind":"Sphere"},"mesh":3,"scale":[0.93,0.93,0.93],"translation":[-3.44,28.09,-72.57]},{"extras":{"kind":"Cyl"},"mesh":2,"rotation":[0.714283,-0.0,0.496514,0.493228],"scale":[0.18,6.55,0.18],"translation":[-5.04,30.82,-65.81]},{"extras":{"kind":"Sphere"},"mesh":3,"scale":[0.96,0.96,0.96],"translation":[-5.04,30.82,-65.81]},{"extras":{"kind":"Cyl"},"mesh":4,"rotation":[0.896477,0.0,-0.080683,0.435682],"scale":[0.21,6.53,0.21],"translation":[-5.13,31.32,-61.47]},{"extras":{"kind":"Cyl"},"mesh":4,"rotation":[0.625768,0.0,-0.652975,0.42666],"scale":[0.21,6.56,0.21],"translation":[-3.13,31.9,-57.44]},{"extras":{"kind":"Cyl"},"mesh":4,"rotation":[0.069173,0.0,-0.864661,0.497571],"scale":[0.22,6.95,0.22],"translation":[0.33,32.8,-54.89]},{"extras":{"kind":"Cyl"},"mesh":2,"rotation":[-0.370288,0.0,0.420781,0.828148],"scale":[0.15,5.54,0.15],"translation":[-9.88,42.71,-54.34]},{"extras":{"kind":"Sphere"},"mesh":5,"scale":[0.81,0.81,0.81],"translation":[-7.75,41.58,-52.47]},{"extras":{"kind":"Box"},"mesh":6,"rotation":[-0.370288,0.0,0.420781,0.828148],"scale":[0.68,0.68,0.68],"translation":[-12.01,43.83,-56.21]},{"extras":{"kind":"Cyl"},"mesh":2,"rotation":[-0.180387,0.0,0.390838,0.902611],"scale":[0.17,6.23,0.17],"translation":[-15.02,44.25,-47.78]},{"extras":{"kind":"Box"},"mesh":6,"rotation":[-0.180387,0.0,0.390838,0.902611],"scale":[0.76,0.76,0.76],"translation":[-15.02,44.25,-47.78]},{"extras":{"kind":"Cyl"},"mesh":2,"rotation":[-0.24201,0.0,0.537143,0.808028],"scale":[0.18,6.58,0.18],"translation":[-18.37,36.73,-45.43]},{"extras":{"kind":"Sphere"},"mesh":3,"scale":[0.96,0.96,0.96],"translation":[-18.37,36.73,-45.43]},{"extras":{"kind":"Cyl"},"mesh":2,"rotation":[0.289552,0.0,-0.059092,0.955336],"scale":[0.12,4.35,0.12],"translation":[-11.53,38.45,-39.99]},{"extras":{"kind":"Box"},"mesh":7,"rotation":[0.289552,0.0,-0.059092,0.955336],"scale":[0.53,0.53,0.53],"translation":[-11.81,36.48,-41.32]},{"extras":{"kind":"Cone"},"mesh":8,"rotation":[0.289552,0.0,-0.059092,0.955336],"scale":[0.64,0.64,0.64],"translation":[-11.25,40.42,-38.66]},{"extras":{"kind":"Cyl"},"mesh":4,"rotation":[-0.092337,0.0,0.305667,0.947651],"scale":[0.21,6.6,0.21],"translation":[-19.34,38.31,-49.44]},{"extras":{"kind":"Cyl"},"mesh":4,"rotation":[0.122237,-0.0,0.123983,0.984727],"scale":[0.22,6.92,0.22],"translation":[-17.97,41.42,-51.87]},{"extras":{"kind":"Cyl"},"mesh":4,"rotation":[0.300158,-0.0,0.009005,0.953847],"scale":[0.21,6.75,0.21],"translation":[-14.7,45.14,-52.47]},{"extras":{"kind":"Cyl"},"mesh":2,"rotation":[0.280799,-0.0,0.220374,0.934124],"scale":[0.16,5.81,0.16],"translation":[-17.21,43.81,-53.37]},{"extras":{"kind":"Sphere"},"mesh":3,"scale":[0.85,0.85,0.85],"translation":[-17.21,43.81,-53.37]},{"extras":{"kind":"Cyl"},"mesh":2,"rotation":[0.423924,0.0,-0.214344,0.879969],"scale":[0.16,5.81,0.16],"translation":[-11.74,48.45,-53.29]},{"extras":{"kind":"Sphere"},"mesh":3,"scale":[0.85,0.85,0.85],"translation":[-12.94,46.7,-55.69]},{"extras":{"kind":"Cone"},"mesh":8,"rotation":[0.423924,0.0,-0.214344,0.879969],"scale":[0.85,0.85,0.85],"translation":[-10.54,50.19,-50.9]},{"extras":{"kind":"Cyl"},"mesh":2,"rotation":[0.601171,0.0,-0.66398,0.444662],"scale":[0.17,6.34,0.17],"translation":[-6.72,45.99,-53.46]},{"extras":{"kind":"Sphere"},"mesh":5,"scale":[0.93,0.93,0.93],"translation":[-6.72,45.99,-53.46]},{"extras":{"kind":"Cyl"},"mesh":2,"rotation":[-0.019088,0.0,-0.636251,0.771246],"scale":[0.16,5.83,0.16],"translation":[4.46,55.18,-60.26]},{"extras":{"kind":"Sphere"},"mesh":5,"scale":[0.85,0.85,0.85],"translation":[1.32,54.57,-60.17]},{"extras":{"kind":"Cone"},"mesh":9,"rotation":[-0.019088,0.0,-0.636251,0.771246],"scale":[0.85,0.85,0.85],"translation":[7.61,55.79,-60.35]},{"extras":{"kind":"Cyl"},"mesh":2,"rotation":[-0.006052,0.0,-0.605156,0.796084],"scale":[0.17,6.11,0.17],"translation":[3.84,59.17,-55.35]},{"extras":{"kind":"Sphere"},"mesh":3,"scale":[0.9,0.9,0.9],"translation":[3.84,59.17,-55.35]},{"extras":{"kind":"Cyl"},"mesh":2,"rotation":[0.553614,0.0,-0.738152,0.385543],"scale":[0.17,6.13,0.17],"translation":[-10.97,46.52,-45.33]},{"extras":{"kind":"Box"},"mesh":6,"rotation":[0.553614,0.0,-0.738152,0.385543],"scale":[0.75,0.75,0.75],"translation":[-12.9,48.88,-46.78]},{"extras":{"kind":"Sphere"},"mesh":5,"scale":[0.9,0.9,0.9],"translation":[-9.05,44.16,-43.88]},{"extras":{"kind":"Cyl"},"mesh":2,"rotation":[0.312951,0.0,-0.275396,0.908966],"scale":[0.21,7.63,0.21],"translation":[-18.49,40.83,-38.83]},{"extras":{"kind":"Sphere"},"mesh":3,"scale":[1.12,1.12,1.12],"translation":[-18.49,40.83,-38.83]},{"extras":{"kind":"Cyl"},"mesh":4,"rotation":[0.128343,0.0,-0.040529,0.990901],"scale":[0.21,6.72,0.21],"translation":[-20.02,42.59,-35.97]},{"extras":{"kind":"Cyl"},"mesh":4,"rotation":[-0.115021,0.0,0.130705,0.984727],"scale":[0.21,6.72,0.21],"translation":[-22.55,45.48,-34.28]},{"extras":{"kind":"Cyl"},"mesh":4,"rotation":[-0.340628,0.0,0.248112,0.90687],"scale":[0.21,6.77,0.21],"translation":[-26.76,47.2,-33.46]},{"extras":{"kind":"Cyl"},"mesh":4,"rotation":[-0.581444,0.0,0.268359,0.768054],"scale":[0.21,6.74,0.21],"translation":[-31.31,47.52,-34.39]},{"extras":{"kind":"Cyl"},"mesh":4,"rotation":[-0.779391,0.0,0.125962,0.613746],"scale":[0.21,6.72,0.21],"translation":[-35.32,45.42,-35.76]},{"extras":{"kind":"Cyl"},"mesh":2,"rotation":[-0.834184,0.0,-0.263426,0.484504],"scale":[0.18,6.53,0.18],"translation":[-37.44,41.38,-36.68]},{"extras":{"kind":"Sphere"},"mesh":3,"scale":[0.96,0.96,0.96],"translation":[-37.44,41.38,-36.68]},{"extras":{"kind":"Cyl"},"mesh":2,"rotation":[-0.422191,0.0,-0.71193,0.561168],"scale":[0.19,6.76,0.19],"translation":[5.47,34.35,-53.94]},{"extras":{"kind":"Sphere"},"mesh":3,"scale":[0.99,0.99,0.99],"translation":[5.47,34.35,-53.94]},{"extras":{"kind":"Cyl"},"mesh":4,"rotation":[-0.632351,0.0,-0.38685,0.671178],"scale":[0.22,6.91,0.22],"translation":[9.37,36.39,-54.59]},{"extras":{"kind":"Cyl"},"mesh":4,"rotation":[-0.666836,0.0,-0.006668,0.745174],"scale":[0.21,6.8,0.21],"translation":[11.44,39.78,-56.81]},{"extras":{"kind":"Cyl"},"mesh":4,"rotation":[-0.568906,0.0,0.310312,0.761612],"scale":[0.22,6.92,0.22],"translation":[11.25,44.12,-58.55]},{"extras":{"kind":"Cyl"},"mesh":4,"rotation":[-0.332706,0.0,0.590722,0.735088],"scale":[0.21,6.59,0.21],"translation":[8.69,47.27,-60.39]},{"extras":{"kind":"Cyl"},"mesh":2,"rotation":[0.367338,-0.0,0.561026,0.741831],"scale":[0.17,6.03,0.17],"translation":[7.75,51.79,-57.23]},{"extras":{"kind":"Sphere"},"mesh":5,"scale":[0.88,0.88,0.88],"translation":[10.51,51.47,-59.04]},{"extras":{"kind":"Box"},"mesh":6,"rotation":[0.367338,-0.0,0.561026,0.741831],"scale":[0.74,0.74,0.74],"translation":[4.99,52.11,-55.43]},{"extras":{"kind":"Cyl"},"mesh":2,"rotation":[0.483347,-0.0,0.695341,0.531861],"scale":[0.18,6.54,0.18],"translation":[13.67,-18.38,-27.96]},{"extras":{"kind":"Sphere"},"mesh":3,"scale":[0.96,0.96,0.96],"translation":[13.67,-18.38,-27.96]},{"extras":{"kind":"Cyl"},"mesh":2,"rotation":[0.205164,-0.0,0.796035,0.569417],"scale":[0.19,6.97,0.19],"translation":[12.46,-22.9,-28.48]},{"extras":{"kind":"Sphere"},"mesh":3,"scale":[1.02,1.02,1.02],"translation":[12.46,-22.9,-28.48]},{"extras":{"kind":"Cyl"},"mesh":2,"rotation":[-0.460756,0.0,0.554347,0.693111],"scale":[0.19,7.08,0.19],"translation":[12.31,-26.77,-33.42]},{"extras":{"kind":"Sphere"},"mesh":3,"scale":[1.04,1.04,1.04],"translation":[12.31,-26.77,-33.42]},{"extras":{"kind":"Cyl"},"mesh":4,"rotation":[-0.205673,0.0,0.705166,0.678557],"scale":[0.2,6.46,0.2],"translation":[11.48,-27.03,-30.42]},{"extras":{"kind":"Cyl"},"mesh":2,"rotation":[-0.419501,0.0,0.402021,0.813878],"scale":[0.18,6.38,0.18],"translation":[10.93,-29.37,-33.61]},{"extras":{"kind":"Sphere"},"mesh":3,"scale":[0.94,0.94,0.94],"translation":[10.93,-29.37,-33.61]},{"extras":{"kind":"Cyl"},"mesh":4,"rotation":[-0.406168,0.0,0.128264,0.904752],"scale":[0.21,6.57,0.21],"translation":[11.34,-30.72,-37.88]},{"extras":{"kind":"Cyl"},"mesh":4,"rotation":[-0.292284,0.0,-0.116285,0.949235],"scale":[0.21,6.73,0.21],"translation":[12.81,-29.74,-42.53]},{"extras":{"kind":"Cyl"},"mesh":4,"rotation":[-0.051628,0.0,-0.300658,0.952334],"scale":[0.21,6.79,0.21],"translation":[16.04,-29.04,-45.19]},{"extras":{"kind":"Cyl"},"mesh":2,"rotation":[0.713138,-0.0,0.559678,0.422132],"scale":[0.16,5.71,0.16],"translation":[10.46,-42.69,-45.78]},{"extras":{"kind":"Sphere"},"mesh":5,"scale":[0.84,0.84,0.84],"translation":[11.95,-40.66,-47.67]},{"extras":{"kind":"Box"},"mesh":6,"rotation":[0.713138,-0.0,0.559678,0.422132],"scale":[0.7,0.7,0.7],"translation":[8.98,-44.72,-43.89]},{"extras":{"kind":"Cyl"},"mesh":2,"rotation":[0.623603,-0.0,0.729136,0.281922],"scale":[0.17,6.23,0.17],"translation":[6.4,-45.95,-52.6]},{"extras":{"kind":"Box"},"mesh":6,"rotation":[0.623603,-0.0,0.729136,0.281922],"scale":[0.76,0.76,0.76],"translation":[6.4,-45.95,-52.6]},{"extras":{"kind":"Cyl"},"mesh":2,"rotation":[0.43308,-0.0,0.793979,0.42666],"scale":[0.18,6.48,0.18],"translation":[0.11,-39.93,-54.31]},{"extras":{"kind":"Sphere"},"mesh":3,"scale":[0.95,0.95,0.95],"translation":[0.11,-39.93,-54.31]},{"extras":{"kind":"Cyl"},"mesh":2,"rotation":[-0.768675,0.0,-0.503299,0.394751],"scale":[0.12,4.37,0.12],"translation":[6.84,-38.73,-59.88]},{"extras":{"kind":"Box"},"mesh":7,"rotation":[-0.768675,0.0,-0.503299,0.394751],"scale":[0.53,0.53,0.53],"translation":[5.89,-37.07,-58.43]},{"extras":{"kind":"Cone"},"mesh":8,"rotation":[-0.768675,0.0,-0.503299,0.394751],"scale":[0.64,0.64,0.64],"translation":[7.79,-40.39,-61.34]},{"extras":{"kind":"Cyl"},"mesh":4,"rotation":[0.485881,-0.0,0.862686,0.140332],"scale":[0.21,6.58,0.21],"translation":[0.06,-42.02,-50.38]},{"extras":{"kind":"Cyl"},"mesh":4,"rotation":[-0.865122,0.0,-0.471885,0.169967],"scale":[0.21,6.76,0.21],"translation":[2.38,-44.69,-47.99]},{"extras":{"kind":"Cyl"},"mesh":4,"rotation":[-0.830715,0.0,-0.392536,0.394751],"scale":[0.21,6.84,0.21],"translation":[6.75,-46.46,-47.69]},{"extras":{"kind":"Cyl"},"mesh":2,"rotation":[-0.639029,0.0,-0.507946,0.577609],"scale":[0.15,5.59,0.15],"translation":[11.11,-48.78,-46.56]},{"extras":{"kind":"Sphere"},"mesh":3,"scale":[0.82,0.82,0.82],"translation":[9.3,-47.76,-44.28]},{"extras":{"kind":"Cone"},"mesh":8,"rotation":[-0.639029,0.0,-0.507946,0.577609],"scale":[0.82,0.82,0.82],"translation":[12.91,-49.79,-48.83]},{"extras":{"kind":"Cyl"},"mesh":2,"rotation":[-0.274647,0.0,-0.162872,0.947651],"scale":[0.18,6.38,0.18],"translation":[14.87,-44.41,-46.59]},{"extras":{"kind":"Sphere"},"mesh":5,"scale":[0.94,0.94,0.94],"translation":[14.87,-44.41,-46.59]},{"extras":{"kind":"Cyl"},"mesh":2,"rotation":[-0.006365,0.0,-0.636505,0.771246],"scale":[0.15,5.54,0.15],"translation":[28.71,-48.58,-40.41]},{"extras":{"kind":"Sphere"},"mesh":5,"scale":[0.81,0.81,0.81],"translation":[25.72,-49.17,-40.38]},{"extras":{"kind":"Cone"},"mesh":9,"rotation":[-0.006365,0.0,-0.636505,0.771246],"scale":[0.81,0.81,0.81],"translation":[31.71,-47.99,-40.45]},{"extras":{"kind":"Cyl"},"mesh":4,"rotation":[-0.019088,0.0,-0.636251,0.771246],"scale":[0.19,6.13,0.19],"translation":[29.9,-52.63,-45.4]},{"extras":{"kind":"Cyl"},"mesh":2,"rotation":[-0.207303,0.0,-0.160069,0.965093],"scale":[0.17,6.02,0.17],"translation":[11.11,-45.91,-55.27]},{"extras":{"kind":"Box"},"mesh":6,"rotation":[-0.207303,0.0,-0.160069,0.965093],"scale":[0.74,0.74,0.74],"translation":[10.09,-48.77,-53.96]},{"extras":{"kind":"Sphere"},"mesh":5,"scale":[0.88,0.88,0.88],"translation":[12.12,-43.05,-56.59]},{"extras":{"kind":"Cyl"},"mesh":2,"rotation":[-0.544943,0.0,-0.619253,0.5653],"scale":[0.21,7.61,0.21],"translation":[1.02,-43.29,-61.35]},{"extras":{"kind":"Sphere"},"mesh":3,"scale":[1.12,1.12,1.12],"translation":[1.02,-43.29,-61.35]},{"extras":{"kind":"Cyl"},"mesh":4,"rotation":[-0.468703,0.0,-0.832187,0.296281],"scale":[0.21,6.8,0.21],"translation":[0.5,-45.84,-64.06]},{"extras":{"kind":"Cyl"},"mesh":4,"rotation":[0.736141,0.0,-0.657619,0.160104],"scale":[0.21,6.78,0.21],"translation":[-0.65,-49.6,-65.68]},{"extras":{"kind":"Cyl"},"mesh":4,"rotation":[0.942453,-0.0,0.056547,0.329521],"scale":[0.21,6.7,0.21],"translation":[-3.69,-53.22,-66.2]},{"extras":{"kind":"Cyl"},"mesh":4,"rotation":[0.798546,-0.0,0.15482,0.581683],"scale":[0.21,6.81,0.21],"translation":[-7.64,-55.51,-65.1]},{"extras":{"kind":"Cyl"},"mesh":4,"rotation":[0.617846,-0.0,0.093613,0.780707],"scale":[0.21,6.79,0.21],"translation":[-11.95,-55.42,-63.36]},{"extras":{"kind":"Cyl"},"mesh":2,"rotation":[0.442161,0.0,-0.039794,0.896052],"scale":[0.18,6.52,0.18],"translation":[-15.42,-52.59,-62.07]},{"extras":{"kind":"Sphere"},"mesh":3,"scale":[0.96,0.96,0.96],"translation":[-15.42,-52.59,-62.07]},{"extras":{"kind":"Cyl"},"mesh":2,"rotation":[0.267537,0.0,-0.295488,0.917121],"scale":[0.19,6.89,0.19],"translation":[21.16,-28.78,-46.46]},{"extras":{"kind":"Sphere"},"mesh":3,"scale":[1.01,1.01,1.01],"translation":[21.16,-28.78,-46.46]},{"extras":{"kind":"Cyl"},"mesh":4,"rotation":[0.520538,0.0,-0.308691,0.796084],"scale":[0.21,6.79,0.21],"translation":[25.82,-29.15,-45.85]},{"extras":{"kind":"Cyl"},"mesh":4,"rotation":[0.731591,0.0,-0.065843,0.678557],"scale":[0.21,6.7,0.21],"translation":[29.09,-31.46,-43.69]},{"extras":{"kind":"Cyl"},"mesh":4,"rotation":[0.760975,-0.0,0.310936,0.569417],"scale":[0.21,6.65,0.21],"translation":[30.71,-35.46,-41.74]},{"extras":{"kind":"Cyl"},"mesh":4,"rotation":[0.470636,-0.0,0.69755,0.540302],"scale":[0.21,6.62,0.21],"translation":[29.86,-39.66,-40.25]},{"extras":{"kind":"Cyl"},"mesh":2,"rotation":[-0.463883,0.0,0.708475,0.531861],"scale":[0.16,5.91,0.16],"translation":[30.56,-44.18,-43.33]},{"extras":{"kind":"Sphere"},"mesh":5,"scale":[0.87,0.87,0.87],"translation":[33.02,-42.78,-41.73]},{"extras":{"kind":"Box"},"mesh":6,"rotation":[-0.463883,0.0,0.708475,0.531861],"scale":[0.72,0.72,0.72],"translation":[28.1,-45.58,-44.93]},{"extras":{"kind":"Cyl"},"mesh":2,"rotation":[0.571275,0.0,-0.080786,0.816773],"scale":[0.08,2.8,0.08],"translation":[5.1,-26.61,-29.53]},{"extras":{"kind":"Cone"},"mesh":8,"rotation":[0.571275,0.0,-0.080786,0.816773],"scale":[0.41,0.41,0.41],"translation":[4.89,-27.12,-30.98]},{"extras":{"kind":"Box"},"mesh":7,"rotation":[0.571275,0.0,-0.080786,0.816773],"scale":[0.34,0.34,0.34],"translation":[5.31,-26.09,-28.09]}],"scene":0,"scenes":[{"nodes":[0]}]}
