{"accessors":[{"bufferView":0,"componentType":5126,"count":71,"max":[26.43,40.36,-33.23],"min":[-33.09,-25.07,-63.34],"type":"VEC3"},{"bufferView":1,"componentType":5126,"count":34,"max":[1.0,1.0,1.0],"min":[-1.0,-1.0,-1.0],"type":"VEC3"},{"bufferView":2,"componentType":5126,"count":34,"type":"VEC3"},{"bufferView":3,"componentType":5123,"count":192,"type":"SCALAR"},{"bufferView":4,"componentType":5126,"count":153,"max":[1.0,1.0,1.0],"min":[-1.0,-1.0,-1.0],"type":"VEC3"},{"bufferView":5,"componentType":5126,"count":153,"type":"VEC3"},{"bufferView":6,"componentType":5123,"count":768,"type":"SCALAR"},{"bufferView":7,"componentType":5126,"count":24,"max":[1.0,1.0,1.0],"min":[-1.0,-1.0,-1.0],"type":"VEC3"},{"bufferView":8,"componentType":5126,"count":24,"type":"VEC3"},{"bufferView":9,"componentType":5123,"count":36,"type":"SCALAR"},{"bufferView":10,"componentType":5126,"count":18,"max":[1.0,1.0,1.0],"min":[-1.0,-1.0,-1.0],"type":"VEC3"},{"bufferView":11,"componentType":5126,"count":18,"type":"VEC3"},{"bufferView":12,"componentType":5123,"count":96,"type":"SCALAR"}],"asset":{"generator":"rnaview_vrml_gltf vrml-gltf-v1","version":"2.0"},"bufferViews":[{"buffer":0,"byteLength":852,"byteOffset":0,"target":34962},{"buffer":1,"byteLength":408,"byteOffset":0,"target":34962},{"buffer":1,"byteLength":408,"byteOffset":408,"target":34962},{"buffer":1,"byteLength":384,"byteOffset":816,"target":34963},{"buffer":2,"byteLength":1836,"byteOffset":0,"target":34962},{"buffer":2,"byteLength":1836,"byteOffset":1836,"target":34962},{"buffer":2,"byteLength":1536,"byteOffset":3672,"target":34963},{"buffer":3,"byteLength":288,"byteOffset":0,"target":34962},{"buffer":3,"byteLength":288,"byteOffset":288,"target":34962},{"buffer":3,"byteLength":72,"byteOffset":576,"target":34963},{"buffer":4,"byteLength":216,"byteOffset":0,"target":34962},{"buffer":4,"byteLength":216,"byteOffset":216,"target":34962},{"buffer":4,"byteLength":192,"byteOffset":432,"target":34963}],"buffers":[{"byteLength":852,"uri":"data:application/octet-stream;base64,"},{"byteLength":1200,"uri":"data:application/octet-stream;base64,"},{"byteLength":5208,"uri":"data:application/octet-stream;base64,"},{"byteLength":648,"uri":"data:application/octet-stream;base64,"},{"byteLength":624,"uri":"data:application/octet-stream;base64,"}],"materials":[{"alphaMode":"BLEND","pbrMetallicRoughness":{"baseColorFactor":[0.71,0.34,0.88,0.0],"metallicFactor":0.0,"roughnessFactor":1.0}},{"alphaMode":"BLEND","pbrMetallicRoughness":{"baseColorFactor":[1.0,0.0,0.0,0.4],"metallicFactor":0.0,"roughnessFactor":1.0}},{"pbrMetallicRoughness":{"baseColorFactor":[1.0,0.0,0.0,1.0],"metallicFactor":0.0,"roughnessFactor":1.0}},{"alphaMode":"BLEND","pbrMetallicRoughness":{"baseColorFactor":[1.0,1.0,0.0,0.4],"metallicFactor":0.0,"roughnessFactor":1.0}}],"meshes":[{"primitives":[{"attributes":{"POSITION":0},"material":0,"mode":3}]},{"primitives":[{"attributes":{"NORMAL":2,"POSITION":1},"indices":3,"material":1}]},{"primitives":[{"attributes":{"NORMAL":5,"POSITION":4},"indices":6,"material":2}]},{"primitives":[{"attributes":{"NORMAL":2,"POSITION":1},"indices":3,"material":2}]},{"primitives":[{"attributes":{"NORMAL":5,"POSITION":4},"indices":6,"material":3}]},{"primitives":[{"attributes":{"NORMAL":8,"POSITION":7},"indices":9,"material":3}]},{"primitives":[{"attributes":{"NORMAL":8,"POSITION":7},"indices":9,"material":2}]},{"primitives":[{"attributes":{"NORMAL":11,"POSITION":10},"indices":12,"material":3}]},{"primitives":[{"attributes":{"NORMAL":11,"POSITION":10},"indices":12,"material":2}]}],"nodes":[{"children":[1,2,3,4,5,6,7,8,9,10,11,12,13,14,15,16,17,18,19,20,21,22,23,24,25,26,27,28,29,30,31,32,33,34,35,36,37,38,39,40,41,42,43,44,45,46,47,48,49,50,51,52,53,54,55,56,57,58,59,60,61,62,63,64,65,66,67,68,69,70,71,72,73,74,75,76,77,78,79,80,81,82,83,84,85,86,87,88,89,90,91,92,93,94,95,96,97,98,99,100,101,102,103,104,105,106,107,108,109,110,111,112,113,114,115,116,117,118,119,120,121,122,123],"extras":{"renderer_version":"vrml-gltf-v1","source":"vrml"}},{"extras":{"kind":"IndexedLineSet"},"mesh":0},{"extras":{"color":[0.0,1.0,0.0,1.0],"kind":"Label","text":"  G"},"translation":[9.38,16.95,-45.38]},{"extras":{"color":[0.0,1.0,0.0,1.0],"kind":"Label","text":"  G"},"translation":[6.44,13.72,-48.01]},{"extras":{"color":[1.0,0.0,0.0,1.0],"kind":"Label","text":"  A"},"translation":[3.48,10.19,-52.24]},{"extras":{"color":[0.0,1.0,1.0,1.0],"kind":"Label","text":"  U"},"translation":[1.87,4.03,-52.37]},{"extras":{"color":[0.0,1.0,0.0,1.0],"kind":"Label","text":"  G"},"translation":[-4.07,2.11,-54.96]},{"extras":{"color":[0.0,1.0,0.0,1.0],"kind":"Label","text":"  G"},"translation":[-8.6,4.28,-58.83]},{"extras":{"color":[0.0,1.0,1.0,1.0],"kind":"Label","text":"  U"},"translation":[-8.37,9.54,-55.03]},{"extras":{"color":[0.0,1.0,0.0,1.0],"kind":"Label","text":"  G"},"translation":[-7.56,12.51,-49.73]},{"extras":{"color":[0.0,1.0,0.0,1.0],"kind":"Label","text":"  G"},"translation":[-4.78,10.74,-44.52]},{"extras":{"color":[1.0,0.0,0.0,1.0],"kind":"Label","text":"  A"},"translation":[-3.53,6.15,-40.35]},{"extras":{"color":[1.0,0.0,0.0,1.0],"kind":"Label","text":"  A"},"translation":[0.48,2.33,-38.03]},{"extras":{"color":[0.0,1.0,1.0,1.0],"kind":"Label","text":"  U"},"translation":[5.72,4.64,-34.4]},{"extras":{"color":[0.0,0.0,1.0,1.0],"kind":"Label","text":"  C"},"translation":[11.52,1.6,-33.23]},{"extras":{"color":[0.0,1.0,0.0,1.0],"kind":"Label","text":"  G"},"translation":[11.27,-1.28,-38.53]},{"extras":{"color":[0.0,1.0,0.0,1.0],"kind":"Label","text":"  G"},"translation":[7.04,-6.73,-39.23]},{"extras":{"color":[0.0,1.0,1.0,1.0],"kind":"Label","text":"  U"},"translation":[2.03,-9.93,-41.2]},{"extras":{"color":[1.0,0.0,0.0,1.0],"kind":"Label","text":"  A"},"translation":[0.15,-5.35,-44.57]},{"extras":{"color":[0.0,1.0,0.0,1.0],"kind":"Label","text":"  G"},"translation":[-4.29,-1.36,-44.56]},{"extras":{"color":[1.0,0.0,0.0,1.0],"kind":"Label","text":"  A"},"translation":[-7.89,-1.45,-40.77]},{"extras":{"color":[0.0,0.0,1.0,1.0],"kind":"Label","text":"  C"},"translation":[-11.96,2.67,-39.07]},{"extras":{"color":[1.0,0.0,0.0,1.0],"kind":"Label","text":"  A"},"translation":[-15.49,6.33,-42.4]},{"extras":{"color":[0.0,0.0,1.0,1.0],"kind":"Label","text":"  C"},"translation":[-17.19,8.81,-47.52]},{"extras":{"color":[1.0,0.0,0.0,1.0],"kind":"Label","text":"  A"},"translation":[-17.91,8.5,-53.48]},{"extras":{"color":[1.0,0.0,0.0,1.0],"kind":"Label","text":"  A"},"translation":[-18.58,4.08,-57.08]},{"extras":{"color":[0.0,1.0,0.0,1.0],"kind":"Label","text":"  G"},"translation":[-21.23,-0.51,-59.02]},{"extras":{"color":[0.0,1.0,0.0,1.0],"kind":"Label","text":"  G"},"translation":[-25.41,-4.57,-58.24]},{"extras":{"color":[0.0,1.0,0.0,1.0],"kind":"Label","text":"  G"},"translation":[-29.08,-8.04,-54.5]},{"extras":{"color":[1.0,0.0,0.0,1.0],"kind":"Label","text":"  A"},"translation":[-33.09,-8.57,-49.95]},{"extras":{"color":[0.0,1.0,1.0,1.0],"kind":"Label","text":"  U"},"translation":[-31.02,3.67,-40.97]},{"extras":{"color":[0.0,0.0,1.0,1.0],"kind":"Label","text":"  C"},"translation":[-28.86,-1.71,-39.28]},{"extras":{"color":[0.0,0.0,1.0,1.0],"kind":"Label","text":"  C"},"translation":[-25.14,-6.67,-40.93]},{"extras":{"color":[0.0,0.0,1.0,1.0],"kind":"Label","text":"  C"},"translation":[-20.9,-8.24,-43.94]},{"extras":{"color":[0.0,1.0,1.0,1.0],"kind":"Label","text":"  U"},"translation":[-17.51,-9.3,-48.88]},{"extras":{"color":[0.0,0.0,1.0,1.0],"kind":"Label","text":"  C"},"translation":[-12.98,-6.48,-52.06]},{"extras":{"color":[0.0,1.0,0.0,1.0],"kind":"Label","text":"  G"},"translation":[-7.67,-2.92,-53.72]},{"extras":{"color":[0.0,1.0,0.0,1.0],"kind":"Label","text":"  G"},"translation":[-6.29,-5.06,-59.36]},{"extras":{"color":[0.0,0.0,1.0,1.0],"kind":"Label","text":"  C"},"translation":[-5.51,-10.31,-62.91]},{"extras":{"color":[0.0,1.0,0.0,1.0],"kind":"Label","text":"  G"},"translation":[-6.72,-16.54,-62.54]},{"extras":{"color":[0.0,1.0,1.0,1.0],"kind":"Label","text":"  U"},"translation":[-9.33,-20.83,-59.04]},{"extras":{"color":[0.0,1.0,1.0,1.0],"kind":"Label","text":"  U"},"translation":[-13.25,-25.07,-55.77]},{"extras":{"color":[0.0,0.0,1.0,1.0],"kind":"Label","text":"  C"},"translation":[-12.59,-21.96,-50.12]},{"extras":{"color":[0.0,1.0,0.0,1.0],"kind":"Label","text":"  G"},"translation":[-10.0,-21.71,-46.77]},{"extras":{"color":[0.0,0.0,1.0,1.0],"kind":"Label","text":"  C"},"translation":[-4.77,-20.03,-48.2]},{"extras":{"color":[0.0,1.0,0.0,1.0],"kind":"Label","text":"  G"},"translation":[-0.5,-20.1,-52.63]},{"extras":{"color":[0.0,0.0,1.0,1.0],"kind":"Label","text":"  C"},"translation":[2.88,-16.78,-56.39]},{"extras":{"color":[0.0,1.0,1.0,1.0],"kind":"Label","text":"  U"},"translation":[4.1,-10.96,-57.8]},{"extras":{"color":[0.0,1.0,0.0,1.0],"kind":"Label","text":"  G"},"translation":[4.08,-5.06,-56.08]},{"extras":{"color":[0.0,1.0,1.0,1.0],"kind":"Label","text":"  U"},"translation":[4.08,0.7,-53.08]},{"extras":{"color":[0.0,1.0,0.0,1.0],"kind":"Label","text":"  G"},"translation":[5.76,4.54,-56.68]},{"extras":{"color":[0.0,0.0,1.0,1.0],"kind":"Label","text":"  C"},"translation":[10.23,1.6,-60.55]},{"extras":{"color":[0.0,1.0,0.0,1.0],"kind":"Label","text":"  G"},"translation":[15.7,-0.78,-60.77]},{"extras":{"color":[0.0,1.0,0.0,1.0],"kind":"Label","text":"  G"},"translation":[20.26,-3.47,-57.38]},{"extras":{"color":[0.0,1.0,0.0,1.0],"kind":"Label","text":"  G"},"translation":[23.19,-4.44,-52.22]},{"extras":{"color":[0.0,1.0,1.0,1.0],"kind":"Label","text":"  U"},"translation":[23.57,-5.57,-46.24]},{"extras":{"color":[0.0,1.0,1.0,1.0],"kind":"Label","text":"  U"},"translation":[20.61,-9.04,-41.97]},{"extras":{"color":[0.0,0.0,1.0,1.0],"kind":"Label","text":"  C"},"translation":[17.19,-15.02,-42.96]},{"extras":{"color":[1.0,0.0,0.0,1.0],"kind":"Label","text":"  A"},"translation":[12.43,-11.46,-44.49]},{"extras":{"color":[1.0,0.0,0.0,1.0],"kind":"Label","text":"  A"},"translation":[10.24,-5.22,-45.51]},{"extras":{"color":[0.0,1.0,0.0,1.0],"kind":"Label","text":"  G"},"translation":[7.7,0.08,-48.13]},{"extras":{"color":[0.0,1.0,1.0,1.0],"kind":"Label","text":"  U"},"translation":[10.62,3.15,-43.81]},{"extras":{"color":[0.0,0.0,1.0,1.0],"kind":"Label","text":"  C"},"translation":[16.6,3.47,-41.22]},{"extras":{"color":[0.0,0.0,1.0,1.0],"kind":"Label","text":"  C"},"translation":[21.88,4.08,-44.8]},{"extras":{"color":[0.0,0.0,1.0,1.0],"kind":"Label","text":"  C"},"translation":[24.29,5.56,-50.26]},{"extras":{"color":[0.0,1.0,0.0,1.0],"kind":"Label","text":"  G"},"translation":[23.44,7.45,-56.05]},{"extras":{"color":[0.0,0.0,1.0,1.0],"kind":"Label","text":"  C"},"translation":[19.58,8.79,-60.54]},{"extras":{"color":[0.0,1.0,1.0,1.0],"kind":"Label","text":"  U"},"translation":[14.09,10.28,-63.34]},{"extras":{"color":[0.0,0.0,1.0,1.0],"kind":"Label","text":"  C"},"translation":[9.02,13.47,-62.81]},{"extras":{"color":[0.0,0.0,1.0,1.0],"kind":"Label","text":"  C"},"translation":[4.65,18.05,-59.89]},{"extras":{"color":[0.0,0.0,1.0,1.0],"kind":"Label","text":"  C"},"translation":[17.69,39.65,-53.43]},{"extras":{"color":[0.0,0.0,1.0,1.0],"kind":"Label","text":"  C"},"translation":[22.35,40.36,-49.1]},{"extras":{"color":[1.0,0.0,0.0,1.0],"kind":"Label","text":"  A"},"translation":[26.43,38.49,-50.2]},{"extras":{"kind":"Cyl"},"mesh":1,"rotation":[-0.648011,0.0,0.211456,0.731689],"scale":[0.19,6.95,0.19],"translation":[7.01,17.5,-52.63]},{"extras":{"kind":"Sphere"},"mesh":2,"scale":[1.02,1.02,1.02],"translation":[7.01,17.5,-52.63]},{"extras":{"kind":"Cyl"},"mesh":3,"rotation":[-0.703566,0.0,-0.120814,0.700285],"scale":[0.21,6.83,0.21],"translation":[7.73,13.59,-55.41]},{"extras":{"kind":"Cyl"},"mesh":3,"rotation":[-0.507759,0.0,-0.486603,0.710914],"scale":[0.22,6.98,0.22],"translation":[8.79,10.24,-57.79]},{"extras":{"kind":"Cyl"},"mesh":1,"rotation":[0.590834,-0.0,0.2662,0.761612],"scale":[0.17,6.07,0.17],"translation":[-0.83,5.09,-46.36]},{"extras":{"kind":"Sphere"},"mesh":4,"scale":[0.89,0.89,0.89],"translation":[0.52,4.56,-49.36]},{"extras":{"kind":"Box"},"mesh":5,"rotation":[0.590834,-0.0,0.2662,0.761612],"scale":[0.74,0.74,0.74],"translation":[-2.18,5.62,-43.36]},{"extras":{"kind":"Cyl"},"mesh":1,"rotation":[0.221111,-0.0,0.149183,0.963771],"scale":[0.15,5.53,0.15],"translation":[-5.82,7.31,-52.35]},{"extras":{"kind":"Sphere"},"mesh":2,"scale":[0.81,0.81,0.81],"translation":[-4.94,4.71,-53.65]},{"extras":{"kind":"Box"},"mesh":6,"rotation":[0.221111,-0.0,0.149183,0.963771],"scale":[0.68,0.68,0.68],"translation":[-6.69,9.91,-51.04]},{"extras":{"kind":"Cyl"},"mesh":3,"rotation":[0.46849,-0.0,0.357224,0.808028],"scale":[0.21,6.78,0.21],"translation":[-12.89,6.54,-53.17]},{"extras":{"kind":"Cyl"},"mesh":3,"rotation":[0.679802,-0.0,0.382877,0.625519],"scale":[0.21,6.75,0.21],"translation":[-11.93,7.94,-48.72]},{"extras":{"kind":"Cyl"},"mesh":3,"rotation":[0.839815,-0.0,0.34688,0.417595],"scale":[0.22,6.89,0.22],"translation":[-9.76,7.59,-44.4]},{"extras":{"kind":"Cyl"},"mesh":1,"rotation":[0.755084,-0.0,0.627602,0.189641],"scale":[0.16,5.96,0.16],"translation":[-6.33,4.64,-42.64]},{"extras":{"kind":"Cone"},"mesh":7,"rotation":[0.755084,-0.0,0.627602,0.189641],"scale":[0.87,0.87,0.87],"translation":[-5.55,7.69,-43.58]},{"extras":{"kind":"Box"},"mesh":5,"rotation":[0.755084,-0.0,0.627602,0.189641],"scale":[0.73,0.73,0.73],"translation":[-7.11,1.6,-41.71]},{"extras":{"kind":"Cyl"},"mesh":1,"rotation":[-0.731658,0.0,-0.643859,0.223883],"scale":[0.16,5.81,0.16],"translation":[-1.69,0.4,-42.46]},{"extras":{"kind":"Sphere"},"mesh":2,"scale":[0.85,0.85,0.85],"translation":[-2.61,3.28,-41.41]},{"extras":{"kind":"Cone"},"mesh":8,"rotation":[-0.731658,0.0,-0.643859,0.223883],"scale":[0.85,0.85,0.85],"translation":[-0.77,-2.47,-43.52]},{"extras":{"kind":"Cyl"},"mesh":1,"rotation":[-0.724553,0.0,-0.171801,0.667463],"scale":[0.19,7.07,0.19],"translation":[2.28,1.51,-45.55]},{"extras":{"kind":"Sphere"},"mesh":4,"scale":[1.04,1.04,1.04],"translation":[2.28,1.51,-45.55]},{"extras":{"kind":"Cyl"},"mesh":1,"rotation":[-0.313315,0.0,-0.841474,0.440177],"scale":[0.16,5.73,0.16],"translation":[15.94,-5.16,-40.25]},{"extras":{"kind":"Sphere"},"mesh":4,"scale":[0.84,0.84,0.84],"translation":[13.61,-3.22,-39.39]},{"extras":{"kind":"Cone"},"mesh":7,"rotation":[-0.313315,0.0,-0.841474,0.440177],"scale":[0.84,0.84,0.84],"translation":[18.27,-7.1,-41.11]},{"extras":{"kind":"Cyl"},"mesh":3,"rotation":[-0.305412,0.0,-0.844374,0.440177],"scale":[0.19,6.19,0.19],"translation":[12.11,-10.88,-41.09]},{"extras":{"kind":"Cyl"},"mesh":1,"rotation":[-0.640632,0.0,-0.466633,0.609791],"scale":[0.18,6.69,0.18],"translation":[-0.1,-3.21,-50.32]},{"extras":{"kind":"Box"},"mesh":5,"rotation":[-0.640632,0.0,-0.466633,0.609791],"scale":[0.82,0.82,0.82],"translation":[-2.2,-2.28,-47.44]},{"extras":{"kind":"Cone"},"mesh":7,"rotation":[-0.640632,0.0,-0.466633,0.609791],"scale":[0.98,0.98,0.98],"translation":[1.99,-4.14,-53.2]},{"extras":{"kind":"Cyl"},"mesh":3,"rotation":[0.954019,0.0,-0.125275,0.272313],"scale":[0.22,7.15,0.22],"translation":[-18.05,-2.61,-52.98]},{"extras":{"kind":"Cyl"},"mesh":1,"rotation":[0.851938,0.0,-0.017039,0.523366],"scale":[0.21,7.7,0.21],"translation":[-21.06,-4.38,-51.48]},{"extras":{"kind":"Sphere"},"mesh":2,"scale":[1.13,1.13,1.13],"translation":[-21.06,-4.38,-51.48]},{"extras":{"kind":"Cyl"},"mesh":1,"rotation":[0.749921,0.0,-0.236817,0.617686],"scale":[0.19,7.02,0.19],"translation":[-23.15,-6.41,-51.09]},{"extras":{"kind":"Sphere"},"mesh":2,"scale":[1.03,1.03,1.03],"translation":[-23.15,-6.41,-51.09]},{"extras":{"kind":"Cyl"},"mesh":1,"rotation":[0.310694,0.0,-0.07367,0.947651],"scale":[0.19,6.96,0.19],"translation":[-32.06,-2.45,-45.46]},{"extras":{"kind":"Sphere"},"mesh":2,"scale":[1.02,1.02,1.02],"translation":[-32.06,-2.45,-45.46]},{"extras":{"kind":"Cyl"},"mesh":1,"rotation":[-0.290568,0.0,-0.827678,0.480124],"scale":[0.19,6.74,0.19],"translation":[-1.79,-6.94,-55.76]},{"extras":{"kind":"Sphere"},"mesh":2,"scale":[0.99,0.99,0.99],"translation":[-1.79,-6.94,-55.76]},{"extras":{"kind":"Cyl"},"mesh":3,"rotation":[0.291854,0.0,-0.894392,0.338946],"scale":[0.22,6.89,0.22],"translation":[-1.7,-10.92,-57.88]},{"extras":{"kind":"Cyl"},"mesh":3,"rotation":[0.816302,0.0,-0.399081,0.417595],"scale":[0.22,6.84,0.22],"translation":[-3.0,-15.21,-57.77]},{"extras":{"kind":"Cyl"},"mesh":3,"rotation":[0.778678,0.0,-0.110116,0.617686],"scale":[0.21,6.77,0.21],"translation":[-5.74,-18.28,-55.37]},{"extras":{"kind":"Cyl"},"mesh":1,"rotation":[0.730234,-0.0,0.036512,0.682221],"scale":[0.15,5.6,0.15],"translation":[-9.66,-21.27,-52.9]},{"extras":{"kind":"Cone"},"mesh":7,"rotation":[0.730234,-0.0,0.036512,0.682221],"scale":[0.82,0.82,0.82],"translation":[-9.5,-21.05,-55.97]},{"extras":{"kind":"Sphere"},"mesh":4,"scale":[0.82,0.82,0.82],"translation":[-9.83,-21.49,-49.83]},{"extras":{"kind":"Cyl"},"mesh":3,"rotation":[-0.161688,0.0,-0.574891,0.802096],"scale":[0.21,6.8,0.21],"translation":[12.67,6.66,-58.61]},{"extras":{"kind":"Cyl"},"mesh":3,"rotation":[0.176272,0.0,-0.523309,0.833712],"scale":[0.22,6.88,0.22],"translation":[16.84,4.52,-58.3]},{"extras":{"kind":"Cyl"},"mesh":3,"rotation":[0.414389,0.0,-0.339046,0.844589],"scale":[0.21,6.81,0.21],"translation":[20.0,2.39,-55.51]},{"extras":{"kind":"Cyl"},"mesh":3,"rotation":[0.488343,0.0,-0.064126,0.870293],"scale":[0.21,6.71,0.21],"translation":[21.07,0.3,-51.09]},{"extras":{"kind":"Cyl"},"mesh":3,"rotation":[0.419895,-0.0,0.249008,0.872745],"scale":[0.22,6.85,0.22],"translation":[19.89,-0.49,-46.72]},{"extras":{"kind":"Cyl"},"mesh":1,"rotation":[0.034763,-0.0,0.695267,0.717911],"scale":[0.17,6.07,0.17],"translation":[16.9,-5.4,-45.87]},{"extras":{"kind":"Sphere"},"mesh":4,"scale":[0.89,0.89,0.89],"translation":[20.24,-5.48,-46.06]},{"extras":{"kind":"Box"},"mesh":5,"rotation":[0.034763,-0.0,0.695267,0.717911],"scale":[0.74,0.74,0.74],"translation":[13.57,-5.31,-45.69]}],"scene":0,"scenes":[{"nodes":[0]}]}
