#VRML V2.0 utf8

PROTO Label [
  field SFVec3f p 0 0 0
  field SFFloat sz 1.5
  field MFString c []
  field SFVec3f o 0 0 0
  field SFColor dc 0 0 0
  field SFColor ec 0 0 0
  field SFColor sc 0.0 0.0 0.0
  field SFFloat sh 1.0
  field SFFloat tr 0
]
{
  Transform {
    translation IS p
    children [
      Billboard {
        axisOfRotation 0 0 0
        children [
          Transform {
            translation IS o
            children [
              Shape {
                appearance Appearance {
                  material Material {
                    diffuseColor IS dc
                    emissiveColor IS ec
                    specularColor IS sc
                    shininess IS sh
                    transparency IS tr
                  }
                }
                geometry Text {
                  string IS c
                  fontStyle FontStyle {
                    style "BOLD"
                    justify "MIDDLE"
                    size IS sz
                  }
                }
              }
            ]
          }
        ]
      }
    ]
  }
}
PROTO Sphere [
  exposedField SFVec3f p 0 0 0
  field SFFloat rad 1.0
  field SFColor dc 1 0 0 
  field SFColor ec 0 0 0
  field SFColor sc 0 0 0
  field SFFloat sh 1
  field SFFloat tr 0
]
{
  Transform {
    translation IS p
    children [
      Shape {
        appearance Appearance {
          material Material {
            diffuseColor IS dc
            emissiveColor IS ec
            specularColor IS sc
            shininess IS sh
            transparency IS tr
          }
        }
        geometry Sphere {
          radius IS rad
        }
      }
    ]
  }
}
PROTO Box [
  exposedField SFVec3f p 0 0 0
  exposedField SFRotation r 0 0 1 0
  exposedField SFVec3f s 1 1 1
  field SFColor dc 1 0 0 
  field SFColor ec 0 0 0
  field SFColor sc 0 0 0
  field SFFloat sh 1
  field SFFloat tr 0
]
{
  Transform {
    translation IS p
    rotation IS r
    scale IS s
    children [
      Shape {
        appearance Appearance {
          material Material {
            diffuseColor IS dc
            emissiveColor IS ec
            specularColor IS sc
            shininess IS sh
            transparency IS tr
          }
        }
        geometry Box { }
      }
    ]
  }
}
PROTO Cyl [
  exposedField SFVec3f p 0 0 0
  exposedField SFRotation r 0 0 1 0
  exposedField SFVec3f s 1 1 1
  field SFColor dc 1 0 0
  field SFColor ec 0 0 0
  field SFColor sc 0 0 0
  field SFFloat sh 1
  field SFFloat tr 0
]
{
  Transform {
    translation IS p
    rotation IS r
    scale IS s
    children [
      Shape {
        appearance Appearance {
          material Material {
            diffuseColor IS dc
            emissiveColor IS ec
            specularColor IS sc
            shininess IS sh
            transparency IS tr
          }
        }
        geometry Cylinder { }
      }
    ]
  }
}
PROTO Cone [
  exposedField SFVec3f p 0 0 0
  exposedField SFRotation r 0 0 1 0
  exposedField SFVec3f s 1 1 1
  field SFColor dc 1 0 0 
  field SFColor ec 0 0 0
  field SFColor sc 0 0 0
  field SFFloat sh 1
  field SFFloat tr 0
]
{
  Transform {
    translation IS p
    rotation IS r
    scale IS s
    children [
      Shape {
        appearance Appearance {
          material Material {
            diffuseColor IS dc
            emissiveColor IS ec
            specularColor IS sc
            shininess IS sh
            transparency IS tr
          }
        }
        geometry Cone {
        }
      }
    ]
  }
}
Collision {
  collide FALSE
  children [
    
    Shape {
      appearance Appearance {
        material Material {
          diffuseColor 0.71 0.34 0.88
          transparency 1
        }
      }
      geometry IndexedLineSet {
        coord Coordinate {
          point [
            -3.50 40.69 -50.05, -1.18 38.40 -45.27, 2.91 35.62 -40.25, 8.66 32.90 -38.81
            14.86 32.16 -40.28, 19.25 35.82 -42.53, 23.81 39.94 -44.93
            28.18 39.46 -40.98, 25.21 34.64 -43.70, 20.07 31.12 -47.26
            19.06 29.64 -53.08, 22.07 28.64 -58.23, 27.30 26.69 -61.36
            32.95 24.33 -61.06, 37.74 21.36 -57.90, 39.14 16.02 -56.17
            38.76 15.28 -50.01, 35.29 9.92 -49.44, 38.01 4.78 -51.06, 41.76 2.13 -53.43
            35.74 -1.36 -51.68, 30.76 -3.95 -54.75, 29.80 -6.72 -60.13
            32.95 -10.47 -63.92, 37.45 -14.75 -64.34, 41.50 -18.75 -61.59
            43.23 -21.90 -56.45, 42.14 -23.84 -50.63, 38.46 -26.17 -46.65
            32.57 -26.28 -45.11, 30.99 -26.21 -39.77, 27.74 -20.39 -38.24
            23.00 -19.37 -42.01, 20.09 -19.59 -47.72, 18.30 -23.00 -53.19
            18.51 -28.18 -56.68, 19.78 -34.22 -56.12, 19.71 -38.83 -58.92
            17.08 -43.19 -63.24, 11.06 -42.49 -65.48, 5.06 -42.48 -64.60
            1.93 -39.53 -60.42, 2.72 -32.82 -60.95, 7.98 -32.27 -57.24
            11.77 -35.26 -52.88, 18.02 -36.73 -51.68, 18.60 -41.44 -47.53
            17.54 -43.38 -41.99, 15.39 -43.06 -36.14, 11.28 -41.14 -32.15
            5.62 -38.34 -32.52, 0.50 -35.39 -34.74, -2.74 -35.77 -39.93
            -4.01 -39.06 -44.84, -7.22 -42.73 -48.90, -4.33 -44.94 -54.58
            0.87 -44.28 -58.18, 4.51 -46.24 -55.38, 7.58 -49.73 -51.05
            7.82 -44.90 -46.88, 5.99 -38.84 -46.96, 6.24 -32.12 -47.58
            5.20 -27.85 -43.07, 7.72 -27.17 -37.14, 12.70 -28.34 -33.76
            18.02 -31.47 -32.64, 22.83 -34.53 -34.66, 26.43 -36.58 -39.18
            28.98 -37.21 -44.88, 30.11 -35.42 -50.53, 31.01 -31.33 -54.79
            29.53 -26.29 -57.86, 28.48 -21.14 -56.01, 27.34 -14.72 -50.26
            31.89 -13.57 -45.90, 38.31 -13.20 -45.13, 43.97 -12.57 -48.06
            47.24 -11.33 -53.46, 47.06 -8.85 -59.08, 44.30 -5.81 -63.96
            40.01 -1.45 -64.69, 36.40 4.68 -63.46, 32.20 9.13 -62.71, 28.19 11.60 -59.16
            24.08 15.41 -57.37, 22.27 19.04 -52.79, 23.17 21.16 -46.96
            27.65 23.00 -43.12, 33.78 24.58 -43.44, 37.73 27.97 -47.18
            38.11 31.68 -51.99, 35.36 36.03 -56.31, 30.16 38.96 -56.76
            24.72 40.25 -55.38, 17.85 40.12 -54.30, 14.87 37.15 -54.61
            13.63 30.70 -52.65, 11.12 26.35 -48.85, 5.30 25.41 -45.80, -0.20 27.65 -44.19
            -6.93 28.07 -46.20, -13.36 29.86 -47.47, -18.31 27.93 -48.52
            -23.88 26.09 -45.76, -26.97 20.80 -44.12, -30.58 18.07 -45.77
            -36.22 15.15 -44.28, -37.82 18.81 -41.31, -44.83 18.95 -40.15
            -43.60 22.14 -42.75, -37.77 25.25 -43.65, -34.34 30.52 -45.31
            -34.07 36.81 -42.66, -36.51 42.22 -40.28, -40.32 43.67 -35.35
            -42.86 41.84 -29.19, -42.99 27.17 -28.65, -47.15 31.14 -31.60
            -49.37 35.42 -36.56, -48.89 39.72 -41.54, -46.44 40.06 -47.81
            -43.10 36.79 -51.96, -39.39 31.52 -53.59, -43.97 33.07 -56.99
            -43.22 29.28 -58.98, -42.02 25.35 -63.41, -36.90 25.14 -67.20
            -31.08 21.75 -66.81, -25.81 19.39 -64.87, -21.51 18.38 -60.87
            -19.40 18.03 -55.11, -20.45 15.78 -49.51, -24.15 12.37 -46.33
            -28.77 8.61 -45.58, -32.62 4.02 -47.33, -37.39 3.02 -46.37
            -41.36 6.90 -49.70, -44.34 8.14 -46.47, -46.63 13.42 -44.32
            -48.23 19.41 -44.89, -49.27 24.47 -48.61, -49.84 26.79 -54.27
            -50.19 26.25 -60.35, -53.11 23.54 -65.93, -52.85 9.66 -60.69
            -47.13 11.60 -62.77, -42.92 15.89 -62.38, -40.04 20.77 -60.21
            -38.08 24.24 -55.26, -37.13 23.89 -49.32, -31.31 23.36 -47.21
            -26.24 27.28 -49.41, -23.63 29.88 -54.94, -23.37 32.23 -60.15
            -26.15 31.72 -65.88
          ]
        }
        coordIndex [
          0 1 2 3 4 5 6 7 8 9 10 11 12 13 14 15 16 17 18 19 20 21 22 23
          24 25 26 27 28 29 30 31 32 33 34 35 36 37 38 39 40 41 42 43 44
          45 46 47 48 49 50 51 52 53 54 55 56 57 58 59 60 61 62 63 64 65
          66 67 68 69 70 71 72 73 74 75 76 77 78 79 80 81 82 83 84 85 86
          87 88 89 90 91 92 93 94 95 96 97 98 99 100 101 102 103 104 105
          106 107 108 109 110 111 112 113 114 115 116 117 118 119 120 121
          122 123 124 125 126 127 128 129 130 131 132 133 134 135 136 137
          138 139 140 141 142 143 144 145 146 147 148 149 150 151 152 153
          154 -1
        ]
        colorPerVertex FALSE
        color Color {
          color [
            0.71 0.34 0.88
          ]
        }
        colorIndex [
          0
        ]
      }
    }
Label { p  -3.50 40.69 -50.05 c "  G" dc  0.000, 1.000, 0.000}
Label { p  -1.18 38.40 -45.27 c "  U" dc  0.000, 1.000, 1.000}
Label { p  2.91 35.62 -40.25 c "  U" dc  0.000, 1.000, 1.000}
Label { p  8.66 32.90 -38.81 c "  G" dc  0.000, 1.000, 0.000}
Label { p  14.86 32.16 -40.28 c "  C" dc  0.000, 0.000, 1.000}
Label { p  19.25 35.82 -42.53 c "  A" dc  1.000, 0.000, 0.000}
Label { p  23.81 39.94 -44.93 c "  G" dc  0.000, 1.000, 0.000}
Label { p  28.18 39.46 -40.98 c "  U" dc  0.000, 1.000, 1.000}
Label { p  25.21 34.64 -43.70 c "  G" dc  0.000, 1.000, 0.000}
Label { p  20.07 31.12 -47.26 c "  A" dc  1.000, 0.000, 0.000}
Label { p  19.06 29.64 -53.08 c "  G" dc  0.000, 1.000, 0.000}
Label { p  22.07 28.64 -58.23 c "  A" dc  1.000, 0.000, 0.000}
Label { p  27.30 26.69 -61.36 c "  G" dc  0.000, 1.000, 0.000}
Label { p  32.95 24.33 -61.06 c "  A" dc  1.000, 0.000, 0.000}
Label { p  37.74 21.36 -57.90 c "  A" dc  1.000, 0.000, 0.000}
Label { p  39.14 16.02 -56.17 c "  A" dc  1.000, 0.000, 0.000}
Label { p  38.76 15.28 -50.01 c "  G" dc  0.000, 1.000, 0.000}
Label { p  35.29 9.92 -49.44 c "  A" dc  1.000, 0.000, 0.000}
Label { p  38.01 4.78 -51.06 c "  A" dc  1.000, 0.000, 0.000}
Label { p  41.76 2.13 -53.43 c "  G" dc  0.000, 1.000, 0.000}
Label { p  35.74 -1.36 -51.68 c "  U" dc  0.000, 1.000, 1.000}
Label { p  30.76 -3.95 -54.75 c "  A" dc  1.000, 0.000, 0.000}
Label { p  29.80 -6.72 -60.13 c "  C" dc  0.000, 0.000, 1.000}
Label { p  32.95 -10.47 -63.92 c "  U" dc  0.000, 1.000, 1.000}
Label { p  37.45 -14.75 -64.34 c "  U" dc  0.000, 1.000, 1.000}
Label { p  41.50 -18.75 -61.59 c "  G" dc  0.000, 1.000, 0.000}
Label { p  43.23 -21.90 -56.45 c "  C" dc  0.000, 0.000, 1.000}
Label { p  42.14 -23.84 -50.63 c "  G" dc  0.000, 1.000, 0.000}
Label { p  38.46 -26.17 -46.65 c "  U" dc  0.000, 1.000, 1.000}
Label { p  32.57 -26.28 -45.11 c "  U" dc  0.000, 1.000, 1.000}
Label { p  30.99 -26.21 -39.77 c "  A" dc  1.000, 0.000, 0.000}
Label { p  27.74 -20.39 -38.24 c "  C" dc  0.000, 0.000, 1.000}
Label { p  23.00 -19.37 -42.01 c "  C" dc  0.000, 0.000, 1.000}
Label { p  20.09 -19.59 -47.72 c "  U" dc  0.000, 1.000, 1.000}
Label { p  18.30 -23.00 -53.19 c "  C" dc  0.000, 0.000, 1.000}
Label { p  18.51 -28.18 -56.68 c "  A" dc  1.000, 0.000, 0.000}
Label { p  19.78 -34.22 -56.12 c "  U" dc  0.000, 1.000, 1.000}
Label { p  19.71 -38.83 -58.92 c "  G" dc  0.000, 1.000, 0.000}
Label { p  17.08 -43.19 -63.24 c "  A" dc  1.000, 0.000, 0.000}
Label { p  11.06 -42.49 -65.48 c "  A" dc  1.000, 0.000, 0.000}
Label { p  5.06 -42.48 -64.60 c "  A" dc  1.000, 0.000, 0.000}
Label { p  1.93 -39.53 -60.42 c "  G" dc  0.000, 1.000, 0.000}
Label { p  2.72 -32.82 -60.95 c "  C" dc  0.000, 0.000, 1.000}
Label { p  7.98 -32.27 -57.24 c "  G" dc  0.000, 1.000, 0.000}
Label { p  11.77 -35.26 -52.88 c "  A" dc  1.000, 0.000, 0.000}
Label { p  18.02 -36.73 -51.68 c "  C" dc  0.000, 0.000, 1.000}
Label { p  18.60 -41.44 -47.53 c "  C" dc  0.000, 0.000, 1.000}
Label { p  17.54 -43.38 -41.99 c "  U" dc  0.000, 1.000, 1.000}
Label { p  15.39 -43.06 -36.14 c "  U" dc  0.000, 1.000, 1.000}
Label { p  11.28 -41.14 -32.15 c "  A" dc  1.000, 0.000, 0.000}
Label { p  5.62 -38.34 -32.52 c "  G" dc  0.000, 1.000, 0.000}
Label { p  0.50 -35.39 -34.74 c "  G" dc  0.000, 1.000, 0.000}
Label { p  -2.74 -35.77 -39.93 c "  G" dc  0.000, 1.000, 0.000}
Label { p  -4.01 -39.06 -44.84 c "  C" dc  0.000, 0.000, 1.000}
Label { p  -7.22 -42.73 -48.90 c "  G" dc  0.000, 1.000, 0.000}
Label { p  -4.33 -44.94 -54.58 c "  G" dc  0.000, 1.000, 0.000}
Label { p  0.87 -44.28 -58.18 c "  U" dc  0.000, 1.000, 1.000}
Label { p  4.51 -46.24 -55.38 c "  G" dc  0.000, 1.000, 0.000}
Label { p  7.58 -49.73 -51.05 c "  U" dc  0.000, 1.000, 1.000}
Label { p  7.82 -44.90 -46.88 c "  A" dc  1.000, 0.000, 0.000}
Label { p  5.99 -38.84 -46.96 c "  A" dc  1.000, 0.000, 0.000}
Label { p  6.24 -32.12 -47.58 c "  G" dc  0.000, 1.000, 0.000}
Label { p  5.20 -27.85 -43.07 c "  C" dc  0.000, 0.000, 1.000}
Label { p  7.72 -27.17 -37.14 c "  U" dc  0.000, 1.000, 1.000}
Label { p  12.70 -28.34 -33.76 c "  A" dc  1.000, 0.000, 0.000}
Label { p  18.02 -31.47 -32.64 c "  A" dc  1.000, 0.000, 0.000}
Label { p  22.83 -34.53 -34.66 c "  G" dc  0.000, 1.000, 0.000}
Label { p  26.43 -36.58 -39.18 c "  G" dc  0.000, 1.000, 0.000}
Label { p  28.98 -37.21 -44.88 c "  A" dc  1.000, 0.000, 0.000}
Label { p  30.11 -35.42 -50.53 c "  U" dc  0.000, 1.000, 1.000}
Label { p  31.01 -31.33 -54.79 c "  G" dc  0.000, 1.000, 0.000}
Label { p  29.53 -26.29 -57.86 c "  A" dc  1.000, 0.000, 0.000}
Label { p  28.48 -21.14 -56.01 c "  G" dc  0.000, 1.000, 0.000}
Label { p  27.34 -14.72 -50.26 c "  A" dc  1.000, 0.000, 0.000}
Label { p  31.89 -13.57 -45.90 c "  C" dc  0.000, 0.000, 1.000}
Label { p  38.31 -13.20 -45.13 c "  G" dc  0.000, 1.000, 0.000}
Label { p  43.97 -12.57 -48.06 c "  C" dc  0.000, 0.000, 1.000}
Label { p  47.24 -11.33 -53.46 c "  A" dc  1.000, 0.000, 0.000}
Label { p  47.06 -8.85 -59.08 c "  A" dc  1.000, 0.000, 0.000}
Label { p  44.30 -5.81 -63.96 c "  C" dc  0.000, 0.000, 1.000}
Label { p  40.01 -1.45 -64.69 c "  G" dc  0.000, 1.000, 0.000}
Label { p  36.40 4.68 -63.46 c "  A" dc  1.000, 0.000, 0.000}
Label { p  32.20 9.13 -62.71 c "  A" dc  1.000, 0.000, 0.000}
Label { p  28.19 11.60 -59.16 c "  A" dc  1.000, 0.000, 0.000}
Label { p  24.08 15.41 -57.37 c "  G" dc  0.000, 1.000, 0.000}
Label { p  22.27 19.04 -52.79 c "  G" dc  0.000, 1.000, 0.000}
Label { p  23.17 21.16 -46.96 c "  C" dc  0.000, 0.000, 1.000}
Label { p  27.65 23.00 -43.12 c "  A" dc  1.000, 0.000, 0.000}
Label { p  33.78 24.58 -43.44 c "  U" dc  0.000, 1.000, 1.000}
Label { p  37.73 27.97 -47.18 c "  U" dc  0.000, 1.000, 1.000}
Label { p  38.11 31.68 -51.99 c "  C" dc  0.000, 0.000, 1.000}
Label { p  35.36 36.03 -56.31 c "  U" dc  0.000, 1.000, 1.000}
Label { p  30.16 38.96 -56.76 c "  U" dc  0.000, 1.000, 1.000}
Label { p  24.72 40.25 -55.38 c "  G" dc  0.000, 1.000, 0.000}
Label { p  17.85 40.12 -54.30 c "  A" dc  1.000, 0.000, 0.000}
Label { p  14.87 37.15 -54.61 c "  G" dc  0.000, 1.000, 0.000}
Label { p  13.63 30.70 -52.65 c "  C" dc  0.000, 0.000, 1.000}
Label { p  11.12 26.35 -48.85 c "  A" dc  1.000, 0.000, 0.000}
Label { p  5.30 25.41 -45.80 c "  A" dc  1.000, 0.000, 0.000}
Label { p  -0.20 27.65 -44.19 c "  U" dc  0.000, 1.000, 1.000}
Label { p  -6.93 28.07 -46.20 c "  A" dc  1.000, 0.000, 0.000}
Label { p  -13.36 29.86 -47.47 c "  A" dc  1.000, 0.000, 0.000}
Label { p  -18.31 27.93 -48.52 c "  A" dc  1.000, 0.000, 0.000}
Label { p  -23.88 26.09 -45.76 c "  A" dc  1.000, 0.000, 0.000}
Label { p  -26.97 20.80 -44.12 c "  A" dc  1.000, 0.000, 0.000}
Label { p  -30.58 18.07 -45.77 c "  A" dc  1.000, 0.000, 0.000}
Label { p  -36.22 15.15 -44.28 c "  G" dc  0.000, 1.000, 0.000}
Label { p  -37.82 18.81 -41.31 c "  A" dc  1.000, 0.000, 0.000}
Label { p  -44.83 18.95 -40.15 c "  G" dc  0.000, 1.000, 0.000}
Label { p  -43.60 22.14 -42.75 c "  G" dc  0.000, 1.000, 0.000}
Label { p  -37.77 25.25 -43.65 c "  C" dc  0.000, 0.000, 1.000}
Label { p  -34.34 30.52 -45.31 c "  U" dc  0.000, 1.000, 1.000}
Label { p  -34.07 36.81 -42.66 c "  G" dc  0.000, 1.000, 0.000}
Label { p  -36.51 42.22 -40.28 c "  G" dc  0.000, 1.000, 0.000}
Label { p  -40.32 43.67 -35.35 c "  G" dc  0.000, 1.000, 0.000}
Label { p  -42.86 41.84 -29.19 c "  A" dc  1.000, 0.000, 0.000}
Label { p  -42.99 27.17 -28.65 c "  U" dc  0.000, 1.000, 1.000}
Label { p  -47.15 31.14 -31.60 c "  C" dc  0.000, 0.000, 1.000}
Label { p  -49.37 35.42 -36.56 c "  U" dc  0.000, 1.000, 1.000}
Label { p  -48.89 39.72 -41.54 c "  C" dc  0.000, 0.000, 1.000}
Label { p  -46.44 40.06 -47.81 c "  A" dc  1.000, 0.000, 0.000}
Label { p  -43.10 36.79 -51.96 c "  G" dc  0.000, 1.000, 0.000}
Label { p  -39.39 31.52 -53.59 c "  C" dc  0.000, 0.000, 1.000}
Label { p  -43.97 33.07 -56.99 c "  A" dc  1.000, 0.000, 0.000}
Label { p  -43.22 29.28 -58.98 c "  A" dc  1.000, 0.000, 0.000}
Label { p  -42.02 25.35 -63.41 c "  C" dc  0.000, 0.000, 1.000}
Label { p  -36.90 25.14 -67.20 c "  U" dc  0.000, 1.000, 1.000}
Label { p  -31.08 21.75 -66.81 c "  A" dc  1.000, 0.000, 0.000}
Label { p  -25.81 19.39 -64.87 c "  G" dc  0.000, 1.000, 0.000}
Label { p  -21.51 18.38 -60.87 c "  G" dc  0.000, 1.000, 0.000}
Label { p  -19.40 18.03 -55.11 c "  G" dc  0.000, 1.000, 0.000}
Label { p  -20.45 15.78 -49.51 c "  U" dc  0.000, 1.000, 1.000}
Label { p  -24.15 12.37 -46.33 c "  G" dc  0.000, 1.000, 0.000}
Label { p  -28.77 8.61 -45.58 c "  G" dc  0.000, 1.000, 0.000}
Label { p  -32.62 4.02 -47.33 c "  A" dc  1.000, 0.000, 0.000}
Label { p  -37.39 3.02 -46.37 c "  A" dc  1.000, 0.000, 0.000}
Label { p  -41.36 6.90 -49.70 c "  C" dc  0.000, 0.000, 1.000}
Label { p  -44.34 8.14 -46.47 c "  C" dc  0.000, 0.000, 1.000}
Label { p  -46.63 13.42 -44.32 c "  G" dc  0.000, 1.000, 0.000}
Label { p  -48.23 19.41 -44.89 c "  C" dc  0.000, 0.000, 1.000}
Label { p  -49.27 24.47 -48.61 c "  G" dc  0.000, 1.000, 0.000}
Label { p  -49.84 26.79 -54.27 c "  G" dc  0.000, 1.000, 0.000}
Label { p  -50.19 26.25 -60.35 c "  G" dc  0.000, 1.000, 0.000}
Label { p  -53.11 23.54 -65.93 c "  A" dc  1.000, 0.000, 0.000}
Label { p  -52.85 9.66 -60.69 c "  U" dc  0.000, 1.000, 1.000}
Label { p  -47.13 11.60 -62.77 c "  C" dc  0.000, 0.000, 1.000}
Label { p  -42.92 15.89 -62.38 c "  U" dc  0.000, 1.000, 1.000}
Label { p  -40.04 20.77 -60.21 c "  C" dc  0.000, 0.000, 1.000}
Label { p  -38.08 24.24 -55.26 c "  G" dc  0.000, 1.000, 0.000}
Label { p  -37.13 23.89 -49.32 c "  U" dc  0.000, 1.000, 1.000}
Label { p  -31.31 23.36 -47.21 c "  C" dc  0.000, 0.000, 1.000}
Label { p  -26.24 27.28 -49.41 c "  C" dc  0.000, 0.000, 1.000}
Label { p  -23.63 29.88 -54.94 c "  C" dc  0.000, 0.000, 1.000}
Label { p  -23.37 32.23 -60.15 c "  U" dc  0.000, 1.000, 1.000}
Label { p  -26.15 31.72 -65.88 c "  A" dc  1.000, 0.000, 0.000}

    Shape {
      appearance Appearance {
        material Material {
          diffuseColor 1 1 0.5
          transparency 1
        }
      }
      geometry IndexedLineSet {
        coord Coordinate {
          point [
            -31.34 -1.51 -51.47, -31.20 -4.07 -57.31, -26.37 -6.96 -60.63
            -20.39 -7.17 -62.62, -14.45 -7.07 -61.15, -9.92 -7.39 -57.12
            -7.80 -7.00 -51.61, -4.10 -9.24 -47.88, 1.10 -7.50 -44.72, 1.13 -1.31 -41.71
            0.18 1.19 -47.56, -0.14 0.12 -53.59, -0.68 -4.99 -57.75, 0.37 -10.54 -60.26
            0.95 -16.53 -59.88, -3.45 -21.95 -60.40, -3.99 -25.07 -58.17
            1.65 -25.70 -53.76, 2.46 -24.14 -48.79, 4.98 -19.98 -49.30
            8.20 -15.46 -51.49, 11.12 -10.70 -54.81, 12.35 -4.58 -54.88
            11.47 1.05 -52.30, 10.23 3.59 -46.89, 11.10 2.97 -40.71, 14.66 0.36 -36.35
            20.35 -2.01 -34.82, 26.30 -2.70 -36.88, 30.53 -1.07 -41.04
            35.09 1.81 -44.52, 34.12 7.81 -44.99, 33.91 12.67 -41.02, 27.61 12.72 -40.28
            22.13 11.77 -42.84, 19.41 9.96 -47.96, 20.35 6.40 -52.83, 23.03 1.04 -54.11
            24.20 -5.04 -51.52, 23.74 -9.63 -47.22, 19.85 -11.81 -43.69
            15.72 -11.53 -38.76, 10.10 -10.12 -36.78, 4.64 -8.16 -37.70
            0.64 -10.88 -41.56, -3.51 -15.59 -41.71, -5.11 -13.27 -46.12
            -8.91 -10.80 -44.69, -12.67 -13.54 -40.21, -15.84 -18.62 -39.39
            -18.43 -23.72 -41.30, -19.00 -28.31 -45.24, -16.98 -31.72 -49.85
            -11.84 -33.87 -52.06, -7.44 -36.50 -47.74, -5.21 -30.94 -46.60
            -5.49 -24.80 -48.28, -5.22 -18.30 -48.75, -8.55 -19.08 -54.43
            -12.09 -23.08 -57.78, -18.58 -22.93 -56.52, -22.97 -20.59 -52.76
            -24.96 -16.71 -48.58, -23.71 -12.26 -44.66, -20.34 -7.29 -42.79
            -16.73 -2.65 -44.13, -13.83 1.33 -48.24, -13.72 3.43 -53.97
            -15.71 3.99 -60.08, -20.85 4.81 -63.40, -26.98 3.87 -64.71
            -32.36 5.23 -62.39, -35.49 8.81 -59.19, -37.08 12.12 -54.28
            -35.24 16.12 -50.26
          ]
        }
        coordIndex [
          0 1 2 3 4 5 6 7 8 9 10 11 12 13 14 15 16 17 18 19 20 21 22 23
          24 25 26 27 28 29 30 31 32 33 34 35 36 37 38 39 40 41 42 43 44
          45 46 47 48 49 50 51 52 53 54 55 56 57 58 59 60 61 62 63 64 65
          66 67 68 69 70 71 72 73 74 -1
        ]
        colorPerVertex FALSE
        color Color {
          color [
            1 1 0.5
          ]
        }
        colorIndex [
          0
        ]
      }
    }
Label { p  -31.34 -1.51 -51.47 c "  G" dc  0.000, 1.000, 0.000}
Label { p  -31.20 -4.07 -57.31 c "  C" dc  0.000, 0.000, 1.000}
Label { p  -26.37 -6.96 -60.63 c "  G" dc  0.000, 1.000, 0.000}
Label { p  -20.39 -7.17 -62.62 c "  G" dc  0.000, 1.000, 0.000}
Label { p  -14.45 -7.07 -61.15 c "  A" dc  1.000, 0.000, 0.000}
Label { p  -9.92 -7.39 -57.12 c "  A" dc  1.000, 0.000, 0.000}
Label { p  -7.80 -7.00 -51.61 c "  G" dc  0.000, 1.000, 0.000}
Label { p  -4.10 -9.24 -47.88 c "  U" dc  0.000, 1.000, 1.000}
Label { p  1.10 -7.50 -44.72 c "  A" dc  1.000, 0.000, 0.000}
Label { p  1.13 -1.31 -41.71 c "  G" dc  0.000, 1.000, 0.000}
Label { p  0.18 1.19 -47.56 c "  U" dc  0.000, 1.000, 1.000}
Label { p  -0.14 0.12 -53.59 c "  U" dc  0.000, 1.000, 1.000}
Label { p  -0.68 -4.99 -57.75 c "  C" dc  0.000, 0.000, 1.000}
Label { p  0.37 -10.54 -60.26 c "  A" dc  1.000, 0.000, 0.000}
Label { p  0.95 -16.53 -59.88 c "  G" dc  0.000, 1.000, 0.000}
Label { p  -3.45 -21.95 -60.40 c "  U" dc  0.000, 1.000, 1.000}
Label { p  -3.99 -25.07 -58.17 c "  G" dc  0.000, 1.000, 0.000}
Label { p  1.65 -25.70 -53.76 c "  G" dc  0.000, 1.000, 0.000}
Label { p  2.46 -24.14 -48.79 c "  U" dc  0.000, 1.000, 1.000}
Label { p  4.98 -19.98 -49.30 c "  A" dc  1.000, 0.000, 0.000}
Label { p  8.20 -15.46 -51.49 c "  G" dc  0.000, 1.000, 0.000}
Label { p  11.12 -10.70 -54.81 c "  A" dc  1.000, 0.000, 0.000}
Label { p  12.35 -4.58 -54.88 c "  A" dc  1.000, 0.000, 0.000}
Label { p  11.47 1.05 -52.30 c "  C" dc  0.000, 0.000, 1.000}
Label { p  10.23 3.59 -46.89 c "  A" dc  1.000, 0.000, 0.000}
Label { p  11.10 2.97 -40.71 c "  C" dc  0.000, 0.000, 1.000}
Label { p  14.66 0.36 -36.35 c "  C" dc  0.000, 0.000, 1.000}
Label { p  20.35 -2.01 -34.82 c "  A" dc  1.000, 0.000, 0.000}
Label { p  26.30 -2.70 -36.88 c "  C" dc  0.000, 0.000, 1.000}
Label { p  30.53 -1.07 -41.04 c "  C" dc  0.000, 0.000, 1.000}
Label { p  35.09 1.81 -44.52 c "  U" dc  0.000, 1.000, 1.000}
Label { p  34.12 7.81 -44.99 c "  U" dc  0.000, 1.000, 1.000}
Label { p  33.91 12.67 -41.02 c "  G" dc  0.000, 1.000, 0.000}
Label { p  27.61 12.72 -40.28 c "  C" dc  0.000, 0.000, 1.000}
Label { p  22.13 11.77 -42.84 c "  C" dc  0.000, 0.000, 1.000}
Label { p  19.41 9.96 -47.96 c "  A" dc  1.000, 0.000, 0.000}
Label { p  20.35 6.40 -52.83 c "  A" dc  1.000, 0.000, 0.000}
Label { p  23.03 1.04 -54.11 c "  G" dc  0.000, 1.000, 0.000}
Label { p  24.20 -5.04 -51.52 c "  G" dc  0.000, 1.000, 0.000}
Label { p  23.74 -9.63 -47.22 c "  U" dc  0.000, 1.000, 1.000}
Label { p  19.85 -11.81 -43.69 c "  G" dc  0.000, 1.000, 0.000}
Label { p  15.72 -11.53 -38.76 c "  G" dc  0.000, 1.000, 0.000}
Label { p  10.10 -10.12 -36.78 c "  G" dc  0.000, 1.000, 0.000}
Label { p  4.64 -8.16 -37.70 c "  G" dc  0.000, 1.000, 0.000}
Label { p  0.64 -10.88 -41.56 c "  G" dc  0.000, 1.000, 0.000}
Label { p  -3.51 -15.59 -41.71 c "  U" dc  0.000, 1.000, 1.000}
Label { p  -5.11 -13.27 -46.12 c "  C" dc  0.000, 0.000, 1.000}
Label { p  -8.91 -10.80 -44.69 c "  G" dc  0.000, 1.000, 0.000}
Label { p  -12.67 -13.54 -40.21 c "  C" dc  0.000, 0.000, 1.000}
Label { p  -15.84 -18.62 -39.39 c "  G" dc  0.000, 1.000, 0.000}
Label { p  -18.43 -23.72 -41.30 c "  G" dc  0.000, 1.000, 0.000}
Label { p  -19.00 -28.31 -45.24 c "  G" dc  0.000, 1.000, 0.000}
Label { p  -16.98 -31.72 -49.85 c "  U" dc  0.000, 1.000, 1.000}
Label { p  -11.84 -33.87 -52.06 c "  U" dc  0.000, 1.000, 1.000}
Label { p  -7.44 -36.50 -47.74 c "  C" dc  0.000, 0.000, 1.000}
Label { p  -5.21 -30.94 -46.60 c "  G" dc  0.000, 1.000, 0.000}
Label { p  -5.49 -24.80 -48.28 c "  A" dc  1.000, 0.000, 0.000}
Label { p  -5.22 -18.30 -48.75 c "  A" dc  1.000, 0.000, 0.000}
Label { p  -8.55 -19.08 -54.43 c "  U" dc  0.000, 1.000, 1.000}
Label { p  -12.09 -23.08 -57.78 c "  C" dc  0.000, 0.000, 1.000}
Label { p  -18.58 -22.93 -56.52 c "  C" dc  0.000, 0.000, 1.000}
Label { p  -22.97 -20.59 -52.76 c "  C" dc  0.000, 0.000, 1.000}
Label { p  -24.96 -16.71 -48.58 c "  G" dc  0.000, 1.000, 0.000}
Label { p  -23.71 -12.26 -44.66 c "  U" dc  0.000, 1.000, 1.000}
Label { p  -20.34 -7.29 -42.79 c "  C" dc  0.000, 0.000, 1.000}
Label { p  -16.73 -2.65 -44.13 c "  U" dc  0.000, 1.000, 1.000}
Label { p  -13.83 1.33 -48.24 c "  U" dc  0.000, 1.000, 1.000}
Label { p  -13.72 3.43 -53.97 c "  C" dc  0.000, 0.000, 1.000}
Label { p  -15.71 3.99 -60.08 c "  C" dc  0.000, 0.000, 1.000}
Label { p  -20.85 4.81 -63.40 c "  G" dc  0.000, 1.000, 0.000}
Label { p  -26.98 3.87 -64.71 c "  C" dc  0.000, 0.000, 1.000}
Label { p  -32.36 5.23 -62.39 c "  U" dc  0.000, 1.000, 1.000}
Label { p  -35.49 8.81 -59.19 c "  C" dc  0.000, 0.000, 1.000}
Label { p  -37.08 12.12 -54.28 c "  C" dc  0.000, 0.000, 1.000}
Label { p  -35.24 16.12 -50.26 c "  A" dc  1.000, 0.000, 0.000}
Cyl {p 2.06 31.90 -45.54  r  -0.08 0.00 -1.00 2.68  s  0.21 6.60 0.21  tr  0.00}
 Cyl {p 7.01 30.98 -44.55  r  -0.72 0.00 -0.69 2.23  s  0.22 6.85 0.22  tr  0.00}
 Cyl {p 11.15 31.80 -45.73  r  -0.94 0.00 -0.34 1.72  s  0.21 6.76 0.21  tr  0.00}
 Cyl {p 14.87 34.66 -47.45  r  -1.00 0.00 -0.00 1.24  s  0.22 6.89 0.22  tr  0.00}
 Cyl {p 21.53 37.88 -43.73  r  -0.47 0.00 -0.88 0.90  s  0.08 3.00 0.08  tr  0.60}
 Cone {p 21.53 37.88 -43.73  r  -0.47 0.00 -0.88 0.90  s  0.44 0.44 0.44   dc 1 0 0  tr  0.00}
 Cyl {p 21.53 37.38 -49.00  r  -0.82 0.00 0.57 1.17  s  0.18 6.38 0.18  tr  0.60}
 Cone {p 23.37 36.01 -46.35  r  -0.82 0.00 0.57 1.17  s  0.94 0.94 0.94   dc 1 1 0  tr  0.60}
 Box {p 19.69 38.75 -51.65  r  -0.82 0.00 0.57 1.17  s  0.78 0.78 0.78   dc 1 1 0  tr  0.60}
 Cyl {p 22.39 35.68 -51.32  r  -0.87 0.00 -0.50 0.80  s  0.16 5.94 0.16  tr  0.60}
 Box {p 21.23 33.40 -49.29  r  -0.87 0.00 -0.50 0.80  s  0.73 0.73 0.73   dc 1 1 0  tr  0.60}
 Cone {p 23.55 37.96 -53.35  r  -0.87 0.00 -0.50 0.80  s  0.87 0.87 0.87   dc 1 1 0  tr  0.60}
 Cyl {p 24.61 34.30 -54.92  r  -0.31 0.00 -0.95 0.90  s  0.19 6.80 0.19  tr  0.60}
 Sphere {p 24.61 34.30 -54.92  rad  1.00   dc 1 0 0  tr  0.00}
 Cyl {p 28.72 32.34 -57.27  r  0.14 0.00 -0.99 1.07  s  0.22 6.97 0.22  tr  0.00}
 Cyl {p 32.70 29.19 -56.67  r  0.65 0.00 -0.76 1.24  s  0.22 6.89 0.22  tr  0.00}
 Cyl {p 35.34 26.15 -54.12  r  0.95 0.00 -0.33 1.33  s  0.22 6.87 0.22  tr  0.00}
 Cyl {p 35.76 22.97 -50.67  r  0.96 -0.00 0.26 1.36  s  0.22 6.97 0.22  tr  0.00}
 Cyl {p 33.21 19.14 -46.56  r  0.53 -0.00 0.85 1.04  s  0.19 6.90 0.19  tr  0.60}
 Box {p 35.98 17.21 -48.29  r  0.53 -0.00 0.85 1.04  s  0.84 0.84 0.84   dc 1 0 0  tr  0.00}
 Sphere {p 30.43 21.07 -44.84  rad  1.01   dc 1 0 0  tr  0.00}
 Cyl {p 36.07 1.66 -57.57  r  -1.00 0.00 -0.06 1.10  s  0.17 6.02 0.17  tr  0.60}
 Sphere {p 35.90 0.15 -54.63  rad  0.88   dc 1 1 0  tr  0.60}
 Box {p 36.24 3.17 -60.51  r  -1.00 0.00 -0.06 1.10  s  0.74 0.74 0.74   dc 1 1 0  tr  0.60}
 Cyl {p 35.38 -2.70 -59.72  r  -0.73 0.00 -0.68 1.39  s  0.17 6.27 0.17  tr  0.60}
 Box {p 33.07 -3.32 -57.23  r  -0.73 0.00 -0.68 1.39  s  0.77 0.77 0.77   dc 1 1 0  tr  0.60}
 Cone {p 37.70 -2.08 -62.21  r  -0.73 0.00 -0.68 1.39  s  0.92 0.92 0.92   dc 1 1 0  tr  0.60}
 Cyl {p 37.05 -6.27 -62.05  r  -0.26 0.00 -0.97 1.51  s  0.19 6.83 0.19  tr  0.60}
 Sphere {p 37.05 -6.27 -62.05  rad  1.00   dc 1 0 0  tr  0.00}
 Cyl {p 40.00 -9.66 -61.50  r  0.32 0.00 -0.95 1.46  s  0.21 6.82 0.21  tr  0.00}
 Cyl {p 42.35 -13.04 -58.90  r  0.74 0.00 -0.67 1.34  s  0.21 6.83 0.21  tr  0.00}
 Cyl {p 42.74 -15.66 -54.83  r  0.98 0.00 -0.18 1.15  s  0.22 6.85 0.22  tr  0.00}
 Cyl {p 40.77 -17.55 -50.79  r  0.92 -0.00 0.40 0.96  s  0.22 6.87 0.22  tr  0.00}
 Cyl {p 37.01 -18.70 -48.26  r  0.42 -0.00 0.91 0.83  s  0.22 6.94 0.22  tr  0.00}
 Cyl {p 34.72 -26.19 -43.21  r  0.68 -0.00 0.74 1.57  s  0.13 4.61 0.13  tr  0.60}
 Cone {p 36.59 -26.18 -44.93  r  0.68 -0.00 0.74 1.57  s  0.68 0.68 0.68   dc 1 1 0  tr  0.60}
 Box {p 32.86 -26.20 -41.49  r  0.68 -0.00 0.74 1.57  s  0.56 0.56 0.56   dc 1 1 0  tr  0.60}
 Cyl {p 31.05 -26.28 -51.49  r  -0.97 0.00 0.23 1.57  s  0.16 5.96 0.16  tr  0.60}
 Sphere {p 31.81 -26.28 -48.30  rad  0.87   dc 1 1 0  tr  0.60}
 Box {p 30.29 -26.28 -54.67  r  -0.97 0.00 0.23 1.57  s  0.73 0.73 0.73   dc 1 1 0  tr  0.60}
 Cyl {p 25.74 -20.25 -49.01  r  -0.93 0.00 -0.36 1.69  s  0.22 6.88 0.22  tr  0.00}
 Cyl {p 24.81 -22.94 -52.79  r  -0.73 0.00 -0.68 2.02  s  0.22 7.00 0.22  tr  0.00}
 Cyl {p 24.66 -27.16 -53.99  r  -0.12 0.00 -0.99 2.15  s  0.22 6.94 0.22  tr  0.00}
 Cyl {p 24.31 -31.80 -53.60  r  0.47 0.00 -0.88 2.07  s  0.21 6.81 0.21  tr  0.00}
 Cyl {p 24.38 -35.71 -50.50  r  0.77 0.00 -0.63 1.77  s  0.21 6.74 0.21  tr  0.00}
 Cyl {p 3.96 -39.18 -53.69  r  0.96 0.00 -0.29 1.52  s  0.18 6.40 0.18  tr  0.60}
 Cone {p 2.95 -39.35 -57.05  r  0.96 0.00 -0.29 1.52  s  0.94 0.94 0.94   dc 1 1 0  tr  0.60}
 Sphere {p 4.98 -39.01 -50.32  rad  0.94   dc 1 1 0  tr  0.60}
 Cyl {p 4.48 -32.47 -54.26  r  0.97 0.00 -0.25 1.52  s  0.20 6.29 0.20  tr  0.00}
 Cyl {p 8.14 -40.75 -54.13  r  -0.32 0.00 0.95 2.53  s  0.17 6.09 0.17  tr  0.60}
 Sphere {p 9.96 -38.01 -53.51  rad  0.89   dc 1 1 0  tr  0.60}
 Cone {p 6.32 -43.49 -54.76  r  -0.32 0.00 0.95 2.53  s  0.89 0.89 0.89   dc 1 1 0  tr  0.60}
 Cyl {p 22.22 -36.65 -45.43  r  0.83 0.00 -0.56 1.56  s  0.22 6.85 0.22  tr  0.00}
 Cyl {p 20.71 -37.99 -41.10  r  0.95 0.00 -0.31 1.10  s  0.22 6.91 0.22  tr  0.00}
 Cyl {p 17.78 -37.42 -37.32  r  1.00 0.00 -0.05 0.67  s  0.22 6.88 0.22  tr  0.00}
 Cyl {p 14.05 -35.70 -34.95  r  0.66 -0.00 0.75 0.24  s  0.22 6.89 0.22  tr  0.00}
 Cyl {p 9.50 -34.15 -34.64  r  -0.81 0.00 0.58 0.41  s  0.22 6.93 0.22  tr  0.00}
 Cyl {p 5.41 -33.09 -37.80  r  -1.00 0.00 0.04 0.79  s  0.21 6.77 0.21  tr  0.00}
 Cyl {p 3.43 -41.56 -52.57  r  0.91 0.00 -0.41 1.16  s  0.17 6.13 0.17  tr  0.60}
 Sphere {p 2.15 -42.92 -55.38  rad  0.90   dc 1 1 0  tr  0.60}
 Box {p 4.71 -40.20 -49.76  r  0.91 0.00 -0.41 1.16  s  0.75 0.75 0.75   dc 1 1 0  tr  0.60}
 Cyl {p 23.11 13.59 -50.10  r  0.99 -0.00 0.13 1.81  s  0.22 6.86 0.22  tr  0.00}
 Cyl {p 24.94 15.88 -46.54  r  0.92 0.00 -0.39 2.01  s  0.21 6.82 0.21  tr  0.00}
 Cyl {p 28.54 16.92 -43.99  r  0.48 0.00 -0.88 2.18  s  0.21 6.79 0.21  tr  0.00}
 Cyl {p -41.08 13.48 -43.89  r  -0.62 0.00 0.78 2.48  s  0.17 6.15 0.17  tr  0.60}
 Box {p -39.45 16.14 -42.60  r  -0.62 0.00 0.78 2.48  s  0.75 0.75 0.75   dc 1 0 0  tr  0.00}
 Sphere {p -42.71 10.81 -45.18  rad  0.90   dc 1 0 0  tr  0.00}
 Cyl {p -41.50 26.83 -48.17  r  -0.93 0.00 -0.36 0.89  s  0.21 6.79 0.21  tr  0.00}
 Cyl {p -40.44 31.02 -47.80  r  -0.84 0.00 0.54 0.71  s  0.22 6.90 0.22  tr  0.00}
 Cyl {p -40.39 35.29 -46.56  r  -0.20 0.00 0.98 0.91  s  0.22 7.10 0.22  tr  0.00}
 Cyl {p -41.48 38.27 -42.10  r  0.07 -0.00 1.00 1.38  s  0.22 6.88 0.22  tr  0.00}
 Cyl {p -42.94 38.82 -38.42  r  0.28 -0.00 0.96 2.04  s  0.19 6.82 0.19  tr  0.60}
 Sphere {p -42.94 38.82 -38.42  rad  1.00   dc 1 0 0  tr  0.00}
 Cyl {p -43.74 37.41 -33.47  r  0.48 -0.00 0.88 2.58  s  0.21 6.71 0.21  tr  0.00}
 Cyl {p -42.92 34.50 -28.92  r  0.97 -0.00 0.24 3.10  s  0.18 6.67 0.18  tr  0.60}
 Sphere {p -42.92 34.50 -28.92  rad  0.98   dc 1 0 0  tr  0.00}
 Cyl {p -27.22 26.99 -63.48  r  0.65 0.00 -0.76 0.77  s  0.18 6.65 0.18  tr  0.60}
 Sphere {p -27.22 26.99 -63.48  rad  0.97   dc 1 0 0  tr  0.00}
 Cyl {p -24.59 25.81 -62.51  r  0.89 0.00 -0.46 0.39  s  0.17 6.32 0.17  tr  0.60}
 Sphere {p -24.59 25.81 -62.51  rad  0.93   dc 1 0 0  tr  0.00}
 Cyl {p -23.88 22.83 -55.14  r  0.92 -0.00 0.38 0.95  s  0.22 6.94 0.22  tr  0.00}
 Cyl {p -22.57 24.13 -57.91  r  0.94 -0.00 0.34 0.50  s  0.16 5.96 0.16  tr  0.60}
 Sphere {p -22.57 24.13 -57.91  rad  0.87   dc 1 0 0  tr  0.00}
 Cyl {p -25.35 20.70 -51.16  r  0.55 -0.00 0.83 1.21  s  0.22 6.94 0.22  tr  0.00}
 Cyl {p -27.84 15.95 -49.88  r  -0.05 0.00 1.00 1.55  s  0.21 6.73 0.21  tr  0.00}
 Cyl {p -30.61 12.25 -50.31  r  -0.52 0.00 0.85 1.59  s  0.22 6.90 0.22  tr  0.00}
 Cyl {p -32.13 8.71 -52.39  r  -0.90 0.00 0.44 1.56  s  0.22 6.90 0.22  tr  0.00}
 Cyl {p -32.49 4.62 -54.86  r  -1.00 0.00 -0.02 1.49  s  0.22 6.87 0.22  tr  0.00}
 Cyl {p -41.88 18.66 -46.82  r  -0.47 0.00 -0.88 0.80  s  0.19 6.82 0.19  tr  0.60}
 Sphere {p -41.88 18.66 -46.82  rad  1.00   dc 1 0 0  tr  0.00}
 Cyl {p -43.16 21.83 -50.07  r  -0.71 0.00 -0.70 1.25  s  0.22 6.95 0.22  tr  0.00}
 Cyl {p -44.66 22.62 -54.41  r  -0.78 0.00 -0.62 1.82  s  0.22 6.94 0.22  tr  0.00}
 Cyl {p -46.38 21.34 -58.33  r  -0.76 0.00 -0.65 2.37  s  0.19 6.93 0.19  tr  0.60}
 Sphere {p -46.38 21.34 -58.33  rad  1.02   dc 1 0 0  tr  0.00}
 Cyl {p -48.66 18.92 -61.56  r  -0.62 0.00 -0.78 2.88  s  0.22 6.89 0.22  tr  0.00}
 Cyl {p -52.98 16.60 -63.31  r  1.00 0.00 -0.05 2.78  s  0.21 6.75 0.21  tr  0.00}
 Cyl {p -29.16 1.18 -58.09  r  -0.95 0.00 -0.31 1.20  s  0.21 6.79 0.21  tr  0.00}
 Cyl {p -26.03 0.37 -60.35  r  -0.51 0.00 -0.86 0.93  s  0.21 6.79 0.21  tr  0.00}
 Cyl {p -21.04 -1.48 -60.36  r  0.05 0.00 -1.00 0.77  s  0.22 6.95 0.22  tr  0.00}
 Cyl {p -17.06 -1.87 -58.29  r  0.79 0.00 -0.61 0.80  s  0.22 6.92 0.22  tr  0.00}
 Cyl {p -14.14 -2.87 -54.69  r  1.00 0.00 -0.05 0.99  s  0.22 7.00 0.22  tr  0.00}
 Cyl {p -13.32 -5.02 -50.63  r  0.89 -0.00 0.46 1.26  s  0.22 7.01 0.22  tr  0.00}
 Cyl {p -14.07 -7.14 -47.20  r  0.58 -0.00 0.82 1.59  s  0.22 6.97 0.22  tr  0.00}
 Cyl {p -1.87 -9.89 -54.07  r  -0.94 0.00 -0.34 1.67  s  0.17 6.01 0.17  tr  0.60}
 Sphere {p -2.99 -9.56 -50.98  rad  0.88   dc 1 1 0  tr  0.60}
 Box {p -0.75 -10.21 -57.17  r  -0.94 0.00 -0.34 1.67  s  0.73 0.73 0.73   dc 1 1 0  tr  0.60}
 Cyl {p 6.30 -0.13 -47.01  r  -0.72 0.00 -0.70 1.41  s  0.21 6.81 0.21  tr  0.00}
 Cyl {p 2.88 -4.74 -39.71  r  0.75 0.00 -0.66 2.48  s  0.11 3.95 0.11  tr  0.60}
 Box {p 2.00 -3.02 -40.71  r  0.75 0.00 -0.66 2.48  s  0.48 0.48 0.48   dc 1 0 0  tr  0.00}
 Cone {p 3.76 -6.45 -38.71  r  0.75 0.00 -0.66 2.48  s  0.58 0.58 0.58   dc 1 0 0  tr  0.00}
 Cyl {p 6.26 -1.70 -51.22  r  -0.52 0.00 -0.86 1.96  s  0.22 6.97 0.22  tr  0.00}
 Cyl {p 5.49 -5.29 -54.20  r  -0.11 0.00 -0.99 2.33  s  0.22 7.12 0.22  tr  0.00}
 Cyl {p 3.76 -10.22 -54.62  r  0.58 0.00 -0.82 2.34  s  0.22 6.86 0.22  tr  0.00}
 Cyl {p -2.08 -14.90 -53.00  r  0.92 -0.00 0.40 1.36  s  0.19 6.99 0.19  tr  0.60}
 Sphere {p -2.08 -14.90 -53.00  rad  1.03   dc 1 1 0  tr  0.60}
 Cyl {p -2.90 -31.10 -50.75  r  0.55 -0.00 0.83 2.35  s  0.19 6.97 0.19  tr  0.60}
 Sphere {p -2.90 -31.10 -50.75  rad  1.02   dc 1 0 0  tr  0.00}
 Cyl {p 4.42 -13.17 -46.53  r  0.80 -0.00 0.61 1.22  s  0.17 6.04 0.17  tr  0.60}
 Box {p 6.31 -14.32 -49.01  r  0.80 -0.00 0.61 1.22  s  0.74 0.74 0.74   dc 1 1 0  tr  0.60}
 Sphere {p 2.53 -12.02 -44.05  rad  0.89   dc 1 1 0  tr  0.60}
 Cyl {p 10.17 -3.26 -41.83  r  1.00 -0.00 0.01 2.51  s  0.21 7.74 0.21  tr  0.60}
 Sphere {p 10.17 -3.26 -41.83  rad  1.14   dc 1 0 0  tr  0.00}
 Cyl {p 13.41 -4.28 -39.74  r  0.39 0.00 -0.92 2.81  s  0.22 6.97 0.22  tr  0.00}
 Cyl {p 17.25 -5.73 -40.02  r  -0.82 0.00 -0.58 2.51  s  0.22 6.88 0.22  tr  0.00}
 Cyl {p 22.04 -5.82 -41.02  r  -0.96 0.00 -0.26 2.11  s  0.21 6.80 0.21  tr  0.00}
 Cyl {p 25.25 -3.87 -44.20  r  -0.99 0.00 0.14 1.73  s  0.21 6.81 0.21  tr  0.00}
 Cyl {p 26.78 -0.02 -47.58  r  -0.87 0.00 0.50 1.43  s  0.22 6.92 0.22  tr  0.00}
 Cyl {p -16.31 -11.53 -44.68  r  0.00 -0.00 1.00 1.67  s  0.19 6.76 0.19  tr  0.60}
 Sphere {p -16.31 -11.53 -44.68  rad  0.99   dc 1 0 0  tr  0.00}
 Cyl {p -18.81 -15.12 -44.39  r  -0.56 0.00 0.83 1.78  s  0.22 6.91 0.22  tr  0.00}
 Cyl {p -19.40 -19.61 -46.07  r  -0.88 0.00 0.47 1.70  s  0.22 6.94 0.22  tr  0.00}
 Cyl {p -18.51 -23.33 -48.91  r  -1.00 0.00 0.01 1.52  s  0.22 6.93 0.22  tr  0.00}
 Cyl {p -15.54 -25.70 -51.51  r  -0.88 0.00 -0.48 1.22  s  0.22 6.93 0.22  tr  0.00}
 Cyl {p -11.23 -28.26 -49.07  r  0.14 0.00 -0.99 1.03  s  0.17 6.14 0.17  tr  0.60}
 Sphere {p -14.10 -29.99 -49.46  rad  0.90   dc 1 1 0  tr  0.60}
 Box {p -8.36 -26.53 -48.67  r  0.14 0.00 -0.99 1.03  s  0.75 0.75 0.75   dc 1 1 0  tr  0.60}
 
  ]
}
NavigationInfo {
  speed 4
  type [
    "EXAMINE" "FLY"
  ]
}
