{"accessors":[{"bufferView":0,"componentType":5126,"count":155,"max":[47.24,43.67,-28.65],"min":[-53.11,-49.73,-67.2],"type":"VEC3"},{"bufferView":1,"componentType":5126,"count":75,"max":[35.09,16.12,-34.82],"min":[-37.08,-36.5,-64.71],"type":"VEC3"},{"bufferView":2,"componentType":5126,"count":34,"max":[1.0,1.0,1.0],"min":[-1.0,-1.0,-1.0],"type":"VEC3"},{"bufferView":3,"componentType":5126,"count":34,"type":"VEC3"},{"bufferView":4,"componentType":5123,"count":192,"type":"SCALAR"},{"bufferView":5,"componentType":5126,"count":18,"max":[1.0,1.0,1.0],"min":[-1.0,-1.0,-1.0],"type":"VEC3"},{"bufferView":6,"componentType":5126,"count":18,"type":"VEC3"},{"bufferView":7,"componentType":5123,"count":96,"type":"SCALAR"},{"bufferView":8,"componentType":5126,"count":24,"max":[1.0,1.0,1.0],"min":[-1.0,-1.0,-1.0],"type":"VEC3"},{"bufferView":9,"componentType":5126,"count":24,"type":"VEC3"},{"bufferView":10,"componentType":5123,"count":36,"type":"SCALAR"},{"bufferView":11,"componentType":5126,"count":153,"max":[1.0,1.0,1.0],"min":[-1.0,-1.0,-1.0],"type":"VEC3"},{"bufferView":12,"componentType":5126,"count":153,"type":"VEC3"},{"bufferView":13,"componentType":5123,"count":768,"type":"SCALAR"}],"asset":{"generator":"rnaview_vrml_gltf vrml-gltf-v1","version":"2.0"},"bufferViews":[{"buffer":0,"byteLength":1860,"byteOffset":0,"target":34962},{"buffer":1,"byteLength":900,"byteOffset":0,"target":34962},{"buffer":2,"byteLength":408,"byteOffset":0,"target":34962},{"buffer":2,"byteLength":408,"byteOffset":408,"target":34962},{"buffer":2,"byteLength":384,"byteOffset":816,"target":34963},{"buffer":3,"byteLength":216,"byteOffset":0,"target":34962},{"buffer":3,"byteLength":216,"byteOffset":216,"target":34962},{"buffer":3,"byteLength":192,"byteOffset":432,"target":34963},{"buffer":4,"byteLength":288,"byteOffset":0,"target":34962},{"buffer":4,"byteLength":288,"byteOffset":288,"target":34962},{"buffer":4,"byteLength":72,"byteOffset":576,"target":34963},{"buffer":5,"byteLength":1836,"byteOffset":0,"target":34962},{"buffer":5,"byteLength":1836,"byteOffset":1836,"target":34962},{"buffer":5,"byteLength":1536,"byteOffset":3672,"target":34963}],"buffers":[{"byteLength":1860,"uri":"data:application/octet-stream;base64,"},{"byteLength":900,"uri":"data:application/octet-stream;base64,"},{"byteLength":1200,"uri":"data:application/octet-stream;base64,"},{"byteLength":624,"uri":"data:application/octet-stream;base64,"},{"byteLength":648,"uri":"data:application/octet-stream;base64,"},{"byteLength":5208,"uri":"data:application/octet-stream;base64,"}],"materials":[{"alphaMode":"BLEND","pbrMetallicRoughness":{"baseColorFactor":[0.71,0.34,0.88,0.0],"metallicFactor":0.0,"roughnessFactor":1.0}},{"alphaMode":"BLEND","pbrMetallicRoughness":{"baseColorFactor":[1.0,1.0,0.5,0.0],"metallicFactor":0.0,"roughnessFactor":1.0}},{"pbrMetallicRoughness":{"baseColorFactor":[1.0,0.0,0.0,1.0],"metallicFactor":0.0,"roughnessFactor":1.0}},{"alphaMode":"BLEND","pbrMetallicRoughness":{"baseColorFactor":[1.0,0.0,0.0,0.4],"metallicFactor":0.0,"roughnessFactor":1.0}},{"alphaMode":"BLEND","pbrMetallicRoughness":{"baseColorFactor":[1.0,1.0,0.0,0.4],"metallicFactor":0.0,"roughnessFactor":1.0}}],"meshes":[{"primitives":[{"attributes":{"POSITION":0},"material":0,"mode":3}]},{"primitives":[{"attributes":{"POSITION":1},"material":1,"mode":3}]},{"primitives":[{"attributes":{"NORMAL":3,"POSITION":2},"indices":4,"material":2}]},{"primitives":[{"attributes":{"NORMAL":3,"POSITION":2},"indices":4,"material":3}]},{"primitives":[{"attributes":{"NORMAL":6,"POSITION":5},"indices":7,"material":2}]},{"primitives":[{"attributes":{"NORMAL":6,"POSITION":5},"indices":7,"material":4}]},{"primitives":[{"attributes":{"NORMAL":9,"POSITION":8},"indices":10,"material":4}]},{"primitives":[{"attributes":{"NORMAL":12,"POSITION":11},"indices":13,"material":2}]},{"primitives":[{"attributes":{"NORMAL":9,"POSITION":8},"indices":10,"material":2}]},{"primitives":[{"attributes":{"NORMAL":12,"POSITION":11},"indices":13,"material":4}]}],"nodes":[{"children":[1,2,3,4,5,6,7,8,9,10,11,12,13,14,15,16,17,18,19,20,21,22,23,24,25,26,27,28,29,30,31,32,33,34,35,36,37,38,39,40,41,42,43,44,45,46,47,48,49,50,51,52,53,54,55,56,57,58,59,60,61,62,63,64,65,66,67,68,69,70,71,72,73,74,75,76,77,78,79,80,81,82,83,84,85,86,87,88,89,90,91,92,93,94,95,96,97,98,99,100,101,102,103,104,105,106,107,108,109,110,111,112,113,114,115,116,117,118,119,120,121,122,123,124,125,126,127,128,129,130,131,132,133,134,135,136,137,138,139,140,141,142,143,144,145,146,147,148,149,150,151,152,153,154,155,156,157,158,159,160,161,162,163,164,165,166,167,168,169,170,171,172,173,174,175,176,177,178,179,180,181,182,183,184,185,186,187,188,189,190,191,192,193,194,195,196,197,198,199,200,201,202,203,204,205,206,207,208,209,210,211,212,213,214,215,216,217,218,219,220,221,222,223,224,225,226,227,228,229,230,231,232,233,234,235,236,237,238,239,240,241,242,243,244,245,246,247,248,249,250,251,252,253,254,255,256,257,258,259,260,261,262,263,264,265,266,267,268,269,270,271,272,273,274,275,276,277,278,279,280,281,282,283,284,285,286,287,288,289,290,291,292,293,294,295,296,297,298,299,300,301,302,303,304,305,306,307,308,309,310,311,312,313,314,315,316,317,318,319,320,321,322,323,324,325,326,327,328,329,330,331,332,333,334,335,336,337,338,339,340,341,342,343,344,345,346,347,348,349,350,351,352,353,354,355,356,357,358,359,360,361,362,363,364,365,366,367,368],"extras":{"renderer_version":"vrml-gltf-v1","source":"vrml"}},{"extras":{"kind":"IndexedLineSet"},"mesh":0},{"extras":{"kind":"IndexedLineSet"},"mesh":1},{"extras":{"color":[0.0,1.0,0.0,1.0],"kind":"Label","text":"  G"},"translation":[-3.5,40.69,-50.05]},{"extras":{"color":[0.0,1.0,1.0,1.0],"kind":"Label","text":"  U"},"translation":[-1.18,38.4,-45.27]},{"extras":{"color":[0.0,1.0,1.0,1.0],"kind":"Label","text":"  U"},"translation":[2.91,35.62,-40.25]},{"extras":{"color":[0.0,1.0,0.0,1.0],"kind":"Label","text":"  G"},"translation":[8.66,32.9,-38.81]},{"extras":{"color":[0.0,0.0,1.0,1.0],"kind":"Label","text":"  C"},"translation":[14.86,32.16,-40.28]},{"extras":{"color":[1.0,0.0,0.0,1.0],"kind":"Label","text":"  A"},"translation":[19.25,35.82,-42.53]},{"extras":{"color":[0.0,1.0,0.0,1.0],"kind":"Label","text":"  G"},"translation":[23.81,39.94,-44.93]},{"extras":{"color":[0.0,1.0,1.0,1.0],"kind":"Label","text":"  U"},"translation":[28.18,39.46,-40.98]},{"extras":{"color":[0.0,1.0,0.0,1.0],"kind":"Label","text":"  G"},"translation":[25.21,34.64,-43.7]},{"extras":{"color":[1.0,0.0,0.0,1.0],"kind":"Label","text":"  A"},"translation":[20.07,31.12,-47.26]},{"extras":{"color":[0.0,1.0,0.0,1.0],"kind":"Label","text":"  G"},"translation":[19.06,29.64,-53.08]},{"extras":{"color":[1.0,0.0,0.0,1.0],"kind":"Label","text":"  A"},"translation":[22.07,28.64,-58.23]},{"extras":{"color":[0.0,1.0,0.0,1.0],"kind":"Label","text":"  G"},"translation":[27.3,26.69,-61.36]},{"extras":{"color":[1.0,0.0,0.0,1.0],"kind":"Label","text":"  A"},"translation":[32.95,24.33,-61.06]},{"extras":{"color":[1.0,0.0,0.0,1.0],"kind":"Label","text":"  A"},"translation":[37.74,21.36,-57.9]},{"extras":{"color":[1.0,0.0,0.0,1.0],"kind":"Label","text":"  A"},"translation":[39.14,16.02,-56.17]},{"extras":{"color":[0.0,1.0,0.0,1.0],"kind":"Label","text":"  G"},"translation":[38.76,15.28,-50.01]},{"extras":{"color":[1.0,0.0,0.0,1.0],"kind":"Label","text":"  A"},"translation":[35.29,9.92,-49.44]},{"extras":{"color":[1.0,0.0,0.0,1.0],"kind":"Label","text":"  A"},"translation":[38.01,4.78,-51.06]},{"extras":{"color":[0.0,1.0,0.0,1.0],"kind":"Label","text":"  G"},"translation":[41.76,2.13,-53.43]},{"extras":{"color":[0.0,1.0,1.0,1.0],"kind":"Label","text":"  U"},"translation":[35.74,-1.36,-51.68]},{"extras":{"color":[1.0,0.0,0.0,1.0],"kind":"Label","text":"  A"},"translation":[30.76,-3.95,-54.75]},{"extras":{"color":[0.0,0.0,1.0,1.0],"kind":"Label","text":"  C"},"translation":[29.8,-6.72,-60.13]},{"extras":{"color":[0.0,1.0,1.0,1.0],"kind":"Label","text":"  U"},"translation":[32.95,-10.47,-63.92]},{"extras":{"color":[0.0,1.0,1.0,1.0],"kind":"Label","text":"  U"},"translation":[37.45,-14.75,-64.34]},{"extras":{"color":[0.0,1.0,0.0,1.0],"kind":"Label","text":"  G"},"translation":[41.5,-18.75,-61.59]},{"extras":{"color":[0.0,0.0,1.0,1.0],"kind":"Label","text":"  C"},"translation":[43.23,-21.9,-56.45]},{"extras":{"color":[0.0,1.0,0.0,1.0],"kind":"Label","text":"  G"},"translation":[42.14,-23.84,-50.63]},{"extras":{"color":[0.0,1.0,1.0,1.0],"kind":"Label","text":"  U"},"translation":[38.46,-26.17,-46.65]},{"extras":{"color":[0.0,1.0,1.0,1.0],"kind":"Label","text":"  U"},"translation":[32.57,-26.28,-45.11]},{"extras":{"color":[1.0,0.0,0.0,1.0],"kind":"Label","text":"  A"},"translation":[30.99,-26.21,-39.77]},{"extras":{"color":[0.0,0.0,1.0,1.0],"kind":"Label","text":"  C"},"translation":[27.74,-20.39,-38.24]},{"extras":{"color":[0.0,0.0,1.0,1.0],"kind":"Label","text":"  C"},"translation":[23.0,-19.37,-42.01]},{"extras":{"color":[0.0,1.0,1.0,1.0],"kind":"Label","text":"  U"},"translation":[20.09,-19.59,-47.72]},{"extras":{"color":[0.0,0.0,1.0,1.0],"kind":"Label","text":"  C"},"translation":[18.3,-23.0,-53.19]},{"extras":{"color":[1.0,0.0,0.0,1.0],"kind":"Label","text":"  A"},"translation":[18.51,-28.18,-56.68]},{"extras":{"color":[0.0,1.0,1.0,1.0],"kind":"Label","text":"  U"},"translation":[19.78,-34.22,-56.12]},{"extras":{"color":[0.0,1.0,0.0,1.0],"kind":"Label","text":"  G"},"translation":[19.71,-38.83,-58.92]},{"extras":{"color":[1.0,0.0,0.0,1.0],"kind":"Label","text":"  A"},"translation":[17.08,-43.19,-63.24]},{"extras":{"color":[1.0,0.0,0.0,1.0],"kind":"Label","text":"  A"},"translation":[11.06,-42.49,-65.48]},{"extras":{"color":[1.0,0.0,0.0,1.0],"kind":"Label","text":"  A"},"translation":[5.06,-42.48,-64.6]},{"extras":{"color":[0.0,1.0,0.0,1.0],"kind":"Label","text":"  G"},"translation":[1.93,-39.53,-60.42]},{"extras":{"color":[0.0,0.0,1.0,1.0],"kind":"Label","text":"  C"},"translation":[2.72,-32.82,-60.95]},{"extras":{"color":[0.0,1.0,0.0,1.0],"kind":"Label","text":"  G"},"translation":[7.98,-32.27,-57.24]},{"extras":{"color":[1.0,0.0,0.0,1.0],"kind":"Label","text":"  A"},"translation":[11.77,-35.26,-52.88]},{"extras":{"color":[0.0,0.0,1.0,1.0],"kind":"Label","text":"  C"},"translation":[18.02,-36.73,-51.68]},{"extras":{"color":[0.0,0.0,1.0,1.0],"kind":"Label","text":"  C"},"translation":[18.6,-41.44,-47.53]},{"extras":{"color":[0.0,1.0,1.0,1.0],"kind":"Label","text":"  U"},"translation":[17.54,-43.38,-41.99]},{"extras":{"color":[0.0,1.0,1.0,1.0],"kind":"Label","text":"  U"},"translation":[15.39,-43.06,-36.14]},{"extras":{"color":[1.0,0.0,0.0,1.0],"kind":"Label","text":"  A"},"translation":[11.28,-41.14,-32.15]},{"extras":{"color":[0.0,1.0,0.0,1.0],"kind":"Label","text":"  G"},"translation":[5.62,-38.34,-32.52]},{"extras":{"color":[0.0,1.0,0.0,1.0],"kind":"Label","text":"  G"},"translation":[0.5,-35.39,-34.74]},{"extras":{"color":[0.0,1.0,0.0,1.0],"kind":"Label","text":"  G"},"translation":[-2.74,-35.77,-39.93]},{"extras":{"color":[0.0,0.0,1.0,1.0],"kind":"Label","text":"  C"},"translation":[-4.01,-39.06,-44.84]},{"extras":{"color":[0.0,1.0,0.0,1.0],"kind":"Label","text":"  G"},"translation":[-7.22,-42.73,-48.9]},{"extras":{"color":[0.0,1.0,0.0,1.0],"kind":"Label","text":"  G"},"translation":[-4.33,-44.94,-54.58]},{"extras":{"color":[0.0,1.0,1.0,1.0],"kind":"Label","text":"  U"},"translation":[0.87,-44.28,-58.18]},{"extras":{"color":[0.0,1.0,0.0,1.0],"kind":"Label","text":"  G"},"translation":[4.51,-46.24,-55.38]},{"extras":{"color":[0.0,1.0,1.0,1.0],"kind":"Label","text":"  U"},"translation":[7.58,-49.73,-51.05]},{"extras":{"color":[1.0,0.0,0.0,1.0],"kind":"Label","text":"  A"},"translation":[7.82,-44.9,-46.88]},{"extras":{"color":[1.0,0.0,0.0,1.0],"kind":"Label","text":"  A"},"translation":[5.99,-38.84,-46.96]},{"extras":{"color":[0.0,1.0,0.0,1.0],"kind":"Label","text":"  G"},"translation":[6.24,-32.12,-47.58]},{"extras":{"color":[0.0,0.0,1.0,1.0],"kind":"Label","text":"  C"},"translation":[5.2,-27.85,-43.07]},{"extras":{"color":[0.0,1.0,1.0,1.0],"kind":"Label","text":"  U"},"translation":[7.72,-27.17,-37.14]},{"extras":{"color":[1.0,0.0,0.0,1.0],"kind":"Label","text":"  A"},"translation":[12.7,-28.34,-33.76]},{"extras":{"color":[1.0,0.0,0.0,1.0],"kind":"Label","text":"  A"},"translation":[18.02,-31.47,-32.64]},{"extras":{"color":[0.0,1.0,0.0,1.0],"kind":"Label","text":"  G"},"translation":[22.83,-34.53,-34.66]},{"extras":{"color":[0.0,1.0,0.0,1.0],"kind":"Label","text":"  G"},"translation":[26.43,-36.58,-39.18]},{"extras":{"color":[1.0,0.0,0.0,1.0],"kind":"Label","text":"  A"},"translation":[28.98,-37.21,-44.88]},{"extras":{"color":[0.0,1.0,1.0,1.0],"kind":"Label","text":"  U"},"translation":[30.11,-35.42,-50.53]},{"extras":{"color":[0.0,1.0,0.0,1.0],"kind":"Label","text":"  G"},"translation":[31.01,-31.33,-54.79]},{"extras":{"color":[1.0,0.0,0.0,1.0],"kind":"Label","text":"  A"},"translation":[29.53,-26.29,-57.86]},{"extras":{"color":[0.0,1.0,0.0,1.0],"kind":"Label","text":"  G"},"translation":[28.48,-21.14,-56.01]},{"extras":{"color":[1.0,0.0,0.0,1.0],"kind":"Label","text":"  A"},"translation":[27.34,-14.72,-50.26]},{"extras":{"color":[0.0,0.0,1.0,1.0],"kind":"Label","text":"  C"},"translation":[31.89,-13.57,-45.9]},{"extras":{"color":[0.0,1.0,0.0,1.0],"kind":"Label","text":"  G"},"translation":[38.31,-13.2,-45.13]},{"extras":{"color":[0.0,0.0,1.0,1.0],"kind":"Label","text":"  C"},"translation":[43.97,-12.57,-48.06]},{"extras":{"color":[1.0,0.0,0.0,1.0],"kind":"Label","text":"  A"},"translation":[47.24,-11.33,-53.46]},{"extras":{"color":[1.0,0.0,0.0,1.0],"kind":"Label","text":"  A"},"translation":[47.06,-8.85,-59.08]},{"extras":{"color":[0.0,0.0,1.0,1.0],"kind":"Label","text":"  C"},"translation":[44.3,-5.81,-63.96]},{"extras":{"color":[0.0,1.0,0.0,1.0],"kind":"Label","text":"  G"},"translation":[40.01,-1.45,-64.69]},{"extras":{"color":[1.0,0.0,0.0,1.0],"kind":"Label","text":"  A"},"translation":[36.4,4.68,-63.46]},{"extras":{"color":[1.0,0.0,0.0,1.0],"kind":"Label","text":"  A"},"translation":[32.2,9.13,-62.71]},{"extras":{"color":[1.0,0.0,0.0,1.0],"kind":"Label","text":"  A"},"translation":[28.19,11.6,-59.16]},{"extras":{"color":[0.0,1.0,0.0,1.0],"kind":"Label","text":"  G"},"translation":[24.08,15.41,-57.37]},{"extras":{"color":[0.0,1.0,0.0,1.0],"kind":"Label","text":"  G"},"translation":[22.27,19.04,-52.79]},{"extras":{"color":[0.0,0.0,1.0,1.0],"kind":"Label","text":"  C"},"translation":[23.17,21.16,-46.96]},{"extras":{"color":[1.0,0.0,0.0,1.0],"kind":"Label","text":"  A"},"translation":[27.65,23.0,-43.12]},{"extras":{"color":[0.0,1.0,1.0,1.0],"kind":"Label","text":"  U"},"translation":[33.78,24.58,-43.44]},{"extras":{"color":[0.0,1.0,1.0,1.0],"kind":"Label","text":"  U"},"translation":[37.73,27.97,-47.18]},{"extras":{"color":[0.0,0.0,1.0,1.0],"kind":"Label","text":"  C"},"translation":[38.11,31.68,-51.99]},{"extras":{"color":[0.0,1.0,1.0,1.0],"kind":"Label","text":"  U"},"translation":[35.36,36.03,-56.31]},{"extras":{"color":[0.0,1.0,1.0,1.0],"kind":"Label","text":"  U"},"translation":[30.16,38.96,-56.76]},{"extras":{"color":[0.0,1.0,0.0,1.0],"kind":"Label","text":"  G"},"translation":[24.72,40.25,-55.38]},{"extras":{"color":[1.0,0.0,0.0,1.0],"kind":"Label","text":"  A"},"translation":[17.85,40.12,-54.3]},{"extras":{"color":[0.0,1.0,0.0,1.0],"kind":"Label","text":"  G"},"translation":[14.87,37.15,-54.61]},{"extras":{"color":[0.0,0.0,1.0,1.0],"kind":"Label","text":"  C"},"translation":[13.63,30.7,-52.65]},{"extras":{"color":[1.0,0.0,0.0,1.0],"kind":"Label","text":"  A"},"translation":[11.12,26.35,-48.85]},{"extras":{"color":[1.0,0.0,0.0,1.0],"kind":"Label","text":"  A"},"translation":[5.3,25.41,-45.8]},{"extras":{"color":[0.0,1.0,1.0,1.0],"kind":"Label","text":"  U"},"translation":[-0.2,27.65,-44.19]},{"extras":{"color":[1.0,0.0,0.0,1.0],"kind":"Label","text":"  A"},"translation":[-6.93,28.07,-46.2]},{"extras":{"color":[1.0,0.0,0.0,1.0],"kind":"Label","text":"  A"},"translation":[-13.36,29.86,-47.47]},{"extras":{"color":[1.0,0.0,0.0,1.0],"kind":"Label","text":"  A"},"translation":[-18.31,27.93,-48.52]},{"extras":{"color":[1.0,0.0,0.0,1.0],"kind":"Label","text":"  A"},"translation":[-23.88,26.09,-45.76]},{"extras":{"color":[1.0,0.0,0.0,1.0],"kind":"Label","text":"  A"},"translation":[-26.97,20.8,-44.12]},{"extras":{"color":[1.0,0.0,0.0,1.0],"kind":"Label","text":"  A"},"translation":[-30.58,18.07,-45.77]},{"extras":{"color":[0.0,1.0,0.0,1.0],"kind":"Label","text":"  G"},"translation":[-36.22,15.15,-44.28]},{"extras":{"color":[1.0,0.0,0.0,1.0],"kind":"Label","text":"  A"},"translation":[-37.82,18.81,-41.31]},{"extras":{"color":[0.0,1.0,0.0,1.0],"kind":"Label","text":"  G"},"translation":[-44.83,18.95,-40.15]},{"extras":{"color":[0.0,1.0,0.0,1.0],"kind":"Label","text":"  G"},"translation":[-43.6,22.14,-42.75]},{"extras":{"color":[0.0,0.0,1.0,1.0],"kind":"Label","text":"  C"},"translation":[-37.77,25.25,-43.65]},{"extras":{"color":[0.0,1.0,1.0,1.0],"kind":"Label","text":"  U"},"translation":[-34.34,30.52,-45.31]},{"extras":{"color":[0.0,1.0,0.0,1.0],"kind":"Label","text":"  G"},"translation":[-34.07,36.81,-42.66]},{"extras":{"color":[0.0,1.0,0.0,1.0],"kind":"Label","text":"  G"},"translation":[-36.51,42.22,-40.28]},{"extras":{"color":[0.0,1.0,0.0,1.0],"kind":"Label","text":"  G"},"translation":[-40.32,43.67,-35.35]},{"extras":{"color":[1.0,0.0,0.0,1.0],"kind":"Label","text":"  A"},"translation":[-42.86,41.84,-29.19]},{"extras":{"color":[0.0,1.0,1.0,1.0],"kind":"Label","text":"  U"},"translation":[-42.99,27.17,-28.65]},{"extras":{"color":[0.0,0.0,1.0,1.0],"kind":"Label","text":"  C"},"translation":[-47.15,31.14,-31.6]},{"extras":{"color":[0.0,1.0,1.0,1.0],"kind":"Label","text":"  U"},"translation":[-49.37,35.42,-36.56]},{"extras":{"color":[0.0,0.0,1.0,1.0],"kind":"Label","text":"  C"},"translation":[-48.89,39.72,-41.54]},{"extras":{"color":[1.0,0.0,0.0,1.0],"kind":"Label","text":"  A"},"translation":[-46.44,40.06,-47.81]},{"extras":{"color":[0.0,1.0,0.0,1.0],"kind":"Label","text":"  G"},"translation":[-43.1,36.79,-51.96]},{"extras":{"color":[0.0,0.0,1.0,1.0],"kind":"Label","text":"  C"},"translation":[-39.39,31.52,-53.59]},{"extras":{"color":[1.0,0.0,0.0,1.0],"kind":"Label","text":"  A"},"translation":[-43.97,33.07,-56.99]},{"extras":{"color":[1.0,0.0,0.0,1.0],"kind":"Label","text":"  A"},"translation":[-43.22,29.28,-58.98]},{"extras":{"color":[0.0,0.0,1.0,1.0],"kind":"Label","text":"  C"},"translation":[-42.02,25.35,-63.41]},{"extras":{"color":[0.0,1.0,1.0,1.0],"kind":"Label","text":"  U"},"translation":[-36.9,25.14,-67.2]},{"extras":{"color":[1.0,0.0,0.0,1.0],"kind":"Label","text":"  A"},"translation":[-31.08,21.75,-66.81]},{"extras":{"color":[0.0,1.0,0.0,1.0],"kind":"Label","text":"  G"},"translation":[-25.81,19.39,-64.87]},{"extras":{"color":[0.0,1.0,0.0,1.0],"kind":"Label","text":"  G"},"translation":[-21.51,18.38,-60.87]},{"extras":{"color":[0.0,1.0,0.0,1.0],"kind":"Label","text":"  G"},"translation":[-19.4,18.03,-55.11]},{"extras":{"color":[0.0,1.0,1.0,1.0],"kind":"Label","text":"  U"},"translation":[-20.45,15.78,-49.51]},{"extras":{"color":[0.0,1.0,0.0,1.0],"kind":"Label","text":"  G"},"translation":[-24.15,12.37,-46.33]},{"extras":{"color":[0.0,1.0,0.0,1.0],"kind":"Label","text":"  G"},"translation":[-28.77,8.61,-45.58]},{"extras":{"color":[1.0,0.0,0.0,1.0],"kind":"Label","text":"  A"},"translation":[-32.62,4.02,-47.33]},{"extras":{"color":[1.0,0.0,0.0,1.0],"kind":"Label","text":"  A"},"translation":[-37.39,3.02,-46.37]},{"extras":{"color":[0.0,0.0,1.0,1.0],"kind":"Label","text":"  C"},"translation":[-41.36,6.9,-49.7]},{"extras":{"color":[0.0,0.0,1.0,1.0],"kind":"Label","text":"  C"},"translation":[-44.34,8.14,-46.47]},{"extras":{"color":[0.0,1.0,0.0,1.0],"kind":"Label","text":"  G"},"translation":[-46.63,13.42,-44.32]},{"extras":{"color":[0.0,0.0,1.0,1.0],"kind":"Label","text":"  C"},"translation":[-48.23,19.41,-44.89]},{"extras":{"color":[0.0,1.0,0.0,1.0],"kind":"Label","text":"  G"},"translation":[-49.27,24.47,-48.61]},{"extras":{"color":[0.0,1.0,0.0,1.0],"kind":"Label","text":"  G"},"translation":[-49.84,26.79,-54.27]},{"extras":{"color":[0.0,1.0,0.0,1.0],"kind":"Label","text":"  G"},"translation":[-50.19,26.25,-60.35]},{"extras":{"color":[1.0,0.0,0.0,1.0],"kind":"Label","text":"  A"},"translation":[-53.11,23.54,-65.93]},{"extras":{"color":[0.0,1.0,1.0,1.0],"kind":"Label","text":"  U"},"translation":[-52.85,9.66,-60.69]},{"extras":{"color":[0.0,0.0,1.0,1.0],"kind":"Label","text":"  C"},"translation":[-47.13,11.6,-62.77]},{"extras":{"color":[0.0,1.0,1.0,1.0],"kind":"Label","text":"  U"},"translation":[-42.92,15.89,-62.38]},{"extras":{"color":[0.0,0.0,1.0,1.0],"kind":"Label","text":"  C"},"translation":[-40.04,20.77,-60.21]},{"extras":{"color":[0.0,1.0,0.0,1.0],"kind":"Label","text":"  G"},"translation":[-38.08,24.24,-55.26]},{"extras":{"color":[0.0,1.0,1.0,1.0],"kind":"Label","text":"  U"},"translation":[-37.13,23.89,-49.32]},{"extras":{"color":[0.0,0.0,1.0,1.0],"kind":"Label","text":"  C"},"translation":[-31.31,23.36,-47.21]},{"extras":{"color":[0.0,0.0,1.0,1.0],"kind":"Label","text":"  C"},"translation":[-26.24,27.28,-49.41]},{"extras":{"color":[0.0,0.0,1.0,1.0],"kind":"Label","text":"  C"},"translation":[-23.63,29.88,-54.94]},{"extras":{"color":[0.0,1.0,1.0,1.0],"kind":"Label","text":"  U"},"translation":[-23.37,32.23,-60.15]},{"extras":{"color":[1.0,0.0,0.0,1.0],"kind":"Label","text":"  A"},"translation":[-26.15,31.72,-65.88]},{"extras":{"color":[0.0,1.0,0.0,1.0],"kind":"Label","text":"  G"},"translation":[-31.34,-1.51,-51.47]},{"extras":{"color":[0.0,0.0,1.0,1.0],"kind":"Label","text":"  C"},"translation":[-31.2,-4.07,-57.31]},{"extras":{"color":[0.0,1.0,0.0,1.0],"kind":"Label","text":"  G"},"translation":[-26.37,-6.96,-60.63]},{"extras":{"color":[0.0,1.0,0.0,1.0],"kind":"Label","text":"  G"},"translation":[-20.39,-7.17,-62.62]},{"extras":{"color":[1.0,0.0,0.0,1.0],"kind":"Label","text":"  A"},"translation":[-14.45,-7.07,-61.15]},{"extras":{"color":[1.0,0.0,0.0,1.0],"kind":"Label","text":"  A"},"translation":[-9.92,-7.39,-57.12]},{"extras":{"color":[0.0,1.0,0.0,1.0],"kind":"Label","text":"  G"},"translation":[-7.8,-7.0,-51.61]},{"extras":{"color":[0.0,1.0,1.0,1.0],"kind":"Label","text":"  U"},"translation":[-4.1,-9.24,-47.88]},{"extras":{"color":[1.0,0.0,0.0,1.0],"kind":"Label","text":"  A"},"translation":[1.1,-7.5,-44.72]},{"extras":{"color":[0.0,1.0,0.0,1.0],"kind":"Label","text":"  G"},"translation":[1.13,-1.31,-41.71]},{"extras":{"color":[0.0,1.0,1.0,1.0],"kind":"Label","text":"  U"},"translation":[0.18,1.19,-47.56]},{"extras":{"color":[0.0,1.0,1.0,1.0],"kind":"Label","text":"  U"},"translation":[-0.14,0.12,-53.59]},{"extras":{"color":[0.0,0.0,1.0,1.0],"kind":"Label","text":"  C"},"translation":[-0.68,-4.99,-57.75]},{"extras":{"color":[1.0,0.0,0.0,1.0],"kind":"Label","text":"  A"},"translation":[0.37,-10.54,-60.26]},{"extras":{"color":[0.0,1.0,0.0,1.0],"kind":"Label","text":"  G"},"translation":[0.95,-16.53,-59.88]},{"extras":{"color":[0.0,1.0,1.0,1.0],"kind":"Label","text":"  U"},"translation":[-3.45,-21.95,-60.4]},{"extras":{"color":[0.0,1.0,0.0,1.0],"kind":"Label","text":"  G"},"translation":[-3.99,-25.07,-58.17]},{"extras":{"color":[0.0,1.0,0.0,1.0],"kind":"Label","text":"  G"},"translation":[1.65,-25.7,-53.76]},{"extras":{"color":[0.0,1.0,1.0,1.0],"kind":"Label","text":"  U"},"translation":[2.46,-24.14,-48.79]},{"extras":{"color":[1.0,0.0,0.0,1.0],"kind":"Label","text":"  A"},"translation":[4.98,-19.98,-49.3]},{"extras":{"color":[0.0,1.0,0.0,1.0],"kind":"Label","text":"  G"},"translation":[8.2,-15.46,-51.49]},{"extras":{"color":[1.0,0.0,0.0,1.0],"kind":"Label","text":"  A"},"translation":[11.12,-10.7,-54.81]},{"extras":{"color":[1.0,0.0,0.0,1.0],"kind":"Label","text":"  A"},"translation":[12.35,-4.58,-54.88]},{"extras":{"color":[0.0,0.0,1.0,1.0],"kind":"Label","text":"  C"},"translation":[11.47,1.05,-52.3]},{"extras":{"color":[1.0,0.0,0.0,1.0],"kind":"Label","text":"  A"},"translation":[10.23,3.59,-46.89]},{"extras":{"color":[0.0,0.0,1.0,1.0],"kind":"Label","text":"  C"},"translation":[11.1,2.97,-40.71]},{"extras":{"color":[0.0,0.0,1.0,1.0],"kind":"Label","text":"  C"},"translation":[14.66,0.36,-36.35]},{"extras":{"color":[1.0,0.0,0.0,1.0],"kind":"Label","text":"  A"},"translation":[20.35,-2.01,-34.82]},{"extras":{"color":[0.0,0.0,1.0,1.0],"kind":"Label","text":"  C"},"translation":[26.3,-2.7,-36.88]},{"extras":{"color":[0.0,0.0,1.0,1.0],"kind":"Label","text":"  C"},"translation":[30.53,-1.07,-41.04]},{"extras":{"color":[0.0,1.0,1.0,1.0],"kind":"Label","text":"  U"},"translation":[35.09,1.81,-44.52]},{"extras":{"color":[0.0,1.0,1.0,1.0],"kind":"Label","text":"  U"},"translation":[34.12,7.81,-44.99]},{"extras":{"color":[0.0,1.0,0.0,1.0],"kind":"Label","text":"  G"},"translation":[33.91,12.67,-41.02]},{"extras":{"color":[0.0,0.0,1.0,1.0],"kind":"Label","text":"  C"},"translation":[27.61,12.72,-40.28]},{"extras":{"color":[0.0,0.0,1.0,1.0],"kind":"Label","text":"  C"},"translation":[22.13,11.77,-42.84]},{"extras":{"color":[1.0,0.0,0.0,1.0],"kind":"Label","text":"  A"},"translation":[19.41,9.96,-47.96]},{"extras":{"color":[1.0,0.0,0.0,1.0],"kind":"Label","text":"  A"},"translation":[20.35,6.4,-52.83]},{"extras":{"color":[0.0,1.0,0.0,1.0],"kind":"Label","text":"  G"},"translation":[23.03,1.04,-54.11]},{"extras":{"color":[0.0,1.0,0.0,1.0],"kind":"Label","text":"  G"},"translation":[24.2,-5.04,-51.52]},{"extras":{"color":[0.0,1.0,1.0,1.0],"kind":"Label","text":"  U"},"translation":[23.74,-9.63,-47.22]},{"extras":{"color":[0.0,1.0,0.0,1.0],"kind":"Label","text":"  G"},"translation":[19.85,-11.81,-43.69]},{"extras":{"color":[0.0,1.0,0.0,1.0],"kind":"Label","text":"  G"},"translation":[15.72,-11.53,-38.76]},{"extras":{"color":[0.0,1.0,0.0,1.0],"kind":"Label","text":"  G"},"translation":[10.1,-10.12,-36.78]},{"extras":{"color":[0.0,1.0,0.0,1.0],"kind":"Label","text":"  G"},"translation":[4.64,-8.16,-37.7]},{"extras":{"color":[0.0,1.0,0.0,1.0],"kind":"Label","text":"  G"},"translation":[0.64,-10.88,-41.56]},{"extras":{"color":[0.0,1.0,1.0,1.0],"kind":"Label","text":"  U"},"translation":[-3.51,-15.59,-41.71]},{"extras":{"color":[0.0,0.0,1.0,1.0],"kind":"Label","text":"  C"},"translation":[-5.11,-13.27,-46.12]},{"extras":{"color":[0.0,1.0,0.0,1.0],"kind":"Label","text":"  G"},"translation":[-8.91,-10.8,-44.69]},{"extras":{"color":[0.0,0.0,1.0,1.0],"kind":"Label","text":"  C"},"translation":[-12.67,-13.54,-40.21]},{"extras":{"color":[0.0,1.0,0.0,1.0],"kind":"Label","text":"  G"},"translation":[-15.84,-18.62,-39.39]},{"extras":{"color":[0.0,1.0,0.0,1.0],"kind":"Label","text":"  G"},"translation":[-18.43,-23.72,-41.3]},{"extras":{"color":[0.0,1.0,0.0,1.0],"kind":"Label","text":"  G"},"translation":[-19.0,-28.31,-45.24]},{"extras":{"color":[0.0,1.0,1.0,1.0],"kind":"Label","text":"  U"},"translation":[-16.98,-31.72,-49.85]},{"extras":{"color":[0.0,1.0,1.0,1.0],"kind":"Label","text":"  U"},"translation":[-11.84,-33.87,-52.06]},{"extras":{"color":[0.0,0.0,1.0,1.0],"kind":"Label","text":"  C"},"translation":[-7.44,-36.5,-47.74]},{"extras":{"color":[0.0,1.0,0.0,1.0],"kind":"Label","text":"  G"},"translation":[-5.21,-30.94,-46.6]},{"extras":{"color":[1.0,0.0,0.0,1.0],"kind":"Label","text":"  A"},"translation":[-5.49,-24.8,-48.28]},{"extras":{"color":[1.0,0.0,0.0,1.0],"kind":"Label","text":"  A"},"translation":[-5.22,-18.3,-48.75]},{"extras":{"color":[0.0,1.0,1.0,1.0],"kind":"Label","text":"  U"},"translation":[-8.55,-19.08,-54.43]},{"extras":{"color":[0.0,0.0,1.0,1.0],"kind":"Label","text":"  C"},"translation":[-12.09,-23.08,-57.78]},{"extras":{"color":[0.0,0.0,1.0,1.0],"kind":"Label","text":"  C"},"translation":[-18.58,-22.93,-56.52]},{"extras":{"color":[0.0,0.0,1.0,1.0],"kind":"Label","text":"  C"},"translation":[-22.97,-20.59,-52.76]},{"extras":{"color":[0.0,1.0,0.0,1.0],"kind":"Label","text":"  G"},"translation":[-24.96,-16.71,-48.58]},{"extras":{"color":[0.0,1.0,1.0,1.0],"kind":"Label","text":"  U"},"translation":[-23.71,-12.26,-44.66]},{"extras":{"color":[0.0,0.0,1.0,1.0],"kind":"Label","text":"  C"},"translation":[-20.34,-7.29,-42.79]},{"extras":{"color":[0.0,1.0,1.0,1.0],"kind":"Label","text":"  U"},"translation":[-16.73,-2.65,-44.13]},{"extras":{"color":[0.0,1.0,1.0,1.0],"kind":"Label","text":"  U"},"translation":[-13.83,1.33,-48.24]},{"extras":{"color":[0.0,0.0,1.0,1.0],"kind":"Label","text":"  C"},"translation":[-13.72,3.43,-53.97]},{"extras":{"color":[0.0,0.0,1.0,1.0],"kind":"Label","text":"  C"},"translation":[-15.71,3.99,-60.08]},{"extras":{"color":[0.0,1.0,0.0,1.0],"kind":"Label","text":"  G"},"translation":[-20.85,4.81,-63.4]},{"extras":{"color":[0.0,0.0,1.0,1.0],"kind":"Label","text":"  C"},"translation":[-26.98,3.87,-64.71]},{"extras":{"color":[0.0,1.0,1.0,1.0],"kind":"Label","text":"  U"},"translation":[-32.36,5.23,-62.39]},{"extras":{"color":[0.0,0.0,1.0,1.0],"kind":"Label","text":"  C"},"translation":[-35.49,8.81,-59.19]},{"extras":{"color":[0.0,0.0,1.0,1.0],"kind":"Label","text":"  C"},"translation":[-37.08,12.12,-54.28]},{"extras":{"color":[1.0,0.0,0.0,1.0],"kind":"Label","text":"  A"},"translation":[-35.24,16.12,-50.26]},{"extras":{"kind":"Cyl"},"mesh":2,"rotation":[-0.077631,0.0,-0.970384,0.228753],"scale":[0.21,6.6,0.21],"translation":[2.06,31.9,-45.54]},{"extras":{"kind":"Cyl"},"mesh":2,"rotation":[-0.648281,0.0,-0.621269,0.440177],"scale":[0.22,6.85,0.22],"translation":[7.01,30.98,-44.55]},{"extras":{"kind":"Cyl"},"mesh":2,"rotation":[-0.712657,0.0,-0.25777,0.652437],"scale":[0.21,6.76,0.21],"translation":[11.15,31.8,-45.73]},{"extras":{"kind":"Cyl"},"mesh":2,"rotation":[-0.581035,0.0,-0.0,0.813878],"scale":[0.22,6.89,0.22],"translation":[14.87,34.66,-47.45]},{"extras":{"kind":"Cyl"},"mesh":3,"rotation":[-0.204916,0.0,-0.383672,0.900447],"scale":[0.08,3.0,0.08],"translation":[21.53,37.88,-43.73]},{"extras":{"kind":"Cone"},"mesh":4,"rotation":[-0.204916,0.0,-0.383672,0.900447],"scale":[0.44,0.44,0.44],"translation":[21.53,37.88,-43.73]},{"extras":{"kind":"Cyl"},"mesh":3,"rotation":[-0.453416,0.0,0.315179,0.833712],"scale":[0.18,6.38,0.18],"translation":[21.53,37.38,-49.0]},{"extras":{"kind":"Cone"},"mesh":5,"rotation":[-0.453416,0.0,0.315179,0.833712],"scale":[0.94,0.94,0.94],"translation":[23.37,36.01,-46.35]},{"extras":{"kind":"Box"},"mesh":6,"rotation":[-0.453416,0.0,0.315179,0.833712],"scale":[0.78,0.78,0.78],"translation":[19.69,38.75,-51.65]},{"extras":{"kind":"Cyl"},"mesh":3,"rotation":[-0.337631,0.0,-0.194041,0.921061],"scale":[0.16,5.94,0.16],"translation":[22.39,35.68,-51.32]},{"extras":{"kind":"Box"},"mesh":6,"rotation":[-0.337631,0.0,-0.194041,0.921061],"scale":[0.73,0.73,0.73],"translation":[21.23,33.4,-49.29]},{"extras":{"kind":"Cone"},"mesh":5,"rotation":[-0.337631,0.0,-0.194041,0.921061],"scale":[0.87,0.87,0.87],"translation":[23.55,37.96,-53.35]},{"extras":{"kind":"Cyl"},"mesh":3,"rotation":[-0.134934,0.0,-0.413507,0.900447],"scale":[0.19,6.8,0.19],"translation":[24.61,34.3,-54.92]},{"extras":{"kind":"Sphere"},"mesh":7,"scale":[1.0,1.0,1.0],"translation":[24.61,34.3,-54.92]},{"extras":{"kind":"Cyl"},"mesh":2,"rotation":[0.071388,0.0,-0.504818,0.860269],"scale":[0.22,6.97,0.22],"translation":[28.72,32.34,-57.27]},{"extras":{"kind":"Cyl"},"mesh":2,"rotation":[0.377654,0.0,-0.441565,0.813878],"scale":[0.22,6.89,0.22],"translation":[32.7,29.19,-56.67]},{"extras":{"kind":"Cyl"},"mesh":2,"rotation":[0.582893,0.0,-0.202479,0.786917],"scale":[0.22,6.87,0.22],"translation":[35.34,26.15,-54.12]},{"extras":{"kind":"Cyl"},"mesh":2,"rotation":[0.606928,-0.0,0.164376,0.777573],"scale":[0.22,6.97,0.22],"translation":[35.76,22.97,-50.67]},{"extras":{"kind":"Cyl"},"mesh":3,"rotation":[0.2629,-0.0,0.421632,0.867819],"scale":[0.19,6.9,0.19],"translation":[33.21,19.14,-46.56]},{"extras":{"kind":"Box"},"mesh":8,"rotation":[0.2629,-0.0,0.421632,0.867819],"scale":[0.84,0.84,0.84],"translation":[35.98,17.21,-48.29]},{"extras":{"kind":"Sphere"},"mesh":7,"scale":[1.01,1.01,1.01],"translation":[30.43,21.07,-44.84]},{"extras":{"kind":"Cyl"},"mesh":3,"rotation":[-0.521749,0.0,-0.031305,0.852525],"scale":[0.17,6.02,0.17],"translation":[36.07,1.66,-57.57]},{"extras":{"kind":"Sphere"},"mesh":9,"scale":[0.88,0.88,0.88],"translation":[35.9,0.15,-54.63]},{"extras":{"kind":"Box"},"mesh":6,"rotation":[-0.521749,0.0,-0.031305,0.852525],"scale":[0.74,0.74,0.74],"translation":[36.24,3.17,-60.51]},{"extras":{"kind":"Cyl"},"mesh":3,"rotation":[-0.468584,0.0,-0.436489,0.768054],"scale":[0.17,6.27,0.17],"translation":[35.38,-2.7,-59.72]},{"extras":{"kind":"Box"},"mesh":6,"rotation":[-0.468584,0.0,-0.436489,0.768054],"scale":[0.77,0.77,0.77],"translation":[33.07,-3.32,-57.23]},{"extras":{"kind":"Cone"},"mesh":5,"rotation":[-0.468584,0.0,-0.436489,0.768054],"scale":[0.92,0.92,0.92],"translation":[37.7,-2.08,-62.21]},{"extras":{"kind":"Cyl"},"mesh":3,"rotation":[-0.177423,0.0,-0.661923,0.728272],"scale":[0.19,6.83,0.19],"translation":[37.05,-6.27,-62.05]},{"extras":{"kind":"Sphere"},"mesh":7,"scale":[1.0,1.0,1.0],"translation":[37.05,-6.27,-62.05]},{"extras":{"kind":"Cyl"},"mesh":2,"rotation":[0.212877,0.0,-0.63198,0.745174],"scale":[0.21,6.82,0.21],"translation":[40.0,-9.66,-61.5]},{"extras":{"kind":"Cyl"},"mesh":2,"rotation":[0.460336,0.0,-0.416791,0.783822],"scale":[0.21,6.83,0.21],"translation":[42.35,-13.04,-58.9]},{"extras":{"kind":"Cyl"},"mesh":2,"rotation":[0.534887,0.0,-0.098245,0.839192],"scale":[0.22,6.85,0.22],"translation":[42.74,-15.66,-54.83]},{"extras":{"kind":"Cyl"},"mesh":2,"rotation":[0.423484,-0.0,0.184123,0.886995],"scale":[0.22,6.87,0.22],"translation":[40.77,-17.55,-50.79]},{"extras":{"kind":"Cyl"},"mesh":2,"rotation":[0.16896,-0.0,0.36608,0.915116],"scale":[0.22,6.94,0.22],"translation":[37.01,-18.7,-48.26]},{"extras":{"kind":"Cyl"},"mesh":3,"rotation":[0.478256,-0.0,0.520455,0.707388],"scale":[0.13,4.61,0.13],"translation":[34.72,-26.19,-43.21]},{"extras":{"kind":"Cone"},"mesh":5,"rotation":[0.478256,-0.0,0.520455,0.707388],"scale":[0.68,0.68,0.68],"translation":[36.59,-26.18,-44.93]},{"extras":{"kind":"Box"},"mesh":6,"rotation":[0.478256,-0.0,0.520455,0.707388],"scale":[0.56,0.56,0.56],"translation":[32.86,-26.2,-41.49]},{"extras":{"kind":"Cyl"},"mesh":3,"rotation":[-0.687756,0.0,0.163076,0.707388],"scale":[0.16,5.96,0.16],"translation":[31.05,-26.28,-51.49]},{"extras":{"kind":"Sphere"},"mesh":9,"scale":[0.87,0.87,0.87],"translation":[31.81,-26.28,-48.3]},{"extras":{"kind":"Box"},"mesh":6,"rotation":[-0.687756,0.0,0.163076,0.707388],"scale":[0.73,0.73,0.73],"translation":[30.29,-26.28,-54.67]},{"extras":{"kind":"Cyl"},"mesh":2,"rotation":[-0.697534,0.0,-0.270013,0.663731],"scale":[0.22,6.88,0.22],"translation":[25.74,-20.25,-49.01]},{"extras":{"kind":"Cyl"},"mesh":2,"rotation":[-0.619645,0.0,-0.577204,0.531861],"scale":[0.22,7.0,0.22],"translation":[24.81,-22.94,-52.79]},{"extras":{"kind":"Cyl"},"mesh":2,"rotation":[-0.105842,0.0,-0.873199,0.475732],"scale":[0.22,6.94,0.22],"translation":[24.66,-27.16,-53.99]},{"extras":{"kind":"Cyl"},"mesh":2,"rotation":[0.405088,0.0,-0.758463,0.510526],"scale":[0.21,6.81,0.21],"translation":[24.31,-31.8,-53.6]},{"extras":{"kind":"Cyl"},"mesh":2,"rotation":[0.598977,0.0,-0.490072,0.63329],"scale":[0.21,6.74,0.21],"translation":[24.38,-35.71,-50.5]},{"extras":{"kind":"Cyl"},"mesh":3,"rotation":[0.659488,0.0,-0.19922,0.724836],"scale":[0.18,6.4,0.18],"translation":[3.96,-39.18,-53.69]},{"extras":{"kind":"Cone"},"mesh":5,"rotation":[0.659488,0.0,-0.19922,0.724836],"scale":[0.94,0.94,0.94],"translation":[2.95,-39.35,-57.05]},{"extras":{"kind":"Sphere"},"mesh":9,"scale":[0.94,0.94,0.94],"translation":[4.98,-39.01,-50.32]},{"extras":{"kind":"Cyl"},"mesh":2,"rotation":[0.667121,0.0,-0.171938,0.724836],"scale":[0.2,6.29,0.2],"translation":[4.48,-32.47,-54.26]},{"extras":{"kind":"Cyl"},"mesh":3,"rotation":[-0.30441,0.0,0.903716,0.301053],"scale":[0.17,6.09,0.17],"translation":[8.14,-40.75,-54.13]},{"extras":{"kind":"Sphere"},"mesh":9,"scale":[0.89,0.89,0.89],"translation":[9.96,-38.01,-53.51]},{"extras":{"kind":"Cone"},"mesh":5,"rotation":[-0.30441,0.0,0.903716,0.301053],"scale":[0.89,0.89,0.89],"translation":[6.32,-43.49,-54.76]},{"extras":{"kind":"Cyl"},"mesh":2,"rotation":[0.582994,0.0,-0.393345,0.710914],"scale":[0.22,6.85,0.22],"translation":[22.22,-36.65,-45.43]},{"extras":{"kind":"Cyl"},"mesh":2,"rotation":[0.496901,0.0,-0.162147,0.852525],"scale":[0.22,6.91,0.22],"translation":[20.71,-37.99,-41.1]},{"extras":{"kind":"Cyl"},"mesh":2,"rotation":[0.328359,0.0,-0.016418,0.94441],"scale":[0.22,6.88,0.22],"translation":[17.78,-37.42,-37.32]},{"extras":{"kind":"Cyl"},"mesh":2,"rotation":[0.079085,-0.0,0.08987,0.992809],"scale":[0.22,6.89,0.22],"translation":[14.05,-35.7,-34.95]},{"extras":{"kind":"Cyl"},"mesh":2,"rotation":[-0.165511,0.0,0.118514,0.979061],"scale":[0.22,6.93,0.22],"translation":[9.5,-34.15,-34.64]},{"extras":{"kind":"Cyl"},"mesh":2,"rotation":[-0.384501,0.0,0.01538,0.922997],"scale":[0.21,6.77,0.21],"translation":[5.41,-33.09,-37.8]},{"extras":{"kind":"Cyl"},"mesh":3,"rotation":[0.499652,0.0,-0.225118,0.836463],"scale":[0.17,6.13,0.17],"translation":[3.43,-41.56,-52.57]},{"extras":{"kind":"Sphere"},"mesh":9,"scale":[0.9,0.9,0.9],"translation":[2.15,-42.92,-55.38]},{"extras":{"kind":"Box"},"mesh":6,"rotation":[0.499652,0.0,-0.225118,0.836463],"scale":[0.75,0.75,0.75],"translation":[4.71,-40.2,-49.76]},{"extras":{"kind":"Cyl"},"mesh":2,"rotation":[0.779731,-0.0,0.102389,0.617686],"scale":[0.22,6.86,0.22],"translation":[23.11,13.59,-50.1]},{"extras":{"kind":"Cyl"},"mesh":2,"rotation":[0.777212,0.0,-0.32947,0.536088],"scale":[0.21,6.82,0.21],"translation":[24.94,15.88,-46.54]},{"extras":{"kind":"Cyl"},"mesh":2,"rotation":[0.424563,0.0,-0.778366,0.462485],"scale":[0.21,6.79,0.21],"translation":[28.54,16.92,-43.99]},{"extras":{"kind":"Cyl"},"mesh":3,"rotation":[-0.588509,0.0,0.740382,0.324796],"scale":[0.17,6.15,0.17],"translation":[-41.08,13.48,-43.89]},{"extras":{"kind":"Box"},"mesh":8,"rotation":[-0.588509,0.0,0.740382,0.324796],"scale":[0.75,0.75,0.75],"translation":[-39.45,16.14,-42.6]},{"extras":{"kind":"Sphere"},"mesh":7,"scale":[0.9,0.9,0.9],"translation":[-42.71,10.81,-45.18]},{"extras":{"kind":"Cyl"},"mesh":2,"rotation":[-0.401431,0.0,-0.155393,0.902611],"scale":[0.21,6.79,0.21],"translation":[-41.5,26.83,-48.17]},{"extras":{"kind":"Cyl"},"mesh":2,"rotation":[-0.292386,0.0,0.187962,0.937646],"scale":[0.22,6.9,0.22],"translation":[-40.44,31.02,-47.8]},{"extras":{"kind":"Cyl"},"mesh":2,"rotation":[-0.087875,0.0,0.430587,0.898261],"scale":[0.22,7.1,0.22],"translation":[-40.39,35.29,-46.56]},{"extras":{"kind":"Cyl"},"mesh":2,"rotation":[0.044449,-0.0,0.634983,0.771246],"scale":[0.22,6.88,0.22],"translation":[-41.48,38.27,-42.1]},{"extras":{"kind":"Cyl"},"mesh":3,"rotation":[0.23859,-0.0,0.818024,0.523366],"scale":[0.19,6.82,0.19],"translation":[-42.94,38.82,-38.42]},{"extras":{"kind":"Sphere"},"mesh":7,"scale":[1.0,1.0,1.0],"translation":[-42.94,38.82,-38.42]},{"extras":{"kind":"Cyl"},"mesh":2,"rotation":[0.460098,-0.0,0.843513,0.277121],"scale":[0.21,6.71,0.21],"translation":[-43.74,37.41,-33.47]},{"extras":{"kind":"Cyl"},"mesh":3,"rotation":[0.970518,-0.0,0.240128,0.020795],"scale":[0.18,6.67,0.18],"translation":[-42.92,34.5,-28.92]},{"extras":{"kind":"Sphere"},"mesh":7,"scale":[0.98,0.98,0.98],"translation":[-42.92,34.5,-28.92]},{"extras":{"kind":"Cyl"},"mesh":3,"rotation":[0.244101,0.0,-0.285411,0.926798],"scale":[0.18,6.65,0.18],"translation":[-27.22,26.99,-63.48]},{"extras":{"kind":"Sphere"},"mesh":7,"scale":[0.97,0.97,0.97],"translation":[-27.22,26.99,-63.48]},{"extras":{"kind":"Cyl"},"mesh":3,"rotation":[0.172134,0.0,-0.088968,0.981048],"scale":[0.17,6.32,0.17],"translation":[-24.59,25.81,-62.51]},{"extras":{"kind":"Sphere"},"mesh":7,"scale":[0.93,0.93,0.93],"translation":[-24.59,25.81,-62.51]},{"extras":{"kind":"Cyl"},"mesh":2,"rotation":[0.4227,-0.0,0.174594,0.889293],"scale":[0.22,6.94,0.22],"translation":[-23.88,22.83,-55.14]},{"extras":{"kind":"Cyl"},"mesh":3,"rotation":[0.232653,-0.0,0.084151,0.968912],"scale":[0.16,5.96,0.16],"translation":[-22.57,24.13,-57.91]},{"extras":{"kind":"Sphere"},"mesh":7,"scale":[0.87,0.87,0.87],"translation":[-22.57,24.13,-57.91]},{"extras":{"kind":"Cyl"},"mesh":2,"rotation":[0.314173,-0.0,0.474116,0.822502],"scale":[0.22,6.94,0.22],"translation":[-25.35,20.7,-51.16]},{"extras":{"kind":"Cyl"},"mesh":2,"rotation":[-0.034942,0.0,0.698843,0.714421],"scale":[0.21,6.73,0.21],"translation":[-27.84,15.95,-49.88]},{"extras":{"kind":"Cyl"},"mesh":2,"rotation":[-0.372534,0.0,0.60895,0.700285],"scale":[0.22,6.9,0.22],"translation":[-30.61,12.25,-50.31]},{"extras":{"kind":"Cyl"},"mesh":2,"rotation":[-0.631815,0.0,0.308887,0.710914],"scale":[0.22,6.9,0.22],"translation":[-32.13,8.71,-52.39]},{"extras":{"kind":"Cyl"},"mesh":2,"rotation":[-0.677836,0.0,-0.013557,0.735088],"scale":[0.22,6.87,0.22],"translation":[-32.49,4.62,-54.86]},{"extras":{"kind":"Cyl"},"mesh":3,"rotation":[-0.183458,0.0,-0.343496,0.921061],"scale":[0.19,6.82,0.19],"translation":[-41.88,18.66,-46.82]},{"extras":{"kind":"Sphere"},"mesh":7,"scale":[1.0,1.0,1.0],"translation":[-41.88,18.66,-46.82]},{"extras":{"kind":"Cyl"},"mesh":2,"rotation":[-0.41665,0.0,-0.410782,0.810963],"scale":[0.22,6.95,0.22],"translation":[-43.16,21.83,-50.07]},{"extras":{"kind":"Cyl"},"mesh":2,"rotation":[-0.618042,0.0,-0.491264,0.613746],"scale":[0.22,6.94,0.22],"translation":[-44.66,22.62,-54.41]},{"extras":{"kind":"Cyl"},"mesh":3,"rotation":[-0.704104,0.0,-0.602194,0.376297],"scale":[0.19,6.93,0.19],"translation":[-46.38,21.34,-58.33]},{"extras":{"kind":"Sphere"},"mesh":7,"scale":[1.02,1.02,1.02],"translation":[-46.38,21.34,-58.33]},{"extras":{"kind":"Cyl"},"mesh":2,"rotation":[-0.616929,0.0,-0.776137,0.130424],"scale":[0.22,6.89,0.22],"translation":[-48.66,18.92,-61.56]},{"extras":{"kind":"Cyl"},"mesh":2,"rotation":[0.982473,0.0,-0.049124,0.179813],"scale":[0.21,6.75,0.21],"translation":[-52.98,16.6,-63.31]},{"extras":{"kind":"Cyl"},"mesh":2,"rotation":[-0.536786,0.0,-0.175162,0.825336],"scale":[0.21,6.79,0.21],"translation":[-29.16,1.18,-58.09]},{"extras":{"kind":"Cyl"},"mesh":2,"rotation":[-0.22873,0.0,-0.385701,0.893822],"scale":[0.21,6.79,0.21],"translation":[-26.03,0.37,-60.35]},{"extras":{"kind":"Cyl"},"mesh":2,"rotation":[0.018755,0.0,-0.375091,0.926798],"scale":[0.22,6.95,0.22],"translation":[-21.04,-1.48,-60.36]},{"extras":{"kind":"Cyl"},"mesh":2,"rotation":[0.308227,0.0,-0.237998,0.921061],"scale":[0.22,6.92,0.22],"translation":[-17.06,-1.87,-58.29]},{"extras":{"kind":"Cyl"},"mesh":2,"rotation":[0.474439,0.0,-0.023722,0.879969],"scale":[0.22,7.0,0.22],"translation":[-14.14,-2.87,-54.69]},{"extras":{"kind":"Cyl"},"mesh":2,"rotation":[0.523371,-0.0,0.270507,0.808028],"scale":[0.22,7.01,0.22],"translation":[-13.32,-5.02,-50.63]},{"extras":{"kind":"Cyl"},"mesh":2,"rotation":[0.412231,-0.0,0.582809,0.700285],"scale":[0.22,6.97,0.22],"translation":[-14.07,-7.14,-47.2]},{"extras":{"kind":"Cyl"},"mesh":3,"rotation":[-0.697098,0.0,-0.252142,0.671178],"scale":[0.17,6.01,0.17],"translation":[-1.87,-9.89,-54.07]},{"extras":{"kind":"Sphere"},"mesh":9,"scale":[0.88,0.88,0.88],"translation":[-2.99,-9.56,-50.98]},{"extras":{"kind":"Box"},"mesh":6,"rotation":[-0.697098,0.0,-0.252142,0.671178],"scale":[0.73,0.73,0.73],"translation":[-0.75,-10.21,-57.17]},{"extras":{"kind":"Cyl"},"mesh":2,"rotation":[-0.464637,0.0,-0.45173,0.761612],"scale":[0.21,6.81,0.21],"translation":[6.3,-0.13,-47.01]},{"extras":{"kind":"Cyl"},"mesh":3,"rotation":[0.710013,0.0,-0.624811,0.324796],"scale":[0.11,3.95,0.11],"translation":[2.88,-4.74,-39.71]},{"extras":{"kind":"Box"},"mesh":8,"rotation":[0.710013,0.0,-0.624811,0.324796],"scale":[0.48,0.48,0.48],"translation":[2.0,-3.02,-40.71]},{"extras":{"kind":"Cone"},"mesh":4,"rotation":[0.710013,0.0,-0.624811,0.324796],"scale":[0.58,0.58,0.58],"translation":[3.76,-6.45,-38.71]},{"extras":{"kind":"Cyl"},"mesh":2,"rotation":[-0.429715,0.0,-0.710683,0.557023],"scale":[0.22,6.97,0.22],"translation":[6.26,-1.7,-51.22]},{"extras":{"kind":"Cyl"},"mesh":2,"rotation":[-0.101463,0.0,-0.913169,0.394751],"scale":[0.22,7.12,0.22],"translation":[5.49,-5.29,-54.2]},{"extras":{"kind":"Cyl"},"mesh":2,"rotation":[0.531701,0.0,-0.751715,0.390152],"scale":[0.22,6.86,0.22],"translation":[3.76,-10.22,-54.62]},{"extras":{"kind":"Cyl"},"mesh":3,"rotation":[0.576647,-0.0,0.250716,0.777573],"scale":[0.19,6.99,0.19],"translation":[-2.08,-14.9,-53.0]},{"extras":{"kind":"Sphere"},"mesh":9,"scale":[1.03,1.03,1.03],"translation":[-2.08,-14.9,-53.0]},{"extras":{"kind":"Cyl"},"mesh":3,"rotation":[0.509676,-0.0,0.769147,0.385543],"scale":[0.19,6.97,0.19],"translation":[-2.9,-31.1,-50.75]},{"extras":{"kind":"Sphere"},"mesh":7,"scale":[1.02,1.02,1.02],"translation":[-2.9,-31.1,-50.75]},{"extras":{"kind":"Cyl"},"mesh":3,"rotation":[0.455546,-0.0,0.347354,0.819648],"scale":[0.17,6.04,0.17],"translation":[4.42,-13.17,-46.53]},{"extras":{"kind":"Box"},"mesh":6,"rotation":[0.455546,-0.0,0.347354,0.819648],"scale":[0.74,0.74,0.74],"translation":[6.31,-14.32,-49.01]},{"extras":{"kind":"Sphere"},"mesh":9,"scale":[0.89,0.89,0.89],"translation":[2.53,-12.02,-44.05]},{"extras":{"kind":"Cyl"},"mesh":3,"rotation":[0.950502,-0.0,0.009505,0.310574],"scale":[0.21,7.74,0.21],"translation":[10.17,-3.26,-41.83]},{"extras":{"kind":"Sphere"},"mesh":7,"scale":[1.14,1.14,1.14],"translation":[10.17,-3.26,-41.83]},{"extras":{"kind":"Cyl"},"mesh":2,"rotation":[0.384941,0.0,-0.908066,0.165038],"scale":[0.22,6.97,0.22],"translation":[13.41,-4.28,-39.74]},{"extras":{"kind":"Cyl"},"mesh":2,"rotation":[-0.776043,0.0,-0.548909,0.310574],"scale":[0.22,6.88,0.22],"translation":[17.25,-5.73,-40.02]},{"extras":{"kind":"Cyl"},"mesh":2,"rotation":[-0.839651,0.0,-0.227405,0.493228],"scale":[0.21,6.8,0.21],"translation":[22.04,-5.82,-41.02]},{"extras":{"kind":"Cyl"},"mesh":2,"rotation":[-0.753597,0.0,0.106569,0.64864],"scale":[0.21,6.81,0.21],"translation":[25.25,-3.87,-44.2]},{"extras":{"kind":"Cyl"},"mesh":2,"rotation":[-0.568429,0.0,0.326684,0.755093],"scale":[0.22,6.92,0.22],"translation":[26.78,-0.02,-47.58]},{"extras":{"kind":"Cyl"},"mesh":3,"rotation":[0.0,-0.0,0.741297,0.671178],"scale":[0.19,6.76,0.19],"translation":[-16.31,-11.53,-44.68]},{"extras":{"kind":"Sphere"},"mesh":7,"scale":[0.99,0.99,0.99],"translation":[-16.31,-11.53,-44.68]},{"extras":{"kind":"Cyl"},"mesh":2,"rotation":[-0.434617,0.0,0.644165,0.629412],"scale":[0.22,6.91,0.22],"translation":[-18.81,-15.12,-44.39]},{"extras":{"kind":"Cyl"},"mesh":2,"rotation":[-0.662686,0.0,0.353935,0.659983],"scale":[0.22,6.94,0.22],"translation":[-19.4,-19.61,-46.07]},{"extras":{"kind":"Cyl"},"mesh":2,"rotation":[-0.688887,0.0,0.006889,0.724836],"scale":[0.22,6.93,0.22],"translation":[-18.51,-23.33,-48.91]},{"extras":{"kind":"Cyl"},"mesh":2,"rotation":[-0.502918,0.0,-0.274319,0.819648],"scale":[0.22,6.93,0.22],"translation":[-15.54,-25.7,-51.51]},{"extras":{"kind":"Cyl"},"mesh":3,"rotation":[0.068965,0.0,-0.487683,0.870293],"scale":[0.17,6.14,0.17],"translation":[-11.23,-28.26,-49.07]},{"extras":{"kind":"Sphere"},"mesh":9,"scale":[0.9,0.9,0.9],"translation":[-14.1,-29.99,-49.46]},{"extras":{"kind":"Box"},"mesh":6,"rotation":[0.068965,0.0,-0.487683,0.870293],"scale":[0.75,0.75,0.75],"translation":[-8.36,-26.53,-48.67]}],"scene":0,"scenes":[{"nodes":[0]}]}
