#VRML V2.0 utf8

PROTO Label [
  field SFVec3f p 0 0 0
  field SFFloat sz 1.5
  field MFString c []
  field SFVec3f o 0 0 0
  field SFColor dc 0 0 0
  field SFColor ec 0 0 0
  field SFColor sc 0.0 0.0 0.0
  field SFFloat sh 1.0
  field SFFloat tr 0
]
{
  Transform {
    translation IS p
    children [
      Billboard {
        axisOfRotation 0 0 0
        children [
          Transform {
            translation IS o
            children [
              Shape {
                appearance Appearance {
                  material Material {
                    diffuseColor IS dc
                    emissiveColor IS ec
                    specularColor IS sc
                    shininess IS sh
                    transparency IS tr
                  }
                }
                geometry Text {
                  string IS c
                  fontStyle FontStyle {
                    style "BOLD"
                    justify "MIDDLE"
                    size IS sz
                  }
                }
              }
            ]
          }
        ]
      }
    ]
  }
}
PROTO Sphere [
  exposedField SFVec3f p 0 0 0
  field SFFloat rad 1.0
  field SFColor dc 1 0 0 
  field SFColor ec 0 0 0
  field SFColor sc 0 0 0
  field SFFloat sh 1
  field SFFloat tr 0
]
{
  Transform {
    translation IS p
    children [
      Shape {
        appearance Appearance {
          material Material {
            diffuseColor IS dc
            emissiveColor IS ec
            specularColor IS sc
            shininess IS sh
            transparency IS tr
          }
        }
        geometry Sphere {
          radius IS rad
        }
      }
    ]
  }
}
PROTO Box [
  exposedField SFVec3f p 0 0 0
  exposedField SFRotation r 0 0 1 0
  exposedField SFVec3f s 1 1 1
  field SFColor dc 1 0 0 
  field SFColor ec 0 0 0
  field SFColor sc 0 0 0
  field SFFloat sh 1
  field SFFloat tr 0
]
{
  Transform {
    translation IS p
    rotation IS r
    scale IS s
    children [
      Shape {
        appearance Appearance {
          material Material {
            diffuseColor IS dc
            emissiveColor IS ec
            specularColor IS sc
            shininess IS sh
            transparency IS tr
          }
        }
        geometry Box { }
      }
    ]
  }
}
PROTO Cyl [
  exposedField SFVec3f p 0 0 0
  exposedField SFRotation r 0 0 1 0
  exposedField SFVec3f s 1 1 1
  field SFColor dc 1 0 0
  field SFColor ec 0 0 0
  field SFColor sc 0 0 0
  field SFFloat sh 1
  field SFFloat tr 0
]
{
  Transform {
    translation IS p
    rotation IS r
    scale IS s
    children [
      Shape {
        appearance Appearance {
          material Material {
            diffuseColor IS dc
            emissiveColor IS ec
            specularColor IS sc
            shininess IS sh
            transparency IS tr
          }
        }
        geometry Cylinder { }
      }
    ]
  }
}
PROTO Cone [
  exposedField SFVec3f p 0 0 0
  exposedField SFRotation r 0 0 1 0
  exposedField SFVec3f s 1 1 1
  field SFColor dc 1 0 0 
  field SFColor ec 0 0 0
  field SFColor sc 0 0 0
  field SFFloat sh 1
  field SFFloat tr 0
]
{
  Transform {
    translation IS p
    rotation IS r
    scale IS s
    children [
      Shape {
        appearance Appearance {
          material Material {
            diffuseColor IS dc
            emissiveColor IS ec
            specularColor IS sc
            shininess IS sh
            transparency IS tr
          }
        }
        geometry Cone {
        }
      }
    ]
  }
}
Collision {
  collide FALSE
  children [
    
    Shape {
      appearance Appearance {
        material Material {
          diffuseColor 0.71 0.34 0.88
          transparency 1
        }
      }
      geometry IndexedLineSet {
        coord Coordinate {
          point [
            -11.13 -6.99 -49.53, -10.01 -2.68 -53.72, -7.16 2.23 -56.31
            -1.71 4.99 -56.71, 4.15 4.74 -55.72, 9.46 2.24 -53.73, 12.52 -2.88 -52.35
          ]
        }
        coordIndex [
          0 1 2 3 4 5 6 -1
        ]
        colorPerVertex FALSE
        color Color {
          color [
            0.71 0.34 0.88
          ]
        }
        colorIndex [
          0
        ]
      }
    }
Label { p  -11.13 -6.99 -49.53 c "  U" dc  0.000, 1.000, 1.000}
Label { p  -10.01 -2.68 -53.72 c "  A" dc  1.000, 0.000, 0.000}
Label { p  -7.16 2.23 -56.31 c "  G" dc  0.000, 1.000, 0.000}
Label { p  -1.71 4.99 -56.71 c "  C" dc  0.000, 0.000, 1.000}
Label { p  4.15 4.74 -55.72 c "  U" dc  0.000, 1.000, 1.000}
Label { p  9.46 2.24 -53.73 c "  C" dc  0.000, 0.000, 1.000}
Label { p  12.52 -2.88 -52.35 c "  C" dc  0.000, 0.000, 1.000}

    Shape {
      appearance Appearance {
        material Material {
          diffuseColor 1 1 0.5
          transparency 1
        }
      }
      geometry IndexedLineSet {
        coord Coordinate {
          point [
            1.87 -13.21 -50.34, 4.48 -9.57 -46.12, 5.95 -4.13 -43.78, 4.99 1.88 -43.59
            1.17 6.74 -44.42, -4.33 8.67 -46.08, -10.27 7.95 -47.62
          ]
        }
        coordIndex [
          0 1 2 3 4 5 6 -1
        ]
        colorPerVertex FALSE
        color Color {
          color [
            1 1 0.5
          ]
        }
        colorIndex [
          0
        ]
      }
    }
Label { p  1.87 -13.21 -50.34 c "  G" dc  0.000, 1.000, 0.000}
Label { p  4.48 -9.57 -46.12 c "  G" dc  0.000, 1.000, 0.000}
Label { p  5.95 -4.13 -43.78 c "  G" dc  0.000, 1.000, 0.000}
Label { p  4.99 1.88 -43.59 c "  G" dc  0.000, 1.000, 0.000}
Label { p  1.17 6.74 -44.42 c "  C" dc  0.000, 0.000, 1.000}
Label { p  -4.33 8.67 -46.08 c "  U" dc  0.000, 1.000, 1.000}
Label { p  -10.27 7.95 -47.62 c "  A" dc  1.000, 0.000, 0.000}
Cyl {p -10.70 0.48 -48.58  r  0.91 0.00 -0.41 0.14  s  0.22 6.86 0.22  tr  0.00}
 Cyl {p -7.17 3.00 -49.90  r  0.80 0.00 -0.60 0.70  s  0.21 6.73 0.21  tr  0.00}
 Cyl {p -2.99 4.48 -50.36  r  0.82 0.00 -0.57 1.27  s  0.22 6.91 0.22  tr  0.00}
 Cyl {p 1.64 3.43 -50.15  r  0.89 0.00 -0.46 1.78  s  0.22 6.84 0.22  tr  0.00}
 Cyl {p 5.05 0.31 -49.75  r  0.99 0.00 -0.15 2.20  s  0.19 6.81 0.19  tr  0.60}
 Sphere {p 5.05 0.31 -49.75  rad  1.00   dc 1 0 0  tr  0.00}
 Cyl {p 6.97 -3.66 -49.93  r  0.84 -0.00 0.55 2.49  s  0.21 6.78 0.21  tr  0.00}
 Cyl {p 7.20 -8.04 -51.34  r  0.19 -0.00 0.98 2.33  s  0.21 6.81 0.21  tr  0.00}
 
  ]
}
NavigationInfo {
  speed 4
  type [
    "EXAMINE" "FLY"
  ]
}
